<svg width="27" height="27" viewBox="0 0 27 27" fill="none" xmlns="http://www.w3.org/2000/svg">
<path d="M14.0505 15.1818H17.4144C18.3711 15.1818 18.9764 14.6555 18.9764 13.8097C18.9764 13.0121 18.3711 12.4375 17.4144 12.4375H14.0505C13.9391 12.4375 13.8438 12.5329 13.8438 12.6294V14.9899C13.8587 15.1014 13.938 15.1818 14.0505 15.1818ZM14.0505 20.6211H17.5258C18.5939 20.6211 19.2314 20.0787 19.2314 19.1214C19.2314 18.2917 18.6261 17.6217 17.5258 17.6217H14.0505C13.9391 17.6217 13.8438 17.7171 13.8438 17.8136V20.4142C13.8587 20.5418 13.938 20.6211 14.0505 20.6211Z" fill="#656565"/>
<path d="M26.3574 0.05864L16.4093 9.98104H18.0355C20.5702 9.98104 22.069 11.5762 22.069 13.3149C22.069 14.6871 21.1444 15.6916 20.1556 16.1386C19.996 16.2029 19.996 16.4259 20.1717 16.4891C21.3191 16.9362 22.1322 18.1325 22.1322 19.5357C22.1322 21.5136 20.8091 23.0926 18.2423 23.0926H11.1963C11.0849 23.0926 10.9895 22.9972 10.9895 22.9007V15.3871L0.0686139 26.2679C-0.0749413 26.4115 0.0204051 26.6667 0.228239 26.6667H26.4849C26.5803 26.6667 26.6606 26.5873 26.6606 26.4909V0.202288C26.7077 0.0264801 26.4849 -0.0689276 26.3574 0.05864Z" fill="#656565"/>
</svg>
