<svg width="24" height="27" viewBox="0 0 24 27" fill="none" xmlns="http://www.w3.org/2000/svg">
<path d="M20.8863 5.13484C20.8675 5.00018 20.7483 4.92547 20.6494 4.91733C20.5512 4.9092 18.6275 4.88035 18.6275 4.88035C18.6275 4.88035 17.0186 3.33855 16.8597 3.18171C16.7008 3.02487 16.3904 3.07222 16.2697 3.10773C16.2682 3.10847 15.9676 3.20021 15.4616 3.35483C15.3768 3.08406 15.2523 2.75113 15.0747 2.41673C14.502 1.33807 13.6631 0.767669 12.6495 0.766191C12.648 0.766191 12.6472 0.766191 12.6457 0.766191C12.5752 0.766191 12.5055 0.772846 12.4351 0.778766C12.4051 0.743255 12.3751 0.708486 12.3436 0.674447C11.902 0.208362 11.336 -0.0187633 10.6576 0.00121157C9.34859 0.0382028 8.04489 0.971123 6.98787 2.62833C6.24416 3.79428 5.67813 5.25916 5.51771 6.39329C4.01458 6.8527 2.96351 7.17381 2.94028 7.18123C2.18159 7.41643 2.1576 7.43939 2.05864 8.14517C1.98517 8.67857 0 23.8272 0 23.8272L16.6363 26.6667L23.8468 24.8977C23.8468 24.8977 20.905 5.26951 20.8863 5.13484ZM14.6287 3.60933C14.2456 3.72622 13.81 3.85939 13.3377 4.00366C13.3279 3.34965 13.2492 2.43967 12.9404 1.65324C13.9337 1.83893 14.4225 2.94793 14.6287 3.60933ZM12.4673 4.26999C11.5954 4.53631 10.644 4.82707 9.68974 5.11858C9.95812 4.10427 10.4671 3.09441 11.0924 2.43227C11.3248 2.18591 11.6501 1.91144 12.0355 1.75459C12.3976 2.50033 12.4763 3.55606 12.4673 4.26999ZM10.6838 0.860885C10.9912 0.854229 11.2498 0.920816 11.471 1.06434C11.1171 1.24559 10.7752 1.50602 10.4544 1.84559C9.62299 2.72598 8.98574 4.09244 8.73157 5.4108C7.93919 5.65271 7.164 5.89022 6.45029 6.10771C6.90088 4.03251 8.66336 0.918589 10.6838 0.860885Z" fill="#95BF47"/>
<path d="M20.6498 4.91901C20.5516 4.91088 18.6279 4.88203 18.6279 4.88203C18.6279 4.88203 17.0191 3.34023 16.8602 3.18339C16.801 3.12494 16.7207 3.09461 16.6367 3.08203L16.6375 26.6669L23.8473 24.8987C23.8473 24.8987 20.9055 5.27119 20.8867 5.13652C20.868 5.00186 20.7481 4.92714 20.6498 4.91901Z" fill="#5E8E3E"/>
<path d="M12.638 8.57693L11.8006 11.6686C11.8006 11.6686 10.8665 11.2492 9.75924 11.3179C8.13539 11.4193 8.11814 12.4299 8.13463 12.6837C8.22314 14.0664 11.9093 14.3683 12.1163 17.6072C12.2789 20.1552 10.7465 21.8982 8.53872 22.0358C5.88858 22.2007 4.42969 20.6582 4.42969 20.6582L4.99121 18.3011C4.99121 18.3011 6.45984 19.3946 7.63531 19.3213C8.40301 19.2732 8.67742 18.657 8.64969 18.2212C8.53422 16.4175 5.53247 16.5241 5.34282 13.5603C5.18311 11.0664 6.84293 8.53918 10.5051 8.31135C11.916 8.22182 12.638 8.57693 12.638 8.57693Z" fill="#FFF"/>
</svg>
