<svg width="55" height="110" viewBox="0 0 55 110" fill="none" xmlns="http://www.w3.org/2000/svg">
<path d="M27.1259 26L0.125 42.4523V78.4013C0.125 78.4013 2.50517 93.7421 21.6164 109.999V77.1627L10.7613 76.0945L6.20331 65.148C6.21922 65.148 27.1236 67.7978 27.1236 67.7978C27.1236 67.7978 48.0285 65.148 48.0439 65.148L43.487 76.094L32.6318 77.1622V110C51.1225 94.9874 54.125 78.4025 54.125 78.4025V42.4534L27.1259 26Z" fill="#262626"/>
<path d="M27.875 26L54.875 42.4526V78.4024C54.875 78.4024 51.8514 94.9883 33.3828 110V77.1626L44.238 76.095L48.7966 65.1477C48.7819 65.1477 27.8761 67.7963 27.8761 67.7963" fill="#0C0C0C"/>
<path d="M16 0H28V26L16 0Z" fill="#262626"/>
<path d="M40 0H28V26L40 0Z" fill="#0C0C0C"/>
</svg>
