<svg width="32" height="32" viewBox="0 0 32 32" fill="none" xmlns="http://www.w3.org/2000/svg">
<rect width="32" height="32" rx="4" fill="#DEE7FF"/>
<path d="M16.7185 17.8459H20.0824C21.0391 17.8459 21.6444 17.3195 21.6444 16.4737C21.6444 15.6762 21.0391 15.1016 20.0824 15.1016H16.7185C16.6071 15.1016 16.5117 15.197 16.5117 15.2935V17.654C16.5267 17.7655 16.606 17.8459 16.7185 17.8459ZM16.7185 23.2852H20.1938C21.2619 23.2852 21.8993 22.7428 21.8993 21.7855C21.8993 20.9557 21.294 20.2857 20.1938 20.2857H16.7185C16.6071 20.2857 16.5117 20.3811 16.5117 20.4776V23.0783C16.5267 23.2059 16.606 23.2852 16.7185 23.2852Z" fill="#656565"/>
<path d="M29.0254 2.7227L19.0772 12.6451H20.7035C23.2382 12.6451 24.737 14.2402 24.737 15.979C24.737 17.3512 23.8124 18.3556 22.8236 18.8027C22.664 18.867 22.664 19.0899 22.8397 19.1532C23.987 19.6002 24.8002 20.7966 24.8002 22.1998C24.8002 24.1776 23.4771 25.7567 20.9102 25.7567H13.8643C13.7528 25.7567 13.6575 25.6613 13.6575 25.5648V18.0512L2.73658 28.9319C2.59303 29.0756 2.68837 29.3307 2.89621 29.3307H29.1529C29.2482 29.3307 29.3286 29.2514 29.3286 29.1549V2.86635C29.3757 2.69054 29.1529 2.59513 29.0254 2.7227Z" fill="#34313F"/>
</svg>
