<svg width="32" height="32" viewBox="0 0 32 32" fill="none" xmlns="http://www.w3.org/2000/svg">
<rect width="32" height="32" rx="4" fill="#EFFFD2"/>
<path d="M25.1675 7.79891C25.1488 7.66424 25.0296 7.58953 24.9306 7.58139C24.8325 7.57326 22.9088 7.54442 22.9088 7.54442C22.9088 7.54442 21.2999 6.00262 21.1409 5.84578C20.9821 5.68894 20.6716 5.73628 20.551 5.77179C20.5495 5.77253 20.2488 5.86427 19.7428 6.01889C19.6581 5.74812 19.5336 5.4152 19.3559 5.0808C18.7832 4.00213 17.9443 3.43173 16.9307 3.43025C16.9292 3.43025 16.9285 3.43025 16.927 3.43025C16.8565 3.43025 16.7867 3.43691 16.7163 3.44283C16.6863 3.40732 16.6564 3.37255 16.6248 3.33851C16.1832 2.87242 15.6173 2.6453 14.9388 2.66527C13.6298 2.70227 12.3261 3.63519 11.2691 5.29239C10.5254 6.45835 9.95938 7.92322 9.79896 9.05735C8.29583 9.51677 7.24476 9.83787 7.22153 9.84529C6.46284 10.0805 6.43885 10.1035 6.33989 10.8092C6.26642 11.3426 4.28125 26.4913 4.28125 26.4913L20.9176 29.3307L28.1281 27.5618C28.1281 27.5618 25.1862 7.93357 25.1675 7.79891ZM18.9099 6.27339C18.5268 6.39029 18.0912 6.52345 17.6189 6.66772C17.6092 6.01371 17.5305 5.10373 17.2216 4.3173C18.2149 4.50299 18.7037 5.61199 18.9099 6.27339ZM16.7485 6.93405C15.8767 7.20037 14.9253 7.49113 13.971 7.78264C14.2394 6.76833 14.7484 5.75847 15.3737 5.09633C15.606 4.84997 15.9314 4.5755 16.3167 4.41865C16.6788 5.16439 16.7576 6.22012 16.7485 6.93405ZM14.965 3.52495C15.2724 3.51829 15.5311 3.58488 15.7522 3.7284C15.3983 3.90965 15.0565 4.17008 14.7356 4.50966C13.9042 5.39005 13.267 6.7565 13.0128 8.07486C12.2204 8.31677 11.4452 8.55428 10.7315 8.77178C11.1821 6.69657 12.9446 3.58265 14.965 3.52495Z" fill="#95BF47"/>
<path d="M24.9311 7.58307C24.8329 7.57494 22.9092 7.5461 22.9092 7.5461C22.9092 7.5461 21.3004 6.0043 21.1414 5.84745C21.0822 5.789 21.002 5.75867 20.918 5.74609L20.9188 29.331L28.1285 27.5628C28.1285 27.5628 25.1867 7.93525 25.168 7.80059C25.1492 7.66592 25.0293 7.59121 24.9311 7.58307Z" fill="#5E8E3E"/>
<path d="M16.9193 11.241L16.0819 14.3327C16.0819 14.3327 15.1478 13.9132 14.0405 13.982C12.4166 14.0834 12.3994 15.094 12.4159 15.3478C12.5044 16.7304 16.1906 17.0323 16.3975 20.2713C16.5601 22.8192 15.0278 24.5622 12.82 24.6998C10.1698 24.8648 8.71094 23.3223 8.71094 23.3223L9.27246 20.9652C9.27246 20.9652 10.7411 22.0587 11.9166 21.9854C12.6843 21.9373 12.9587 21.3211 12.9309 20.8853C12.8155 19.0816 9.81372 19.1881 9.62407 16.2244C9.46436 13.7305 11.1242 11.2032 14.7864 10.9754C16.1973 10.8859 16.9193 11.241 16.9193 11.241Z" fill="white"/>
</svg>
