<svg width="32" height="32" viewBox="0 0 32 32" fill="none" xmlns="http://www.w3.org/2000/svg">
<rect width="32" height="32" rx="4" fill="#FFE3ED"/>
<path fill-rule="evenodd" clip-rule="evenodd" d="M29.0989 7.08417L19.1181 26.8554C18.3469 28.3837 16.2658 28.3808 15.4977 26.8508L13.3146 22.5004L11.5746 25.9483C11.4617 26.1729 11.2929 26.3608 11.0859 26.4917C10.8793 26.6229 10.6425 26.6921 10.4012 26.6921C10.1596 26.6921 9.92316 26.6229 9.71619 26.4917C9.50961 26.3608 9.34081 26.1729 9.22748 25.9483L2.82115 13.1837C2.71451 12.9708 2.66218 12.7325 2.66848 12.4921C2.67517 12.2512 2.74088 12.0167 2.85892 11.8104C2.97697 11.6042 3.14381 11.4337 3.34291 11.3154C3.54201 11.1971 3.76669 11.135 3.9957 11.1346H7.60632L5.6145 7.16458C4.89206 5.72792 5.88089 4 7.42493 4H27.3376C28.8415 4 29.8044 5.68583 29.0989 7.08417ZM18.4933 11.9987C18.4893 11.8425 18.4468 11.69 18.3705 11.5562C18.2942 11.4225 18.186 11.3117 18.0569 11.2346C17.9278 11.1579 17.7819 11.1175 17.6335 11.1175H9.04412C8.89184 11.1179 8.74231 11.1596 8.6101 11.2387C8.4775 11.3179 8.36693 11.4317 8.28863 11.5692C8.21032 11.7067 8.16704 11.8629 8.1631 12.0229C8.15917 12.1833 8.19419 12.3417 8.26541 12.4833L12.5276 20.9742C12.6028 21.1237 12.7153 21.2483 12.8531 21.3358C12.9904 21.4229 13.1478 21.4687 13.3083 21.4687C13.4689 21.4687 13.6266 21.4229 13.764 21.3358C13.9017 21.2483 14.0138 21.1237 14.0894 20.9742L18.3929 12.4475C18.4626 12.3096 18.4968 12.155 18.4933 11.9987Z" fill="#F71963"/>
</svg>
