<svg width="32" height="32" viewBox="0 0 32 32" fill="none" xmlns="http://www.w3.org/2000/svg">
<path d="M29.3346 14.5198V11.5569H26.3717V8.59389C26.3693 7.80879 26.0564 7.05651 25.5013 6.50135C24.9461 5.9462 24.1938 5.63328 23.4087 5.63093H20.4457V2.66797H17.4828V5.63093H14.5198V2.66797H11.5569V5.63093H8.59389C7.80879 5.63328 7.05651 5.9462 6.50135 6.50135C5.9462 7.05651 5.63328 7.80879 5.63093 8.59389V11.5569H2.66797V14.5198H5.63093V17.4828H2.66797V20.4457H5.63093V23.4087C5.63328 24.1938 5.9462 24.9461 6.50135 25.5013C7.05651 26.0564 7.80879 26.3693 8.59389 26.3717H11.5569V29.3346H14.5198V26.3717H17.4828V29.3346H20.4457V26.3717H23.4087C24.1938 26.3693 24.9461 26.0564 25.5013 25.5013C26.0564 24.9461 26.3693 24.1938 26.3717 23.4087V20.4457H29.3346V17.4828H26.3717V14.5198H29.3346ZM23.4087 23.4087H8.59389V8.59389H23.4087V23.4087Z" fill="#873AFF"/>
<path d="M15.1491 10.668H13.3558L10.6758 21.3346H12.0451L12.6638 18.8346H15.7518L16.3544 21.3346H17.7704L15.1491 10.668ZM12.8438 17.7666L14.2011 11.9346H14.2624L15.5731 17.7666H12.8438ZM18.9931 10.668H20.3264V21.3346H18.9931V10.668Z" fill="#873AFF"/>
</svg>
