<svg width="32" height="15" viewBox="0 0 32 15" fill="none" xmlns="http://www.w3.org/2000/svg">
<path d="M10.7222 10.6922L12.9865 10.8586V12.7889C12.9865 12.7889 8.75567 16.9477 2.59082 12.0237H4.69161L4.92443 10.127C4.92443 10.127 7.32193 12.5554 10.7222 10.6922Z" fill="#0D2C40"/>
<path d="M3.05464 1.77441C3.05464 1.77441 -1.54653 6.04995 2.22082 11.5241L4.32377 11.724L4.52411 9.69431C4.52411 9.69431 2.59116 6.53305 5.08829 4.03755L2.84889 3.86463L3.05464 1.77441Z" fill="#0D2C40"/>
<path d="M3.55507 1.47517C3.55507 1.47517 9.29434 -2.21783 13.6573 2.24036L11.7232 2.10742L11.5229 4.26897C11.5229 4.26897 9.3225 1.60811 5.65586 3.6713L3.42188 3.57187L3.55507 1.47517Z" fill="#0D2C40"/>
<path d="M12.0234 4.8019L12.1566 2.57227L14.1903 2.77221L20.3248 9.59296H18.2251L18.0248 11.4897L12.0234 4.8019Z" fill="#0D2C40"/>
<path d="M11.291 10.3266L19.0585 1.77441L21.1257 1.97436L20.9926 4.07105L13.3582 12.5551L13.3907 10.359L11.291 10.3266Z" fill="#02D35F"/>
<path d="M19.3574 1.4666L21.508 1.64169L21.3586 3.68867C21.3586 3.68867 24.5336 1.66654 26.8596 3.81296L29.1337 3.91239L29.3383 1.91944C29.3383 1.91944 25.7843 -2.07941 19.3574 1.4666Z" fill="#02D35F"/>
<path d="M27.1847 4.13752L29.4587 4.27046L29.6342 2.26562C29.6342 2.26562 34.61 7.7981 29.2335 12.5557L27.0342 12.4033L27.2345 10.1336C27.2345 10.1336 30.2103 6.80811 27.1847 4.13752Z" fill="#02D35F"/>
<path d="M20.8602 10.1257L18.5634 9.92578L18.4346 11.9479C18.4346 11.9479 22.5105 16.6395 28.6613 12.8957L26.5605 12.7261L26.7608 10.5548C26.7608 10.5548 24.085 12.6958 20.8602 10.1257Z" fill="#02D35F"/>
</svg>
