<svg width="28" height="28" viewBox="0 0 28 28" fill="none" xmlns="http://www.w3.org/2000/svg">
<path d="M11.5023 14.8349C11.5023 14.8349 10.784 15.253 12.0144 15.3943C13.505 15.5645 14.2669 15.54 15.9093 15.2295C15.9093 15.2295 16.3422 15.5001 16.9451 15.7346C13.2622 17.3125 8.60981 15.6432 11.5023 14.8349ZM11.0519 12.7754C11.0519 12.7754 10.2461 13.3724 11.4774 13.4997C13.0699 13.664 14.3271 13.6775 16.5041 13.2584C16.5041 13.2584 16.8044 13.5638 17.2776 13.7302C12.8256 15.0327 7.86671 13.8328 11.0519 12.7754Z" fill="#0074BD"/>
<path d="M14.8457 9.28188C15.7538 10.3271 14.6077 11.2668 14.6077 11.2668C14.6077 11.2668 16.9118 10.0775 15.8537 8.58757C14.8652 7.19873 14.1077 6.50901 18.2099 4.12988C18.2101 4.12988 11.7703 5.7377 14.8457 9.28188Z" fill="#EA2D2E"/>
<path d="M19.7163 16.3582C19.7163 16.3582 20.2483 16.7968 19.1305 17.1359C17.0052 17.7796 10.2834 17.9739 8.41637 17.1615C7.74568 16.8694 9.00415 16.4643 9.39987 16.3792C9.81265 16.2897 10.0485 16.3061 10.0485 16.3061C9.30209 15.7805 5.22393 17.3384 7.97712 17.7853C15.4855 19.0022 21.6637 17.2371 19.7163 16.3582ZM11.8479 10.6414C11.8479 10.6414 8.42906 11.4536 10.6373 11.7489C11.5701 11.8736 13.4282 11.845 15.1602 11.6997C16.5753 11.5809 17.9954 11.327 17.9954 11.327C17.9954 11.327 17.4969 11.5409 17.1357 11.7872C13.6633 12.7005 6.95665 12.275 8.88756 11.3414C10.5201 10.5515 11.8479 10.6414 11.8479 10.6414ZM17.9812 14.0692C21.5107 12.2356 19.8787 10.4734 18.7396 10.7107C18.4612 10.7689 18.336 10.8192 18.336 10.8192C18.336 10.8192 18.4399 10.6565 18.6375 10.5867C20.891 9.79483 22.6237 12.9232 17.9108 14.1622C17.9108 14.1622 17.9648 14.1132 17.9812 14.0692Z" fill="#0074BD"/>
<path d="M15.8535 0.287109C15.8535 0.287109 17.8081 2.24252 13.9994 5.2488C10.9452 7.66095 13.3029 9.03602 13.9981 10.6077C12.2153 8.99905 10.9076 7.58286 11.7848 6.26511C13.073 4.33092 16.6419 3.3927 15.8535 0.287109Z" fill="#EA2D2E"/>
<path d="M12.1947 19.0397C15.5818 19.2563 20.7848 18.9192 20.908 17.3164C20.908 17.3164 20.6713 17.9239 18.1082 18.406C15.2167 18.9502 11.65 18.887 9.53516 18.5379C9.53516 18.5379 9.96828 18.8967 12.1947 19.0397Z" fill="#0074BD"/>
<path d="M20.7516 21.915H20.6484V21.8573H20.9262V21.915H20.8234V22.2031H20.7514L20.7516 21.915ZM21.3062 21.9294H21.3049L21.2025 22.2031H21.1552L21.0535 21.9294H21.0524V22.2031H20.9842V21.8573H21.0841L21.1784 22.102L21.2729 21.8573H21.3722V22.2031H21.3062V21.9294ZM11.6396 25.1648C11.3202 25.4417 10.9825 25.5974 10.6791 25.5974C10.2473 25.5974 10.013 25.338 10.013 24.9226C10.013 24.4731 10.2637 24.1438 11.2682 24.1438H11.6394V25.1648H11.6396ZM12.5214 26.1596V23.0803C12.5214 22.293 12.0723 21.7737 10.9908 21.7737C10.3595 21.7737 9.80605 21.9299 9.35608 22.1285L9.48558 22.6738C9.83995 22.5437 10.2982 22.4229 10.748 22.4229C11.3714 22.4229 11.6394 22.6738 11.6394 23.1932V23.5823H11.3279C9.81392 23.5823 9.13077 24.1697 9.13077 25.053C9.13077 25.814 9.58095 26.2465 10.4286 26.2465C10.9733 26.2465 11.3804 26.0216 11.7604 25.6924L11.8295 26.1598H12.5214V26.1596ZM15.464 26.1596H14.3644L13.0407 21.8527H14.0012L14.8229 24.4993L15.0055 25.2945C15.4203 24.1443 15.7143 22.9766 15.8613 21.8529H16.7955C16.5455 23.2706 16.0949 24.8274 15.464 26.1596ZM19.6833 25.1648C19.3628 25.4417 19.0248 25.5974 18.7225 25.5974C18.2903 25.5974 18.0562 25.338 18.0562 24.9226C18.0562 24.4731 18.3075 24.1438 19.311 24.1438H19.683V25.1648H19.6833ZM20.5655 26.1596V23.0803C20.5655 22.293 20.1151 21.7737 19.0345 21.7737C18.4025 21.7737 17.8493 21.9299 17.3993 22.1285L17.529 22.6738C17.8834 22.5437 18.3423 22.4229 18.7921 22.4229C19.4146 22.4229 19.6833 22.6738 19.6833 23.1932V23.5823H19.3718C17.8574 23.5823 17.1744 24.1697 17.1744 25.053C17.1744 25.814 17.6242 26.2465 18.4716 26.2465C19.0165 26.2465 19.423 26.0216 19.804 25.6924L19.8736 26.1598H20.5655V26.1596ZM8.16389 26.8916C7.91298 27.2588 7.50655 27.5496 7.06205 27.7134L6.62695 27.2004C6.96536 27.0268 7.2552 26.7465 7.39017 26.4853C7.50655 26.2528 7.55489 25.9538 7.55489 25.2383V20.3203H8.49202V25.1707C8.49202 26.1277 8.41589 26.5147 8.16389 26.8916Z" fill="#EA2D2E"/>
</svg>
