<svg width="18" height="28" viewBox="0 0 18 28" fill="none" xmlns="http://www.w3.org/2000/svg">
<path d="M15 0.25H3C2.27167 0.253288 1.5741 0.544075 1.05909 1.05909C0.544076 1.5741 0.253288 2.27167 0.25 3V25C0.253288 25.7283 0.544076 26.4259 1.05909 26.9409C1.5741 27.4559 2.27167 27.7467 3 27.75H15C15.7283 27.7467 16.4259 27.4559 16.9409 26.9409C17.4559 26.4259 17.7467 25.7283 17.75 25V3C17.7467 2.27167 17.4559 1.5741 16.9409 1.05909C16.4259 0.544075 15.7283 0.253288 15 0.25ZM16.25 25C16.25 25.3315 16.1183 25.6495 15.8839 25.8839C15.6495 26.1183 15.3315 26.25 15 26.25H3C2.66848 26.25 2.35054 26.1183 2.11612 25.8839C1.8817 25.6495 1.75 25.3315 1.75 25V3C1.75 2.66848 1.8817 2.35054 2.11612 2.11612C2.35054 1.8817 2.66848 1.75 3 1.75H15C15.3315 1.75 15.6495 1.8817 15.8839 2.11612C16.1183 2.35054 16.25 2.66848 16.25 3V25ZM13.75 5C13.75 5.19891 13.671 5.38968 13.5303 5.53033C13.3897 5.67098 13.1989 5.75 13 5.75H5C4.80109 5.75 4.61032 5.67098 4.46967 5.53033C4.32902 5.38968 4.25 5.19891 4.25 5C4.25 4.80109 4.32902 4.61032 4.46967 4.46967C4.61032 4.32902 4.80109 4.25 5 4.25H13C13.1989 4.25 13.3897 4.32902 13.5303 4.46967C13.671 4.61032 13.75 4.80109 13.75 5Z" fill="#E40009"/>
</svg>
