<svg width="29" height="26" viewBox="0 0 29 26" fill="none" xmlns="http://www.w3.org/2000/svg">
<path d="M11.9084 26.0013C11.5692 26.0013 11.2323 25.9123 10.9348 25.7411L7.83576 23.9063C7.37289 23.6474 7.59875 23.5559 7.75141 23.5031C8.36858 23.287 8.49382 23.2382 9.15258 22.8641C9.22182 22.8246 9.31244 22.8386 9.38332 22.8804L11.7641 24.2932C11.8501 24.3397 11.9721 24.3397 12.0518 24.2932L21.3348 18.9348C21.4208 18.886 21.4766 18.7861 21.4766 18.6839V7.97181C21.4766 7.86492 21.4208 7.76965 21.333 7.7162L12.0537 2.3625C11.9677 2.31138 11.8538 2.31138 11.7679 2.3625L2.49041 7.7162C2.40049 7.76732 2.34333 7.86724 2.34333 7.96948V18.6815C2.34333 18.7838 2.39909 18.8814 2.48739 18.9302L5.02948 20.3987C6.40973 21.0889 7.25322 20.2756 7.25322 19.4576V8.885C7.25322 8.73396 7.37172 8.61778 7.52276 8.61778H8.69853C8.84492 8.61778 8.96575 8.73396 8.96575 8.885V19.4623C8.96575 21.3026 7.96193 22.3599 6.21687 22.3599C5.6801 22.3599 5.25719 22.3599 4.07678 21.779L1.64158 20.3755C1.03975 20.0269 0.667969 19.3763 0.667969 18.6815V7.96948C0.667969 7.27238 1.03975 6.62176 1.64158 6.27786L10.9339 0.917181C11.5218 0.584898 12.3025 0.584898 12.8858 0.917181L22.1665 6.28018C22.766 6.62641 23.1401 7.27471 23.1401 7.97181V18.6839C23.1401 19.3786 22.766 20.0269 22.1665 20.3755L12.8858 25.7362C12.5883 25.9081 12.2514 25.9964 11.9075 25.9964" fill="#6A8D66"/>
<path d="M14.7767 18.6187C10.7149 18.6187 9.86328 16.7542 9.86328 15.1903C9.86328 15.0416 9.98318 14.9231 10.1321 14.9231H11.3311C11.4636 14.9231 11.5751 15.0195 11.596 15.1504C11.7773 16.3721 12.3164 16.9884 14.7725 16.9884C16.729 16.9884 17.5609 16.5464 17.5609 15.5089C17.5609 14.9117 17.3239 14.4679 14.2845 14.1705C11.7424 13.9195 10.1716 13.3595 10.1716 11.3263C10.1716 9.45345 11.7517 8.33809 14.3984 8.33809C17.3703 8.33809 18.8435 9.3698 19.0294 11.5866C19.0364 11.6632 19.0085 11.7376 18.9574 11.7934C18.9063 11.8468 18.8342 11.8793 18.7599 11.8793H17.5539C17.4284 11.8793 17.3192 11.791 17.2936 11.6702C17.0032 10.3852 16.3014 9.97395 14.3937 9.97395C12.2583 9.97395 12.0096 10.7175 12.0096 11.2752C12.0096 11.9514 12.3024 12.1489 15.1838 12.53C18.0372 12.9087 19.3919 13.4432 19.3919 15.4485C19.3919 17.4701 17.7049 18.6296 14.7632 18.6296M26.0701 7.26921H26.3815C26.6371 7.26921 26.6859 7.09029 26.6859 6.98572C26.6859 6.71153 26.4977 6.71153 26.3931 6.71153H26.0724L26.0701 7.26921ZM25.6913 6.39087H26.3815C26.6185 6.39087 27.0832 6.39087 27.0832 6.92066C27.0832 7.29012 26.8462 7.3668 26.7045 7.41327C26.981 7.43186 26.9996 7.61311 27.0367 7.86871C27.0553 8.02905 27.0855 8.30556 27.1413 8.39851H26.7161C26.7045 8.30556 26.6394 7.79436 26.6394 7.76647C26.6115 7.65261 26.572 7.59685 26.4303 7.59685H26.0794V8.40083H25.6913V6.39087ZM24.8618 7.39004C24.8618 8.22191 25.5333 8.89577 26.3582 8.89577C27.1901 8.89577 27.8616 8.20797 27.8616 7.39004C27.8616 6.55585 27.1808 5.8936 26.3559 5.8936C25.5426 5.8936 24.8595 6.54655 24.8595 7.38771M28.1498 7.39469C28.1498 8.37992 27.3435 9.18391 26.3606 9.18391C25.3846 9.18391 24.5713 8.38921 24.5713 7.39469C24.5713 6.38157 25.4032 5.60547 26.3606 5.60547C27.3249 5.60547 28.1475 6.38389 28.1475 7.39469" fill="#6A8D66"/>
</svg>
