<svg width="25" height="25" viewBox="0 0 25 25" fill="none" xmlns="http://www.w3.org/2000/svg">
<path d="M6.71306 19.0879L10.3242 15.4768L9.1247 14.2773L5.5136 17.8884L4.84092 17.2158C4.68184 17.0567 4.46612 16.9674 4.24119 16.9674C4.01626 16.9674 3.80053 17.0567 3.64146 17.2158L0.248363 20.6089C0.0893364 20.7679 0 20.9837 0 21.2086C0 21.4335 0.0893364 21.6492 0.248363 21.8083L2.79319 24.3531C2.95226 24.5122 3.16798 24.6015 3.39292 24.6015C3.61785 24.6015 3.83357 24.5122 3.99265 24.3531L7.38574 20.96C7.54477 20.801 7.63411 20.5852 7.63411 20.3603C7.63411 20.1354 7.54477 19.9197 7.38574 19.7606L6.71306 19.0879ZM3.39292 22.554L2.04755 21.2086L4.24119 19.015L5.58655 20.3603L3.39292 22.554Z" fill="#5C71A7"/>
<path d="M19.5096 23.7514C18.1602 23.7498 16.8666 23.2131 15.9124 22.2589C14.9583 21.3047 14.4215 20.0111 14.4199 18.6617C14.4203 18.2183 14.4802 17.7769 14.5981 17.3494L7.25033 10.0008C6.82256 10.1187 6.38091 10.1786 5.9372 10.179C5.10796 10.1823 4.29056 9.98211 3.55667 9.59601C2.82279 9.2099 2.19482 8.64966 1.72785 7.96439C1.26087 7.27912 0.969132 6.48975 0.878216 5.66549C0.7873 4.84124 0.899981 4.00726 1.20638 3.23669L1.67972 2.03129L4.4892 4.84078C4.65064 4.99494 4.86528 5.08096 5.08851 5.08096C5.31173 5.08096 5.52637 4.99494 5.68781 4.84078C5.76665 4.76207 5.8292 4.66858 5.87188 4.56567C5.91456 4.46277 5.93653 4.35245 5.93653 4.24105C5.93653 4.12964 5.91456 4.01932 5.87188 3.91642C5.8292 3.81351 5.76665 3.72003 5.68781 3.64132L2.87918 0.830134L4.08627 0.357645C4.85683 0.0517942 5.69064 -0.0604352 6.51465 0.0307888C7.33865 0.122013 8.12772 0.413907 8.81272 0.880901C9.49772 1.34789 10.0578 1.97574 10.4438 2.70943C10.8298 3.44313 11.03 4.26028 11.0268 5.08932C11.0265 5.53275 10.9666 5.97412 10.8487 6.4016L18.1973 13.7502C18.6248 13.6325 19.0662 13.5726 19.5096 13.5721C20.3388 13.5687 21.1562 13.7689 21.8901 14.155C22.624 14.5411 23.252 15.1014 23.719 15.7866C24.1859 16.4719 24.4777 17.2613 24.5686 18.0855C24.6595 18.9098 24.5468 19.7438 24.2404 20.5143L23.7679 21.7197L20.9576 18.9103C20.7962 18.7561 20.5815 18.6701 20.3583 18.6701C20.1351 18.6701 19.9204 18.7561 19.759 18.9103C19.6801 18.9889 19.6175 19.0823 19.5747 19.1852C19.532 19.2881 19.5099 19.3984 19.5098 19.5098C19.5098 19.6212 19.5317 19.7315 19.5743 19.8345C19.6169 19.9374 19.6793 20.0309 19.7581 20.1097L22.5685 22.92L21.3622 23.3934C20.7726 23.6279 20.1441 23.7493 19.5096 23.7514ZM7.68635 8.03792L16.5601 16.9117L16.3574 17.4292C16.1587 17.9258 16.0811 18.4626 16.1308 18.9952C16.1806 19.5278 16.3564 20.0409 16.6436 20.4922C16.9308 20.9434 17.3213 21.3199 17.7828 21.5904C18.2443 21.8609 18.7635 22.0178 19.2975 22.048L18.5587 21.31C18.3223 21.0737 18.1348 20.7931 18.0069 20.4844C17.879 20.1756 17.8132 19.8446 17.8132 19.5104C17.8132 19.1762 17.879 18.8452 18.0069 18.5364C18.1348 18.2277 18.3223 17.9471 18.5587 17.7108C19.0435 17.2479 19.688 16.9896 20.3583 16.9896C21.0286 16.9896 21.6731 17.2479 22.1579 17.7108L22.8959 18.4496C22.8655 17.9155 22.7086 17.3963 22.4379 16.9349C22.1673 16.4734 21.7908 16.083 21.3395 15.7957C20.8882 15.5085 20.375 15.3328 19.8424 15.283C19.3097 15.2332 18.7729 15.3109 18.2762 15.5095L17.7596 15.7123L8.88665 6.83931L9.09024 6.32186C9.28893 5.82514 9.36658 5.28828 9.31677 4.75562C9.26696 4.22296 9.09112 3.7098 8.80378 3.25853C8.51645 2.80726 8.12586 2.43083 7.66429 2.16036C7.20271 1.88988 6.68341 1.73311 6.14927 1.70301L6.88727 2.44101C7.12363 2.67732 7.31111 2.95788 7.43903 3.26666C7.56695 3.57544 7.63278 3.90639 7.63278 4.24062C7.63278 4.57485 7.56695 4.9058 7.43903 5.21458C7.31111 5.52336 7.12363 5.80392 6.88727 6.04024C6.40248 6.50314 5.75796 6.76143 5.08766 6.76143C4.41736 6.76143 3.77283 6.50314 3.28804 6.04024L2.55005 5.30139C2.58028 5.83545 2.73714 6.35466 3.00767 6.81612C3.2782 7.27759 3.65464 7.66807 4.10589 7.95531C4.55714 8.24255 5.07026 8.41831 5.60285 8.46808C6.13545 8.51784 6.67224 8.44018 7.1689 8.24151L7.68635 8.03792Z" fill="#5C71A7"/>
<path d="M23.8545 0.721198C23.3697 0.258293 22.7252 0 22.0549 0C21.3846 0 20.74 0.258293 20.2552 0.721198L13.9102 7.06629L15.1096 8.26575L21.4547 1.92066C21.6163 1.76644 21.8311 1.68039 22.0544 1.68039C22.2778 1.68039 22.4926 1.76644 22.6542 1.92066C22.8128 2.07995 22.9018 2.29559 22.9018 2.52039C22.9018 2.74518 22.8128 2.96082 22.6542 3.12012L16.3091 9.46521L17.5085 10.6655L23.8536 4.32043C24.3303 3.84284 24.5981 3.19561 24.5981 2.52081C24.5981 1.84601 24.3303 1.19879 23.8536 0.721198H23.8545Z" fill="#5C71A7"/>
</svg>
