<svg width="29" height="30" viewBox="0 0 29 30" fill="none" xmlns="http://www.w3.org/2000/svg">
<path d="M14.547 17.5863C15.9753 17.5863 17.1331 16.4284 17.1331 15.0002C17.1331 13.5719 15.9753 12.4141 14.547 12.4141C13.1188 12.4141 11.9609 13.5719 11.9609 15.0002C11.9609 16.4284 13.1188 17.5863 14.547 17.5863Z" fill="#31CEF9"/>
<path d="M14.5446 20.2998C22.2084 20.2998 28.4212 17.9277 28.4212 15.0015C28.4212 12.0753 22.2084 9.70312 14.5446 9.70312C6.88074 9.70312 0.667969 12.0753 0.667969 15.0015C0.667969 17.9277 6.88074 20.2998 14.5446 20.2998Z" stroke="#31CEF9"/>
<path d="M9.95272 17.6479C13.7846 24.285 18.9454 28.4793 21.4795 27.0162C24.0137 25.5531 22.9616 18.9866 19.1297 12.3495C15.2978 5.71245 10.1371 1.51811 7.60291 2.9812C5.06875 4.4443 6.1208 11.0108 9.95272 17.6479Z" stroke="#31CEF9"/>
<path d="M9.95501 12.3481C6.12309 18.9851 5.07105 25.5516 7.6052 27.0147C10.1394 28.4778 15.3001 24.2835 19.132 17.6464C22.9639 11.0093 24.016 4.44283 21.4818 2.97974C18.9477 1.51664 13.7869 5.71098 9.95501 12.3481Z" stroke="#31CEF9"/>
</svg>
