<svg width="28" height="28" viewBox="0 0 28 28" fill="none" xmlns="http://www.w3.org/2000/svg">
<path d="M21.8752 13.4092C21.8752 11.9676 21.3567 10.9697 20.913 10.1928L20.777 9.97184C20.2381 9.10484 19.7672 8.34324 19.7672 7.45584C19.7672 6.38484 20.5798 5.38524 21.7256 5.38524C21.7596 5.38524 21.7919 5.38864 21.8242 5.39034L21.8769 5.39544C19.7284 3.42198 16.9164 2.32849 13.9991 2.33204C12.0657 2.33105 10.1623 2.81114 8.46066 3.72905C6.75898 4.64696 5.31242 5.97385 4.25134 7.59014C4.52334 7.59864 4.78344 7.60544 5.00274 7.60544C6.22164 7.60544 8.11034 7.45754 8.11034 7.45754C8.73934 7.42014 8.81414 8.34324 8.18514 8.41804C8.18514 8.41804 7.55444 8.49284 6.85064 8.52854L11.1006 21.1663L13.6506 13.5061L11.8316 8.52684C11.2043 8.48944 10.6093 8.41634 10.6093 8.41634C9.98034 8.37894 10.0551 7.41674 10.6824 7.45414C10.6824 7.45414 12.6102 7.60204 13.756 7.60204C14.9766 7.60204 16.867 7.45414 16.867 7.45414C17.496 7.41674 17.5691 8.34154 16.9401 8.41634C16.9401 8.41634 16.3077 8.48944 15.6056 8.52684L19.8216 21.0677L20.9844 17.1798L21.0762 16.8857C21.5352 15.4237 21.8735 14.3442 21.8735 13.4075L21.8752 13.4092ZM2.33204 13.9991C2.33192 16.19 2.94859 18.3366 4.11148 20.1934C5.27437 22.0502 6.93649 23.5421 8.90764 24.4983L3.34014 9.24934C2.67345 10.744 2.32992 12.3626 2.33204 13.9991Z" fill="#00769D"/>
<path d="M10.7031 25.1876L14.2051 15.0165L17.7904 24.8425C17.8142 24.8986 17.8414 24.9513 17.8737 25.0023C15.5625 25.8166 13.0533 25.8814 10.7031 25.1876ZM24.2351 8.39844C24.2861 8.77074 24.315 9.16854 24.315 9.59864C24.315 10.7818 24.094 12.1129 23.4276 13.7772L19.8644 24.0792C22.4938 22.5515 24.4225 20.0572 25.2393 17.128C26.0561 14.1987 25.6964 11.0663 24.2368 8.39844H24.2351Z" fill="#00769D"/>
<path fill-rule="evenodd" clip-rule="evenodd" d="M0.398438 13.9984C0.398438 6.49974 6.49974 0.398438 13.9984 0.398438C21.4954 0.398438 27.5984 6.49974 27.5984 13.9984C27.5984 21.4971 21.4954 27.5984 13.9984 27.5984C6.49974 27.5984 0.398438 21.4971 0.398438 13.9984ZM1.02234 13.9984C1.02234 21.1537 6.84314 26.9745 13.9984 26.9745C21.152 26.9745 26.9728 21.1537 26.9728 13.9984C26.9728 6.84144 21.152 1.02234 13.9984 1.02234C6.84144 1.02234 1.02234 6.84144 1.02234 13.9984Z" fill="#00769D"/>
</svg>
