<svg width="45" height="50" viewBox="0 0 45 50" fill="none" xmlns="http://www.w3.org/2000/svg">
<path d="M39.1839 10.0148C39.1494 9.7664 38.9294 9.62857 38.7468 9.61356C38.5658 9.59856 35.0169 9.54535 35.0169 9.54535C35.0169 9.54535 32.0488 6.70101 31.7556 6.41167C31.4625 6.12233 30.8898 6.20967 30.6672 6.27518C30.6645 6.27655 30.1098 6.44579 29.1764 6.73103C29.02 6.23151 28.7904 5.61733 28.4626 5.00042C27.406 3.01049 25.8584 1.9582 23.9885 1.95547C23.9858 1.95547 23.9844 1.95547 23.9816 1.95547C23.8516 1.95547 23.7229 1.96775 23.593 1.97867C23.5376 1.91316 23.4824 1.84902 23.4242 1.78622C22.6096 0.926383 21.5655 0.507377 20.3138 0.544227C17.899 0.612469 15.4939 2.33353 13.5439 5.39077C12.1719 7.54175 11.1277 10.2442 10.8318 12.3364C8.05874 13.184 6.11972 13.7763 6.07685 13.79C4.67722 14.2239 4.63296 14.2663 4.4504 15.5683C4.31486 16.5523 0.652588 44.4989 0.652588 44.4989L31.3435 49.7371L44.6456 46.4737C44.6456 46.4737 39.2184 10.2633 39.1839 10.0148ZM27.6398 7.20054C26.9331 7.41619 26.1294 7.66186 25.2581 7.928C25.2402 6.72148 25.0949 5.04273 24.5252 3.59191C26.3576 3.93448 27.2594 5.98037 27.6398 7.20054ZM23.6525 8.41934C22.044 8.91065 20.2889 9.44704 18.5284 9.98482C19.0235 8.11361 19.9625 6.25061 21.116 5.02908C21.5447 4.57459 22.1449 4.06824 22.8558 3.77889C23.5238 5.15464 23.6691 7.10227 23.6525 8.41934ZM20.3621 2.13017C20.9292 2.11789 21.4064 2.24073 21.8145 2.5055C21.1616 2.83988 20.5309 3.32031 19.939 3.94677C18.4052 5.57093 17.2296 8.09178 16.7607 10.5239C15.2989 10.9702 13.8688 11.4084 12.5522 11.8096C13.3834 7.98123 16.6349 2.23662 20.3621 2.13017Z" fill="#95BF47"/>
<path d="M38.7475 9.61545C38.5663 9.60045 35.0174 9.54724 35.0174 9.54724C35.0174 9.54724 32.0494 6.7029 31.7562 6.41355C31.647 6.30572 31.499 6.24976 31.344 6.22656L31.3455 49.7363L44.6462 46.4743C44.6462 46.4743 39.219 10.2652 39.1845 10.0167C39.1499 9.76829 38.9286 9.63046 38.7475 9.61545Z" fill="#5E8E3E"/>
<path d="M23.9771 16.3633L22.4323 22.0669C22.4323 22.0669 20.709 21.2931 18.6663 21.42C15.6706 21.607 15.6387 23.4714 15.6692 23.9396C15.8325 26.4904 22.6328 27.0473 23.0146 33.0225C23.3146 37.723 20.4876 40.9385 16.4146 41.1924C11.5256 41.4967 8.83423 38.6511 8.83423 38.6511L9.87014 34.3027C9.87014 34.3027 12.5795 36.32 14.748 36.1848C16.1643 36.0961 16.6705 34.9592 16.6194 34.1553C16.4063 30.8278 10.8687 31.0243 10.5188 25.5568C10.2242 20.956 13.2862 16.2937 20.0423 15.8734C22.6452 15.7082 23.9771 16.3633 23.9771 16.3633Z" fill="white"/>
</svg>
