<svg width="493" height="376" viewBox="0 0 493 376" fill="none" xmlns="http://www.w3.org/2000/svg">
<path d="M492.15 21.0579V354.838C492.15 355.327 492.15 355.899 492.068 356.389C492.068 356.552 492.068 356.715 492.068 356.797C491.986 357.695 491.823 358.511 491.66 359.409C491.66 359.572 491.578 359.735 491.578 359.899C491.578 359.98 491.496 360.144 491.496 360.225C491.088 361.694 490.517 363.164 489.864 364.47C489.782 364.633 489.701 364.796 489.619 364.878C489.456 365.205 489.293 365.449 489.129 365.776C489.048 365.939 488.966 366.021 488.884 366.184C488.803 366.347 488.721 366.429 488.639 366.592C488.395 367 488.15 367.327 487.823 367.653C487.742 367.817 487.578 367.98 487.415 368.143C487.252 368.388 487.007 368.633 486.844 368.878C486.762 369.041 486.599 369.123 486.436 369.286C486.191 369.531 486.027 369.776 485.782 369.939C485.293 370.347 484.803 370.837 484.313 371.163C483.578 371.735 482.762 372.306 481.946 372.796C481.701 372.959 481.375 373.123 481.13 373.286C481.048 373.286 481.048 373.367 480.966 373.367C480.722 373.449 480.477 373.612 480.232 373.694C479.905 373.857 479.66 373.939 479.334 374.102C479.007 374.265 478.762 374.347 478.436 374.429C478.109 374.51 477.864 374.673 477.538 374.755C477.538 374.755 477.538 374.755 477.456 374.755C477.13 374.837 476.803 374.918 476.477 375C476.15 375.082 475.824 375.163 475.497 375.245C475.171 375.327 474.844 375.326 474.518 375.408C474.191 375.408 473.946 375.49 473.62 375.49C473.538 375.49 473.538 375.49 473.457 375.49C473.375 375.49 473.212 375.49 473.13 375.49C473.212 375.49 473.293 375.49 473.375 375.49C473.701 375.49 474.028 375.408 474.273 375.408C474.436 375.408 474.599 375.326 474.681 375.326C474.844 375.326 475.008 375.245 475.252 375.245C475.579 375.163 475.824 375.082 476.15 375C476.395 374.918 476.64 374.837 476.885 374.755C477.13 374.673 477.293 374.592 477.538 374.592C477.946 374.429 478.273 374.347 478.681 374.184C478.844 374.102 479.007 374.02 479.171 373.939C479.415 373.857 479.66 373.694 479.824 373.612C479.987 373.531 480.15 373.449 480.313 373.367C480.395 373.286 480.477 373.286 480.558 373.204C480.722 373.123 480.885 373.041 481.048 372.878C481.293 372.714 481.538 372.633 481.701 372.469C481.864 372.388 481.946 372.306 482.109 372.225C482.272 372.143 482.436 371.98 482.681 371.816C482.925 371.653 483.089 371.49 483.334 371.327C483.415 371.245 483.415 371.245 483.497 371.163C483.66 371 483.823 370.919 483.987 370.755C484.068 370.674 484.15 370.592 484.232 370.51C484.395 370.347 484.558 370.184 484.803 370.021C484.966 369.857 485.211 369.612 485.374 369.449C485.456 369.368 485.456 369.368 485.538 369.286C485.701 369.123 485.864 368.878 486.027 368.715C486.191 368.47 486.435 368.225 486.599 367.98C486.762 367.817 486.925 367.572 487.007 367.408C487.089 367.327 487.17 367.245 487.252 367.082C487.333 366.919 487.415 366.837 487.497 366.674C487.578 366.592 487.66 366.429 487.742 366.266C487.905 366.021 488.068 365.776 488.15 365.531C488.231 365.368 488.313 365.205 488.395 365.041C488.558 364.633 488.721 364.307 488.884 363.898C488.966 363.735 488.966 363.572 489.048 363.409C489.129 363.245 489.129 363.082 489.211 362.919C489.293 362.674 489.374 362.429 489.456 362.103C489.537 361.858 489.619 361.531 489.701 361.286C489.782 360.96 489.864 360.715 489.946 360.388C490.027 360.144 490.027 359.899 490.027 359.735C490.19 358.756 490.272 357.695 490.272 356.633V19.0988C490.272 18.0376 490.19 16.9765 490.027 15.9153C490.027 15.6704 489.946 15.5071 489.946 15.2623C489.946 15.2623 489.946 15.2623 489.946 15.1806C489.864 14.8541 489.782 14.6092 489.701 14.2827C489.619 14.0378 489.537 13.793 489.456 13.4664C489.374 13.2216 489.293 12.9767 489.211 12.7318C489.129 12.5685 489.048 12.3236 488.966 12.1604C488.884 11.9971 488.884 11.9155 488.803 11.7522C488.639 11.3441 488.476 10.936 488.313 10.6094C488.231 10.4462 488.15 10.2829 488.068 10.1197C487.905 9.87478 487.823 9.6299 487.66 9.38501C487.578 9.22175 487.497 9.14012 487.415 8.97687C487.333 8.81361 487.252 8.73198 487.17 8.56872C487.089 8.48709 487.007 8.32382 486.925 8.24219C486.762 8.07893 486.68 7.83406 486.517 7.6708C486.354 7.42592 486.191 7.18103 485.946 6.93615C485.782 6.69126 485.619 6.528 485.456 6.36474C485.374 6.28311 485.374 6.2831 485.293 6.20147C485.129 6.03821 484.966 5.79334 484.721 5.63008C484.476 5.3852 484.313 5.22193 484.068 4.97704C483.905 4.81378 483.66 4.56891 483.415 4.40565C483.415 4.32403 483.334 4.32402 483.252 4.32402C483.007 4.16076 482.844 3.9975 482.599 3.83424C482.354 3.67099 482.109 3.50772 481.946 3.34447L481.864 3.26286C481.701 3.18123 481.538 3.09958 481.456 3.01796C481.293 2.93633 481.13 2.77307 480.966 2.69145C480.722 2.52819 480.477 2.44656 480.232 2.2833C480.232 2.2833 480.232 2.2833 480.15 2.2833C479.905 2.20167 479.742 2.03842 479.497 1.95679C479.334 1.87516 479.171 1.79353 479.089 1.79353C478.599 1.54864 478.109 1.3854 477.62 1.22214C477.375 1.14051 477.13 1.05887 476.885 0.977238C476.64 0.89561 476.314 0.813991 475.987 0.732362C475.742 0.650734 475.416 0.569095 475.171 0.569095C475.007 0.569095 474.844 0.487461 474.599 0.487461C474.436 0.487461 474.273 0.405852 474.191 0.405852C473.865 0.324224 473.62 0.324219 473.293 0.324219C473.212 0.324219 473.048 0.324219 472.967 0.324219C473.13 0.324219 473.293 0.324219 473.457 0.324219C473.538 0.324219 473.538 0.324219 473.62 0.324219C473.946 0.324219 474.191 0.405852 474.518 0.405852C474.844 0.487481 475.171 0.487466 475.497 0.569095C476.477 0.732352 477.456 1.05887 478.354 1.38538C478.681 1.46701 479.007 1.63026 479.252 1.71189C479.579 1.79352 479.824 1.95678 480.15 2.12004C480.395 2.20166 480.64 2.36494 480.885 2.44657C480.966 2.44657 480.966 2.52818 481.048 2.52818C481.375 2.69144 481.619 2.8547 481.864 3.01796C482.109 3.18121 482.354 3.34448 482.599 3.50773C482.599 3.50773 482.681 3.50774 482.681 3.58937C482.925 3.75262 483.17 3.91589 483.415 4.07914C483.415 4.07914 483.415 4.07914 483.497 4.07914C483.742 4.2424 483.905 4.40564 484.068 4.5689C484.15 4.5689 484.15 4.65053 484.232 4.65053C484.313 4.73216 484.395 4.73217 484.476 4.8138C484.64 4.97705 484.885 5.14032 485.048 5.30357C485.211 5.46683 485.456 5.63007 485.619 5.79333C485.701 5.87496 485.701 5.87497 485.782 5.95659C485.864 6.03822 485.864 6.03823 485.946 6.11986C486.027 6.20149 486.191 6.36474 486.272 6.44637C486.762 7.01777 487.333 7.50755 487.742 8.16058C487.905 8.40547 488.068 8.65034 488.231 8.8136C488.313 8.97686 488.395 9.05849 488.476 9.22174C488.884 9.79314 489.211 10.3645 489.537 10.936C489.619 11.0992 489.701 11.1808 489.782 11.3441C490.517 12.6502 491.007 14.0378 491.415 15.5072C491.415 15.6704 491.496 15.752 491.496 15.9153C491.578 16.0786 491.578 16.2418 491.578 16.4051C491.741 17.2213 491.905 18.0376 491.986 18.9356C491.986 19.0988 491.986 19.2621 492.068 19.4253C492.15 19.9967 492.15 20.4865 492.15 21.0579Z" fill="url(#paint0_linear_676_4043)"/>
<path d="M20.1682 375.655C19.9233 375.655 19.6784 375.655 19.5152 375.574C19.4336 375.574 19.2703 375.574 19.1887 375.574C19.107 375.574 19.107 375.574 19.0254 375.574C18.6989 375.574 18.454 375.492 18.1275 375.492C17.801 375.41 17.4745 375.41 17.1479 375.329C16.8214 375.247 16.4949 375.166 16.1684 375.084C15.8419 375.002 15.5154 374.921 15.1889 374.839C15.1889 374.839 15.1889 374.839 15.1072 374.839C14.7807 374.757 14.4542 374.676 14.2093 374.513C13.8828 374.431 13.5563 374.268 13.3114 374.186C12.9849 374.104 12.74 373.941 12.4135 373.778C12.1686 373.696 11.9237 373.533 11.6788 373.451C11.5972 373.451 11.5972 373.37 11.5156 373.37C11.189 373.206 10.9442 373.043 10.6993 372.88C9.88299 372.39 9.0667 371.819 8.33204 371.247C7.84227 370.839 7.3525 370.431 6.86273 370.023C6.61784 369.778 6.37296 369.615 6.2097 369.37C6.04644 369.207 5.96481 369.125 5.80156 368.962C5.6383 368.717 5.39341 368.472 5.23016 368.227C5.0669 368.064 4.98527 367.901 4.82201 367.737C4.57713 367.411 4.25061 367.003 4.00573 366.676C3.9241 366.513 3.84247 366.431 3.76084 366.268C3.67921 366.105 3.59758 366.023 3.51596 365.86C3.3527 365.615 3.18944 365.288 3.02618 364.962C2.94455 364.799 2.86292 364.635 2.7813 364.554C2.04664 363.248 1.47524 361.778 1.06709 360.309C1.06709 360.227 0.985461 360.064 0.985461 359.983C0.903832 359.819 0.903833 359.656 0.903833 359.493C0.740576 358.677 0.577319 357.779 0.49569 356.881C0.49569 356.717 0.49569 356.554 0.49569 356.473C0.49569 355.983 0.414062 355.411 0.414062 354.922V21.0603C0.414062 20.5705 0.414061 19.9991 0.49569 19.5093C0.49569 19.3461 0.495689 19.1828 0.577317 19.0195C0.658946 18.1216 0.822203 17.3053 0.985461 16.489C0.985461 16.3258 1.06709 16.1625 1.06709 15.9993C1.06709 15.836 1.14872 15.6727 1.14872 15.5911C1.55687 14.1218 2.12827 12.7341 2.7813 11.4281C2.86292 11.2648 2.94455 11.1016 3.02618 11.0199C3.35269 10.4485 3.67921 9.87713 4.08735 9.30573C4.16898 9.2241 4.25061 9.06084 4.33224 8.89758C4.4955 8.6527 4.65876 8.4078 4.82201 8.24454C5.31179 7.67314 5.80155 7.10176 6.29133 6.53036C6.37295 6.44873 6.53621 6.28545 6.61784 6.20382C6.69947 6.12219 6.69947 6.12221 6.7811 6.04058C6.86273 5.95895 6.86273 5.95894 6.94436 5.87731C7.10762 5.71405 7.27087 5.55079 7.51576 5.38753C7.67901 5.22428 7.84228 5.06104 8.08716 4.89778C8.16879 4.81615 8.25042 4.73451 8.33204 4.73451C8.41367 4.73451 8.41368 4.65288 8.4953 4.65288C8.65856 4.48962 8.90345 4.32636 9.0667 4.1631C9.0667 4.1631 9.0667 4.1631 9.14833 4.1631C9.39322 3.99985 9.6381 3.83661 9.88299 3.67335C9.88299 3.67335 9.96462 3.67335 9.96462 3.59172C10.2095 3.42846 10.4544 3.2652 10.6993 3.10194C10.9442 2.93868 11.2707 2.77542 11.5156 2.61216C11.5972 2.61216 11.5972 2.53053 11.6788 2.53053C11.9237 2.4489 12.1686 2.28565 12.4135 2.20402C12.74 2.04076 12.9849 1.95913 13.3114 1.79588C13.6379 1.63262 13.8828 1.55099 14.2093 1.46937C15.1072 1.14285 16.0868 0.897965 17.0663 0.653079C17.3928 0.571451 17.7193 0.571441 18.0459 0.489812C18.3724 0.489812 18.6173 0.408203 18.9438 0.408203C19.0254 0.408203 19.0254 0.408203 19.107 0.408203C19.2703 0.408203 19.4335 0.408203 19.5968 0.408203C19.5152 0.408203 19.3519 0.408203 19.2703 0.408203C18.9438 0.408203 18.6173 0.489812 18.3724 0.489812C18.2091 0.489812 18.0459 0.571446 17.9642 0.571446C17.801 0.571446 17.6377 0.653079 17.3928 0.653079C17.1479 0.734708 16.8214 0.734718 16.5765 0.816347C16.25 0.897975 16.0051 0.979594 15.6786 1.06122C15.4337 1.14285 15.1889 1.22447 14.944 1.3061C14.4542 1.46936 13.9644 1.63262 13.4747 1.87751C13.3114 1.95914 13.1481 2.04078 13.0665 2.04078C12.8216 2.12241 12.5767 2.28566 12.4135 2.36729C12.4135 2.36729 12.4135 2.36729 12.3319 2.36729C12.087 2.53054 11.8421 2.61217 11.5972 2.77543C11.4339 2.85706 11.2707 3.02031 11.1074 3.10194C10.9442 3.18357 10.7809 3.26519 10.6993 3.34682L10.6176 3.42845C10.3728 3.59171 10.1279 3.75497 9.96462 3.91823C9.71973 4.08148 9.55648 4.24475 9.31159 4.408C9.22996 4.408 9.22996 4.48964 9.14833 4.48964C8.90344 4.6529 8.74019 4.81614 8.4953 5.06102C8.25042 5.22428 8.08716 5.46918 7.84227 5.71407C7.67902 5.87733 7.43413 6.1222 7.27087 6.28545C7.18925 6.36708 7.18924 6.36709 7.10761 6.44872C6.94436 6.61198 6.7811 6.85685 6.61784 7.02011C6.45458 7.26499 6.2097 7.5099 6.04644 7.75479C5.88319 7.91804 5.71993 8.16291 5.6383 8.32617C5.55667 8.4078 5.47504 8.48942 5.39341 8.65268C5.31178 8.73431 5.23016 8.89757 5.14853 9.06083C5.0669 9.14245 4.98527 9.30571 4.90364 9.46897C4.74038 9.71385 4.57713 9.95876 4.4955 10.2036C4.41387 10.3669 4.33224 10.5301 4.25061 10.6934C4.08735 11.1015 3.9241 11.4281 3.76084 11.8362C3.67921 11.9178 3.67921 12.0811 3.59758 12.2444C3.51595 12.4076 3.43432 12.6525 3.35269 12.8158C3.27107 13.0606 3.18944 13.3055 3.10781 13.5504C3.02618 13.7953 2.94455 14.0402 2.86292 14.3667C2.78129 14.6932 2.69966 14.9381 2.61803 15.2646C2.61803 15.2646 2.61803 15.2646 2.61803 15.3462C2.53641 15.5911 2.53641 15.7544 2.53641 15.9993C2.37315 17.0604 2.29153 18.04 2.29153 19.1828V356.881C2.29153 357.289 2.29153 357.615 2.29153 358.024C2.29153 358.187 2.29153 358.432 2.29153 358.595C2.29153 358.758 2.29152 358.921 2.37315 359.085C2.37315 359.166 2.37315 359.248 2.37315 359.33C2.37315 359.574 2.45478 359.738 2.45478 359.983V360.064C2.45478 360.227 2.53641 360.309 2.53641 360.472C2.53641 360.554 2.53641 360.636 2.53641 360.636V360.717C2.53641 360.881 2.61804 361.125 2.69967 361.289C2.69967 361.37 2.69967 361.452 2.7813 361.534C2.86292 361.778 2.94455 362.105 3.02618 362.35C3.10781 362.595 3.18944 362.921 3.27107 363.166C3.3527 363.329 3.35269 363.411 3.43432 363.574C3.43432 363.574 3.43432 363.574 3.43432 363.656C3.51595 363.819 3.51595 363.982 3.59758 364.064C3.76084 364.472 3.9241 364.799 4.08735 365.207C4.16898 365.37 4.25061 365.533 4.33224 365.697C4.4955 365.942 4.57713 366.186 4.74039 366.431C4.82201 366.595 4.90364 366.676 4.98527 366.839C5.0669 367.003 5.14853 367.084 5.23016 367.248C5.31179 367.329 5.39341 367.492 5.47504 367.574C5.6383 367.737 5.71993 367.982 5.88318 368.145C6.04644 368.39 6.2097 368.635 6.45459 368.88C6.61784 369.043 6.7811 369.207 6.94436 369.452L7.02599 369.533C7.10761 369.615 7.10762 369.615 7.18925 369.696C7.18925 369.696 7.18925 369.696 7.27087 369.778C7.43413 369.941 7.59739 370.105 7.76065 370.268C7.9239 370.431 8.08716 370.594 8.25042 370.758C8.33204 370.839 8.41368 370.921 8.4953 371.002C8.65856 371.166 8.82182 371.247 8.98508 371.411C9.0667 371.492 9.0667 371.492 9.14833 371.574C9.39322 371.737 9.55648 371.9 9.80136 372.064C9.96462 372.227 10.1279 372.309 10.2911 372.39C10.2911 372.39 10.2911 372.39 10.3728 372.39C10.536 372.472 10.6176 372.553 10.7809 372.635C11.0258 372.798 11.1891 372.962 11.4339 373.043C11.5972 373.125 11.7605 373.206 11.9237 373.288C12.0053 373.37 12.087 373.37 12.1686 373.451C12.3319 373.533 12.4951 373.615 12.6584 373.696C12.9033 373.778 13.1481 373.941 13.3114 374.023C13.4747 374.104 13.6379 374.186 13.8012 374.268C13.8828 374.268 13.8828 374.349 13.9644 374.349C14.1277 374.431 14.2909 374.512 14.5358 374.594C14.6175 374.676 14.7807 374.676 14.8623 374.676H14.944C15.1889 374.757 15.3521 374.839 15.597 374.839C15.8419 374.921 16.0051 375.002 16.25 375.002H16.3317C16.4133 375.002 16.4949 375.002 16.5765 375.084C16.8214 375.166 16.9847 375.166 17.2296 375.247C17.3928 375.247 17.5561 375.329 17.801 375.329C17.9642 375.329 18.1275 375.41 18.2091 375.41C18.5356 375.492 18.7805 375.492 19.107 375.492C19.5152 375.655 19.8417 375.655 20.1682 375.655Z" fill="url(#paint1_linear_676_4043)"/>
<path d="M490.178 354.832V356.791C490.178 357.852 490.097 358.913 489.933 359.893C489.933 360.138 489.852 360.383 489.852 360.546C489.77 360.873 489.689 361.199 489.607 361.444C489.525 361.689 489.444 362.015 489.362 362.26C489.28 362.505 489.199 362.832 489.117 363.077C489.036 363.24 489.036 363.403 488.954 363.566C488.872 363.73 488.872 363.893 488.791 364.056C488.627 364.464 488.464 364.791 488.301 365.199C488.219 365.362 488.138 365.525 488.056 365.689C487.893 365.934 487.811 366.178 487.648 366.423C487.566 366.587 487.485 366.668 487.403 366.831C487.321 366.995 487.24 367.076 487.158 367.24C487.076 367.321 486.995 367.484 486.913 367.566C486.75 367.729 486.668 367.974 486.505 368.137C486.342 368.382 486.178 368.627 485.934 368.872C485.77 369.117 485.607 369.28 485.444 369.444C485.362 369.525 485.362 369.525 485.281 369.607C485.117 369.77 484.954 370.015 484.709 370.178C484.546 370.341 484.383 370.505 484.138 370.668C484.056 370.75 483.975 370.831 483.893 370.913C483.73 371.076 483.566 371.158 483.403 371.321C483.322 371.403 483.322 371.403 483.24 371.484C482.995 371.648 482.832 371.811 482.587 371.974C482.424 372.137 482.26 372.219 482.015 372.382C481.852 372.464 481.771 372.545 481.607 372.627C481.362 372.79 481.199 372.954 480.954 373.035C480.791 373.117 480.628 373.198 480.464 373.362C480.383 373.443 480.301 373.443 480.22 373.525C480.056 373.607 479.893 373.688 479.73 373.77C479.485 373.851 479.24 374.015 479.077 374.096C478.914 374.178 478.75 374.26 478.587 374.341C478.179 374.505 477.852 374.668 477.444 374.749C477.199 374.831 477.036 374.913 476.791 374.913C476.546 374.994 476.301 375.076 476.057 375.158C475.73 375.239 475.485 375.321 475.159 375.402C474.995 375.402 474.832 375.484 474.587 375.484C474.424 375.484 474.261 375.566 474.179 375.566C473.853 375.647 473.608 375.647 473.281 375.647C473.2 375.647 473.118 375.647 473.036 375.647C472.791 375.647 472.547 375.647 472.383 375.729C472.22 375.729 472.057 375.729 471.975 375.729C471.812 375.729 471.649 375.729 471.404 375.729H21.0582C20.895 375.729 20.7317 375.729 20.4868 375.729C20.3235 375.729 20.1603 375.729 20.0787 375.729C19.8338 375.729 19.5889 375.729 19.4256 375.647C19.344 375.647 19.2624 375.647 19.1807 375.647C18.8542 375.647 18.5277 375.566 18.2828 375.566C18.1196 375.566 17.9563 375.484 17.8747 375.484C17.7114 375.484 17.5482 375.402 17.3033 375.402C17.0584 375.321 16.8951 375.321 16.6503 375.239C16.5686 375.239 16.487 375.239 16.4054 375.158H16.3237C16.0789 375.076 15.834 375.076 15.6707 374.994C15.4258 374.913 15.2626 374.831 15.0177 374.831H14.9361C14.8544 374.831 14.6912 374.749 14.6095 374.749C14.4463 374.668 14.283 374.586 14.0381 374.505C13.9565 374.505 13.9565 374.423 13.8749 374.423C13.7116 374.341 13.5484 374.26 13.3851 374.178C13.1402 374.096 12.8953 373.933 12.7321 373.852C12.5688 373.77 12.4056 373.688 12.2423 373.607C12.1607 373.525 12.079 373.525 11.9974 373.443C11.8342 373.362 11.6709 373.28 11.5076 373.198C11.2628 373.035 11.0179 372.954 10.8546 372.79C10.6914 372.709 10.6097 372.627 10.4465 372.545C10.4465 372.545 10.4465 372.545 10.3648 372.545C10.2016 372.464 10.0383 372.301 9.87507 372.219C9.63019 372.056 9.46693 371.892 9.22205 371.729C9.14042 371.648 9.14041 371.648 9.05879 371.566C8.89553 371.403 8.73227 371.321 8.56901 371.158C8.48739 371.076 8.40575 370.994 8.32413 370.913C8.16087 370.75 7.99761 370.586 7.83435 370.423C7.6711 370.26 7.50784 370.097 7.34458 369.933C7.34458 369.933 7.34458 369.933 7.26296 369.852C7.18133 369.77 7.18132 369.77 7.0997 369.688L7.01807 369.607C6.85481 369.444 6.69155 369.28 6.5283 369.035C6.36504 368.791 6.12016 368.546 5.9569 368.301C5.79364 368.138 5.63038 367.893 5.54875 367.729C5.46713 367.648 5.38549 367.566 5.30387 367.403C5.22224 367.24 5.14061 367.158 5.05898 366.995C4.97735 366.913 4.89572 366.75 4.8141 366.587C4.65084 366.342 4.48758 366.097 4.40595 365.852C4.32432 365.689 4.24269 365.525 4.16106 365.362C3.99781 364.954 3.83455 364.627 3.67129 364.219C3.58966 364.056 3.58967 363.893 3.50804 363.811C3.50804 363.811 3.50804 363.811 3.50804 363.73C3.42641 363.566 3.4264 363.485 3.34478 363.321C3.26315 363.076 3.18152 362.832 3.09989 362.505C3.01827 362.26 2.93663 361.934 2.85501 361.689C2.85501 361.607 2.77338 361.526 2.77338 361.444C2.69175 361.281 2.69175 361.036 2.61012 360.873V360.791C2.61012 360.709 2.61012 360.628 2.61012 360.628C2.61012 360.464 2.52849 360.383 2.52849 360.22V360.138C2.52849 359.893 2.44686 359.73 2.44686 359.485C2.44686 359.403 2.44686 359.322 2.44686 359.24C2.44686 359.077 2.44686 358.913 2.36523 358.75C2.36523 358.587 2.36523 358.342 2.36523 358.179C2.36523 357.852 2.36523 357.444 2.36523 357.036V355.077C2.36523 365.525 10.8546 374.015 21.3031 374.015H471.485C481.689 373.77 490.178 365.281 490.178 354.832Z" fill="url(#paint2_linear_676_4043)"/>
<path d="M471.242 0H21.0602C9.46893 0 0 9.46892 0 21.0602V354.84C0 366.431 9.46893 375.9 21.0602 375.9H471.242C482.834 375.9 492.303 366.431 492.303 354.84V21.0602C492.303 9.46892 482.915 0 471.242 0ZM492.139 354.84C492.139 355.33 492.139 355.901 492.058 356.391C492.058 356.554 492.058 356.717 492.058 356.799C491.976 357.697 491.813 358.513 491.65 359.411C491.65 359.574 491.568 359.738 491.568 359.901C491.568 359.983 491.486 360.146 491.486 360.228C491.078 361.697 490.507 363.166 489.854 364.472C489.772 364.635 489.691 364.799 489.609 364.88C489.446 365.207 489.282 365.452 489.119 365.778C489.038 365.942 488.956 366.023 488.874 366.186C488.793 366.35 488.711 366.431 488.629 366.595C488.384 367.003 488.14 367.329 487.813 367.656C487.731 367.819 487.568 367.982 487.405 368.146C487.242 368.39 486.997 368.635 486.834 368.88C486.752 369.043 486.589 369.125 486.425 369.288C486.181 369.533 486.017 369.778 485.772 369.941C485.283 370.349 484.793 370.839 484.303 371.166C483.568 371.737 482.752 372.309 481.936 372.798C481.691 372.962 481.364 373.125 481.12 373.288C481.038 373.288 481.038 373.37 480.956 373.37C480.711 373.533 480.467 373.615 480.222 373.696C479.895 373.86 479.65 373.941 479.324 374.104C478.997 374.268 478.671 374.349 478.426 374.431C478.099 374.513 477.854 374.676 477.528 374.757C477.528 374.757 477.528 374.757 477.446 374.757C477.12 374.839 476.793 374.921 476.467 375.002C476.14 375.084 475.814 375.166 475.487 375.247C475.161 375.329 474.834 375.41 474.508 375.41C474.181 375.492 473.936 375.492 473.61 375.492C473.528 375.492 473.528 375.492 473.446 375.492C472.957 375.574 472.467 375.574 471.977 375.574C471.814 375.574 471.651 375.574 471.406 375.574H21.0602C20.8969 375.574 20.7337 375.574 20.4888 375.574C19.999 375.574 19.5093 375.492 19.0195 375.492C18.9379 375.492 18.9379 375.492 18.8562 375.492C18.5297 375.492 18.2848 375.41 17.9583 375.41C17.6318 375.329 17.3053 375.329 16.9788 375.247C16.6523 375.166 16.3257 375.084 15.9992 375.002C15.6727 374.921 15.3462 374.839 15.0197 374.757C15.0197 374.757 15.0197 374.757 14.9381 374.757C14.6115 374.676 14.285 374.594 14.0401 374.431C13.7136 374.349 13.3871 374.186 13.1422 374.104C12.8157 374.023 12.5708 373.86 12.2443 373.696C11.9994 373.615 11.7545 373.451 11.5096 373.37C11.428 373.37 11.428 373.288 11.3464 373.288C11.0199 373.125 10.775 372.962 10.5301 372.798C9.71382 372.309 8.89753 371.737 8.16287 371.166C7.6731 370.758 7.18332 370.349 6.69355 369.941C6.44866 369.696 6.20378 369.533 6.04052 369.288C5.87727 369.125 5.79564 369.043 5.63238 368.88C5.3875 368.635 5.22423 368.39 5.06098 368.146C4.89772 367.982 4.81609 367.819 4.65283 367.656C4.40795 367.329 4.08143 366.921 3.83655 366.595C3.75492 366.431 3.67329 366.35 3.59166 366.186C3.51004 366.023 3.4284 365.942 3.34678 365.778C3.18352 365.533 3.02026 365.207 2.857 364.88C2.77538 364.717 2.69374 364.635 2.61212 364.472C1.87746 363.166 1.30606 361.697 0.897914 360.228C0.897914 360.146 0.816287 359.983 0.816287 359.901C0.734658 359.738 0.73466 359.574 0.73466 359.411C0.571402 358.595 0.408145 357.697 0.326516 356.799C0.326516 356.636 0.326516 356.473 0.326516 356.391C0.326516 355.901 0.244889 355.33 0.244889 354.84V21.0602C0.244889 20.5704 0.244887 19.999 0.326516 19.5093C0.326516 19.346 0.326515 19.1827 0.408143 19.0195C0.489772 18.1216 0.65303 17.3053 0.816287 16.489C0.816287 16.3257 0.897914 16.1625 0.897914 15.9992C0.897914 15.836 0.979542 15.6727 0.979542 15.5911C1.38769 14.1217 1.95909 12.7341 2.61212 11.428C2.69374 11.2648 2.77538 11.1015 2.857 11.0199C3.18352 10.4485 3.51004 9.87707 3.91818 9.30567C3.99981 9.22404 4.08143 9.06078 4.16306 8.89753C4.32632 8.65264 4.48958 8.40774 4.65283 8.24448C5.14261 7.67308 5.63238 7.1017 6.12215 6.5303C6.20378 6.44867 6.36704 6.28539 6.44867 6.20376C6.5303 6.12213 6.53029 6.12215 6.61192 6.04052C6.69355 5.95889 6.69356 5.95888 6.77518 5.87725C6.93844 5.714 7.1017 5.55073 7.34658 5.38748C7.50984 5.22422 7.6731 5.06098 7.91798 4.89772C7.99961 4.81609 8.08124 4.73446 8.16287 4.73446C8.2445 4.73446 8.2445 4.65282 8.32612 4.65282C8.48938 4.48956 8.73427 4.3263 8.89753 4.16304C8.89753 4.16304 8.89753 4.16304 8.97916 4.16304C9.22404 3.99979 9.46893 3.83655 9.71382 3.67329C9.71382 3.67329 9.79544 3.67329 9.79544 3.59166C10.0403 3.4284 10.2852 3.26514 10.5301 3.10188C10.775 2.93862 11.1015 2.77536 11.3464 2.6121C11.428 2.6121 11.428 2.53047 11.5096 2.53047C11.7545 2.36721 11.9994 2.28559 12.2443 2.20396C12.5708 2.0407 12.8157 1.95907 13.1422 1.79582C13.4687 1.63256 13.7136 1.55094 14.0401 1.46931C14.938 1.14279 15.9176 0.897906 16.8971 0.65302C17.2237 0.571391 17.5502 0.489752 17.8767 0.489752C18.2032 0.408124 18.4481 0.408144 18.7746 0.408144C18.8562 0.408144 18.8562 0.408144 18.9379 0.408144C19.1011 0.408144 19.2644 0.408144 19.4276 0.408144C19.5909 0.408144 19.8358 0.408144 19.999 0.408144C20.3255 0.408144 20.6521 0.408144 20.9786 0.408144H471.161C471.487 0.408144 471.814 0.408144 472.14 0.408144C472.304 0.408144 472.549 0.408144 472.712 0.408144C472.875 0.408144 473.038 0.408144 473.202 0.408144C473.283 0.408144 473.283 0.408144 473.365 0.408144C473.691 0.408144 473.936 0.489752 474.263 0.489752C474.589 0.571381 474.916 0.571391 475.242 0.65302C476.222 0.816277 477.201 1.14279 478.099 1.46931C478.426 1.55094 478.752 1.71419 478.997 1.79582C479.324 1.87745 479.569 2.0407 479.895 2.20396C480.14 2.28559 480.385 2.44884 480.63 2.53047C480.711 2.53047 480.711 2.6121 480.793 2.6121C481.12 2.77536 481.364 2.93862 481.609 3.10188C481.854 3.26514 482.099 3.4284 482.344 3.59166C482.344 3.59166 482.426 3.59166 482.426 3.67329C482.67 3.83655 482.915 3.99979 483.16 4.16304C483.16 4.16304 483.16 4.16304 483.242 4.16304C483.487 4.3263 483.65 4.48956 483.813 4.65282C483.895 4.65282 483.895 4.73446 483.977 4.73446C484.058 4.81608 484.14 4.81609 484.221 4.89772C484.385 5.06098 484.63 5.22422 484.793 5.38748C484.956 5.55073 485.201 5.714 485.364 5.87725C485.446 5.95888 485.446 5.95889 485.527 6.04052C485.609 6.12215 485.609 6.12213 485.691 6.20376C485.772 6.28539 485.936 6.44867 486.017 6.5303C486.507 7.1017 487.078 7.59145 487.487 8.24448C487.65 8.48937 487.813 8.73427 487.976 8.89753C488.058 9.06078 488.14 9.14241 488.221 9.30567C488.629 9.87707 488.956 10.4485 489.282 11.0199C489.364 11.1831 489.446 11.2648 489.527 11.428C490.262 12.7341 490.752 14.1217 491.16 15.5911C491.16 15.7543 491.241 15.836 491.241 15.9992C491.323 16.1625 491.323 16.3257 491.323 16.489C491.486 17.3053 491.65 18.1216 491.731 19.0195C491.731 19.1827 491.731 19.346 491.813 19.5093C491.813 19.999 491.895 20.5704 491.895 21.0602V354.84H492.139Z" fill="#DFDFDF"/>
<path d="M471.232 2.12695H21.0492C10.6007 2.12695 2.11133 10.6163 2.11133 21.0648V354.845C2.11133 365.293 10.6007 373.782 21.0492 373.782H471.232C481.68 373.782 490.169 365.293 490.169 354.845V21.0648C490.169 10.6163 481.68 2.12695 471.232 2.12695ZM476.701 354.845C476.701 357.783 474.252 360.232 471.313 360.232H21.0492C18.1106 360.232 15.6617 357.783 15.6617 354.845V21.0648C15.6617 18.1262 18.1106 15.6773 21.0492 15.6773H471.232C474.17 15.6773 476.619 18.1262 476.619 21.0648V354.845H476.701Z" fill="#030303"/>
<path d="M490.169 19.0988V21.0579C490.169 10.6094 481.68 2.12004 471.232 2.12004H21.0492C10.6007 2.12004 2.11133 10.6094 2.11133 21.0579V19.0988C2.11133 18.0376 2.19296 16.9765 2.35622 15.9153C2.35622 15.6704 2.43784 15.5071 2.43784 15.2623C2.43784 15.2623 2.43784 15.2623 2.43784 15.1806C2.51947 14.8541 2.6011 14.6092 2.68273 14.2827C2.76436 14.0378 2.84599 13.793 2.92762 13.4664C3.00924 13.2216 3.09088 12.9767 3.1725 12.7318C3.25413 12.5685 3.33576 12.3236 3.41739 12.1604C3.49901 11.9971 3.49902 11.9155 3.58065 11.7522C3.7439 11.3441 3.90716 10.936 4.07042 10.6094C4.15205 10.4462 4.23368 10.2829 4.31531 10.1197C4.47856 9.87478 4.56019 9.6299 4.72345 9.38501C4.80508 9.22175 4.8867 9.14012 4.96833 8.97687C5.04996 8.81361 5.13159 8.73198 5.21322 8.56872C5.29485 8.48709 5.37648 8.32382 5.4581 8.24219C5.62136 8.07893 5.70299 7.83406 5.86625 7.6708C6.0295 7.42592 6.19277 7.18103 6.43765 6.93615C6.60091 6.69126 6.76417 6.52799 6.92742 6.36474C7.00905 6.28311 7.00905 6.2831 7.09068 6.20147C7.25394 6.03821 7.4172 5.79334 7.66208 5.63008C7.90697 5.3852 8.07022 5.22193 8.31511 4.97704C8.47837 4.81378 8.72325 4.65054 8.96814 4.40565C8.96814 4.32402 9.04977 4.32402 9.1314 4.32402C9.37628 4.16076 9.53954 3.9975 9.78443 3.83424C10.0293 3.67099 10.2742 3.50772 10.4375 3.34447L10.5191 3.26286C10.6823 3.18123 10.8456 3.09958 10.9272 3.01796C11.0905 2.93633 11.2537 2.77307 11.417 2.69145C11.6619 2.52819 11.9068 2.44656 12.1517 2.2833C12.1517 2.2833 12.1517 2.2833 12.2333 2.2833C12.4782 2.20167 12.6414 2.03842 12.8863 1.95679C13.0496 1.87516 13.2128 1.79353 13.2945 1.79353C13.7842 1.54864 14.274 1.3854 14.7638 1.22214C15.0087 1.14051 15.2536 1.05887 15.4984 0.977238C15.7433 0.89561 16.0698 0.813991 16.3964 0.732362C16.6412 0.650734 16.9678 0.569095 17.2126 0.569095C17.3759 0.569095 17.5392 0.487461 17.784 0.487461C17.9473 0.487461 18.1106 0.405852 18.1922 0.405852C18.5187 0.324224 18.7636 0.324219 19.0901 0.324219C19.1717 0.324219 19.335 0.324219 19.4166 0.324219C19.5799 0.324219 19.8248 0.324219 19.988 0.324219C20.3145 0.324219 20.641 0.324219 20.9676 0.324219H471.15C471.476 0.324219 471.803 0.324219 472.129 0.324219C472.293 0.324219 472.538 0.324219 472.701 0.324219C472.782 0.324219 472.946 0.324219 473.027 0.324219C473.354 0.324219 473.68 0.405852 473.925 0.405852C474.088 0.405852 474.252 0.487461 474.333 0.487461C474.497 0.487461 474.66 0.569095 474.905 0.569095C475.15 0.650724 475.476 0.650734 475.721 0.732362C476.048 0.813991 476.293 0.89561 476.619 0.977238C476.864 1.05887 477.109 1.14051 477.354 1.22214C477.843 1.3854 478.333 1.54864 478.823 1.79353C478.986 1.87515 479.149 1.95679 479.231 1.95679C479.476 2.03842 479.721 2.20167 479.884 2.2833C479.884 2.2833 479.884 2.2833 479.966 2.2833C480.211 2.44656 480.456 2.52819 480.7 2.69145C480.864 2.77307 481.027 2.93633 481.19 3.01796C481.353 3.09958 481.517 3.18123 481.598 3.26286L481.68 3.34447C481.925 3.50772 482.17 3.67099 482.333 3.83424C482.578 3.9975 482.741 4.16076 482.986 4.32402C483.068 4.32402 483.068 4.40565 483.149 4.40565C483.394 4.56891 483.557 4.73215 483.802 4.97704C484.047 5.1403 484.21 5.3852 484.455 5.63008C484.619 5.79334 484.864 6.03821 485.027 6.20147C485.108 6.2831 485.108 6.28311 485.19 6.36474C485.353 6.52799 485.517 6.77289 485.68 6.93615C485.843 7.18103 486.088 7.42592 486.251 7.6708C486.414 7.83406 486.578 8.07893 486.659 8.24219C486.741 8.32382 486.823 8.40546 486.904 8.56872C486.986 8.65035 487.067 8.81361 487.149 8.97687C487.231 9.05849 487.312 9.22175 487.394 9.38501C487.557 9.6299 487.72 9.87478 487.802 10.1197C487.884 10.2829 487.965 10.4462 488.047 10.6094C488.21 11.0176 488.374 11.3441 488.537 11.7522C488.618 11.8339 488.618 11.9971 488.7 12.1604C488.782 12.3236 488.863 12.5685 488.945 12.7318C489.027 12.9767 489.108 13.2216 489.19 13.4664C489.271 13.7113 489.353 13.9562 489.435 14.2827C489.516 14.6092 489.598 14.8541 489.68 15.1806C489.68 15.1806 489.68 15.1806 489.68 15.2623C489.761 15.5071 489.761 15.6704 489.761 15.9153C490.088 16.9765 490.169 18.0376 490.169 19.0988Z" fill="url(#paint3_linear_676_4043)"/>
<defs>
<linearGradient id="paint0_linear_676_4043" x1="472.823" y1="187.927" x2="492.137" y2="187.927" gradientUnits="userSpaceOnUse">
<stop stop-color="#A1A1A1"/>
<stop offset="0.4563" stop-color="#A3A3A3"/>
<stop offset="0.6289" stop-color="#AAAAAA"/>
<stop offset="0.7533" stop-color="#B6B6B6"/>
<stop offset="0.8547" stop-color="#C7C7C7"/>
<stop offset="0.9409" stop-color="#DDDDDD"/>
<stop offset="1" stop-color="#F1F1F1"/>
</linearGradient>
<linearGradient id="paint1_linear_676_4043" x1="0.260519" y1="187.952" x2="20.1346" y2="187.952" gradientUnits="userSpaceOnUse">
<stop stop-color="#F1F1F1"/>
<stop offset="0.059054" stop-color="#DDDDDD"/>
<stop offset="0.1453" stop-color="#C7C7C7"/>
<stop offset="0.2467" stop-color="#B6B6B6"/>
<stop offset="0.3711" stop-color="#AAAAAA"/>
<stop offset="0.5437" stop-color="#A3A3A3"/>
<stop offset="1" stop-color="#A1A1A1"/>
</linearGradient>
<linearGradient id="paint2_linear_676_4043" x1="2.18337" y1="365.254" x2="490.194" y2="365.254" gradientUnits="userSpaceOnUse">
<stop stop-color="#C9C9C9"/>
<stop offset="0.4778" stop-color="#F1F1F1"/>
<stop offset="0.636" stop-color="#ECECEC"/>
<stop offset="0.819" stop-color="#DEDEDE"/>
<stop offset="1" stop-color="#C9C9C9"/>
</linearGradient>
<linearGradient id="paint3_linear_676_4043" x1="2.17435" y1="10.601" x2="490.185" y2="10.601" gradientUnits="userSpaceOnUse">
<stop stop-color="#C9C9C9"/>
<stop offset="0.4778" stop-color="#F1F1F1"/>
<stop offset="0.636" stop-color="#ECECEC"/>
<stop offset="0.819" stop-color="#DEDEDE"/>
<stop offset="1" stop-color="#C9C9C9"/>
</linearGradient>
</defs>
</svg>
