<svg width="12" height="13" viewBox="0 0 12 13" fill="none" xmlns="http://www.w3.org/2000/svg">
<path d="M0.254026 6.40574C0.392644 6.26712 0.569066 6.19454 0.783293 6.18799C0.997521 6.18194 1.17394 6.24822 1.31256 6.38684L5.01744 10.0917L5.01744 1.64233C5.01744 1.4281 5.09003 1.2484 5.2352 1.10323C5.37986 0.958564 5.55931 0.88623 5.77354 0.88623C5.98777 0.88623 6.16746 0.958564 6.31264 1.10323C6.4573 1.2484 6.52964 1.4281 6.52964 1.64233L6.52964 10.0917L10.2345 6.38684C10.3731 6.24822 10.5496 6.18194 10.7638 6.18799C10.978 6.19454 11.1544 6.26712 11.293 6.40574C11.4317 6.54436 11.501 6.72078 11.501 6.93501C11.501 7.14924 11.4317 7.32566 11.293 7.46428L6.30281 12.4545C6.2398 12.5301 6.16116 12.5838 6.0669 12.6156C5.97214 12.6468 5.87435 12.6624 5.77354 12.6624C5.67272 12.6624 5.57821 12.6468 5.49 12.6156C5.40179 12.5838 5.31988 12.5301 5.24427 12.4545L0.254026 7.46428C0.115408 7.32566 0.0460975 7.14924 0.0460975 6.93501C0.0460975 6.72078 0.115408 6.54436 0.254026 6.40574Z" fill="white"/>
</svg>
