<svg width="50" height="50" viewBox="0 0 50 50" fill="none" xmlns="http://www.w3.org/2000/svg">
<path d="M45.6667 22.5185V17.8889H41.037V13.2593C41.0334 12.0325 40.5444 10.8571 39.677 9.98966C38.8096 9.12223 37.6341 8.63329 36.4074 8.62963H31.7778V4H27.1481V8.62963H22.5185V4H17.8889V8.62963H13.2593C12.0325 8.63329 10.8571 9.12223 9.98966 9.98966C9.12223 10.8571 8.63329 12.0325 8.62963 13.2593V17.8889H4V22.5185H8.62963V27.1481H4V31.7778H8.62963V36.4074C8.63329 37.6341 9.12223 38.8096 9.98966 39.677C10.8571 40.5444 12.0325 41.0334 13.2593 41.037H17.8889V45.6667H22.5185V41.037H27.1481V45.6667H31.7778V41.037H36.4074C37.6341 41.0334 38.8096 40.5444 39.677 39.677C40.5444 38.8096 41.0334 37.6341 41.037 36.4074V31.7778H45.6667V27.1481H41.037V22.5185H45.6667ZM36.4074 36.4074H13.2593V13.2593H36.4074V36.4074Z" fill="#873AFF"/>
<path d="M24.6693 16.668H21.8672L17.6797 33.3346H19.8193L20.7859 29.4284H25.6109L26.5526 33.3346H28.7651L24.6693 16.668ZM21.0672 27.7596L23.188 18.6471H23.2839L25.3318 27.7596H21.0672ZM30.6755 16.668H32.7589V33.3346H30.6755V16.668Z" fill="#873AFF"/>
</svg>
