<svg width="53" height="50" viewBox="0 0 53 50" fill="none" xmlns="http://www.w3.org/2000/svg">
<path d="M18.7392 36.0751L24.3815 30.4327L22.5074 28.5586L16.865 34.2009L15.8139 33.1499C15.5654 32.9014 15.2283 32.7618 14.8769 32.7618C14.5254 32.7618 14.1883 32.9014 13.9398 33.1499L8.63807 38.4516C8.38959 38.7001 8.25 39.0372 8.25 39.3887C8.25 39.7401 8.38959 40.0772 8.63807 40.3257L12.6144 44.302C12.8629 44.5505 13.2 44.6901 13.5514 44.6901C13.9029 44.6901 14.24 44.5505 14.4885 44.302L19.7902 39.0003C20.0387 38.7518 20.1783 38.4147 20.1783 38.0632C20.1783 37.7118 20.0387 37.3747 19.7902 37.1262L18.7392 36.0751ZM13.5514 41.4908L11.4493 39.3887L14.8769 35.9611L16.979 38.0632L13.5514 41.4908Z" fill="#5C71A7"/>
<path d="M38.7374 43.3615C36.629 43.359 34.6077 42.5204 33.1168 41.0295C31.6259 39.5387 30.7873 37.5173 30.7848 35.4089C30.7854 34.7161 30.879 34.0264 31.0632 33.3585L19.5823 21.8763C18.9139 22.0604 18.2238 22.154 17.5305 22.1546C16.2348 22.1598 14.9577 21.847 13.811 21.2438C12.6643 20.6405 11.6831 19.7651 10.9534 18.6944C10.2238 17.6236 9.76793 16.3902 9.62587 15.1023C9.48382 13.8144 9.65988 12.5113 10.1386 11.3073L10.8782 9.42389L15.268 13.8137C15.5203 14.0546 15.8557 14.189 16.2045 14.189C16.5532 14.189 16.8886 14.0546 17.1409 13.8137C17.2641 13.6907 17.3618 13.5447 17.4285 13.3839C17.4952 13.2231 17.5295 13.0507 17.5295 12.8766C17.5295 12.7026 17.4952 12.5302 17.4285 12.3694C17.3618 12.2086 17.2641 12.0625 17.1409 11.9396L12.7524 7.54709L14.6385 6.80882C15.8425 6.33093 17.1453 6.15557 18.4328 6.29811C19.7203 6.44065 20.9532 6.89673 22.0235 7.62641C23.0939 8.35608 23.9689 9.33709 24.5721 10.4835C25.1752 11.6299 25.488 12.9067 25.4831 14.2021C25.4825 14.8949 25.3889 15.5846 25.2048 16.2525L36.687 27.7347C37.355 27.5508 38.0446 27.4572 38.7374 27.4564C40.0331 27.4512 41.3103 27.7639 42.457 28.3672C43.6037 28.9705 44.5849 29.8459 45.3145 30.9166C46.0442 31.9874 46.5 33.2208 46.6421 34.5087C46.7841 35.7966 46.6081 37.0996 46.1293 38.3037L45.3911 40.1871L40.9999 35.7973C40.7477 35.5564 40.4123 35.422 40.0635 35.422C39.7147 35.422 39.3793 35.5564 39.1271 35.7973C39.0038 35.9202 38.906 36.0662 38.8392 36.2269C38.7724 36.3877 38.7379 36.56 38.7378 36.7341C38.7377 36.9081 38.7719 37.0805 38.8384 37.2414C38.905 37.4022 39.0026 37.5484 39.1257 37.6714L43.5169 42.0626L41.6321 42.8022C40.7109 43.1686 39.7289 43.3584 38.7374 43.3615V43.3615ZM20.2636 18.8093L34.1289 32.6746L33.8121 33.4831C33.5017 34.2591 33.3803 35.0978 33.4581 35.93C33.5358 36.7622 33.8105 37.5639 34.2593 38.269C34.7081 38.9741 35.3182 39.5623 36.0393 39.985C36.7603 40.4077 37.5716 40.6528 38.406 40.7L37.2516 39.5469C36.8823 39.1777 36.5893 38.7393 36.3895 38.2568C36.1896 37.7744 36.0867 37.2572 36.0867 36.735C36.0867 36.2128 36.1896 35.6957 36.3895 35.2132C36.5893 34.7307 36.8823 34.2924 37.2516 33.9231C38.0091 33.1998 39.0161 32.7962 40.0635 32.7962C41.1108 32.7962 42.1179 33.1998 42.8754 33.9231L44.0285 35.0776C43.9811 34.243 43.7358 33.4318 43.3129 32.7108C42.8901 31.9897 42.3018 31.3796 41.5966 30.9309C40.8914 30.4821 40.0896 30.2075 39.2574 30.1297C38.4251 30.0519 37.5863 30.1732 36.8102 30.4836L36.003 30.8004L22.1391 16.9364L22.4572 16.1279C22.7676 15.3518 22.8889 14.5129 22.8111 13.6807C22.7333 12.8484 22.4585 12.0466 22.0096 11.3414C21.5606 10.6363 20.9503 10.0482 20.2291 9.62556C19.5079 9.20294 18.6965 8.95799 17.8619 8.91095L19.015 10.0641C19.3843 10.4333 19.6773 10.8717 19.8771 11.3542C20.077 11.8366 20.1799 12.3537 20.1799 12.876C20.1799 13.3982 20.077 13.9153 19.8771 14.3978C19.6773 14.8803 19.3843 15.3186 19.015 15.6879C18.2575 16.4112 17.2505 16.8147 16.2031 16.8147C15.1558 16.8147 14.1487 16.4112 13.3912 15.6879L12.2381 14.5334C12.2853 15.3679 12.5304 16.1792 12.9531 16.9002C13.3758 17.6212 13.964 18.2314 14.6691 18.6802C15.3742 19.129 16.1759 19.4036 17.0081 19.4814C17.8403 19.5591 18.679 19.4378 19.4551 19.1274L20.2636 18.8093Z" fill="#5C71A7"/>
<path d="M45.5224 7.37687C44.7649 6.65358 43.7578 6.25 42.7105 6.25C41.6631 6.25 40.6561 6.65358 39.8986 7.37687L29.9844 17.2911L31.8585 19.1652L41.7727 9.25103C42.0252 9.01006 42.3608 8.87561 42.7098 8.87561C43.0588 8.87561 43.3944 9.01006 43.6469 9.25103C43.8947 9.49992 44.0339 9.83686 44.0339 10.1881C44.0339 10.5393 43.8947 10.8763 43.6469 11.1252L33.7327 21.0394L35.6068 22.9149L45.521 13.0007C46.2659 12.2544 46.6843 11.2431 46.6843 10.1888C46.6843 9.1344 46.2659 8.12311 45.521 7.37687H45.5224Z" fill="#5C71A7"/>
</svg>
