<svg width="50" height="50" viewBox="0 0 50 50" fill="none" xmlns="http://www.w3.org/2000/svg">
<path d="M16.6037 30.7074L20.1417 30.9675V33.9835C20.1417 33.9835 13.531 40.4816 3.89844 32.7879H7.18092L7.5447 29.8242C7.5447 29.8242 11.2908 33.6187 16.6037 30.7074V30.7074Z" fill="#0D2C40"/>
<path d="M4.6193 16.7734C4.6193 16.7734 -2.57001 23.454 3.31646 32.0073L6.60233 32.3197L6.91535 29.1483C6.91535 29.1483 3.89513 24.2088 7.79688 20.3096L4.29782 20.0394L4.6193 16.7734Z" fill="#0D2C40"/>
<path d="M5.40343 16.3064C5.40343 16.3064 14.371 10.5361 21.1881 17.502L18.1662 17.2943L17.8532 20.6717C17.8532 20.6717 14.415 16.5141 8.68591 19.7379L5.19531 19.5825L5.40343 16.3064Z" fill="#0D2C40"/>
<path d="M18.6328 21.5053L18.8409 18.0215L22.0185 18.3339L31.6037 28.9913H28.3229L28.0099 31.955L18.6328 21.5053Z" fill="#0D2C40"/>
<path d="M17.4844 30.1342L29.6211 16.7715L32.8511 17.0839L32.643 20.36L20.7144 33.6163L20.7652 30.1849L17.4844 30.1342Z" fill="#02D35F"/>
<path d="M30.0859 16.2916L33.4463 16.5651L33.2128 19.7635C33.2128 19.7635 38.1737 16.604 41.8081 19.9577L45.3613 20.1131L45.6811 16.9991C45.6811 16.9991 40.128 10.7509 30.0859 16.2916V16.2916Z" fill="#02D35F"/>
<path d="M42.3211 20.4639L45.8743 20.6716L46.1484 17.5391C46.1484 17.5391 53.9232 26.1836 45.5224 33.6172L42.0859 33.3791L42.399 29.8328C42.399 29.8328 47.0486 24.6367 42.3211 20.4639V20.4639Z" fill="#02D35F"/>
<path d="M32.4385 29.8222L28.8498 29.5098L28.6484 32.6693C28.6484 32.6693 35.0171 40 44.6277 34.1503L41.3452 33.8852L41.6582 30.4926C41.6582 30.4926 37.4773 33.8379 32.4385 29.8222V29.8222Z" fill="#02D35F"/>
</svg>
