<svg width="28" height="56" viewBox="0 0 28 56" fill="none" xmlns="http://www.w3.org/2000/svg">
<path d="M14.0004 13L0 21.422V39.8245C0 39.8245 1.23416 47.6775 11.1437 55.9994V39.1904L5.51513 38.6436L3.15172 33.0401C3.15997 33.0401 13.9993 34.3965 13.9993 34.3965C13.9993 34.3965 24.8389 33.0401 24.8468 33.0401L22.484 38.6433L16.8554 39.1902V56C26.4432 48.315 28 39.8251 28 39.8251V21.4226L14.0004 13Z" fill="#FF5D1D"/>
<path d="M14 13L28 21.4222V39.825C28 39.825 26.4322 48.3154 16.8559 56V39.1904L22.4845 38.6439L24.8483 33.0399C24.8406 33.0399 14.0006 34.3957 14.0006 34.3957" fill="#EF4800"/>
<path d="M8 0H14V13L8 0Z" fill="#FF5D1D"/>
<path d="M20 0H14V13L20 0Z" fill="#EF4800"/>
</svg>
