<svg width="23" height="46" viewBox="0 0 23 46" fill="none" xmlns="http://www.w3.org/2000/svg">
<path d="M11.2477 10.5586L0 17.3955V32.3343C0 32.3343 0.991508 38.7093 8.95268 45.465V31.8196L4.43077 31.3757L2.53204 26.8268C2.53867 26.8268 11.2468 27.928 11.2468 27.928C11.2468 27.928 19.9551 26.8268 19.9615 26.8268L18.0633 31.3755L13.5414 31.8194V45.4654C21.244 39.2268 22.4948 32.3348 22.4948 32.3348V17.3959L11.2477 10.5586Z" fill="#FF5D1D"/>
<path d="M11.25 10.5586L22.4973 17.3954V32.3343C22.4973 32.3343 21.2378 39.2266 13.5443 45.4647V31.8192L18.0663 31.3755L19.9652 26.8264C19.9591 26.8264 11.2505 27.927 11.2505 27.927" fill="#EF4800"/>
<path d="M6.35938 0H11.2483V10.5406L6.35938 0Z" fill="#FF5D1D"/>
<path d="M16.1379 0H11.25V10.5406L16.1379 0Z" fill="#EF4800"/>
</svg>
