<svg width="18" height="19" viewBox="0 0 18 19" fill="none" xmlns="http://www.w3.org/2000/svg">
<path d="M12.1818 0.875V5.22534L9.79545 6.64205V4.23102L8.60227 4.97636L5.81818 6.64205V4.23102L4.625 4.97636L0.647727 7.36273L0.25 7.58625V18.375H17.75V0.875H12.1818ZM13.7727 2.46591H16.1591V16.7841H1.84091V8.45648L4.22727 7.03977V9.4508L5.42045 8.70545L8.20455 7.03977V9.4508L9.39773 8.70545L13.375 6.31909L13.7727 6.09557V2.46591ZM3.43182 10.4205V12.0114H5.02273V10.4205H3.43182ZM6.61364 10.4205V12.0114H8.20455V10.4205H6.61364ZM9.79545 10.4205V12.0114H11.3864V10.4205H9.79545ZM12.9773 10.4205V12.0114H14.5682V10.4205H12.9773ZM3.43182 13.6023V15.1932H5.02273V13.6023H3.43182ZM6.61364 13.6023V15.1932H8.20455V13.6023H6.61364ZM9.79545 13.6023V15.1932H11.3864V13.6023H9.79545ZM12.9773 13.6023V15.1932H14.5682V13.6023H12.9773Z" fill="white"/>
</svg>
