<svg width="18" height="21" viewBox="0 0 18 21" fill="none" xmlns="http://www.w3.org/2000/svg">
<path d="M2.4375 18.0893H5.71875V11.2321H12.2812V18.0893H15.5625V7.80357L9 2.66071L2.4375 7.80357V18.0893ZM2.4375 20.375C1.83594 20.375 1.32115 20.1514 0.893125 19.7041C0.464375 19.2561 0.25 18.7179 0.25 18.0893V7.80357C0.25 7.44167 0.327656 7.09881 0.482969 6.775C0.637552 6.45119 0.851563 6.18452 1.125 5.975L7.6875 0.832143C7.88802 0.679762 8.09766 0.565476 8.31641 0.489286C8.53516 0.413095 8.76302 0.375 9 0.375C9.23698 0.375 9.46484 0.413095 9.68359 0.489286C9.90234 0.565476 10.112 0.679762 10.3125 0.832143L16.875 5.975C17.1484 6.18452 17.3628 6.45119 17.5181 6.775C17.6727 7.09881 17.75 7.44167 17.75 7.80357V18.0893C17.75 18.7179 17.536 19.2561 17.108 19.7041C16.6792 20.1514 16.1641 20.375 15.5625 20.375H10.0938V13.5179H7.90625V20.375H2.4375Z" fill="white"/>
</svg>
