<svg width="20" height="21" viewBox="0 0 20 21" fill="none" xmlns="http://www.w3.org/2000/svg">
<path d="M5.99835 16.625C4.89865 16.625 4.0089 17.525 4.0089 18.625C4.0089 19.725 4.89865 20.625 5.99835 20.625C7.09805 20.625 7.9978 19.725 7.9978 18.625C7.9978 17.525 7.09805 16.625 5.99835 16.625ZM15.9956 16.625C14.8959 16.625 14.0061 17.525 14.0061 18.625C14.0061 19.725 14.8959 20.625 15.9956 20.625C17.0953 20.625 17.995 19.725 17.995 18.625C17.995 17.525 17.0953 16.625 15.9956 16.625ZM14.546 11.625C15.2958 11.625 15.9556 11.215 16.2955 10.595L19.8745 4.105C19.9588 3.95343 20.002 3.78247 19.9999 3.60906C19.9978 3.43564 19.9505 3.26577 19.8627 3.11626C19.7748 2.96675 19.6494 2.84278 19.499 2.75662C19.3485 2.67045 19.1781 2.62509 19.0048 2.625H4.20884L3.2691 0.625H0V2.625H1.99945L5.59846 10.215L4.24883 12.655C3.51903 13.995 4.47877 15.625 5.99835 15.625H17.995V13.625H5.99835L7.09805 11.625H14.546ZM5.15858 4.625H17.3052L14.546 9.625H7.52793L5.15858 4.625Z" fill="white"/>
</svg>
