<svg width="24" height="23" viewBox="0 0 24 23" fill="none" xmlns="http://www.w3.org/2000/svg">
<path d="M16.5998 2.0625C15.4914 0.9375 14.0505 0.375 12.7204 0.375C11.3904 0.375 9.83867 0.9375 8.84113 2.0625L2.41256 8.3625C0.195813 10.6125 0.195813 14.1 2.41256 16.35C4.62931 18.6 8.06527 18.6 10.282 16.35L16.5998 9.9375C18.7057 7.8 18.7057 4.2 16.5998 2.0625ZM15.048 8.3625L11.9446 11.5125L7.95443 7.575L3.07759 12.525C3.07759 11.625 3.29926 10.6125 4.07512 9.9375L10.3929 3.525C10.947 2.9625 11.8337 2.625 12.6096 2.625C13.3855 2.625 14.2722 2.9625 14.9372 3.525C16.2672 4.9875 16.2672 7.0125 15.048 8.3625ZM20.3682 6.1125C20.3682 7.0125 20.1466 7.8 19.9249 8.7C21.0333 10.05 21.0333 12.075 19.814 13.3125L16.7106 16.4625L15.048 14.775L11.9446 17.925C10.5037 19.3875 8.50862 20.175 6.62438 20.175C6.84606 20.5125 7.06773 20.85 7.40025 21.1875C9.61699 23.4375 13.053 23.4375 15.2697 21.1875L21.5874 14.775C23.8042 12.525 23.8042 9.0375 21.5874 6.7875C21.0333 6.5625 20.7007 6.3375 20.3682 6.1125Z" fill="white"/>
</svg>
