<svg width="20" height="23" viewBox="0 0 20 23" fill="none" xmlns="http://www.w3.org/2000/svg">
<path d="M6.21803 11.3111C8.96188 11.3111 11.1861 9.08688 11.1861 6.34303C11.1861 3.59919 8.96188 1.375 6.21803 1.375C3.47419 1.375 1.25 3.59919 1.25 6.34303C1.25 9.08688 3.47419 11.3111 6.21803 11.3111Z" stroke="white" stroke-linejoin="round"/>
<path d="M11.1879 6.94141C11.1948 6.94836 13.5343 9.89043 18.2057 15.7666C18.2848 15.8619 18.3255 15.9832 18.3198 16.1069C18.3141 16.2306 18.2624 16.3477 18.1749 16.4353L16.146 18.4643C16.0584 18.5518 15.9413 18.6035 15.8176 18.6092C15.6939 18.6149 15.5725 18.5742 15.4773 18.4951L7.125 11.3123M11.4214 11.5458L12.8268 12.9512" stroke="white" stroke-linecap="round" stroke-linejoin="round"/>
<path d="M6.71875 21.2865C7.67112 20.0455 8.82867 19.425 10.1914 19.425C12.2362 19.425 14.6492 21.9935 16.7075 21.6402C18.7662 21.2865 19.3554 19.2566 18.0886 18.1328" stroke="white" stroke-linecap="round" stroke-linejoin="round"/>
</svg>
