<svg width="24" height="13" viewBox="0 0 24 13" fill="none" xmlns="http://www.w3.org/2000/svg">
<path d="M7.15 1.625H4.35C4.19087 1.625 4.03826 1.68821 3.92574 1.80074C3.81321 1.91326 3.75 2.06587 3.75 2.225V11.025C3.75 11.1038 3.76552 11.1818 3.79567 11.2546C3.82583 11.3274 3.87002 11.3935 3.92574 11.4493C3.98145 11.505 4.04759 11.5492 4.12039 11.5793C4.19319 11.6095 4.27121 11.625 4.35 11.625H7.15C7.22879 11.625 7.30681 11.6095 7.37961 11.5793C7.45241 11.5492 7.51855 11.505 7.57426 11.4493C7.62998 11.3935 7.67417 11.3274 7.70433 11.2546C7.73448 11.1818 7.75 11.1038 7.75 11.025V2.225C7.75 2.06587 7.68679 1.91326 7.57426 1.80074C7.46174 1.68821 7.30913 1.625 7.15 1.625V1.625ZM19.15 1.625H16.35C16.1909 1.625 16.0383 1.68821 15.9257 1.80074C15.8132 1.91326 15.75 2.06587 15.75 2.225V11.025C15.75 11.1038 15.7655 11.1818 15.7957 11.2546C15.8258 11.3274 15.87 11.3935 15.9257 11.4493C15.9814 11.505 16.0476 11.5492 16.1204 11.5793C16.1932 11.6095 16.2712 11.625 16.35 11.625H19.15C19.2288 11.625 19.3068 11.6095 19.3796 11.5793C19.4524 11.5492 19.5185 11.505 19.5743 11.4493C19.63 11.3935 19.6742 11.3274 19.7043 11.2546C19.7345 11.1818 19.75 11.1038 19.75 11.025V2.225C19.75 2.06587 19.6868 1.91326 19.5743 1.80074C19.4617 1.68821 19.3091 1.625 19.15 1.625V1.625Z" stroke="white" stroke-width="1.5" stroke-linecap="round" stroke-linejoin="round"/>
<path d="M7.75 6.625H15.75M0.75 9.025V4.225C0.75 4.06587 0.813214 3.91326 0.925736 3.80074C1.03826 3.68821 1.19087 3.625 1.35 3.625H3.15C3.30913 3.625 3.46174 3.68821 3.57426 3.80074C3.68679 3.91326 3.75 4.06587 3.75 4.225V9.025C3.75 9.18413 3.68679 9.33674 3.57426 9.44926C3.46174 9.56179 3.30913 9.625 3.15 9.625H1.35C1.19087 9.625 1.03826 9.56179 0.925736 9.44926C0.813214 9.33674 0.75 9.18413 0.75 9.025V9.025ZM22.75 9.025V4.225C22.75 4.06587 22.6868 3.91326 22.5743 3.80074C22.4617 3.68821 22.3091 3.625 22.15 3.625H20.35C20.1909 3.625 20.0383 3.68821 19.9257 3.80074C19.8132 3.91326 19.75 4.06587 19.75 4.225V9.025C19.75 9.18413 19.8132 9.33674 19.9257 9.44926C20.0383 9.56179 20.1909 9.625 20.35 9.625H22.15C22.3091 9.625 22.4617 9.56179 22.5743 9.44926C22.6868 9.33674 22.75 9.18413 22.75 9.025V9.025Z" stroke="white" stroke-width="1.5" stroke-linecap="round" stroke-linejoin="round"/>
</svg>
