<svg width="26" height="20" viewBox="0 0 26 20" fill="none" xmlns="http://www.w3.org/2000/svg">
<path d="M24.7839 3.04L19.7828 0.0319999H19.7727L19.7423 0.0106665H19.6816C19.6816 -1.62919e-07 19.6715 0 19.6613 0H16.2396C16.0785 0 15.924 0.0674283 15.8101 0.187452C15.6961 0.307475 15.6321 0.470261 15.6321 0.64C15.6321 1.37553 15.3548 2.08094 14.8612 2.60104C14.3676 3.12114 13.6981 3.41333 13 3.41333C12.3019 3.41333 11.6324 3.12114 11.1388 2.60104C10.6452 2.08094 10.3679 1.37553 10.3679 0.64C10.3679 0.470261 10.3039 0.307475 10.1899 0.187452C10.076 0.0674283 9.92154 0 9.76044 0H6.33865C6.32853 0 6.31841 -1.62919e-07 6.31841 0.0106665H6.25766L6.22729 0.0319999H6.21717L1.2161 3.04C0.900812 3.23094 0.666581 3.54148 0.561222 3.90821C0.455863 4.27494 0.487321 4.67021 0.649175 5.01333L2.51192 8.93867C2.63001 9.18559 2.81084 9.39311 3.03427 9.53813C3.2577 9.68314 3.51496 9.75995 3.77738 9.76H5.91346V18.5067C5.91346 18.9027 6.06278 19.2826 6.32858 19.5626C6.59438 19.8427 6.95487 20 7.33077 20H18.6692C19.0451 20 19.4056 19.8427 19.6714 19.5626C19.9372 19.2826 20.0865 18.9027 20.0865 18.5067V9.76H22.2226C22.485 9.75995 22.7423 9.68314 22.9657 9.53813C23.1892 9.39311 23.37 9.18559 23.4881 8.93867L25.3508 5.01333C25.5127 4.67021 25.5441 4.27494 25.4388 3.90821C25.3334 3.54148 25.0992 3.23094 24.7839 3.04V3.04ZM3.77738 8.48C3.74083 8.48089 3.70487 8.47017 3.67418 8.44925C3.64349 8.42832 3.61948 8.39816 3.60527 8.36267L1.74253 4.43733C1.72984 4.41423 1.72161 4.38873 1.71831 4.36227C1.71501 4.33581 1.7167 4.30893 1.72329 4.28316C1.72987 4.25739 1.74122 4.23325 1.75668 4.21211C1.77214 4.19098 1.79142 4.17327 1.81339 4.16L5.91346 1.68533V8.48H3.77738ZM18.8717 18.5067C18.8717 18.5632 18.8504 18.6175 18.8124 18.6575C18.7744 18.6975 18.7229 18.72 18.6692 18.72H7.33077C7.27707 18.72 7.22557 18.6975 7.1876 18.6575C7.14963 18.6175 7.1283 18.5632 7.1283 18.5067V1.22667H9.20364C9.35117 2.17542 9.81396 3.03803 10.5094 3.66047C11.2048 4.2829 12.0875 4.62463 13 4.62463C13.9125 4.62463 14.7952 4.2829 15.4906 3.66047C16.186 3.03803 16.6488 2.17542 16.7964 1.22667H18.8717V18.5067ZM24.2575 4.43733L22.3947 8.36267C22.3805 8.39816 22.3565 8.42832 22.3258 8.44925C22.2951 8.47017 22.2592 8.48089 22.2226 8.48H20.0865V1.68533L24.1866 4.16C24.2086 4.17327 24.2279 4.19098 24.2433 4.21211C24.2588 4.23325 24.2701 4.25739 24.2767 4.28316C24.2833 4.30893 24.285 4.33581 24.2817 4.36227C24.2784 4.38873 24.2702 4.41423 24.2575 4.43733V4.43733Z" fill="white"/>
</svg>
