<svg width="21" height="27" viewBox="0 0 21 27" fill="none" xmlns="http://www.w3.org/2000/svg">
<path d="M10.5 0.011336C9.10521 -0.0559928 7.71213 0.177156 6.40993 0.695858C5.10772 1.21456 3.9251 2.00739 2.93775 3.02359C1.9504 4.03979 1.18008 5.25697 0.676103 6.59722C0.172127 7.93747 -0.0544032 9.37126 0.0110141 10.8068C0.0110141 14.2074 2.63326 17.554 3.94438 18.9034C5.25551 20.2528 10.5 27 10.5 27C10.5 27 15.7445 20.2528 17.0556 18.9034C18.3667 17.554 20.989 14.2074 20.989 10.8068C21.0544 9.37126 20.8279 7.93747 20.3239 6.59722C19.8199 5.25697 19.0496 4.03979 18.0623 3.02359C17.0749 2.00739 15.8923 1.21456 14.5901 0.695858C13.2879 0.177156 11.8948 -0.0559928 10.5 0.011336ZM10.5 15.1925C9.65723 15.1925 8.83337 14.9352 8.13263 14.4533C7.43189 13.9714 6.88573 13.2865 6.56321 12.4851C6.24069 11.6837 6.15631 10.8019 6.32073 9.9512C6.48514 9.10047 6.89098 8.31902 7.48691 7.70567C8.08284 7.09233 8.84211 6.67464 9.66869 6.50541C10.4953 6.33619 11.352 6.42304 12.1307 6.75498C12.9093 7.08692 13.5748 7.64904 14.043 8.37026C14.5112 9.09148 14.7612 9.9394 14.7612 10.8068C14.7612 11.3827 14.6509 11.953 14.4368 12.4851C14.2226 13.0172 13.9088 13.5007 13.5131 13.9079C13.1174 14.3152 12.6477 14.6382 12.1307 14.8586C11.6137 15.079 11.0596 15.1925 10.5 15.1925Z" fill="#EF4800"/>
</svg>
