<svg width="50" height="50" viewBox="0 0 50 50" fill="none" xmlns="http://www.w3.org/2000/svg">
<path d="M34.375 3.51562H15.625C14.487 3.52076 13.397 3.97512 12.5923 4.77983C11.7876 5.58454 11.3333 6.67448 11.3281 7.8125V42.1875C11.3333 43.3255 11.7876 44.4155 12.5923 45.2202C13.397 46.0249 14.487 46.4792 15.625 46.4844H34.375C35.513 46.4792 36.603 46.0249 37.4077 45.2202C38.2124 44.4155 38.6667 43.3255 38.6719 42.1875V7.8125C38.6667 6.67448 38.2124 5.58454 37.4077 4.77983C36.603 3.97512 35.513 3.52076 34.375 3.51562ZM36.3281 42.1875C36.3281 42.7055 36.1224 43.2023 35.7561 43.5686C35.3898 43.9349 34.893 44.1406 34.375 44.1406H15.625C15.107 44.1406 14.6102 43.9349 14.2439 43.5686C13.8777 43.2023 13.6719 42.7055 13.6719 42.1875V7.8125C13.6719 7.2945 13.8777 6.79771 14.2439 6.43143C14.6102 6.06515 15.107 5.85938 15.625 5.85938H34.375C34.893 5.85938 35.3898 6.06515 35.7561 6.43143C36.1224 6.79771 36.3281 7.2945 36.3281 7.8125V42.1875ZM32.4219 10.9375C32.4219 11.2483 32.2984 11.5464 32.0786 11.7661C31.8589 11.9859 31.5608 12.1094 31.25 12.1094H18.75C18.4392 12.1094 18.1411 11.9859 17.9214 11.7661C17.7016 11.5464 17.5781 11.2483 17.5781 10.9375C17.5781 10.6267 17.7016 10.3286 17.9214 10.1089C18.1411 9.88909 18.4392 9.76563 18.75 9.76562H31.25C31.5608 9.76562 31.8589 9.88909 32.0786 10.1089C32.2984 10.3286 32.4219 10.6267 32.4219 10.9375V10.9375Z" fill="#E40009"/>
</svg>
