<svg width="50" height="50" viewBox="0 0 50 50" fill="none" xmlns="http://www.w3.org/2000/svg">
<path d="M21.5632 43.7513C21.0331 43.7513 20.5067 43.6122 20.042 43.3447L15.1997 40.4779C14.4764 40.0734 14.8293 39.9303 15.0679 39.8479C16.0322 39.5103 16.2279 39.434 17.2572 38.8495C17.3654 38.7877 17.507 38.8095 17.6177 38.8749L21.3378 41.0824C21.4721 41.155 21.6627 41.155 21.7872 41.0824L36.292 32.7099C36.4263 32.6337 36.5134 32.4776 36.5134 32.3178V15.5802C36.5134 15.4132 36.4263 15.2643 36.289 15.1808L21.7901 6.81567C21.6558 6.73579 21.4779 6.73579 21.3436 6.81567L6.84757 15.1808C6.70706 15.2607 6.61775 15.4168 6.61775 15.5766V32.3142C6.61775 32.4739 6.70488 32.6264 6.84285 32.7027L10.8149 34.9973C12.9715 36.0756 14.2895 34.8049 14.2895 33.5268V17.0071C14.2895 16.7711 14.4746 16.5896 14.7106 16.5896H16.5478C16.7765 16.5896 16.9653 16.7711 16.9653 17.0071V33.5341C16.9653 36.4096 15.3968 38.0616 12.6702 38.0616C11.8315 38.0616 11.1707 38.0616 9.32626 37.1539L5.52127 34.961C4.58092 34.4164 4 33.3998 4 32.3142V15.5766C4 14.4874 4.58092 13.4708 5.52127 12.9334L20.0405 4.55736C20.9591 4.03817 22.179 4.03817 23.0903 4.55736L37.5914 12.9371C38.5281 13.478 39.1127 14.491 39.1127 15.5802V32.3178C39.1127 33.4034 38.5281 34.4164 37.5914 34.961L23.0903 43.337C22.6256 43.6057 22.0991 43.7437 21.5618 43.7437" fill="#3E863D"/>
<path d="M26.0443 32.2159C19.6978 32.2159 18.3672 29.3026 18.3672 26.8592C18.3672 26.6268 18.5545 26.4416 18.7873 26.4416H20.6607C20.8677 26.4416 21.0419 26.5923 21.0746 26.7967C21.3578 28.7057 22.2001 29.6686 26.0378 29.6686C29.0949 29.6686 30.3947 28.978 30.3947 27.3569C30.3947 26.4238 30.0243 25.7304 25.2754 25.2656C21.3034 24.8735 18.849 23.9985 18.849 20.8216C18.849 17.8953 21.3179 16.1525 25.4533 16.1525C30.0969 16.1525 32.3988 17.7646 32.6893 21.2283C32.7002 21.3481 32.6566 21.4643 32.5767 21.5514C32.4968 21.6349 32.3843 21.6857 32.2681 21.6857H30.3838C30.1877 21.6857 30.0171 21.5478 29.9771 21.359C29.5233 19.3512 28.4268 18.7086 25.446 18.7086C22.1094 18.7086 21.7209 19.8704 21.7209 20.7418C21.7209 21.7983 22.1784 22.1069 26.6804 22.7023C31.139 23.2942 33.2557 24.1292 33.2557 27.2625C33.2557 30.4213 30.6198 32.233 26.0233 32.233M43.6903 14.4824H44.1769C44.5762 14.4824 44.6525 14.2028 44.6525 14.0395C44.6525 13.611 44.3584 13.611 44.195 13.611H43.694L43.6903 14.4824ZM43.0985 13.11H44.1769C44.5472 13.11 45.2733 13.11 45.2733 13.9378C45.2733 14.5151 44.903 14.6349 44.6815 14.7075C45.1136 14.7366 45.1426 15.0198 45.2007 15.4191C45.2298 15.6697 45.277 16.1017 45.3641 16.2469H44.6997C44.6815 16.1017 44.5799 15.3029 44.5799 15.2594C44.5363 15.0815 44.4746 14.9943 44.2531 14.9943H43.7049V16.2506H43.0985V13.11ZM41.8024 14.6712C41.8024 15.971 42.8517 17.0239 44.1406 17.0239C45.4404 17.0239 46.4896 15.9492 46.4896 14.6712C46.4896 13.3678 45.4258 12.333 44.1369 12.333C42.8662 12.333 41.7987 13.3533 41.7987 14.6676M46.9398 14.6785C46.9398 16.2179 45.68 17.4741 44.1442 17.4741C42.6193 17.4741 41.3485 16.2324 41.3485 14.6785C41.3485 13.0955 42.6483 11.8828 44.1442 11.8828C45.6509 11.8828 46.9362 13.0991 46.9362 14.6785" fill="#3E863D"/>
</svg>
