<svg width="99" height="28" viewBox="0 0 99 28" fill="none" xmlns="http://www.w3.org/2000/svg">
<g clip-path="url(#clip0_302_5268)">
<path fill-rule="evenodd" clip-rule="evenodd" d="M5.8565 4.27312L9.46781 14.2175L13.2517 4.27312H18.6231L9.43802 27.3014H4.12531L6.84212 20.1658L0.3125 4.27312H5.8565ZM62.5905 3.9205C67.4406 3.9205 70.9775 7.6795 70.9775 12.8245C70.9775 17.9695 67.4406 21.7294 62.5905 21.7294C60.8006 21.7294 59.2937 21.256 58.1434 20.3434L58.0689 20.283L58.005 20.2305V27.2961H52.8289V4.27312H57.4057V5.99425L57.432 5.9645C58.5596 4.68 60.2653 3.9695 62.3732 3.92313L62.4845 3.92138H62.5905V3.9205ZM28.0509 3.9205C33.3916 3.9205 37.1773 7.606 37.1773 12.8245C37.1773 18.0211 33.3794 21.7294 28.0509 21.7294C22.6926 21.7294 18.8886 18.0264 18.8886 12.8245C18.8886 7.60075 22.6795 3.9205 28.0509 3.9205ZM45.8008 0.484375V4.27312H50.0587V8.73825H45.8008V14.9018C45.8008 16.2808 46.471 17.0394 47.6923 17.0858L47.7519 17.0866L47.8123 17.0875C48.6403 17.0875 49.2676 16.8705 49.8291 16.3315L49.8817 16.2799L50.021 16.1372H50.0596V21.0626L49.901 21.1388C49.0485 21.5456 48.5237 21.7294 47.0712 21.7294C42.9675 21.7294 40.7141 19.4981 40.6265 15.3314L40.6248 15.2045V15.0776L40.6239 8.73825H38.7508V4.27312H40.765V0.484375H45.7999H45.8008ZM82.288 3.9205C87.6287 3.9205 91.4144 7.606 91.4144 12.8245C91.4144 18.0211 87.6165 21.7294 82.288 21.7294C76.9297 21.7294 73.1257 18.0264 73.1257 12.8245C73.1257 7.60075 76.9175 3.9205 82.288 3.9205ZM95.6337 16.0638C97.2002 16.0638 98.4697 17.3325 98.4697 18.8961C98.4697 20.4606 97.1993 21.7294 95.6337 21.7294C94.0673 21.7294 92.7978 20.4606 92.7978 18.8961C92.7978 17.3316 94.0681 16.0638 95.6337 16.0638ZM61.8152 8.56237C59.483 8.56237 57.899 10.2861 57.899 12.8245C57.899 15.3637 59.483 17.0875 61.8152 17.0875C64.1771 17.0875 65.7664 15.369 65.7664 12.8245C65.7664 10.2809 64.1771 8.56237 61.8152 8.56237ZM28.05 8.56237C25.7108 8.56237 24.0997 10.2949 24.0997 12.8245C24.0997 15.355 25.7108 17.0875 28.0509 17.0875C30.3603 17.0875 31.9671 15.3497 31.9671 12.8245C31.9671 10.3001 30.3603 8.56237 28.0509 8.56237H28.05ZM82.288 8.56237C79.9488 8.56237 78.3368 10.2949 78.3368 12.8245C78.3368 15.355 79.9488 17.0875 82.288 17.0875C84.5974 17.0875 86.2042 15.3497 86.2042 12.8245C86.2042 10.3001 84.5974 8.56237 82.288 8.56237Z" fill="#0042E4"/>
</g>
<defs>
<clipPath id="clip0_302_5268">
<rect width="99" height="28" fill="white"/>
</clipPath>
</defs>
</svg>
