<svg width="102" height="27" viewBox="0 0 102 27" fill="none" xmlns="http://www.w3.org/2000/svg">
<g clip-path="url(#clip0_302_5293)">
<path fill-rule="evenodd" clip-rule="evenodd" d="M35.7374 20.0576C33.8605 20.0576 32.3835 19.55 31.305 18.5342C30.227 17.519 29.6875 16.0019 29.6875 13.9837V6.17188H32.7629V13.9056C32.7629 15.0255 33.0289 15.8681 33.5614 16.4347C34.0933 17.0013 34.8321 17.2843 35.7771 17.2843C36.722 17.2843 37.4608 17.0108 37.9933 16.4639C38.5257 15.9175 38.7917 15.0972 38.7917 14.0033V6.17188H41.8666V13.886C41.8666 14.9278 41.7233 15.8326 41.4373 16.6009C41.1507 17.3692 40.7414 18.0107 40.2095 18.5246C39.677 19.0392 39.0311 19.4231 38.2728 19.6769C37.514 19.9307 36.6689 20.0576 35.7374 20.0576Z" fill="#1D2E44"/>
<path fill-rule="evenodd" clip-rule="evenodd" d="M44.9062 6.17188H47.6867L54.109 14.7216V6.17188H57.0854V20.0576H54.52L47.8821 11.2301V20.0576H44.9062V6.17188Z" fill="#1D2E44"/>
<path fill-rule="evenodd" clip-rule="evenodd" d="M66.5334 17.3799C67.1872 17.3799 67.6993 17.2575 68.0714 17.0126C68.4424 16.7683 68.6284 16.3881 68.6284 15.872V15.8326C68.6284 15.3699 68.456 15.0026 68.1095 14.7313C67.7636 14.4606 67.2065 14.3247 66.4378 14.3247H63.0164V17.3799H66.5334ZM65.7454 11.7856C66.3991 11.7856 66.918 11.6702 67.3026 11.4388C67.6873 11.2074 67.8791 10.8337 67.8791 10.3176V10.2782C67.8791 9.81548 67.7124 9.46169 67.3795 9.21684C67.0455 8.97253 66.5653 8.85011 65.9377 8.85011H63.0164V11.7856H65.7454ZM60.1328 6.17188H66.3688C67.9162 6.17188 69.0867 6.58229 69.88 7.40205C70.4941 8.03682 70.8008 8.82368 70.8008 9.76209V9.802C70.8008 10.1989 70.7527 10.5489 70.6576 10.8537C70.5615 11.1578 70.4345 11.4318 70.2756 11.6767C70.1162 11.9215 69.9318 12.1361 69.7217 12.3217C69.5116 12.5067 69.2858 12.6652 69.0439 12.7973C69.8215 13.1021 70.434 13.5152 70.8808 14.0372C71.3265 14.5598 71.5507 15.2841 71.5507 16.2096V16.249C71.5507 16.8837 71.4321 17.4392 71.1954 17.9154C70.9586 18.3911 70.6195 18.788 70.1779 19.1057C69.7368 19.4228 69.2059 19.6607 68.5856 19.8198C67.9653 19.9783 67.2776 20.0576 66.5224 20.0576H60.1328V6.17188Z" fill="#1D2E44"/>
<path fill-rule="evenodd" clip-rule="evenodd" d="M77.7908 12.9958L73.2714 6.17188H76.748L79.5871 10.6746L82.4452 6.17188H85.8252L81.3057 12.9559L86.0184 20.0576H82.5418L79.5099 15.2971L76.4581 20.0576H73.0781L77.7908 12.9958Z" fill="#1D2E44"/>
<path fill-rule="evenodd" clip-rule="evenodd" d="M94.3781 17.5913C94.9844 17.5913 95.5396 17.4902 96.0428 17.2879C96.5464 17.0857 96.9753 16.7965 97.33 16.4189C97.6853 16.0419 97.9626 15.5967 98.1626 15.0844C98.3621 14.5721 98.4631 13.9994 98.4631 13.3662V13.3256C98.4631 12.7061 98.3621 12.1328 98.1626 11.6074C97.9626 11.0814 97.6853 10.6301 97.33 10.2525C96.9753 9.87544 96.5464 9.58248 96.0428 9.37307C95.5396 9.16421 94.9844 9.06032 94.3781 9.06032H92.0746V17.5913H94.3781ZM89.0938 6.25H94.3781C95.436 6.25 96.4075 6.42808 97.2916 6.78535C98.1752 7.14262 98.9368 7.6384 99.5757 8.27104C100.215 8.90532 100.708 9.64954 101.056 10.5053C101.405 11.3617 101.579 12.2878 101.579 13.2849V13.3256C101.579 14.3232 101.405 15.2531 101.056 16.1155C100.708 16.9779 100.215 17.7265 99.5757 18.3592C98.9368 18.9935 98.1752 19.492 97.2916 19.8559C96.4075 20.2197 95.436 20.4017 94.3781 20.4017H89.0938V6.25Z" fill="#1D2E44"/>
<path fill-rule="evenodd" clip-rule="evenodd" d="M23.5949 7.66992C23.5949 7.07568 23.1792 6.34582 22.6718 6.04842L12.7186 0.222568C12.2112 -0.0742801 11.3805 -0.0742802 10.873 0.223113L0.922015 6.05278C0.414558 6.35017 -0.000536471 7.07949 5.20428e-07 7.67428L0.00161149 19.3298C0.00161149 19.9246 0.417243 20.6539 0.9247 20.9513L10.8778 26.7772C11.3853 27.0746 12.216 27.074 12.7235 26.7772L22.6745 20.9469C23.1819 20.6501 23.597 19.9202 23.597 19.3254L23.5949 7.66992Z" fill="#27ADB6"/>
</g>
<defs>
<clipPath id="clip0_302_5293">
<rect width="102" height="27" fill="white"/>
</clipPath>
</defs>
</svg>
