<svg width="105" height="27" viewBox="0 0 105 27" fill="none" xmlns="http://www.w3.org/2000/svg">
<g clip-path="url(#clip0_302_5308)">
<path d="M35.5479 21.4082H34.2766V18.9924C33.9941 19.5135 32.5815 21.7398 29.4268 21.7398C25.7071 21.7398 23.0703 18.8977 23.0703 14.9188C23.0703 10.8924 25.6129 8.00296 29.2856 8.00296C32.2519 8.00296 33.8057 10.0398 34.2295 10.8451V3.21875H35.5008V21.4082H35.5479ZM29.3326 9.18717C26.5075 9.18717 24.3887 11.5556 24.3887 14.9188C24.3887 18.3293 26.6017 20.5556 29.3797 20.5556C32.3932 20.5556 34.3237 17.9977 34.3237 14.9188C34.3237 11.2714 32.0636 9.18717 29.3326 9.18717Z" fill="#3E3D48"/>
<path d="M44.6373 8.00391C48.3571 8.00391 50.7584 10.7986 50.7584 14.5407V15.0618H39.6463C39.6463 18.5197 41.8593 20.5565 44.9669 20.5565C47.3683 20.5565 48.6867 19.3723 49.44 18.3302L50.2876 18.8986C49.44 20.2723 47.792 21.7407 44.9669 21.7407C41.153 21.7407 38.375 18.9934 38.375 14.9197C38.375 10.6565 41.3414 8.00391 44.6373 8.00391ZM49.44 13.9723C49.2988 10.7039 47.0387 9.14075 44.5902 9.14075C42.236 9.14075 39.9759 10.7513 39.7405 13.9723H49.44Z" fill="#3E3D48"/>
<path d="M53.5312 3.21875H54.8026V21.4556H53.5312V3.21875Z" fill="#3E3D48"/>
<path d="M62.0546 21.4096L56.8281 8.33594H58.1936L62.7138 19.8938L67.234 8.33594H68.5994L63.373 21.4096H62.0546Z" fill="#3E3D48"/>
<path d="M75.9502 8.00391C79.6699 8.00391 82.0712 10.7986 82.0712 14.5407V15.0618H71.0062C71.0062 18.5197 73.2192 20.5565 76.3269 20.5565C78.7282 20.5565 80.0466 19.3723 80.8 18.3302L81.6475 18.8986C80.7999 20.2723 79.152 21.7407 76.3269 21.7407C72.513 21.7407 69.7349 18.9934 69.7349 14.9197C69.6878 10.6565 72.6542 8.00391 75.9502 8.00391ZM80.7529 13.9723C80.6116 10.7039 78.3515 9.14075 75.9031 9.14075C73.5488 9.14075 71.2887 10.7513 71.0533 13.9723H80.7529Z" fill="#3E3D48"/>
<path d="M84.8952 19.6562C85.4603 19.6562 85.9311 20.1299 85.9311 20.6984C85.9311 21.2668 85.4603 21.7405 84.8952 21.7405C84.3302 21.7405 83.8594 21.2668 83.8594 20.6984C83.8594 20.1299 84.3302 19.6562 84.8952 19.6562Z" fill="#49C6EF"/>
<path d="M93.366 13.1192C95.1553 13.1192 96.5207 13.8771 97.0858 14.5403V12.5508C97.0858 10.3718 95.6732 9.18762 93.5073 9.18762C91.7651 9.18762 90.3997 9.85078 89.505 10.4192L88.9871 9.42447C89.6934 8.95078 91.3885 8.05078 93.6015 8.05078C96.8503 8.05078 98.3571 9.94552 98.3571 12.6455V21.456H97.3212L97.0858 20.2245C96.3795 21.0297 95.2494 21.7876 93.366 21.7876C90.3997 21.7876 88.375 19.8929 88.375 17.4297C88.375 14.9666 90.4938 13.1192 93.366 13.1192ZM93.4131 20.6034C95.6261 20.6034 97.1329 19.2297 97.1329 17.4297C97.1329 15.5824 95.6732 14.3034 93.366 14.3034C91.0589 14.3034 89.5992 15.6771 89.5992 17.4297C89.6463 19.135 91.1059 20.6034 93.4131 20.6034Z" fill="#49C6EF"/>
<path d="M102.458 3.83594C103.023 3.83594 103.494 4.30962 103.494 4.87804C103.494 5.44646 103.023 5.92015 102.458 5.92015C101.893 5.92015 101.422 5.44646 101.422 4.87804C101.422 4.30962 101.893 3.83594 102.458 3.83594ZM101.846 8.33594H103.117V21.4096H101.846V8.33594Z" fill="#49C6EF"/>
<path d="M0.515625 21.6016H12.9932" stroke="#49C6EF" stroke-width="2.24" stroke-linecap="round" stroke-linejoin="round"/>
<path d="M9.23438 15.9609H13.0012" stroke="#49C6EF" stroke-width="2.24" stroke-linecap="round" stroke-linejoin="round"/>
<path d="M6.73427 9.42969C3.86207 9.42969 1.50781 11.7981 1.50781 14.6876C1.50781 17.5771 3.86207 19.9455 6.73427 19.9455C8.42934 19.9455 9.98315 19.1402 10.9719 17.7665" stroke="#49C6EF" stroke-width="2.24" stroke-linecap="round" stroke-linejoin="round"/>
<path d="M8.65702 3.60156L4.98438 5.30683L8.75119 13.3121L10.0225 12.6963L10.5404 13.7858L11.6234 13.2647L11.1055 12.1752L12.3768 11.5595L8.65702 3.60156Z" stroke="#49C6EF" stroke-width="2.24" stroke-linecap="round" stroke-linejoin="round"/>
<path d="M7.774 1.80078L4.14844 3.55341" stroke="#49C6EF" stroke-width="2.24" stroke-linecap="round" stroke-linejoin="round"/>
</g>
<defs>
<clipPath id="clip0_302_5308">
<rect width="105" height="27" fill="white"/>
</clipPath>
</defs>
</svg>
