<svg width="146" height="26" viewBox="0 0 146 26" fill="none" xmlns="http://www.w3.org/2000/svg">
<g clip-path="url(#clip0_302_5304)">
<path fill-rule="evenodd" clip-rule="evenodd" d="M23.2396 23.7566H12.9696C12.5796 23.7566 12.2156 23.9966 12.0996 24.3666C11.9046 24.9866 12.3626 25.5566 12.9526 25.5566H23.2206C23.6106 25.5566 23.9766 25.3196 24.0926 24.9466C24.2866 24.3266 23.8296 23.7566 23.2396 23.7566ZM26.5416 8.43864H29.5216C30.3516 8.43864 31.0236 7.76464 31.0236 6.93364C31.0236 6.10164 30.3516 5.42864 29.5216 5.42864H26.5416C25.7116 5.42864 25.0386 6.10164 25.0386 6.93364C25.0386 7.76364 25.7116 8.43864 26.5416 8.43864ZM29.5216 17.2446H17.1716C16.3416 17.2446 15.6696 17.9176 15.6696 18.7496C15.6696 19.5816 16.3416 20.2546 17.1716 20.2546H29.5216C30.3516 20.2546 31.0246 19.5816 31.0246 18.7496C31.0246 17.9176 30.3516 17.2446 29.5216 17.2446ZM7.62262 11.1846C6.70962 11.1846 5.96863 11.9266 5.96863 12.8416C5.96863 13.7566 6.70862 14.4986 7.62262 14.4986H12.2026C13.1156 14.4986 13.8556 13.7566 13.8556 12.8416C13.8556 11.9266 13.1156 11.1846 12.2006 11.1846H7.62063H7.62262ZM31.6306 11.1846H26.6926C25.7796 11.1846 25.0386 11.9266 25.0386 12.8416C25.0386 13.7566 25.7786 14.4986 26.6926 14.4986H31.6306C32.5436 14.4986 33.2846 13.7566 33.2846 12.8416C33.2846 11.9266 32.5446 11.1846 31.6306 11.1846ZM12.3466 8.43864H21.7316C22.5616 8.43864 23.2336 7.76464 23.2336 6.93364C23.2336 6.10164 22.5606 5.42864 21.7316 5.42864H2.14363C1.31363 5.42864 0.641625 6.10164 0.641625 6.93364C0.641625 7.76364 1.31463 8.43864 2.14363 8.43864H12.3466ZM13.8566 18.7496C13.8566 17.9176 13.1826 17.2446 12.3536 17.2446H2.14363C1.31363 17.2446 0.640625 17.9176 0.640625 18.7496C0.640625 19.5816 1.31363 20.2546 2.14363 20.2546H12.3536C13.1836 20.2546 13.8556 19.5816 13.8556 18.7496M27.0206 23.7716C26.3856 23.6496 25.8386 24.1976 25.9606 24.8346C26.0266 25.1876 26.3156 25.4776 26.6676 25.5446C27.3046 25.6646 27.8516 25.1166 27.7306 24.4806C27.6636 24.1256 27.3746 23.8366 27.0206 23.7706M13.8536 1.92964H24.1216C24.5116 1.92964 24.8766 1.68964 24.9936 1.31764C25.1876 0.697639 24.7296 0.127639 24.1396 0.127639H13.8716C13.4816 0.127639 13.1156 0.365639 12.9996 0.737639C12.8056 1.35764 13.2636 1.92964 13.8536 1.92964ZM10.0716 1.91564C10.7066 2.03564 11.2536 1.48764 11.1316 0.851639C11.0656 0.497639 10.7776 0.208639 10.4246 0.141639C9.78963 0.0216385 9.24263 0.568639 9.36263 1.20564C9.42963 1.55864 9.71863 1.84864 10.0726 1.91564" fill="#00EBB6"/>
<path fill-rule="evenodd" clip-rule="evenodd" d="M56.8244 12.872C56.8244 13.928 56.6124 14.889 56.1944 15.73C55.7774 16.565 55.1644 17.233 54.3714 17.72C53.5774 18.203 52.6284 18.45 51.5514 18.45C50.4574 18.45 49.5054 18.204 48.7184 17.72C47.9324 17.233 47.3224 16.564 46.9084 15.73C46.4884 14.89 46.2754 13.93 46.2754 12.873C46.2754 11.816 46.4884 10.855 46.9074 10.015C47.3224 9.181 47.9314 8.512 48.7174 8.027C49.5034 7.543 50.4554 7.297 51.5494 7.297C52.6274 7.297 53.5774 7.543 54.3694 8.027C55.1624 8.512 55.7754 9.181 56.1924 10.015C56.6124 10.855 56.8224 11.817 56.8224 12.873M55.4384 6.227C54.3334 5.579 53.0254 5.25 51.5504 5.25C50.0754 5.25 48.7644 5.58 47.6524 6.228C46.5384 6.878 45.6674 7.788 45.0624 8.931C44.4564 10.071 44.1374 11.397 44.1094 12.877C44.1394 14.351 44.4574 15.677 45.0624 16.817C45.6684 17.961 46.5404 18.871 47.6524 19.519C48.7654 20.169 50.0774 20.497 51.5524 20.497C53.0254 20.497 54.3324 20.167 55.4384 19.517C56.5434 18.87 57.4154 17.957 58.0284 16.805C58.6384 15.659 58.9624 14.337 58.9914 12.871C58.9614 11.411 58.6384 10.089 58.0284 8.941C57.4154 7.791 56.5434 6.878 55.4384 6.229M69.8184 11.777L74.5384 7.067C74.7164 6.889 74.8064 6.639 74.8064 6.325C74.8064 6.049 74.7044 5.815 74.5024 5.63C74.3024 5.447 74.0664 5.355 73.7964 5.355C73.4784 5.355 73.2064 5.483 72.9904 5.73L66.1074 12.746V6.449C66.1074 6.149 65.9974 5.889 65.7874 5.675C65.5734 5.462 65.3124 5.355 65.0134 5.355C64.7134 5.355 64.4534 5.463 64.2484 5.677C64.0444 5.891 63.9404 6.151 63.9404 6.45V19.316C63.9404 19.616 64.0454 19.873 64.2504 20.08C64.4584 20.286 64.7154 20.39 65.0144 20.39C65.3124 20.39 65.5714 20.287 65.7844 20.08C65.9994 19.875 66.1074 19.617 66.1074 19.316V15.474L68.3304 13.224L73.6004 19.959C73.8074 20.244 74.0964 20.389 74.4604 20.389C74.7604 20.389 75.0164 20.285 75.2234 20.079C75.4304 19.869 75.5284 19.619 75.5134 19.331C75.5134 19.094 75.4264 18.863 75.2554 18.645L69.8154 11.777H69.8184ZM89.3824 7.504C89.6674 7.504 89.9124 7.408 90.1124 7.216C90.3124 7.023 90.4144 6.78 90.4144 6.492C90.4144 6.205 90.3144 5.958 90.1144 5.759C89.9144 5.559 89.6694 5.459 89.3824 5.459H81.0384C80.7384 5.459 80.4804 5.567 80.2724 5.782C80.0684 5.995 79.9644 6.255 79.9644 6.554V19.209C79.9644 19.511 80.0684 19.769 80.2744 19.975C80.4824 20.181 80.7384 20.285 81.0374 20.285H89.3814C89.6664 20.285 89.9114 20.189 90.1114 19.997C90.3114 19.804 90.4134 19.561 90.4134 19.273C90.4134 18.987 90.3134 18.74 90.1134 18.541C89.9154 18.341 89.6684 18.239 89.3814 18.239H82.1314V13.885H88.6314C88.9174 13.885 89.1634 13.788 89.3614 13.595C89.5634 13.403 89.6644 13.159 89.6644 12.872C89.6644 12.586 89.5644 12.34 89.3644 12.139C89.1644 11.939 88.9184 11.839 88.6324 11.839H82.1304V7.503H89.3804L89.3824 7.504ZM107.175 5.354C106.875 5.354 106.617 5.464 106.41 5.677C106.206 5.891 106.1 6.151 106.1 6.45V17.27L98.3364 6.034C97.9914 5.584 97.5694 5.354 97.0834 5.354H96.8134C96.4034 5.354 96.0464 5.506 95.7574 5.804C95.4694 6.1 95.3234 6.458 95.3234 6.868V19.316C95.3234 19.616 95.4274 19.873 95.6334 20.08C95.8414 20.286 96.0974 20.39 96.3964 20.39C96.6944 20.39 96.9544 20.287 97.1684 20.08C97.3814 19.875 97.4884 19.617 97.4884 19.316V8.473L105.298 19.773C105.433 19.953 105.608 20.103 105.82 20.218C106.035 20.331 106.266 20.388 106.51 20.388H106.76C107.17 20.388 107.527 20.242 107.822 19.954C108.119 19.664 108.269 19.308 108.269 18.896V6.449C108.269 6.149 108.162 5.889 107.949 5.675C107.736 5.462 107.476 5.355 107.176 5.355M124.708 12.872C124.708 13.926 124.475 14.868 124.018 15.672C123.56 16.472 122.906 17.107 122.072 17.557C121.237 18.01 120.252 18.239 119.142 18.239H116.282V7.504H119.142C120.249 7.504 121.235 7.734 122.072 8.186C122.906 8.638 123.562 9.273 124.017 10.073C124.474 10.876 124.707 11.818 124.707 12.873M123.469 6.533C122.349 5.819 120.969 5.458 119.369 5.458H115.186C114.886 5.458 114.626 5.566 114.42 5.781C114.215 5.994 114.112 6.254 114.112 6.553V19.209C114.112 19.511 114.216 19.769 114.422 19.975C114.629 20.181 114.886 20.285 115.185 20.285H119.367C120.967 20.285 122.347 19.925 123.467 19.211C124.585 18.501 125.437 17.567 126.003 16.437C126.565 15.31 126.85 14.11 126.85 12.872C126.85 11.634 126.565 10.435 126.003 9.308C125.439 8.178 124.586 7.244 123.467 6.531M138.368 18.449C137.278 18.449 136.325 18.203 135.538 17.719C134.752 17.233 134.142 16.564 133.726 15.729C133.308 14.891 133.096 13.929 133.096 12.872C133.096 11.815 133.308 10.854 133.726 10.014C134.143 9.179 134.752 8.511 135.538 8.026C136.324 7.542 137.278 7.296 138.368 7.296C139.448 7.296 140.398 7.542 141.191 8.026C141.983 8.511 142.596 9.179 143.013 10.013C143.431 10.853 143.643 11.815 143.643 12.873C143.643 13.929 143.431 14.891 143.013 15.73C142.596 16.565 141.983 17.234 141.191 17.72C140.397 18.203 139.447 18.45 138.369 18.45M144.849 8.94C144.236 7.79 143.364 6.878 142.259 6.23C141.153 5.58 139.845 5.25 138.369 5.25C136.895 5.25 135.584 5.58 134.473 6.23C133.359 6.878 132.487 7.787 131.883 8.93C131.277 10.07 130.957 11.397 130.93 12.876C130.958 14.349 131.278 15.674 131.883 16.816C132.489 17.96 133.36 18.868 134.473 19.518C135.586 20.168 136.897 20.496 138.371 20.496C139.846 20.496 141.154 20.166 142.261 19.516C143.367 18.868 144.238 17.956 144.851 16.806C145.461 15.658 145.786 14.336 145.814 12.87C145.786 11.41 145.462 10.088 144.851 8.94" fill="#272D45"/>
</g>
<defs>
<clipPath id="clip0_302_5304">
<rect width="146" height="26" fill="white"/>
</clipPath>
</defs>
</svg>
