<svg width="86" height="18" viewBox="0 0 86 18" fill="none" xmlns="http://www.w3.org/2000/svg">
<g clip-path="url(#clip0_302_5325)">
<path d="M7.29442 8.21227L10.0286 11.7067H12.9101V14.1609H9.23624C6.38593 14.1609 4.06788 11.8469 4.06788 9.0015C4.06788 6.15612 6.38593 3.84208 9.23624 3.84208H15.0669L12.3327 0.347656H9.01258C4.23259 0.347656 0.34375 4.22977 0.34375 9.0015C0.34375 13.7732 4.23259 17.6553 9.01258 17.6553H16.5597L16.5562 8.21227H7.29442ZM4.70591 12.4336L4.70417 12.4302C4.70591 12.4319 4.70764 12.4336 4.70764 12.4353L4.70591 12.4336ZM6.87658 14.1696L6.87138 14.1661C6.87485 14.1678 6.87658 14.1696 6.88005 14.1696H6.87658ZM85.6503 0.347656L79.7156 11.7119L79.6428 17.6553H75.9602V11.7102L70.1001 0.347656H73.9057L73.9179 0.371887L78.0303 8.48054L81.9279 0.347656H85.6503ZM64.2608 0.347656H68.0543L68.0317 0.406502L61.518 17.6553H57.7401L57.7297 17.6277L51.3564 0.347656H55.3232L55.3336 0.377079L59.7651 13.6261L64.2608 0.347656ZM49.5966 10.7046C49.6087 10.7288 49.6174 10.7478 49.6174 10.7721V17.6553H46.0805V14.064H39.3535L37.0008 11.0559L37.0181 11.03L44.2774 0.347656H48.7748L41.6213 10.6077H49.555L49.5654 10.6353C49.5775 10.6665 49.5879 10.689 49.5966 10.7046ZM34.7555 5.96746C34.7555 2.81573 32.4531 0.347656 29.5144 0.347656H20.7363V17.6553H24.346V11.589H27.628L31.5134 17.6363L31.5255 17.6553H35.827L31.2967 10.9902C33.4639 10.0884 34.7555 8.21573 34.7555 5.96746ZM31.2187 5.97612C31.2187 7.24477 30.279 8.27804 29.126 8.27804H24.3477V3.67419H28.9544C30.0484 3.67419 31.2187 4.27996 31.2187 5.97612Z" fill="url(#paint0_linear_302_5325)"/>
</g>
<defs>
<linearGradient id="paint0_linear_302_5325" x1="19.6469" y1="31.85" x2="68.3425" y2="-16.9298" gradientUnits="userSpaceOnUse">
<stop stop-color="#8243C8"/>
<stop offset="0.0883" stop-color="#7F4ACA"/>
<stop offset="0.2173" stop-color="#775ED0"/>
<stop offset="0.3712" stop-color="#697EDA"/>
<stop offset="0.5331" stop-color="#57A7E7"/>
<stop offset="0.6254" stop-color="#67B6E2"/>
<stop offset="0.8504" stop-color="#88D7D8"/>
<stop offset="0.973" stop-color="#95E4D4"/>
</linearGradient>
<clipPath id="clip0_302_5325">
<rect width="86" height="18" fill="white"/>
</clipPath>
</defs>
</svg>
