<svg width="85" height="58" viewBox="0 0 85 58" fill="none" xmlns="http://www.w3.org/2000/svg">
<path d="M46.2326 19.7525C48.9287 19.7525 51.1198 17.5531 51.1198 14.8506C51.1198 12.1464 48.9287 9.94531 46.2326 9.94531C43.5365 9.94531 41.3438 12.1464 41.3438 14.8506C41.3438 17.5531 43.5365 19.7525 46.2326 19.7525Z" fill="#007A87"/>
<path d="M34.9451 22.4488C31.437 22.4488 28.5832 19.5864 28.5832 16.0694C28.5832 13.8347 26.7679 12.0156 24.5416 12.0156C22.3119 12.0156 20.5 13.8347 20.5 16.0694C20.5 18.3041 22.3119 20.1232 24.5416 20.1232C28.048 20.1232 30.9035 22.9839 30.9035 26.5026C30.9035 28.7373 32.7154 30.5564 34.9451 30.5564C37.1731 30.5564 38.985 28.7373 38.985 26.5026C38.9867 24.2679 37.1748 22.4488 34.9451 22.4488Z" fill="#E37222"/>
<path d="M58.8226 9.94531C56.1249 9.94531 53.9321 12.1464 53.9321 14.8506C53.9321 19.1046 50.4794 22.5678 46.2381 22.5678L45.0754 22.5745C41.8475 22.5745 39.2202 19.9393 39.2202 16.7033C39.2202 14.6453 37.5526 12.9709 35.5007 12.9709C33.4489 12.9709 31.7812 14.6453 31.7812 16.7033C31.7812 18.7597 33.4489 20.434 35.5007 20.434C38.7287 20.434 41.356 23.0675 41.356 26.3069L41.3492 27.473C41.3492 30.1756 43.542 32.3766 46.2381 32.3766C48.9342 32.3766 51.1253 30.1756 51.1253 27.473C51.1253 23.2173 54.578 19.7542 58.8226 19.7542C61.517 19.7542 63.7098 17.5548 63.7098 14.8523C63.7098 12.1464 61.517 9.94531 58.8226 9.94531Z" fill="#007A87"/>
<path d="M0.15625 38.6695H2.45472L4.47636 45.2945L6.6641 38.6409H8.50287L10.6906 45.2945L12.7106 38.6695H14.9554L11.6251 48.5238H9.75612L7.55496 42.1225L5.35213 48.5238H3.48819L0.15625 38.6695Z" fill="#616365"/>
<path d="M16.8125 38.6643H24.1709V40.5793H18.9449V42.565H23.5452V44.48H18.9449V46.5346H24.2414V48.4496H16.8142V38.6643H16.8125Z" fill="#616365"/>
<path d="M26.4297 38.6643H30.9578C32.0735 38.6643 32.951 38.9723 33.508 39.5309C33.9542 39.9785 34.1774 40.5238 34.1774 41.1952V41.2238C34.1774 42.3277 33.5918 42.9419 32.8956 43.334C34.0247 43.7681 34.7209 44.4244 34.7209 45.7387V45.7673C34.7209 47.5561 33.2714 48.4513 31.0702 48.4513H26.4297V38.6643ZM32.045 41.557C32.045 40.9142 31.5434 40.5507 30.6374 40.5507H28.5201V42.6188H30.4998C31.4477 42.6188 32.045 42.3109 32.045 41.5839V41.557ZM31.0015 44.4093H28.5201V46.5615H31.0702C32.0181 46.5615 32.5886 46.2267 32.5886 45.4997V45.4728C32.5886 44.8148 32.1004 44.4093 31.0015 44.4093Z" fill="#616365"/>
<path d="M36.3438 47.0256L37.0266 46.2162C38.0433 47.1383 39.018 47.5994 40.3703 47.5994C41.6789 47.5994 42.5446 46.8994 42.5446 45.9351V45.9065C42.5446 44.9978 42.0564 44.4812 40.0079 44.0488C37.7648 43.5591 36.733 42.8321 36.733 41.2267V41.1981C36.733 39.6618 38.0852 38.5276 39.9391 38.5276C41.3601 38.5276 42.3785 38.9331 43.3667 39.7308L42.7258 40.5839C41.8198 39.8435 40.9138 39.5221 39.9106 39.5221C38.6439 39.5221 37.8352 40.2221 37.8352 41.1005V41.1291C37.8352 42.0513 38.3369 42.5696 40.4827 43.0307C42.657 43.5052 43.6603 44.3029 43.6603 45.7972V45.8258C43.6603 47.5035 42.2661 48.5922 40.3283 48.5922C38.7831 48.5905 37.5148 48.0739 36.3438 47.0256Z" fill="#616365"/>
<path d="M45.7344 43.5873V43.5586C45.7344 40.7922 47.7963 38.5002 50.6685 38.5002C52.4368 38.5002 53.4971 39.1279 54.4719 40.0518L53.7186 40.8612C52.8965 40.0787 51.9771 39.52 50.6534 39.52C48.4942 39.52 46.8786 41.2819 46.8786 43.5317V43.5586C46.8786 45.8237 48.5093 47.599 50.6534 47.599C51.9906 47.599 52.8697 47.0807 53.8025 46.1855L54.5273 46.8989C53.5106 47.9338 52.3949 48.6187 50.6266 48.6187C47.8114 48.6187 45.7344 46.3958 45.7344 43.5873Z" fill="#616365"/>
<path d="M60.3366 38.5979H61.3684L65.8126 48.4505H64.6282L63.4873 45.8658H58.1757L57.0197 48.4505H55.8906L60.3366 38.5979ZM63.0545 44.8595L60.8382 39.8835L58.6085 44.8595H63.0545Z" fill="#616365"/>
<path d="M68.0156 38.6643H69.1162V47.4282H74.6074V48.4479H68.0156V38.6643Z" fill="#616365"/>
<path d="M76.9236 38.6643H83.975V39.6706H78.0241V43.0109H83.3475V44.0172H78.0241V47.4416H84.0438V48.4479H76.9219V38.6643H76.9236Z" fill="#616365"/>
</svg>
