<svg width="46" height="46" viewBox="0 0 46 46" fill="none" xmlns="http://www.w3.org/2000/svg">
<path d="M22.8611 27.0405C25.0927 27.0405 26.9019 25.2314 26.9019 22.9998C26.9019 20.7681 25.0927 18.959 22.8611 18.959C20.6294 18.959 18.8203 20.7681 18.8203 22.9998C18.8203 25.2314 20.6294 27.0405 22.8611 27.0405Z" fill="#31CEF9"/>
<path d="M22.8541 31.28C34.8288 31.28 44.5363 27.5735 44.5363 23.0013C44.5363 18.4291 34.8288 14.7227 22.8541 14.7227C10.8793 14.7227 1.17188 18.4291 1.17188 23.0013C1.17188 27.5735 10.8793 31.28 22.8541 31.28Z" stroke="#31CEF9" stroke-width="2"/>
<path d="M15.6817 27.1361C21.6691 37.5065 29.7327 44.0602 33.6924 41.7741C37.652 39.488 36.0082 29.2279 30.0208 18.8574C24.0334 8.48698 15.9698 1.93332 12.0102 4.21941C8.05054 6.5055 9.69436 16.7656 15.6817 27.1361Z" stroke="#31CEF9" stroke-width="2"/>
<path d="M15.6792 18.8561C9.69184 29.2265 8.04802 39.4867 12.0076 41.7728C15.9673 44.0589 24.0309 37.5052 30.0183 27.1348C36.0056 16.7643 37.6495 6.50418 33.6898 4.21809C29.7302 1.932 21.6666 8.48566 15.6792 18.8561Z" stroke="#31CEF9" stroke-width="2"/>
</svg>
