<svg width="209" height="55" viewBox="0 0 209 55" fill="none" xmlns="http://www.w3.org/2000/svg">
<path d="M54.3614 0.120945L33.8436 20.5859H37.1977C42.4255 20.5859 45.5166 23.8759 45.5166 27.4621C45.5166 30.2922 43.6098 32.3639 41.5704 33.2858C41.2412 33.4185 41.2412 33.8784 41.6035 34.0088C43.9699 34.9308 45.647 37.3983 45.647 40.2925C45.647 44.3718 42.9182 47.6285 37.6241 47.6285H23.092C22.8622 47.6285 22.6656 47.4318 22.6656 47.2328V31.7359L0.141514 54.1775C-0.154564 54.4738 0.0420849 55 0.470736 55H54.6243C54.821 55 54.9867 54.8364 54.9867 54.6374V0.417218C55.0839 0.0546152 54.6243 -0.142163 54.3614 0.120945Z" fill="#656565"/>
<path d="M29.4222 31.7008H36.2903C38.2436 31.7008 39.4794 30.6074 39.4794 28.8504C39.4794 27.1936 38.2436 26 36.2903 26H29.4222C29.1947 26 29 26.1982 29 26.3986V31.3022C29.0306 31.5338 29.1925 31.7008 29.4222 31.7008ZM29.4222 43H36.5178C38.6985 43 40 41.8732 40 39.8846C40 38.161 38.7642 36.7692 36.5178 36.7692H29.4222C29.1947 36.7692 29 36.9674 29 37.1678V42.5702C29.0306 42.8352 29.1925 43 29.4222 43Z" fill="#656565"/>
<path d="M79.481 21.269C77.923 21.269 76.7069 20.9159 75.8326 20.2098C74.9583 19.5036 74.5156 18.45 74.5044 17.049H75.9671C76.0007 19.0105 77.172 19.9912 79.481 19.9912C80.4562 19.9912 81.2015 19.8007 81.7171 19.4196C82.2439 19.0385 82.5073 18.4837 82.5073 17.7551C82.5073 17.1835 82.2888 16.7407 81.8516 16.4269C81.4257 16.1018 80.6747 15.8216 79.5987 15.5862L78.5395 15.3509C77.329 15.0706 76.4211 14.6671 75.8158 14.1403C75.2105 13.6023 74.9079 12.8513 74.9079 11.8874C74.9079 10.9347 75.2778 10.1781 76.0176 9.61764C76.7573 9.046 77.7493 8.76018 78.9934 8.76018C79.8341 8.76018 80.5626 8.86106 81.1791 9.06282C81.8068 9.26457 82.2944 9.55039 82.6418 9.92028C82.9893 10.279 83.2415 10.6713 83.3984 11.0972C83.5666 11.5231 83.6562 11.9939 83.6674 12.5095H82.2215C82.1543 11.6576 81.8741 11.0355 81.3809 10.6432C80.8989 10.2397 80.1031 10.038 78.9934 10.038C78.1528 10.038 77.5027 10.2005 77.0431 10.5255C76.5948 10.8506 76.3706 11.3045 76.3706 11.8874C76.3706 12.4702 76.5668 12.9242 76.9591 13.2492C77.3402 13.5743 78.0799 13.8601 79.1784 14.1067L80.2376 14.3421C81.5602 14.6335 82.5129 15.0538 83.0958 15.603C83.6786 16.1411 83.9701 16.8584 83.9701 17.7551C83.9701 18.8423 83.5722 19.6998 82.7764 20.3275C81.9805 20.9552 80.8821 21.269 79.481 21.269ZM92.5791 19.9072H93.0667V21C92.8425 21.0336 92.5959 21.0504 92.3269 21.0504C91.419 21.0504 90.9314 20.6357 90.8642 19.8063C90.2589 20.7366 89.3174 21.2018 88.0396 21.2018C87.0869 21.2018 86.3359 20.9832 85.7867 20.5461C85.2486 20.0977 84.9796 19.47 84.9796 18.663C84.9796 17.0938 86.0501 16.1971 88.1909 15.9729L89.4351 15.8384C90.343 15.7376 90.7969 15.3396 90.7969 14.6447C90.7969 14.1627 90.6456 13.8153 90.343 13.6023C90.0515 13.3893 89.5528 13.2829 88.8466 13.2829C88.0956 13.2829 87.552 13.4118 87.2158 13.6696C86.8907 13.9162 86.7058 14.3589 86.6609 14.9978H85.3159C85.428 13.0811 86.6049 12.1228 88.8466 12.1228C91.0211 12.1228 92.1083 12.9634 92.1083 14.6447V19.4868C92.1083 19.7671 92.2652 19.9072 92.5791 19.9072ZM88.1068 20.0585C88.8242 20.0585 89.4519 19.8399 89.9899 19.4028C90.5279 18.9768 90.7969 18.366 90.7969 17.5702V16.5446C90.5503 16.7351 90.1692 16.8584 89.6536 16.9145L88.3927 17.0658C87.6641 17.1554 87.1429 17.3236 86.8291 17.5702C86.5264 17.8168 86.3751 18.1698 86.3751 18.6294C86.3751 19.0777 86.5208 19.4308 86.8122 19.6886C87.1037 19.9352 87.5352 20.0585 88.1068 20.0585ZM95.5146 21H94.1696V9.02919H95.5146V21ZM105.101 16.6623V17.133H98.5106C98.5779 18.0745 98.8413 18.7863 99.3008 19.2683C99.7604 19.739 100.388 19.9744 101.184 19.9744C102.383 19.9744 103.151 19.4364 103.487 18.3604H104.883C104.647 19.2346 104.21 19.9296 103.571 20.4452C102.932 20.9496 102.125 21.2018 101.15 21.2018C99.9509 21.2018 98.9814 20.7926 98.2416 19.9744C97.4906 19.1562 97.1152 18.0521 97.1152 16.6623C97.1152 15.2948 97.485 14.1964 98.2248 13.3669C98.9534 12.5375 99.9173 12.1228 101.117 12.1228C102.361 12.1228 103.336 12.5543 104.042 13.4174C104.748 14.2804 105.101 15.3621 105.101 16.6623ZM101.117 13.3501C100.41 13.3501 99.8332 13.5743 99.3849 14.0226C98.9366 14.4598 98.6563 15.0931 98.5443 15.9225H103.655C103.588 15.1603 103.33 14.5438 102.882 14.0731C102.434 13.5911 101.845 13.3501 101.117 13.3501ZM109.675 21.2018C107.355 21.2018 106.128 20.2154 105.993 18.2427H107.355C107.433 18.8928 107.646 19.3579 107.994 19.6382C108.352 19.9072 108.913 20.0417 109.675 20.0417C111.065 20.0417 111.76 19.5933 111.76 18.6966C111.76 18.3043 111.614 18.0073 111.323 17.8055C111.043 17.6038 110.527 17.4301 109.776 17.2843L108.969 17.133C107.164 16.7968 106.262 15.9449 106.262 14.5775C106.262 13.8265 106.542 13.2324 107.103 12.7953C107.674 12.3469 108.448 12.1228 109.423 12.1228C111.721 12.1228 112.898 13.0811 112.954 14.9978H111.609C111.575 14.3701 111.384 13.9274 111.037 13.6696C110.689 13.4118 110.151 13.2829 109.423 13.2829C108.84 13.2829 108.392 13.3949 108.078 13.6191C107.764 13.8433 107.607 14.1571 107.607 14.5606C107.607 14.9417 107.742 15.2276 108.011 15.4181C108.28 15.6087 108.728 15.7712 109.356 15.9057L110.129 16.057C111.194 16.27 111.956 16.5726 112.416 16.9649C112.886 17.3572 113.122 17.9064 113.122 18.6126C113.122 19.4308 112.813 20.0697 112.197 20.5292C111.592 20.9776 110.751 21.2018 109.675 21.2018ZM128.106 21H126.61L125.214 17.5197H119.767L118.388 21H116.908L121.683 9.02919H123.264L128.106 21ZM120.321 16.1074L120.271 16.2419H124.71L124.642 16.0906C124.362 15.4069 123.634 13.5631 122.457 10.5592C121.661 12.6888 120.949 14.5382 120.321 16.1074ZM133.209 12.1228C134.173 12.1228 134.924 12.3862 135.462 12.913C136 13.4398 136.269 14.1796 136.269 15.1323V21H134.924V15.2668C134.924 13.9778 134.263 13.3333 132.94 13.3333C132.312 13.3333 131.757 13.5687 131.275 14.0394C130.794 14.5102 130.553 15.1939 130.553 16.0906V21H129.207V12.3245H130.485V13.6191C131.147 12.6216 132.054 12.1228 133.209 12.1228ZM144.811 13.5687V9.02919H146.156V21H144.878V19.655C144.183 20.6862 143.191 21.2018 141.902 21.2018C140.68 21.2018 139.705 20.787 138.976 19.9576C138.237 19.1282 137.867 18.0297 137.867 16.6623C137.867 15.2724 138.237 14.1683 138.976 13.3501C139.694 12.5319 140.669 12.1228 141.902 12.1228C143.146 12.1228 144.116 12.6047 144.811 13.5687ZM139.279 16.7295C139.279 17.7607 139.531 18.5621 140.036 19.1338C140.54 19.7054 141.218 19.9912 142.07 19.9912C142.922 19.9912 143.6 19.6942 144.104 19.1001C144.609 18.5173 144.861 17.7047 144.861 16.6623C144.861 15.6311 144.609 14.8184 144.104 14.2244C143.6 13.6303 142.922 13.3333 142.07 13.3333C141.229 13.3333 140.551 13.6415 140.036 14.258C139.531 14.8633 139.279 15.6871 139.279 16.7295ZM151.457 9.02919H156.434C157.7 9.02919 158.675 9.35985 159.359 10.0212C160.054 10.6825 160.402 11.5792 160.402 12.7112C160.402 13.8433 160.054 14.74 159.359 15.4013C158.675 16.0626 157.7 16.3933 156.434 16.3933H152.869V21H151.457V9.02919ZM152.869 15.1155H156.434C157.263 15.1155 157.885 14.9137 158.3 14.5102C158.726 14.0955 158.939 13.4958 158.939 12.7112C158.939 11.9266 158.726 11.3326 158.3 10.9291C157.885 10.5143 157.263 10.307 156.434 10.307H152.869V15.1155ZM165.802 12.19C166.026 12.19 166.178 12.1956 166.256 12.2068V13.5014H165.92C165.023 13.5014 164.322 13.7256 163.818 14.1739C163.325 14.6111 163.078 15.2388 163.078 16.057V21H161.733V12.3245H163.011V13.8545C163.594 12.7448 164.524 12.19 165.802 12.19ZM173.813 19.9576C173.017 20.787 172.008 21.2018 170.787 21.2018C169.565 21.2018 168.556 20.787 167.76 19.9576C166.976 19.1394 166.583 18.0409 166.583 16.6623C166.583 15.2836 166.976 14.1852 167.76 13.3669C168.556 12.5375 169.565 12.1228 170.787 12.1228C172.008 12.1228 173.017 12.5375 173.813 13.3669C174.598 14.1852 174.99 15.2836 174.99 16.6623C174.99 18.0409 174.598 19.1394 173.813 19.9576ZM168.752 19.1001C169.257 19.6942 169.935 19.9912 170.787 19.9912C171.639 19.9912 172.317 19.6942 172.821 19.1001C173.325 18.5173 173.578 17.7047 173.578 16.6623C173.578 15.6087 173.325 14.7904 172.821 14.2076C172.317 13.6247 171.639 13.3333 170.787 13.3333C169.935 13.3333 169.257 13.6247 168.752 14.2076C168.248 14.7904 167.996 15.6087 167.996 16.6623C167.996 17.7047 168.248 18.5173 168.752 19.1001ZM183.116 13.5687V9.02919H184.461V21H183.183V19.655C182.488 20.6862 181.496 21.2018 180.207 21.2018C178.985 21.2018 178.01 20.787 177.282 19.9576C176.542 19.1282 176.172 18.0297 176.172 16.6623C176.172 15.2724 176.542 14.1683 177.282 13.3501C177.999 12.5319 178.974 12.1228 180.207 12.1228C181.451 12.1228 182.421 12.6047 183.116 13.5687ZM177.584 16.7295C177.584 17.7607 177.837 18.5621 178.341 19.1338C178.845 19.7054 179.523 19.9912 180.375 19.9912C181.227 19.9912 181.905 19.6942 182.41 19.1001C182.914 18.5173 183.166 17.7047 183.166 16.6623C183.166 15.6311 182.914 14.8184 182.41 14.2244C181.905 13.6303 181.227 13.3333 180.375 13.3333C179.535 13.3333 178.857 13.6415 178.341 14.258C177.837 14.8633 177.584 15.6871 177.584 16.7295ZM192.193 17.2339V12.3245H193.538V21H192.26V19.7054C191.599 20.703 190.691 21.2018 189.537 21.2018C188.573 21.2018 187.822 20.9384 187.284 20.4115C186.746 19.8847 186.477 19.145 186.477 18.1922V12.3245H187.822V18.0577C187.822 19.3467 188.483 19.9912 189.806 19.9912C190.433 19.9912 190.988 19.7558 191.47 19.2851C191.952 18.8143 192.193 18.1306 192.193 17.2339ZM199.154 21.2018C197.955 21.2018 196.985 20.787 196.246 19.9576C195.506 19.1282 195.136 18.0297 195.136 16.6623C195.136 15.2724 195.506 14.1683 196.246 13.3501C196.963 12.5319 197.932 12.1228 199.154 12.1228C200.185 12.1228 201.032 12.403 201.693 12.9634C202.354 13.5238 202.752 14.2916 202.887 15.2668H201.491C201.39 14.6503 201.121 14.1739 200.684 13.8377C200.258 13.5014 199.748 13.3333 199.154 13.3333C198.358 13.3333 197.725 13.6247 197.254 14.2076C196.784 14.7792 196.548 15.5974 196.548 16.6623C196.548 17.7159 196.784 18.5341 197.254 19.117C197.736 19.6998 198.37 19.9912 199.154 19.9912C199.748 19.9912 200.264 19.8175 200.701 19.47C201.138 19.1226 201.407 18.6406 201.508 18.0241H202.887C202.741 18.9993 202.326 19.7727 201.642 20.3443C200.97 20.9159 200.141 21.2018 199.154 21.2018ZM207.795 12.3245V13.5014H206.013V19.1338C206.013 19.6269 206.344 19.8735 207.005 19.8735H207.795V21C207.425 21.0336 207.106 21.0504 206.837 21.0504C205.391 21.0504 204.668 20.4508 204.668 19.2515V13.5014H203.239V12.3245H204.668V9.86984H206.013V12.3245H207.795ZM85.4496 46H83.9533L82.5578 42.5197H77.1104L75.7317 46H74.2522L79.0271 34.0292H80.6075L85.4496 46ZM77.6652 41.1074L77.6148 41.2419H82.0534L81.9861 41.0906C81.7059 40.4069 80.9774 38.5631 79.8005 35.5592C79.0047 37.6888 78.2929 39.5382 77.6652 41.1074ZM89.6933 46.2018C87.3731 46.2018 86.1458 45.2154 86.0113 43.2427H87.3731C87.4516 43.8928 87.6645 44.3579 88.012 44.6382C88.3707 44.9072 88.9311 45.0417 89.6933 45.0417C91.0832 45.0417 91.7781 44.5933 91.7781 43.6966C91.7781 43.3043 91.6324 43.0073 91.341 42.8055C91.0607 42.6038 90.5452 42.4301 89.7942 42.2843L88.9872 42.133C87.1826 41.7968 86.2803 40.9449 86.2803 39.5775C86.2803 38.8265 86.5605 38.2324 87.1209 37.7953C87.6926 37.3469 88.466 37.1228 89.4411 37.1228C91.7389 37.1228 92.9158 38.0811 92.9718 39.9978H91.6268C91.5932 39.3701 91.4026 38.9274 91.0551 38.6696C90.7077 38.4118 90.1697 38.2829 89.4411 38.2829C88.8583 38.2829 88.4099 38.3949 88.0961 38.6191C87.7822 38.8433 87.6253 39.1571 87.6253 39.5606C87.6253 39.9417 87.7598 40.2276 88.0288 40.4181C88.2978 40.6087 88.7462 40.7712 89.3739 40.9057L90.1472 41.057C91.2121 41.27 91.9743 41.5726 92.4338 41.9649C92.9046 42.3572 93.1399 42.9064 93.1399 43.6126C93.1399 44.4308 92.8317 45.0697 92.2152 45.5292C91.61 45.9776 90.7693 46.2018 89.6933 46.2018ZM97.7057 46.2018C95.3855 46.2018 94.1582 45.2154 94.0237 43.2427H95.3855C95.464 43.8928 95.6769 44.3579 96.0244 44.6382C96.3831 44.9072 96.9435 45.0417 97.7057 45.0417C99.0956 45.0417 99.7905 44.5933 99.7905 43.6966C99.7905 43.3043 99.6448 43.0073 99.3534 42.8055C99.0732 42.6038 98.5576 42.4301 97.8066 42.2843L96.9996 42.133C95.195 41.7968 94.2927 40.9449 94.2927 39.5775C94.2927 38.8265 94.5729 38.2324 95.1333 37.7953C95.705 37.3469 96.4784 37.1228 97.4535 37.1228C99.7513 37.1228 100.928 38.0811 100.984 39.9978H99.6392C99.6056 39.3701 99.415 38.9274 99.0676 38.6696C98.7201 38.4118 98.1821 38.2829 97.4535 38.2829C96.8707 38.2829 96.4223 38.3949 96.1085 38.6191C95.7946 38.8433 95.6377 39.1571 95.6377 39.5606C95.6377 39.9417 95.7722 40.2276 96.0412 40.4181C96.3102 40.6087 96.7586 40.7712 97.3863 40.9057L98.1597 41.057C99.2245 41.27 99.9867 41.5726 100.446 41.9649C100.917 42.3572 101.152 42.9064 101.152 43.6126C101.152 44.4308 100.844 45.0697 100.228 45.5292C99.6224 45.9776 98.7817 46.2018 97.7057 46.2018ZM109.303 44.9576C108.507 45.787 107.499 46.2018 106.277 46.2018C105.055 46.2018 104.046 45.787 103.251 44.9576C102.466 44.1394 102.074 43.0409 102.074 41.6623C102.074 40.2836 102.466 39.1852 103.251 38.3669C104.046 37.5375 105.055 37.1228 106.277 37.1228C107.499 37.1228 108.507 37.5375 109.303 38.3669C110.088 39.1852 110.48 40.2836 110.48 41.6623C110.48 43.0409 110.088 44.1394 109.303 44.9576ZM104.243 44.1001C104.747 44.6942 105.425 44.9912 106.277 44.9912C107.129 44.9912 107.807 44.6942 108.311 44.1001C108.816 43.5173 109.068 42.7047 109.068 41.6623C109.068 40.6087 108.816 39.7904 108.311 39.2076C107.807 38.6247 107.129 38.3333 106.277 38.3333C105.425 38.3333 104.747 38.6247 104.243 39.2076C103.738 39.7904 103.486 40.6087 103.486 41.6623C103.486 42.7047 103.738 43.5173 104.243 44.1001ZM115.681 46.2018C114.481 46.2018 113.512 45.787 112.772 44.9576C112.032 44.1282 111.662 43.0297 111.662 41.6623C111.662 40.2724 112.032 39.1683 112.772 38.3501C113.489 37.5319 114.459 37.1228 115.681 37.1228C116.712 37.1228 117.558 37.403 118.219 37.9634C118.881 38.5238 119.279 39.2916 119.413 40.2668H118.018C117.917 39.6503 117.648 39.1739 117.211 38.8377C116.785 38.5014 116.275 38.3333 115.681 38.3333C114.885 38.3333 114.251 38.6247 113.781 39.2076C113.31 39.7792 113.075 40.5974 113.075 41.6623C113.075 42.7159 113.31 43.5341 113.781 44.117C114.263 44.6998 114.896 44.9912 115.681 44.9912C116.275 44.9912 116.79 44.8175 117.227 44.47C117.664 44.1226 117.934 43.6406 118.034 43.0241H119.413C119.267 43.9993 118.853 44.7727 118.169 45.3443C117.496 45.9159 116.667 46.2018 115.681 46.2018ZM122.229 36.0131H120.8V34.3654H122.229V36.0131ZM122.195 46H120.85V37.3245H122.195V46ZM131.311 44.9072H131.799V46C131.575 46.0336 131.328 46.0504 131.059 46.0504C130.151 46.0504 129.664 45.6357 129.596 44.8063C128.991 45.7366 128.05 46.2018 126.772 46.2018C125.819 46.2018 125.068 45.9832 124.519 45.5461C123.981 45.0977 123.712 44.47 123.712 43.663C123.712 42.0938 124.782 41.1971 126.923 40.9729L128.167 40.8384C129.075 40.7376 129.529 40.3396 129.529 39.6447C129.529 39.1627 129.378 38.8153 129.075 38.6023C128.784 38.3893 128.285 38.2829 127.579 38.2829C126.828 38.2829 126.284 38.4118 125.948 38.6696C125.623 38.9162 125.438 39.3589 125.393 39.9978H124.048C124.16 38.0811 125.337 37.1228 127.579 37.1228C129.753 37.1228 130.84 37.9634 130.84 39.6447V44.4868C130.84 44.7671 130.997 44.9072 131.311 44.9072ZM126.839 45.0585C127.556 45.0585 128.184 44.8399 128.722 44.4028C129.26 43.9768 129.529 43.366 129.529 42.5702V41.5446C129.282 41.7351 128.901 41.8584 128.386 41.9145L127.125 42.0658C126.396 42.1554 125.875 42.3236 125.561 42.5702C125.259 42.8168 125.107 43.1698 125.107 43.6294C125.107 44.0777 125.253 44.4308 125.544 44.6886C125.836 44.9352 126.267 45.0585 126.839 45.0585ZM136.455 37.3245V38.5014H134.673V44.1338C134.673 44.6269 135.004 44.8735 135.665 44.8735H136.455V46C136.085 46.0336 135.766 46.0504 135.497 46.0504C134.051 46.0504 133.328 45.4508 133.328 44.2515V38.5014H131.899V37.3245H133.328V34.8698H134.673V37.3245H136.455ZM145.278 41.6623V42.133H138.688C138.755 43.0745 139.018 43.7863 139.478 44.2683C139.937 44.739 140.565 44.9744 141.361 44.9744C142.56 44.9744 143.328 44.4364 143.664 43.3604H145.06C144.824 44.2346 144.387 44.9296 143.748 45.4452C143.109 45.9496 142.302 46.2018 141.327 46.2018C140.128 46.2018 139.158 45.7926 138.419 44.9744C137.668 44.1562 137.292 43.0521 137.292 41.6623C137.292 40.2948 137.662 39.1964 138.402 38.3669C139.13 37.5375 140.094 37.1228 141.294 37.1228C142.538 37.1228 143.513 37.5543 144.219 38.4174C144.925 39.2804 145.278 40.3621 145.278 41.6623ZM141.294 38.3501C140.587 38.3501 140.01 38.5743 139.562 39.0226C139.114 39.4598 138.833 40.0931 138.721 40.9225H143.832C143.765 40.1603 143.507 39.5438 143.059 39.0731C142.611 38.5911 142.022 38.3501 141.294 38.3501Z" fill="black"/>
</svg>
