<svg width="146" height="55" viewBox="0 0 146 55" fill="none" xmlns="http://www.w3.org/2000/svg">
<path d="M54.3614 0.120945L33.8436 20.5859H37.1977C42.4255 20.5859 45.5166 23.8759 45.5166 27.4621C45.5166 30.2922 43.6098 32.3639 41.5704 33.2858C41.2412 33.4185 41.2412 33.8784 41.6035 34.0088C43.9699 34.9308 45.647 37.3983 45.647 40.2925C45.647 44.3718 42.9182 47.6285 37.6241 47.6285H23.092C22.8622 47.6285 22.6656 47.4318 22.6656 47.2328V31.7359L0.141514 54.1775C-0.154564 54.4738 0.0420849 55 0.470736 55H54.6243C54.821 55 54.9867 54.8364 54.9867 54.6374V0.417218C55.0839 0.0546152 54.6243 -0.142163 54.3614 0.120945Z" fill="#656565"/>
<path d="M29.4222 31.7008H36.2903C38.2436 31.7008 39.4794 30.6074 39.4794 28.8504C39.4794 27.1936 38.2436 26 36.2903 26H29.4222C29.1947 26 29 26.1982 29 26.3986V31.3022C29.0306 31.5338 29.1925 31.7008 29.4222 31.7008ZM29.4222 43H36.5178C38.6985 43 40 41.8732 40 39.8846C40 38.161 38.7642 36.7692 36.5178 36.7692H29.4222C29.1947 36.7692 29 36.9674 29 37.1678V42.5702C29.0306 42.8352 29.1925 43 29.4222 43Z" fill="#656565"/>
<path d="M74.3363 10.0292H83.9364V11.307H79.8677V22H78.405V11.307H74.3363V10.0292ZM90.8333 17.6623V18.133H84.2426C84.3099 19.0745 84.5733 19.7863 85.0328 20.2683C85.4924 20.739 86.1201 20.9744 86.9159 20.9744C88.1152 20.9744 88.883 20.4364 89.2193 19.3604H90.6147C90.3793 20.2346 89.9422 20.9296 89.3033 21.4452C88.6644 21.9496 87.8574 22.2018 86.8823 22.2018C85.6829 22.2018 84.7134 21.7926 83.9736 20.9744C83.2226 20.1562 82.8471 19.0521 82.8471 17.6623C82.8471 16.2948 83.217 15.1964 83.9568 14.3669C84.6854 13.5375 85.6493 13.1228 86.8486 13.1228C88.0928 13.1228 89.0679 13.5543 89.7741 14.4174C90.4802 15.2804 90.8333 16.3621 90.8333 17.6623ZM86.8486 14.3501C86.1425 14.3501 85.5652 14.5743 85.1169 15.0226C84.6686 15.4598 84.3883 16.0931 84.2762 16.9225H89.3874C89.3201 16.1603 89.0623 15.5438 88.614 15.0731C88.1656 14.5911 87.5772 14.3501 86.8486 14.3501ZM96.0272 22.2018C94.8279 22.2018 93.8583 21.787 93.1185 20.9576C92.3788 20.1282 92.0089 19.0297 92.0089 17.6623C92.0089 16.2724 92.3788 15.1683 93.1185 14.3501C93.8359 13.5319 94.8054 13.1228 96.0272 13.1228C97.0584 13.1228 97.9046 13.403 98.5659 13.9634C99.2272 14.5238 99.6251 15.2916 99.7596 16.2668H98.3642C98.2633 15.6503 97.9943 15.1739 97.5572 14.8377C97.1312 14.5014 96.6212 14.3333 96.0272 14.3333C95.2314 14.3333 94.5981 14.6247 94.1273 15.2076C93.6566 15.7792 93.4212 16.5974 93.4212 17.6623C93.4212 18.7159 93.6566 19.5341 94.1273 20.117C94.6093 20.6998 95.2426 20.9912 96.0272 20.9912C96.6212 20.9912 97.1368 20.8175 97.574 20.47C98.0111 20.1226 98.2801 19.6406 98.381 19.0241H99.7596C99.6139 19.9993 99.1992 20.7727 98.5155 21.3443C97.843 21.9159 97.0135 22.2018 96.0272 22.2018ZM105.198 13.1228C106.162 13.1228 106.913 13.3862 107.451 13.913C107.989 14.4398 108.258 15.1796 108.258 16.1323V22H106.913V16.2668C106.913 14.9778 106.252 14.3333 104.929 14.3333C104.302 14.3333 103.747 14.5687 103.265 15.0394C102.783 15.5102 102.542 16.1939 102.542 17.0906V22H101.197V10.0292H102.542V14.5182C103.203 13.5879 104.089 13.1228 105.198 13.1228ZM114.278 13.1228C115.242 13.1228 115.993 13.3862 116.531 13.913C117.069 14.4398 117.338 15.1796 117.338 16.1323V22H115.993V16.2668C115.993 14.9778 115.332 14.3333 114.009 14.3333C113.381 14.3333 112.826 14.5687 112.345 15.0394C111.863 15.5102 111.622 16.1939 111.622 17.0906V22H110.277V13.3245H111.554V14.6191C112.216 13.6216 113.124 13.1228 114.278 13.1228ZM120.735 12.0131H119.306V10.3654H120.735V12.0131ZM120.701 22H119.356V13.3245H120.701V22ZM126.32 22.2018C125.121 22.2018 124.151 21.787 123.411 20.9576C122.672 20.1282 122.302 19.0297 122.302 17.6623C122.302 16.2724 122.672 15.1683 123.411 14.3501C124.129 13.5319 125.098 13.1228 126.32 13.1228C127.351 13.1228 128.197 13.403 128.859 13.9634C129.52 14.5238 129.918 15.2916 130.052 16.2668H128.657C128.556 15.6503 128.287 15.1739 127.85 14.8377C127.424 14.5014 126.914 14.3333 126.32 14.3333C125.524 14.3333 124.891 14.6247 124.42 15.2076C123.949 15.7792 123.714 16.5974 123.714 17.6623C123.714 18.7159 123.949 19.5341 124.42 20.117C124.902 20.6998 125.535 20.9912 126.32 20.9912C126.914 20.9912 127.43 20.8175 127.867 20.47C128.304 20.1226 128.573 19.6406 128.674 19.0241H130.052C129.907 19.9993 129.492 20.7727 128.808 21.3443C128.136 21.9159 127.306 22.2018 126.32 22.2018ZM138.585 20.9072H139.072V22C138.848 22.0336 138.602 22.0504 138.333 22.0504C137.425 22.0504 136.937 21.6357 136.87 20.8063C136.265 21.7366 135.323 22.2018 134.045 22.2018C133.093 22.2018 132.342 21.9832 131.792 21.5461C131.254 21.0977 130.985 20.47 130.985 19.663C130.985 18.0938 132.056 17.1971 134.197 16.9729L135.441 16.8384C136.349 16.7376 136.803 16.3396 136.803 15.6447C136.803 15.1627 136.651 14.8153 136.349 14.6023C136.057 14.3893 135.558 14.2829 134.852 14.2829C134.101 14.2829 133.558 14.4118 133.221 14.6696C132.896 14.9162 132.711 15.3589 132.667 15.9978H131.322C131.434 14.0811 132.611 13.1228 134.852 13.1228C137.027 13.1228 138.114 13.9634 138.114 15.6447V20.4868C138.114 20.7671 138.271 20.9072 138.585 20.9072ZM134.113 21.0585C134.83 21.0585 135.458 20.8399 135.996 20.4028C136.534 19.9768 136.803 19.366 136.803 18.5702V17.5446C136.556 17.7351 136.175 17.8584 135.659 17.9145L134.398 18.0658C133.67 18.1554 133.149 18.3236 132.835 18.5702C132.532 18.8168 132.381 19.1698 132.381 19.6294C132.381 20.0777 132.527 20.4308 132.818 20.6886C133.109 20.9352 133.541 21.0585 134.113 21.0585ZM141.52 22H140.175V10.0292H141.52V22ZM85.4496 47H83.9533L82.5578 43.5197H77.1104L75.7317 47H74.2522L79.0271 35.0292H80.6075L85.4496 47ZM77.6652 42.1074L77.6148 42.2419H82.0534L81.9861 42.0906C81.7059 41.4069 80.9774 39.5631 79.8005 36.5592C79.0047 38.6888 78.2929 40.5382 77.6652 42.1074ZM89.6933 47.2018C87.3731 47.2018 86.1458 46.2154 86.0113 44.2427H87.3731C87.4516 44.8928 87.6645 45.3579 88.012 45.6382C88.3707 45.9072 88.9311 46.0417 89.6933 46.0417C91.0832 46.0417 91.7781 45.5933 91.7781 44.6966C91.7781 44.3043 91.6324 44.0073 91.341 43.8055C91.0607 43.6038 90.5452 43.4301 89.7942 43.2843L88.9872 43.133C87.1826 42.7968 86.2803 41.9449 86.2803 40.5775C86.2803 39.8265 86.5605 39.2324 87.1209 38.7953C87.6926 38.3469 88.466 38.1228 89.4411 38.1228C91.7389 38.1228 92.9158 39.0811 92.9718 40.9978H91.6268C91.5932 40.3701 91.4026 39.9274 91.0551 39.6696C90.7077 39.4118 90.1697 39.2829 89.4411 39.2829C88.8583 39.2829 88.4099 39.3949 88.0961 39.6191C87.7822 39.8433 87.6253 40.1571 87.6253 40.5606C87.6253 40.9417 87.7598 41.2276 88.0288 41.4181C88.2978 41.6087 88.7462 41.7712 89.3739 41.9057L90.1472 42.057C91.2121 42.27 91.9743 42.5726 92.4338 42.9649C92.9046 43.3572 93.1399 43.9064 93.1399 44.6126C93.1399 45.4308 92.8317 46.0697 92.2152 46.5292C91.61 46.9776 90.7693 47.2018 89.6933 47.2018ZM97.7057 47.2018C95.3855 47.2018 94.1582 46.2154 94.0237 44.2427H95.3855C95.464 44.8928 95.6769 45.3579 96.0244 45.6382C96.3831 45.9072 96.9435 46.0417 97.7057 46.0417C99.0956 46.0417 99.7905 45.5933 99.7905 44.6966C99.7905 44.3043 99.6448 44.0073 99.3534 43.8055C99.0732 43.6038 98.5576 43.4301 97.8066 43.2843L96.9996 43.133C95.195 42.7968 94.2927 41.9449 94.2927 40.5775C94.2927 39.8265 94.5729 39.2324 95.1333 38.7953C95.705 38.3469 96.4784 38.1228 97.4535 38.1228C99.7513 38.1228 100.928 39.0811 100.984 40.9978H99.6392C99.6056 40.3701 99.415 39.9274 99.0676 39.6696C98.7201 39.4118 98.1821 39.2829 97.4535 39.2829C96.8707 39.2829 96.4223 39.3949 96.1085 39.6191C95.7946 39.8433 95.6377 40.1571 95.6377 40.5606C95.6377 40.9417 95.7722 41.2276 96.0412 41.4181C96.3102 41.6087 96.7586 41.7712 97.3863 41.9057L98.1597 42.057C99.2245 42.27 99.9867 42.5726 100.446 42.9649C100.917 43.3572 101.152 43.9064 101.152 44.6126C101.152 45.4308 100.844 46.0697 100.228 46.5292C99.6224 46.9776 98.7817 47.2018 97.7057 47.2018ZM109.303 45.9576C108.507 46.787 107.499 47.2018 106.277 47.2018C105.055 47.2018 104.046 46.787 103.251 45.9576C102.466 45.1394 102.074 44.0409 102.074 42.6623C102.074 41.2836 102.466 40.1852 103.251 39.3669C104.046 38.5375 105.055 38.1228 106.277 38.1228C107.499 38.1228 108.507 38.5375 109.303 39.3669C110.088 40.1852 110.48 41.2836 110.48 42.6623C110.48 44.0409 110.088 45.1394 109.303 45.9576ZM104.243 45.1001C104.747 45.6942 105.425 45.9912 106.277 45.9912C107.129 45.9912 107.807 45.6942 108.311 45.1001C108.816 44.5173 109.068 43.7047 109.068 42.6623C109.068 41.6087 108.816 40.7904 108.311 40.2076C107.807 39.6247 107.129 39.3333 106.277 39.3333C105.425 39.3333 104.747 39.6247 104.243 40.2076C103.738 40.7904 103.486 41.6087 103.486 42.6623C103.486 43.7047 103.738 44.5173 104.243 45.1001ZM115.681 47.2018C114.481 47.2018 113.512 46.787 112.772 45.9576C112.032 45.1282 111.662 44.0297 111.662 42.6623C111.662 41.2724 112.032 40.1683 112.772 39.3501C113.489 38.5319 114.459 38.1228 115.681 38.1228C116.712 38.1228 117.558 38.403 118.219 38.9634C118.881 39.5238 119.279 40.2916 119.413 41.2668H118.018C117.917 40.6503 117.648 40.1739 117.211 39.8377C116.785 39.5014 116.275 39.3333 115.681 39.3333C114.885 39.3333 114.251 39.6247 113.781 40.2076C113.31 40.7792 113.075 41.5974 113.075 42.6623C113.075 43.7159 113.31 44.5341 113.781 45.117C114.263 45.6998 114.896 45.9912 115.681 45.9912C116.275 45.9912 116.79 45.8175 117.227 45.47C117.664 45.1226 117.934 44.6406 118.034 44.0241H119.413C119.267 44.9993 118.853 45.7727 118.169 46.3443C117.496 46.9159 116.667 47.2018 115.681 47.2018ZM122.229 37.0131H120.8V35.3654H122.229V37.0131ZM122.195 47H120.85V38.3245H122.195V47ZM131.311 45.9072H131.799V47C131.575 47.0336 131.328 47.0504 131.059 47.0504C130.151 47.0504 129.664 46.6357 129.596 45.8063C128.991 46.7366 128.05 47.2018 126.772 47.2018C125.819 47.2018 125.068 46.9832 124.519 46.5461C123.981 46.0977 123.712 45.47 123.712 44.663C123.712 43.0938 124.782 42.1971 126.923 41.9729L128.167 41.8384C129.075 41.7376 129.529 41.3396 129.529 40.6447C129.529 40.1627 129.378 39.8153 129.075 39.6023C128.784 39.3893 128.285 39.2829 127.579 39.2829C126.828 39.2829 126.284 39.4118 125.948 39.6696C125.623 39.9162 125.438 40.3589 125.393 40.9978H124.048C124.16 39.0811 125.337 38.1228 127.579 38.1228C129.753 38.1228 130.84 38.9634 130.84 40.6447V45.4868C130.84 45.7671 130.997 45.9072 131.311 45.9072ZM126.839 46.0585C127.556 46.0585 128.184 45.8399 128.722 45.4028C129.26 44.9768 129.529 44.366 129.529 43.5702V42.5446C129.282 42.7351 128.901 42.8584 128.386 42.9145L127.125 43.0658C126.396 43.1554 125.875 43.3236 125.561 43.5702C125.259 43.8168 125.107 44.1698 125.107 44.6294C125.107 45.0777 125.253 45.4308 125.544 45.6886C125.836 45.9352 126.267 46.0585 126.839 46.0585ZM136.455 38.3245V39.5014H134.673V45.1338C134.673 45.6269 135.004 45.8735 135.665 45.8735H136.455V47C136.085 47.0336 135.766 47.0504 135.497 47.0504C134.051 47.0504 133.328 46.4508 133.328 45.2515V39.5014H131.899V38.3245H133.328V35.8698H134.673V38.3245H136.455ZM145.278 42.6623V43.133H138.688C138.755 44.0745 139.018 44.7863 139.478 45.2683C139.937 45.739 140.565 45.9744 141.361 45.9744C142.56 45.9744 143.328 45.4364 143.664 44.3604H145.06C144.824 45.2346 144.387 45.9296 143.748 46.4452C143.109 46.9496 142.302 47.2018 141.327 47.2018C140.128 47.2018 139.158 46.7926 138.419 45.9744C137.668 45.1562 137.292 44.0521 137.292 42.6623C137.292 41.2948 137.662 40.1964 138.402 39.3669C139.13 38.5375 140.094 38.1228 141.294 38.1228C142.538 38.1228 143.513 38.5543 144.219 39.4174C144.925 40.2804 145.278 41.3621 145.278 42.6623ZM141.294 39.3501C140.587 39.3501 140.01 39.5743 139.562 40.0226C139.114 40.4598 138.833 41.0931 138.721 41.9225H143.832C143.765 41.1603 143.507 40.5438 143.059 40.0731C142.611 39.5911 142.022 39.3501 141.294 39.3501Z" fill="black"/>
</svg>
