<svg width="166" height="15" viewBox="0 0 166 15" fill="none" xmlns="http://www.w3.org/2000/svg">
<path d="M7.62442 14H4.3747V2.68685H0V0H12V2.68685H7.62442V14Z" fill="white"/>
<path d="M24.8679 2.68738H17.2803V5.41584H23.9065V7.89242H17.2803V11.3135H25V14H14V0H24.8679V2.68738Z" fill="white"/>
<path d="M30.2429 13.9994H27V0H33.419C35.3163 0 36.3749 0.231057 37.2559 0.839232C38.1622 1.46909 38.6677 2.51856 38.6677 3.77741C38.6677 5.47728 37.8737 6.56869 36.2205 7.15661C37.6764 7.59733 38.1843 8.33189 38.294 10.1804L38.4042 12.1743C38.4704 13.0977 38.5807 13.4126 39 14H35.7574C35.3601 13.7062 35.2498 13.4965 35.2057 12.7828L35.0734 10.8716C34.9411 9.15058 34.1468 8.39492 32.4483 8.39492H30.2429V13.9994ZM33.4852 5.91887C34.6985 5.91887 35.3601 5.33122 35.3601 4.30258C35.3601 3.27393 34.6985 2.68658 33.4852 2.68658H30.2429V5.91887H33.4852Z" fill="white"/>
<path d="M44.2424 13.9994H41V0H47.4182C49.3154 0 50.3742 0.231057 51.2566 0.839232C52.1608 1.46909 52.668 2.51856 52.668 3.77741C52.668 5.47728 51.8741 6.56869 50.2211 7.15661C51.6765 7.59733 52.1847 8.33189 52.2943 10.1804L52.4043 12.1743C52.4707 13.0977 52.581 13.4126 53 14H49.7567C49.3595 13.7062 49.2492 13.4965 49.2051 12.7828L49.0728 10.8716C48.9405 9.15058 48.1466 8.39492 46.4482 8.39492H44.243L44.2424 13.9994ZM47.4847 5.91887C48.6979 5.91887 49.3595 5.33122 49.3595 4.30258C49.3595 3.27393 48.6979 2.68658 47.4847 2.68658H44.2424V5.91887H47.4847Z" fill="white"/>
<path d="M59 14H56V0H59V14Z" fill="white"/>
<path d="M73 2.68754H65.3674V5.81413H72.0573V8.39583H65.3674V14H62V0H73V2.68754Z" fill="white"/>
<path d="M77 14H74V0H77V14Z" fill="white"/>
<path d="M89.6176 4.90679C89.3012 3.52946 88.2735 2.73302 86.782 2.73302C84.472 2.73302 83.1488 4.47626 83.1488 7.48919C83.1488 10.4808 84.472 12.2667 86.698 12.2667C88.3152 12.2667 89.2814 11.4477 89.6608 9.72731H93C92.622 12.9772 90.249 15 86.7835 15C82.646 15 80 12.0731 80 7.48919C80 2.88395 82.6043 0 86.7625 0C90.144 0 92.454 1.85086 92.8317 4.90679H89.6176Z" fill="white"/>
<path d="M107.417 14L105.462 6.54869C105.314 5.91909 105.186 5.47807 105.101 5.18452C104.995 4.74349 104.974 4.65962 104.846 4.2611C104.889 4.7646 104.889 5.12148 104.889 5.35227L104.91 6.69561V14H102V0H106.483L108.289 7.32549C108.565 8.41694 108.798 9.57114 108.968 10.4949C109.006 10.3497 109.034 10.2024 109.054 10.0538L109.286 9.15151C109.329 8.89933 109.414 8.58469 109.499 8.20699C109.605 7.76624 109.711 7.32549 109.711 7.28326L111.56 0H116V14H113.09V6.69561L113.111 5.35227C113.111 5.07955 113.111 4.7646 113.154 4.2611C112.921 5.10037 112.772 5.6672 112.708 5.85605C112.58 6.23404 112.517 6.50675 112.495 6.52786L110.56 14H107.417Z" fill="white"/>
<path d="M122 14H119V0H122V14Z" fill="white"/>
<path d="M133.679 14L129.493 6.84253L127.967 4.1139C128.011 4.84847 128.011 5.37338 128.011 5.7933C128.033 6.5487 128.033 7.36714 128.033 8.24891V14H125V0H128.452L132.528 6.96862C133.104 8.01813 133.48 8.75271 134.033 9.80194C133.989 9.23539 133.989 8.85768 133.989 8.43776L133.967 7.38854V0H137V14H133.679Z" fill="white"/>
<path d="M140 0H144.724C147.547 0 149.031 0.503785 150.285 1.931C151.394 3.19047 152 4.95346 152 6.9264C152 8.98349 151.331 10.8937 150.181 12.1532C148.969 13.4543 147.421 14 144.829 14H140V0ZM145.248 11.3133C146.669 11.3133 147.526 10.9139 148.111 9.94914C148.605 9.04289 148.844 8.02002 148.801 6.98944C148.843 5.98166 148.612 4.98121 148.132 4.09308C147.588 3.12743 146.731 2.68669 145.456 2.68669H143.137V11.3133H145.248Z" fill="white"/>
<path d="M162.593 4.82108V4.58415C162.593 3.37902 161.657 2.69047 160.041 2.69047C158.53 2.69047 157.616 3.24973 157.616 4.15299C157.616 4.75556 158.041 5.16449 158.913 5.37949L161.784 6.04668C163.357 6.43425 164.231 6.82183 164.911 7.4674C165.276 7.81864 165.562 8.24439 165.749 8.71594C165.936 9.18749 166.02 9.69386 165.996 10.2009C165.996 13.1707 163.741 15 160.062 15C156.233 15 154.021 13.1493 154 9.94229H157.19C157.254 11.5783 158.169 12.3098 160.104 12.3098C161.741 12.3098 162.741 11.7073 162.741 10.6955C162.741 9.98527 162.23 9.49035 161.21 9.23295L158.636 8.5874C157.126 8.22147 156.189 7.81254 155.552 7.25298C154.828 6.65042 154.425 5.59565 154.425 4.43352C154.425 1.65734 156.53 0 160.125 0C162.422 0 164.039 0.688849 164.953 2.04462C165.421 2.75511 165.655 3.52966 165.782 4.82108H162.593Z" fill="white"/>
</svg>
