<svg width="30" height="30" viewBox="0 0 30 30" fill="none" xmlns="http://www.w3.org/2000/svg">
<rect width="30" height="30" rx="15" fill="#0E0E0E"/>
<path d="M18.1818 6.875V11.2253L15.7955 12.642V10.231L14.6023 10.9764L11.8182 12.642V10.231L10.625 10.9764L6.64773 13.3627L6.25 13.5863V24.375H23.75V6.875H18.1818ZM19.7727 8.46591H22.1591V22.7841H7.84091V14.4565L10.2273 13.0398V15.4508L11.4205 14.7055L14.2045 13.0398V15.4508L15.3977 14.7055L19.375 12.3191L19.7727 12.0956V8.46591ZM9.43182 16.4205V18.0114H11.0227V16.4205H9.43182ZM12.6136 16.4205V18.0114H14.2045V16.4205H12.6136ZM15.7955 16.4205V18.0114H17.3864V16.4205H15.7955ZM18.9773 16.4205V18.0114H20.5682V16.4205H18.9773ZM9.43182 19.6023V21.1932H11.0227V19.6023H9.43182ZM12.6136 19.6023V21.1932H14.2045V19.6023H12.6136ZM15.7955 19.6023V21.1932H17.3864V19.6023H15.7955ZM18.9773 19.6023V21.1932H20.5682V19.6023H18.9773Z" fill="white"/>
</svg>
