<svg width="9" height="8" viewBox="0 0 9 8" fill="none" xmlns="http://www.w3.org/2000/svg">
<path d="M7.6121 7.61277C7.44876 7.61277 7.30205 7.55159 7.17197 7.42924C7.04219 7.30658 6.9773 7.16358 6.9773 7.00024V2.63456L1.99909 7.61277C1.87287 7.73899 1.72423 7.8021 1.55317 7.8021C1.3827 7.8021 1.23435 7.73899 1.10813 7.61277C0.981915 7.48655 0.918657 7.33806 0.91836 7.16729C0.918657 6.99653 0.981915 6.84804 1.10813 6.72182L6.08634 1.74361L1.72066 1.74361C1.55732 1.74361 1.41432 1.67872 1.29167 1.54893C1.16931 1.41886 1.10813 1.27214 1.10813 1.1088C1.10813 0.945461 1.17124 0.800681 1.29746 0.674462C1.42368 0.548244 1.56846 0.485134 1.7318 0.485135L7.6121 0.485135C7.69377 0.47771 7.77173 0.492411 7.84598 0.529237C7.92023 0.566657 7.98705 0.615065 8.04644 0.674462C8.10584 0.733859 8.15232 0.79875 8.18588 0.869135C8.21914 0.939818 8.23577 1.01971 8.23577 1.1088L8.23577 6.9891C8.23577 7.15245 8.17266 7.29723 8.04644 7.42344C7.92022 7.54966 7.77544 7.61277 7.6121 7.61277Z" fill="white"/>
</svg>
