<svg width="38" height="42" viewBox="0 0 38 42" fill="none" xmlns="http://www.w3.org/2000/svg">
<path d="M32.8959 8.08738C32.8664 7.87528 32.6786 7.75761 32.5227 7.7448C32.3681 7.73199 29.3383 7.68656 29.3383 7.68656C29.3383 7.68656 26.8043 5.25822 26.554 5.0112C26.3038 4.76418 25.8149 4.83874 25.6248 4.89467C25.6225 4.89584 25.1489 5.04033 24.352 5.28385C24.2185 4.85739 24.0224 4.33304 23.7426 3.80635C22.8406 2.10746 21.5193 1.20908 19.9229 1.20675C19.9206 1.20675 19.9194 1.20675 19.917 1.20675C19.806 1.20675 19.6962 1.21723 19.5852 1.22656C19.538 1.17063 19.4908 1.11587 19.4411 1.06225C18.7456 0.328171 17.8543 -0.0295522 16.7856 0.00190822C14.724 0.0601694 12.6707 1.52952 11.0059 4.13961C9.83454 5.976 8.94306 8.28317 8.6904 10.0694C6.32296 10.793 4.66753 11.2987 4.63093 11.3104C3.436 11.6809 3.39822 11.717 3.24236 12.8286C3.12664 13.6687 0 37.5279 0 37.5279L26.2022 42L37.5587 39.2139C37.5587 39.2139 32.9253 8.29948 32.8959 8.08738ZM23.0401 5.6847C22.4368 5.8688 21.7507 6.07854 21.0068 6.30576C20.9915 5.2757 20.8675 3.84248 20.3811 2.60385C21.9455 2.89632 22.7154 4.64298 23.0401 5.6847ZM19.636 6.72524C18.2628 7.14469 16.7644 7.60263 15.2613 8.06176C15.684 6.46423 16.4858 4.8737 17.4706 3.83083C17.8365 3.44281 18.3489 3.01052 18.9559 2.76348C19.5262 3.93802 19.6502 5.6008 19.636 6.72524ZM16.8269 1.35589C17.3111 1.34541 17.7185 1.45029 18.0668 1.67633C17.5094 1.96181 16.971 2.37197 16.4657 2.90681C15.1562 4.29342 14.1525 6.44559 13.7522 8.52201C12.5042 8.90301 11.2833 9.2771 10.1592 9.61965C10.8689 6.35121 13.6448 1.44678 16.8269 1.35589Z" fill="#95BF47"/>
<path d="M32.5238 7.74676C32.3691 7.73395 29.3393 7.68852 29.3393 7.68852C29.3393 7.68852 26.8054 5.26018 26.5551 5.01315C26.4618 4.9211 26.3354 4.87332 26.2031 4.85352L26.2044 41.9997L37.5598 39.2148C37.5598 39.2148 32.9264 8.30144 32.8969 8.08934C32.8673 7.87724 32.6785 7.75957 32.5238 7.74676Z" fill="#5E8E3E"/>
<path d="M19.9125 13.5075L18.5936 18.3769C18.5936 18.3769 17.1224 17.7163 15.3784 17.8246C12.8209 17.9843 12.7937 19.5759 12.8197 19.9757C12.9591 22.1534 18.7648 22.6288 19.0908 27.7302C19.3469 31.7432 16.9334 34.4884 13.4561 34.7052C9.28212 34.965 6.98438 32.5355 6.98438 32.5355L7.86878 28.8231C7.86878 28.8231 10.1819 30.5454 12.0332 30.4299C13.2424 30.3542 13.6746 29.3836 13.6309 28.6973C13.449 25.8564 8.72126 26.0242 8.42255 21.3564C8.17102 17.4285 10.7852 13.448 16.5532 13.0892C18.7754 12.9482 19.9125 13.5075 19.9125 13.5075Z" fill="white"/>
</svg>
