<svg width="32" height="21" viewBox="0 0 32 21" fill="none" xmlns="http://www.w3.org/2000/svg">
<path d="M12.8 15L21.104 10.5L12.8 6V15ZM31.296 3.255C31.504 3.96 31.648 4.905 31.744 6.105C31.856 7.305 31.904 8.34 31.904 9.24L32 10.5C32 13.785 31.744 16.2 31.296 17.745C30.896 19.095 29.968 19.965 28.528 20.34C27.776 20.535 26.4 20.67 24.288 20.76C22.208 20.865 20.304 20.91 18.544 20.91L16 21C9.296 21 5.12 20.76 3.472 20.34C2.032 19.965 1.104 19.095 0.704 17.745C0.496 17.04 0.352 16.095 0.256 14.895C0.144 13.695 0.0959999 12.66 0.0959999 11.76L0 10.5C0 7.215 0.256 4.8 0.704 3.255C1.104 1.905 2.032 1.035 3.472 0.66C4.224 0.465 5.6 0.33 7.712 0.24C9.792 0.135 11.696 0.0899999 13.456 0.0899999L16 0C22.704 0 26.88 0.24 28.528 0.66C29.968 1.035 30.896 1.905 31.296 3.255V3.255Z" fill="white"/>
</svg>
