<svg width="29" height="29" viewBox="0 0 29 29" fill="none" xmlns="http://www.w3.org/2000/svg">
<path fill-rule="evenodd" clip-rule="evenodd" d="M5.4375 1.8125C4.47609 1.8125 3.55406 2.19442 2.87424 2.87424C2.19442 3.55406 1.8125 4.47609 1.8125 5.4375V23.5625C1.8125 24.5239 2.19442 25.4459 2.87424 26.1258C3.55406 26.8056 4.47609 27.1875 5.4375 27.1875H23.5625C24.5239 27.1875 25.4459 26.8056 26.1258 26.1258C26.8056 25.4459 27.1875 24.5239 27.1875 23.5625V5.4375C27.1875 4.47609 26.8056 3.55406 26.1258 2.87424C25.4459 2.19442 24.5239 1.8125 23.5625 1.8125H5.4375ZM7.43488 9.60081C8.00932 9.60081 8.56023 9.37262 8.96642 8.96642C9.37262 8.56023 9.60081 8.00932 9.60081 7.43488C9.60081 6.86043 9.37262 6.30952 8.96642 5.90333C8.56023 5.49713 8.00932 5.26894 7.43488 5.26894C6.86043 5.26894 6.30952 5.49713 5.90333 5.90333C5.49713 6.30952 5.26894 6.86043 5.26894 7.43488C5.26894 8.00932 5.49713 8.56023 5.90333 8.96642C6.30952 9.37262 6.86043 9.60081 7.43488 9.60081ZM9.24738 23.2236V11.2991H5.62237V23.2236H9.24738ZM11.6544 11.2991H15.2794V12.8959C15.8141 12.0586 16.9886 10.9312 19.1726 10.9312C21.779 10.9312 23.1946 12.6585 23.1946 15.9446C23.1946 16.1022 23.2091 16.8218 23.2091 16.8218V23.2218H19.5841V16.8236C19.5841 15.9446 19.3992 14.2172 17.4453 14.2172C15.4896 14.2172 15.3247 16.3886 15.2794 17.8096V23.2218H11.6544V11.2991Z" fill="black"/>
</svg>
