<svg width="43" height="43" viewBox="0 0 43 43" fill="none" xmlns="http://www.w3.org/2000/svg">
<circle cx="21.1431" cy="21.2134" r="20.7026" stroke="#0E0E0E" stroke-width="0.880961"/>
<path fill-rule="evenodd" clip-rule="evenodd" d="M22.3685 12.7325C20.9984 12.9458 19.9609 13.8438 19.5595 15.1636C19.3813 15.7495 19.3692 15.8885 19.3527 17.538L19.3373 19.0793H18.1071H16.877V20.5956V22.1119H18.11H19.343V25.9277V29.7434H20.876H22.409V25.9277V22.1119H23.5905H24.7721L24.7906 22.0036C24.8225 21.8169 25.1417 19.2218 25.1417 19.1487C25.1417 19.0795 25.1379 19.0793 23.7733 19.0793H22.4048L22.4158 17.7546C22.4335 15.6182 22.5345 15.5135 24.5775 15.5135H25.4083V14.1514V12.7894L25.1833 12.7681C24.1611 12.6715 22.8655 12.6551 22.3685 12.7325Z" fill="#0E0E0E"/>
</svg>
