<svg width="43" height="43" viewBox="0 0 43 43" fill="none" xmlns="http://www.w3.org/2000/svg">
<circle cx="21.7861" cy="21.2138" r="20.7138" stroke="#0E0E0E"/>
<path fill-rule="evenodd" clip-rule="evenodd" d="M17.5089 13.6666C15.726 13.9748 14.3587 15.2925 13.9806 17.0668C13.8945 17.4705 13.8945 25.5232 13.9806 25.9269C14.3457 27.6401 15.6419 28.9363 17.3551 29.3014C17.7588 29.3875 25.8115 29.3875 26.2152 29.3014C27.9284 28.9363 29.2246 27.6401 29.5897 25.9269C29.6758 25.5232 29.6758 17.4705 29.5897 17.0668C29.227 15.3649 27.9771 14.104 26.246 13.6937C25.9411 13.6214 17.9141 13.5965 17.5089 13.6666ZM26.6015 15.7442C27.6464 16.0974 27.742 17.5856 26.7501 18.0561C25.658 18.5742 24.5539 17.4702 25.072 16.378C25.3377 15.8179 26.0035 15.542 26.6015 15.7442ZM26.0367 16.626C25.8203 16.7327 25.7804 16.999 25.9548 17.1734C26.2383 17.4569 26.6778 17.1378 26.5051 16.7738C26.4218 16.5982 26.2215 16.535 26.0367 16.626ZM22.5336 17.2707C25.7999 17.8107 27.2027 21.823 25.0029 24.3337C22.8317 26.8118 18.7366 25.9746 17.7107 22.8429C16.6994 19.7558 19.3114 16.738 22.5336 17.2707ZM21.19 18.1599C18.9863 18.5762 17.7643 20.9674 18.7372 22.9595C19.9987 25.5423 23.6427 25.5052 24.8648 22.8972C26.002 20.4706 23.8235 17.6623 21.19 18.1599Z" fill="#0E0E0E"/>
</svg>
