<svg width="43" height="43" viewBox="0 0 43 43" fill="none" xmlns="http://www.w3.org/2000/svg">
<circle cx="21.1431" cy="21.2134" r="20.7026" stroke="#0E0E0E" stroke-width="0.880961"/>
<path fill-rule="evenodd" clip-rule="evenodd" d="M15.5552 12.7487C14.3454 13.0741 13.9129 14.593 14.7792 15.4742C15.7252 16.4365 17.2577 15.9951 17.5689 14.6707C17.8387 13.5226 16.7042 12.4397 15.5552 12.7487ZM24.2404 17.0297C23.3259 17.0984 22.3859 17.6343 21.9857 18.315L21.8934 18.4721L21.8843 17.8479L21.8753 17.2237H20.5111H19.1469V21.7845V26.3454H20.5618H21.9766L21.977 24.0233C21.9775 20.7991 22.0184 20.4633 22.4747 19.9459C22.9728 19.3812 24.1818 19.3411 24.6722 19.8731C25.0959 20.3327 25.1359 20.7036 25.138 24.1902L25.1393 26.3461L26.5458 26.3374L27.9523 26.3287L27.9622 23.6322C27.9747 20.2252 27.934 19.6379 27.6306 18.8433C27.126 17.5217 25.9643 16.9003 24.2404 17.0297ZM14.5527 21.7845V26.3454H15.9676H17.3825V21.7845V17.2237H15.9676H14.5527V21.7845Z" fill="#0E0E0E"/>
</svg>
