<svg width="43" height="43" viewBox="0 0 43 43" fill="none" xmlns="http://www.w3.org/2000/svg">
<circle cx="21.4282" cy="21.2134" r="20.7026" stroke="#0E0E0E" stroke-width="0.880961"/>
<path fill-rule="evenodd" clip-rule="evenodd" d="M23.6272 15.3196C22.0584 15.6488 20.9988 17.2129 21.2773 18.7884L21.3029 18.9336L21.158 18.9226C18.9306 18.7532 16.8784 17.7543 15.433 16.1357L15.1322 15.7988L15.0622 15.9358C14.3954 17.2406 14.7494 18.8128 15.9152 19.724L16.0152 19.8022L15.8438 19.7843C15.5524 19.7538 15.2993 19.691 15.038 19.5843C14.643 19.4229 14.6775 19.4152 14.6997 19.6599C14.8163 20.9449 15.6081 21.9573 16.7983 22.3432L17.0387 22.4212L16.8697 22.4571C16.6784 22.4979 16.0499 22.51 15.8631 22.4765C15.716 22.4502 15.7159 22.4489 15.8862 22.8162C16.2961 23.7004 17.1735 24.3721 18.1014 24.5121C18.5684 24.5825 18.5578 24.5548 18.2074 24.789C17.1473 25.4978 16.0965 25.8099 14.7657 25.811C14.424 25.8113 14.1445 25.8131 14.1445 25.8151C14.1446 25.8616 15.027 26.3194 15.4737 26.5047C21.0293 28.8097 27.0596 24.8528 27.2442 18.7812L27.2617 18.2052L27.4633 18.0529C27.7535 17.8337 28.263 17.3155 28.4979 17.0006C28.7693 16.637 28.7657 16.648 28.5903 16.7191C28.206 16.8747 27.3082 17.1152 27.1112 17.1152C27.092 17.1152 27.1577 17.0541 27.2572 16.9795C27.7245 16.6292 28.1176 16.1064 28.2979 15.5952C28.3448 15.4624 28.3461 15.4624 28.0982 15.5981C27.7123 15.8094 27.1694 16.016 26.6716 16.1408L26.4469 16.1972L26.2289 16.0112C25.4845 15.3759 24.5467 15.1266 23.6272 15.3196Z" fill="#0E0E0E"/>
</svg>
