<svg width="43" height="43" viewBox="0 0 43 43" fill="none" xmlns="http://www.w3.org/2000/svg">
<circle cx="21.4282" cy="21.2134" r="20.7026" stroke="#0E0E0E" stroke-width="0.880961"/>
<path fill-rule="evenodd" clip-rule="evenodd" d="M19.4787 14.7631C14.2546 14.8786 13.3394 15.0947 12.7444 16.3538C12.0244 17.8775 12.0221 24.5513 12.7411 26.0675C12.9811 26.5737 13.5103 27.0454 14.044 27.229C15.7922 27.8305 27.2591 27.829 28.8679 27.227C29.5392 26.9759 30.1088 26.3293 30.2908 25.612C30.775 23.7038 30.7759 18.6954 30.2923 16.8548C30.0533 15.9449 29.3738 15.288 28.4815 15.1041C27.3047 14.8616 22.7783 14.6901 19.4787 14.7631ZM22.1035 19.906C23.3464 20.6211 24.3493 21.2184 24.3322 21.2333C24.315 21.2483 23.2981 21.837 22.0724 22.5416C20.8466 23.2463 19.7875 23.8559 19.7188 23.8962L19.5939 23.9696V21.2146V18.4596L19.7188 18.5327C19.7875 18.5729 20.8606 19.1909 22.1035 19.906Z" fill="#0E0E0E"/>
</svg>
