<svg width="80" height="81" viewBox="0 0 80 81" fill="none" xmlns="http://www.w3.org/2000/svg">
<path d="M39.5 73.7239L4 53.2261L39.4979 32.7324L75 53.2282L39.5 73.7239Z" fill="#0F054C"/>
<path d="M39.4998 70.5436L9.50391 53.2258L39.4977 35.9102L69.4936 53.2279L39.4998 70.5436Z" fill="#0F054C"/>
<path d="M39.5003 66.8505L15.9023 53.2281L39.4982 39.6035L63.0962 53.2281L39.5003 66.8505Z" fill="#080344"/>
<path d="M39.9256 69.9371C39.5161 69.9371 39.0826 69.8369 38.7472 69.643L12.9121 54.7279C12.5767 54.5341 12.3828 54.2727 12.3828 54.0091C12.3828 53.7869 12.5179 53.5865 12.7662 53.4449L38.8931 38.36C39.429 38.0506 40.3678 38.0877 40.9843 38.4449L66.8193 53.36C67.1548 53.5538 67.3486 53.8152 67.3486 54.0788C67.3486 54.301 67.2136 54.4992 66.9653 54.643L40.8384 69.7279C40.5944 69.8674 40.2676 69.9371 39.9256 69.9371ZM39.8058 38.2794C39.4878 38.2794 39.185 38.3425 38.9585 38.4732L12.8315 53.5582C12.6268 53.6758 12.5135 53.837 12.5135 54.0113C12.5135 54.2269 12.6834 54.4469 12.9775 54.6169L38.8125 69.5319C39.3941 69.8674 40.2742 69.9044 40.7752 69.6168L66.9021 54.5319C67.1068 54.4143 67.2201 54.2531 67.2201 54.0788C67.2201 53.8632 67.0502 53.6431 66.7561 53.4732L40.9211 38.5582C40.6009 38.373 40.1914 38.2794 39.8058 38.2794Z" fill="#42E8E0"/>
<path d="M12.4495 51.7864H14.0245L38.925 37.4094C39.4456 37.1088 40.3518 37.148 40.953 37.4944L65.7533 51.8125H67.2847V53.0694C67.2847 53.2611 67.1714 53.4441 66.9361 53.5792L40.8092 68.6641C40.2886 68.9647 39.3824 68.9255 38.7812 68.5791L12.9462 53.6641C12.6107 53.4702 12.4408 53.2197 12.4495 52.9845V51.7864Z" fill="url(#paint0_linear_1148_7463)"/>
<path d="M40.8075 67.411L66.9344 52.3283C67.455 52.0277 67.3896 51.5049 66.7884 51.1585L40.9534 36.2435C40.3544 35.8971 39.446 35.8601 38.9254 36.1585L12.8007 51.2413C12.28 51.5419 12.3454 52.0647 12.9466 52.411L38.7816 67.3261C39.3807 67.6746 40.2868 67.7116 40.8075 67.411Z" fill="url(#paint1_linear_1148_7463)"/>
<path opacity="0.1" d="M40.7387 66.3328L65.0598 52.2913C65.5433 52.0125 65.4823 51.5245 64.9247 51.2021L40.8759 37.3174C40.3183 36.9951 39.4731 36.9602 38.9895 37.239L14.6662 51.2806C14.1826 51.5594 14.2436 52.0473 14.8013 52.3697L38.8501 66.2544C39.4099 66.5768 40.2551 66.6116 40.7387 66.3328Z" fill="#180D5B"/>
<path d="M12.9444 52.2676L38.7794 67.1826C39.3785 67.529 40.2868 67.566 40.8075 67.2676L66.9344 52.1827C67.1413 52.0628 67.2524 51.9082 67.2785 51.7448C67.3112 51.9626 67.2001 52.1739 66.9344 52.3286L40.8075 67.4136C40.2868 67.7142 39.3807 67.6749 38.7794 67.3286L12.9444 52.4136C12.5828 52.2044 12.4173 51.9321 12.4543 51.6816C12.487 51.8886 12.6504 52.0999 12.9444 52.2676Z" fill="white"/>
<path d="M41.6861 40.7988C41.6033 40.7988 41.5249 40.7792 41.4552 40.7378C41.2918 40.6442 41.2025 40.4525 41.2025 40.1998V39.6421C41.2025 39.4613 41.1459 39.3285 41.0435 39.2696C40.9411 39.2108 40.7973 39.2283 40.6405 39.3197L40.1569 39.5986C40.1112 39.6247 40.0545 39.6095 40.0284 39.5637C40.0022 39.518 40.0175 39.4613 40.0632 39.4352L40.5468 39.1564C40.7647 39.03 40.9759 39.0126 41.1393 39.1063C41.3027 39.1999 41.392 39.3916 41.392 39.6443V40.202C41.392 40.385 41.4486 40.5157 41.551 40.5745C41.6534 40.6333 41.7972 40.6159 41.954 40.5244L44.2696 39.1869C44.3153 39.1607 44.372 39.176 44.3981 39.2217C44.4242 39.2675 44.409 39.3241 44.3633 39.3502L42.0477 40.6877C41.9235 40.7618 41.7994 40.7988 41.6861 40.7988Z" fill="#42E8E0"/>
<path d="M42.5884 41.3181C42.5057 41.3181 42.4272 41.2985 42.3575 41.2593C42.1941 41.1657 42.1048 40.974 42.1048 40.7213V40.1636C42.1048 39.9806 42.0482 39.8499 41.9458 39.7911C41.8434 39.7323 41.6997 39.7497 41.5428 39.8412L41.0592 40.1201C41.0135 40.1462 40.9569 40.1309 40.9307 40.0852C40.9046 40.0395 40.9198 39.9828 40.9656 39.9567L41.4492 39.6779C41.667 39.5515 41.8783 39.5341 42.0417 39.6278C42.205 39.7214 42.2944 39.9131 42.2944 40.1658V40.7235C42.2944 40.9064 42.351 41.0371 42.4534 41.096C42.5558 41.1548 42.6995 41.1373 42.8564 41.0458L45.1719 39.7084C45.2177 39.6822 45.2743 39.6975 45.3005 39.7432C45.3266 39.789 45.3113 39.8456 45.2656 39.8717L42.95 41.2092C42.8237 41.2811 42.7017 41.3181 42.5884 41.3181Z" fill="#42E8E0"/>
<path d="M43.4869 41.8357C43.4041 41.8357 43.3257 41.8161 43.256 41.7769C43.0926 41.6832 43.0033 41.4915 43.0033 41.2389V40.6812C43.0033 40.5004 42.9466 40.3675 42.8443 40.3087C42.7419 40.2499 42.5981 40.2673 42.4413 40.3588L41.9577 40.6376C41.9119 40.6638 41.8553 40.6485 41.8292 40.6028C41.803 40.557 41.8183 40.5004 41.864 40.4743L42.3476 40.1954C42.5654 40.0691 42.7767 40.0517 42.9401 40.1453C43.1035 40.239 43.1928 40.4307 43.1928 40.6834V41.241C43.1928 41.4218 43.2494 41.5547 43.3518 41.6135C43.4542 41.6723 43.5958 41.6549 43.7548 41.5634L46.0704 40.2259C46.1161 40.1998 46.1727 40.215 46.1989 40.2608C46.225 40.3065 46.2098 40.3632 46.164 40.3893L43.8485 41.7268C43.7243 41.7987 43.6001 41.8357 43.4869 41.8357Z" fill="#42E8E0"/>
<path d="M44.3892 42.3535C44.3064 42.3535 44.228 42.3339 44.1583 42.2925C43.9949 42.1989 43.9056 42.0072 43.9056 41.7545V41.1968C43.9056 41.0138 43.849 40.8831 43.7466 40.8243C43.6442 40.7655 43.5004 40.7829 43.3436 40.8744L42.86 41.1533C42.8143 41.1794 42.7576 41.1642 42.7315 41.1184C42.7054 41.0727 42.7206 41.016 42.7664 40.9899L43.2499 40.7111C43.4678 40.5847 43.6791 40.5673 43.8424 40.661C44.0058 40.7546 44.0951 40.9463 44.0951 41.199V41.7567C44.0951 41.9375 44.1518 42.0703 44.2542 42.1292C44.3565 42.188 44.5003 42.1705 44.6571 42.0791L46.9727 40.7416C47.0185 40.7154 47.0751 40.7307 47.1012 40.7764C47.1274 40.8222 47.1121 40.8788 47.0664 40.9049L44.7508 42.2424C44.6245 42.3187 44.5025 42.3535 44.3892 42.3535Z" fill="#42E8E0"/>
<path d="M45.2876 42.8711C45.2049 42.8711 45.1265 42.8515 45.0567 42.8101C44.8934 42.7164 44.8041 42.5247 44.8041 42.2721V41.7144C44.8041 41.5336 44.7474 41.4007 44.645 41.3419C44.5427 41.2831 44.4011 41.3005 44.242 41.392L43.7585 41.6708C43.7127 41.697 43.6561 41.6817 43.6299 41.636C43.6038 41.5902 43.619 41.5336 43.6648 41.5075L44.1484 41.2286C44.3662 41.1023 44.5775 41.0849 44.7409 41.1785C44.9043 41.2722 44.9936 41.4639 44.9936 41.7166V42.2742C44.9936 42.455 45.0502 42.5879 45.1526 42.6467C45.255 42.7055 45.3987 42.6881 45.5556 42.5966L47.8711 41.2591C47.9169 41.233 47.9735 41.2482 47.9997 41.294C48.0258 41.3397 48.0106 41.3964 47.9648 41.4225L45.6493 42.76C45.5251 42.8362 45.4009 42.8711 45.2876 42.8711Z" fill="#42E8E0"/>
<path d="M46.19 43.3885C46.1072 43.3885 46.0288 43.3688 45.9591 43.3296C45.7957 43.236 45.7064 43.0443 45.7064 42.7916V42.2339C45.7064 42.051 45.6498 41.9203 45.5474 41.8614C45.445 41.8026 45.3012 41.8201 45.1444 41.9115L44.6608 42.1904C44.6151 42.2165 44.5584 42.2013 44.5323 42.1555C44.5061 42.1098 44.5214 42.0531 44.5671 42.027L45.0507 41.7482C45.2686 41.6218 45.4799 41.6044 45.6432 41.6981C45.8066 41.7917 45.8959 41.9834 45.8959 42.2361V42.7938C45.8959 42.9746 45.9526 43.1074 46.0549 43.1663C46.1573 43.2251 46.3011 43.2077 46.4579 43.1162L48.7735 41.7787C48.8192 41.7525 48.8759 41.7678 48.902 41.8135C48.9282 41.8593 48.9129 41.9159 48.8672 41.942L46.5516 43.2795C46.4253 43.3514 46.3033 43.3885 46.19 43.3885Z" fill="#42E8E0"/>
<path d="M47.0923 43.906C47.0096 43.906 46.9311 43.8864 46.8614 43.8472C46.6981 43.7535 46.6087 43.5619 46.6087 43.3092V42.7515C46.6087 42.5707 46.5521 42.4378 46.4497 42.379C46.3473 42.3202 46.2036 42.3376 46.0467 42.4291L45.5631 42.7079C45.5174 42.7341 45.4608 42.7188 45.4346 42.6731C45.4085 42.6273 45.4237 42.5707 45.4695 42.5446L45.9531 42.2657C46.1709 42.1394 46.3822 42.122 46.5456 42.2156C46.7089 42.3093 46.7983 42.501 46.7983 42.7537V43.3113C46.7983 43.4921 46.8549 43.625 46.9573 43.6838C47.0597 43.7427 47.2034 43.7252 47.3603 43.6337L49.6758 42.2962C49.7216 42.2701 49.7782 42.2854 49.8044 42.3311C49.8305 42.3768 49.8152 42.4335 49.7695 42.4596L47.4539 43.7971C47.3298 43.869 47.2056 43.906 47.0923 43.906Z" fill="#42E8E0"/>
<path d="M47.9908 44.4275C47.908 44.4275 47.8296 44.4079 47.7599 44.3687C47.5965 44.275 47.5072 44.0833 47.5072 43.8307V43.273C47.5072 43.0922 47.4505 42.9593 47.3482 42.9005C47.2458 42.8417 47.102 42.8591 46.9452 42.9506L46.4616 43.2294C46.4158 43.2556 46.3592 43.2403 46.3331 43.1946C46.3069 43.1488 46.3222 43.0922 46.3679 43.0661L46.8515 42.7872C47.0693 42.6609 47.2806 42.6435 47.444 42.7371C47.6074 42.8308 47.6967 43.0225 47.6967 43.2752V43.8328C47.6967 44.0136 47.7533 44.1465 47.8557 44.2053C47.9581 44.2641 48.1019 44.2467 48.2587 44.1552L50.5743 42.8177C50.62 42.7916 50.6767 42.8068 50.7028 42.8526C50.7289 42.8983 50.7137 42.955 50.6679 42.9811L48.3524 44.3186C48.226 44.3905 48.104 44.4275 47.9908 44.4275Z" fill="#42E8E0"/>
<path d="M48.8931 44.9434C48.8103 44.9434 48.7319 44.9238 48.6622 44.8824C48.4988 44.7887 48.4095 44.597 48.4095 44.3443V43.7867C48.4095 43.6037 48.3529 43.473 48.2505 43.4142C48.1481 43.3554 48.0044 43.3728 47.8475 43.4643L47.3639 43.7431C47.3182 43.7692 47.2615 43.754 47.2354 43.7082C47.2093 43.6625 47.2245 43.6059 47.2703 43.5797L47.7538 43.3009C47.9717 43.1746 48.183 43.1571 48.3464 43.2508C48.5097 43.3445 48.599 43.5362 48.599 43.7888V44.3465C48.599 44.5273 48.6557 44.6602 48.7581 44.719C48.8604 44.7778 49.0042 44.7604 49.1611 44.6689L51.4766 43.3314C51.5224 43.3053 51.579 43.3205 51.6051 43.3663C51.6313 43.412 51.616 43.4686 51.5703 43.4948L49.2547 44.8323C49.1306 44.9063 49.0064 44.9434 48.8931 44.9434Z" fill="#42E8E0"/>
<path d="M49.7955 45.4629C49.7127 45.4629 49.6343 45.4433 49.5646 45.4019C49.4012 45.3082 49.3119 45.1165 49.3119 44.8639V44.3062C49.3119 44.1254 49.2552 43.9925 49.1529 43.9337C49.0505 43.8749 48.9067 43.8923 48.7499 43.9838L48.2663 44.2626C48.2205 44.2888 48.1639 44.2735 48.1377 44.2278C48.1116 44.182 48.1269 44.1254 48.1726 44.0993L48.6562 43.8204C48.874 43.6941 49.0853 43.6767 49.2487 43.7703C49.4121 43.864 49.5014 44.0557 49.5014 44.3084V44.866C49.5014 45.049 49.558 45.1797 49.6604 45.2385C49.7628 45.2973 49.9066 45.2799 50.0634 45.1884L52.379 43.8509C52.4247 43.8248 52.4813 43.84 52.5075 43.8858C52.5336 43.9315 52.5184 43.9882 52.4726 44.0143L50.1571 45.3518C50.0307 45.4259 49.9087 45.4629 49.7955 45.4629Z" fill="#42E8E0"/>
<path d="M50.6939 45.9805C50.6111 45.9805 50.5327 45.9609 50.463 45.9217C50.2996 45.828 50.2103 45.6363 50.2103 45.3836V44.826C50.2103 44.643 50.1537 44.5123 50.0513 44.4513C49.9489 44.3925 49.8051 44.4099 49.6483 44.5014L49.1647 44.7802C49.119 44.8064 49.0623 44.7911 49.0362 44.7454C49.01 44.6996 49.0253 44.643 49.071 44.6168L49.5546 44.338C49.7725 44.2117 49.9838 44.1942 50.1471 44.2879C50.3105 44.3816 50.3998 44.5733 50.3998 44.826V45.3836C50.3998 45.5644 50.4565 45.6973 50.5588 45.7561C50.6612 45.8149 50.805 45.7975 50.9618 45.706L53.2774 44.3685C53.3231 44.3424 53.3798 44.3576 53.4059 44.4034C53.4321 44.4491 53.4168 44.5057 53.3711 44.5319L51.0555 45.8694C50.9313 45.9434 50.8072 45.9805 50.6939 45.9805Z" fill="#42E8E0"/>
<path d="M51.5962 46.4978C51.5135 46.4978 51.435 46.4782 51.3653 46.439C51.202 46.3453 51.1126 46.1536 51.1126 45.901V45.3433C51.1126 45.1603 51.056 45.0296 50.9536 44.9708C50.8513 44.912 50.7075 44.9294 50.5506 45.0209L50.0671 45.2997C50.0213 45.3259 49.9647 45.3106 49.9385 45.2649C49.9124 45.2191 49.9276 45.1625 49.9734 45.1364L50.457 44.8575C50.6748 44.7312 50.8861 44.7138 51.0495 44.8074C51.2129 44.9011 51.3022 45.0928 51.3022 45.3455V45.9031C51.3022 46.0861 51.3588 46.2168 51.4612 46.2756C51.5636 46.3345 51.7073 46.317 51.8642 46.2255L54.1797 44.888C54.2255 44.8619 54.2821 44.8771 54.3083 44.9229C54.3344 44.9686 54.3192 45.0253 54.2734 45.0514L51.9578 46.3889C51.8315 46.463 51.7095 46.4978 51.5962 46.4978Z" fill="#42E8E0"/>
<path d="M52.4947 47.0156C52.4119 47.0156 52.3335 46.996 52.2638 46.9546C52.1004 46.861 52.0111 46.6693 52.0111 46.4166V45.8589C52.0111 45.6781 51.9545 45.5453 51.8521 45.4864C51.7497 45.4276 51.6059 45.4451 51.4491 45.5365L50.9655 45.8154C50.9197 45.8415 50.8631 45.8263 50.837 45.7805C50.8108 45.7348 50.8261 45.6781 50.8718 45.652L51.3554 45.3732C51.5732 45.2468 51.7845 45.2294 51.9479 45.3231C52.1113 45.4167 52.2006 45.6084 52.2006 45.8611V46.4188C52.2006 46.5996 52.2572 46.7324 52.3596 46.7934C52.462 46.8523 52.6058 46.8348 52.7626 46.7433L55.0782 45.4058C55.1239 45.3797 55.1806 45.395 55.2067 45.4407C55.2328 45.4864 55.2176 45.5431 55.1718 45.5692L52.8563 46.9067C52.7321 46.9808 52.6079 47.0156 52.4947 47.0156Z" fill="#42E8E0"/>
<path d="M53.397 47.5352C53.3142 47.5352 53.2358 47.5156 53.1661 47.4742C53.0027 47.3805 52.9134 47.1888 52.9134 46.9361V46.3785C52.9134 46.1955 52.8568 46.0648 52.7544 46.006C52.652 45.9472 52.5083 45.9646 52.3514 46.0561L51.8678 46.3349C51.8221 46.361 51.7655 46.3458 51.7393 46.3C51.7132 46.2543 51.7284 46.1977 51.7742 46.1715L52.2578 45.8927C52.4756 45.7664 52.6869 45.7489 52.8503 45.8426C53.0136 45.9363 53.1029 46.128 53.1029 46.3806V46.9383C53.1029 47.1191 53.1596 47.252 53.262 47.3108C53.3643 47.3696 53.5081 47.3522 53.665 47.2607L55.9805 45.9232C56.0263 45.8971 56.0829 45.9123 56.109 45.9581C56.1352 46.0038 56.1199 46.0604 56.0742 46.0866L53.7586 47.4241C53.6323 47.4981 53.5103 47.5352 53.397 47.5352Z" fill="#42E8E0"/>
<path d="M54.2955 48.0525C54.2127 48.0525 54.1343 48.0329 54.0646 47.9937C53.9012 47.9 53.8119 47.7083 53.8119 47.4557V46.898C53.8119 46.7172 53.7552 46.5843 53.6529 46.5255C53.5505 46.4667 53.4067 46.4841 53.2499 46.5756L52.7663 46.8544C52.7205 46.8806 52.6639 46.8653 52.6377 46.8196C52.6116 46.7738 52.6269 46.7172 52.6726 46.6911L53.1562 46.4122C53.374 46.2859 53.5853 46.2685 53.7487 46.3621C53.9121 46.4558 54.0014 46.6475 54.0014 46.9002V47.4578C54.0014 47.6408 54.058 47.7715 54.1604 47.8303C54.2628 47.8891 54.4066 47.8717 54.5634 47.7802L56.879 46.4427C56.9247 46.4166 56.9813 46.4318 57.0075 46.4776C57.0336 46.5233 57.0184 46.58 56.9726 46.6061L54.6571 47.9436C54.5329 48.0155 54.4087 48.0525 54.2955 48.0525Z" fill="#42E8E0"/>
<path d="M55.1978 48.572C55.115 48.572 55.0366 48.5524 54.9669 48.5132C54.8035 48.4196 54.7142 48.2279 54.7142 47.9752V47.4175C54.7142 47.2367 54.6576 47.1039 54.5552 47.045C54.4528 46.9862 54.309 47.0036 54.1522 47.0951L53.6686 47.374C53.6229 47.4001 53.5662 47.3849 53.5401 47.3391C53.514 47.2934 53.5292 47.2367 53.5749 47.2106L54.0585 46.9318C54.2764 46.8054 54.4877 46.788 54.651 46.8817C54.8144 46.9753 54.9037 47.167 54.9037 47.4197V47.9774C54.9037 48.1582 54.9604 48.291 55.0627 48.3499C55.1651 48.4087 55.3089 48.3912 55.4657 48.2998L57.7813 46.9623C57.827 46.9361 57.8837 46.9514 57.9098 46.9971C57.936 47.0429 57.9207 47.0995 57.875 47.1256L55.5594 48.4631C55.4331 48.535 55.3111 48.572 55.1978 48.572Z" fill="#42E8E0"/>
<path d="M56.0962 49.0898C56.0135 49.0898 55.935 49.0702 55.8653 49.0289C55.702 48.9352 55.6126 48.7435 55.6126 48.4908V47.9332C55.6126 47.7524 55.556 47.6195 55.4536 47.5607C55.3512 47.5018 55.2075 47.5193 55.0506 47.6108L54.5671 47.8896C54.5213 47.9157 54.4647 47.9005 54.4385 47.8547C54.4124 47.809 54.4276 47.7524 54.4734 47.7262L54.957 47.4474C55.1748 47.321 55.3861 47.3036 55.5495 47.3973C55.7128 47.491 55.8022 47.6826 55.8022 47.9353V48.493C55.8022 48.6738 55.8588 48.8067 55.9612 48.8655C56.0636 48.9243 56.2073 48.9069 56.3642 48.8154L58.6797 47.4779C58.7255 47.4517 58.7821 47.467 58.8083 47.5127C58.8344 47.5585 58.8192 47.6151 58.7734 47.6413L56.4578 48.9788C56.3337 49.0528 56.2095 49.0898 56.0962 49.0898Z" fill="#42E8E0"/>
<path d="M57.0025 49.6074C56.9197 49.6074 56.8413 49.5878 56.7716 49.5464C56.6082 49.4528 56.5189 49.2611 56.5189 49.0084V48.4507C56.5189 48.2699 56.4623 48.1371 56.3599 48.0782C56.2575 48.0194 56.1137 48.0369 55.9569 48.1283L55.4733 48.4072C55.4276 48.4333 55.3709 48.4181 55.3448 48.3723C55.3186 48.3266 55.3339 48.2699 55.3796 48.2438L55.8632 47.965C56.0811 47.8386 56.2924 47.8212 56.4557 47.9149C56.6191 48.0085 56.7084 48.2002 56.7084 48.4529V49.0106C56.7084 49.1935 56.765 49.3242 56.8674 49.3831C56.9698 49.4419 57.1136 49.4244 57.2704 49.333L59.586 47.9955C59.6317 47.9693 59.6884 47.9846 59.7145 48.0303C59.7407 48.0761 59.7254 48.1327 59.6797 48.1588L57.3641 49.4963C57.2377 49.5704 57.1158 49.6074 57.0025 49.6074Z" fill="#42E8E0"/>
<path d="M57.897 50.1248C57.8142 50.1248 57.7358 50.1052 57.6661 50.066C57.5027 49.9723 57.4134 49.7806 57.4134 49.5279V48.9703C57.4134 48.7873 57.3568 48.6566 57.2544 48.5978C57.152 48.539 57.0083 48.5564 56.8514 48.6479L56.3678 48.9267C56.3221 48.9528 56.2655 48.9376 56.2393 48.8918C56.2132 48.8461 56.2284 48.7895 56.2742 48.7633L56.7578 48.4845C56.9756 48.3582 57.1869 48.3407 57.3503 48.4344C57.5136 48.5281 57.6029 48.7198 57.6029 48.9724V49.5301C57.6029 49.7131 57.6596 49.8438 57.762 49.9026C57.8643 49.9614 58.0081 49.944 58.165 49.8525L60.4805 48.515C60.5263 48.4889 60.5829 48.5041 60.609 48.5498C60.6352 48.5956 60.6199 48.6522 60.5742 48.6784L58.2586 50.0159C58.1345 50.0899 58.0103 50.1248 57.897 50.1248Z" fill="#42E8E0"/>
<path d="M58.8033 50.6424C58.7205 50.6424 58.6421 50.6228 58.5724 50.5835C58.409 50.4899 58.3197 50.2982 58.3197 50.0455V49.4878C58.3197 49.3049 58.263 49.1742 58.1607 49.1153C58.0583 49.0565 57.9145 49.074 57.7577 49.1654L57.2741 49.4443C57.2283 49.4704 57.1717 49.4552 57.1456 49.4094C57.1194 49.3637 57.1347 49.307 57.1804 49.2809L57.664 49.0021C57.8818 48.8757 58.0931 48.8583 58.2565 48.952C58.4199 49.0456 58.5092 49.2373 58.5092 49.49V50.0477C58.5092 50.2285 58.5658 50.3614 58.6682 50.4202C58.7706 50.479 58.9144 50.4616 59.0712 50.3701L61.3868 49.0326C61.4325 49.0064 61.4892 49.0217 61.5153 49.0674C61.5414 49.1132 61.5262 49.1698 61.4804 49.1959L59.1649 50.5334C59.0385 50.6075 58.9165 50.6424 58.8033 50.6424Z" fill="#42E8E0"/>
<path d="M37.9943 40.8435C37.881 40.8435 37.759 40.8065 37.6327 40.7346L35.3171 39.3971C35.2714 39.371 35.2561 39.3122 35.2823 39.2686C35.3084 39.2229 35.3672 39.2076 35.4108 39.2337L37.7264 40.5712C37.8832 40.6627 38.027 40.6802 38.1294 40.6213C38.2317 40.5625 38.2884 40.4296 38.2884 40.2488V39.6912C38.2884 39.4385 38.3777 39.249 38.5411 39.1531C38.7044 39.0595 38.9136 39.0769 39.1336 39.2032L39.6172 39.4821C39.6629 39.5082 39.6782 39.567 39.652 39.6106C39.6259 39.6563 39.5671 39.6716 39.5235 39.6454L39.0399 39.3666C38.8831 39.2751 38.7393 39.2577 38.6369 39.3165C38.5345 39.3753 38.4779 39.5082 38.4779 39.689V40.2467C38.4779 40.4994 38.3886 40.6889 38.2252 40.7847C38.1555 40.8239 38.0771 40.8435 37.9943 40.8435Z" fill="#42E8E0"/>
<path d="M37.092 41.3631C36.9787 41.3631 36.8567 41.326 36.7304 41.2541L34.4148 39.9167C34.369 39.8905 34.3538 39.8317 34.3799 39.7881C34.4061 39.7424 34.4649 39.7271 34.5085 39.7533L36.824 41.0908C36.9809 41.1823 37.1246 41.1997 37.227 41.1409C37.3294 41.0821 37.386 40.9492 37.386 40.7684V40.2107C37.386 39.958 37.4753 39.7685 37.6387 39.6727C37.8021 39.579 38.0112 39.5964 38.2312 39.7228L38.7148 40.0016C38.7606 40.0277 38.7758 40.0866 38.7497 40.1301C38.7235 40.1759 38.6647 40.1911 38.6211 40.165L38.1376 39.8862C37.9807 39.7947 37.8369 39.7772 37.7346 39.8361C37.6322 39.8949 37.5755 40.0277 37.5755 40.2085V40.7662C37.5755 41.0189 37.4862 41.2084 37.3229 41.3042C37.251 41.3435 37.1747 41.3631 37.092 41.3631Z" fill="#42E8E0"/>
<path d="M36.1935 41.8806C36.0802 41.8806 35.9583 41.8436 35.8319 41.7717L33.5163 40.4342C33.4706 40.4081 33.4554 40.3493 33.4815 40.3057C33.5076 40.26 33.5665 40.2447 33.61 40.2709L35.9256 41.6083C36.0824 41.6998 36.2262 41.7173 36.3286 41.6585C36.431 41.5996 36.4876 41.4668 36.4876 41.286V40.7283C36.4876 40.4756 36.5769 40.2861 36.7403 40.1903C36.9037 40.0966 37.1128 40.114 37.3328 40.2404L37.8164 40.5192C37.8621 40.5453 37.8774 40.6041 37.8512 40.6477C37.8251 40.6935 37.7663 40.7087 37.7227 40.6826L37.2391 40.4037C37.0823 40.3122 36.9385 40.2948 36.8361 40.3536C36.7337 40.4124 36.6771 40.5453 36.6771 40.7261V41.2838C36.6771 41.5365 36.5878 41.726 36.4244 41.8218C36.3547 41.861 36.2763 41.8806 36.1935 41.8806Z" fill="#42E8E0"/>
<path d="M35.2912 42.4002C35.1779 42.4002 35.0559 42.3631 34.9296 42.2913L32.614 40.9538C32.5683 40.9276 32.553 40.8688 32.5792 40.8252C32.6053 40.7795 32.6641 40.7642 32.7077 40.7904L35.0232 42.1279C35.1801 42.2194 35.3239 42.2368 35.4262 42.178C35.5286 42.1192 35.5853 41.9863 35.5853 41.8055V41.2478C35.5853 40.9951 35.6746 40.8056 35.8379 40.7098C36.0013 40.6161 36.2104 40.6335 36.4304 40.7599L36.914 41.0387C36.9598 41.0649 36.975 41.1237 36.9489 41.1672C36.9227 41.213 36.8639 41.2282 36.8204 41.2021L36.3368 40.9233C36.1799 40.8318 36.0362 40.8143 35.9338 40.8732C35.8314 40.932 35.7748 41.0649 35.7748 41.2457V41.8033C35.7748 42.056 35.6855 42.2455 35.5221 42.3414C35.4502 42.3806 35.374 42.4002 35.2912 42.4002Z" fill="#42E8E0"/>
<path d="M34.3888 42.9158C34.2756 42.9158 34.1536 42.8788 34.0272 42.8069L31.7117 41.4694C31.6659 41.4432 31.6507 41.3844 31.6768 41.3409C31.703 41.2951 31.7618 41.2799 31.8053 41.306L34.1209 42.6435C34.2777 42.735 34.4215 42.7524 34.5239 42.6936C34.6263 42.6348 34.6829 42.5019 34.6829 42.3211V41.7635C34.6829 41.5108 34.7722 41.3213 34.9356 41.2254C35.099 41.1317 35.3081 41.1492 35.5281 41.2755L36.0117 41.5543C36.0574 41.5805 36.0727 41.6371 36.0465 41.6829C36.0204 41.7286 35.9616 41.7439 35.918 41.7177L35.4344 41.4389C35.2776 41.3474 35.1338 41.33 35.0314 41.3888C34.9291 41.4476 34.8724 41.5805 34.8724 41.7613V42.3189C34.8724 42.5716 34.7831 42.7611 34.6197 42.857C34.55 42.8962 34.4716 42.9158 34.3888 42.9158Z" fill="#42E8E0"/>
<path d="M33.4904 43.4353C33.3771 43.4353 33.2551 43.3983 33.1288 43.3264L30.8132 41.9889C30.7675 41.9628 30.7522 41.904 30.7784 41.8604C30.8045 41.8146 30.8633 41.7994 30.9069 41.8255L33.2225 43.163C33.3793 43.2545 33.5231 43.272 33.6255 43.2131C33.7278 43.1543 33.7845 43.0214 33.7845 42.8406V42.283C33.7845 42.0303 33.8738 41.8408 34.0372 41.7449C34.2005 41.6513 34.4118 41.6687 34.6297 41.795L35.1133 42.0739C35.159 42.1 35.1742 42.1588 35.1481 42.2024C35.122 42.2481 35.0632 42.2634 35.0196 42.2372L34.536 41.9584C34.3792 41.8669 34.2354 41.8495 34.133 41.9083C34.0306 41.9671 33.974 42.1 33.974 42.2808V42.8385C33.974 43.0912 33.8847 43.2807 33.7213 43.3765C33.6516 43.4157 33.5732 43.4353 33.4904 43.4353Z" fill="#42E8E0"/>
<path d="M32.592 43.951C32.4787 43.951 32.3567 43.9139 32.2304 43.842L29.9148 42.5045C29.869 42.4784 29.8538 42.4196 29.8799 42.376C29.9061 42.3303 29.9649 42.315 30.0085 42.3412L32.324 43.6787C32.4809 43.7702 32.6246 43.7876 32.727 43.7288C32.8294 43.6699 32.886 43.5371 32.886 43.3563V42.7986C32.886 42.5459 32.9753 42.3564 33.1387 42.2606C33.3021 42.1669 33.5112 42.1843 33.7312 42.3107L34.2148 42.5895C34.2606 42.6156 34.2758 42.6745 34.2497 42.718C34.2235 42.7638 34.1647 42.779 34.1211 42.7529L33.6376 42.474C33.4807 42.3826 33.3369 42.3651 33.2346 42.4239C33.1322 42.4828 33.0755 42.6156 33.0755 42.7964V43.3541C33.0755 43.6068 32.9862 43.7963 32.8229 43.8921C32.7532 43.9313 32.6747 43.951 32.592 43.951Z" fill="#42E8E0"/>
<path d="M31.6896 44.4705C31.5763 44.4705 31.4544 44.4335 31.328 44.3616L29.0124 43.0241C28.9667 42.9979 28.9515 42.9391 28.9776 42.8956C29.0037 42.8498 29.0625 42.8346 29.1061 42.8607L31.4217 44.1982C31.5785 44.2897 31.7223 44.3071 31.8247 44.2483C31.9271 44.1895 31.9837 44.0566 31.9837 43.8758V43.3181C31.9837 43.0655 32.073 42.8759 32.2364 42.7801C32.3997 42.6864 32.6089 42.7039 32.8289 42.8302L33.3125 43.109C33.3582 43.1352 33.3735 43.194 33.3473 43.2376C33.3212 43.2833 33.2624 43.2985 33.2188 43.2724L32.7352 42.9936C32.5784 42.9021 32.4346 42.8847 32.3322 42.9435C32.2298 43.0023 32.1732 43.1352 32.1732 43.316V43.8736C32.1732 44.1263 32.0839 44.3158 31.9205 44.4117C31.8486 44.4509 31.7724 44.4705 31.6896 44.4705Z" fill="#42E8E0"/>
<path d="M30.7873 44.9881C30.674 44.9881 30.552 44.951 30.4257 44.8791L28.1101 43.5416C28.0644 43.5155 28.0491 43.4567 28.0752 43.4131C28.1014 43.3674 28.1602 43.3521 28.2038 43.3783L30.5193 44.7158C30.6762 44.8073 30.8199 44.8247 30.9223 44.7659C31.0247 44.7071 31.0813 44.5742 31.0813 44.3934V43.8357C31.0813 43.583 31.1707 43.3935 31.334 43.2977C31.4974 43.204 31.7065 43.2214 31.9265 43.3478L32.4101 43.6266C32.4559 43.6527 32.4711 43.7094 32.445 43.7551C32.4188 43.8009 32.36 43.8161 32.3165 43.79L31.8329 43.5112C31.676 43.4197 31.5323 43.4022 31.4299 43.4611C31.3275 43.5199 31.2709 43.6527 31.2709 43.8335V44.3912C31.2709 44.6439 31.1816 44.8334 31.0182 44.9292C30.9485 44.9685 30.87 44.9881 30.7873 44.9881Z" fill="#42E8E0"/>
<path d="M29.8888 45.5076C29.7756 45.5076 29.6536 45.4706 29.5272 45.3987L27.2117 44.0612C27.1659 44.035 27.1507 43.9762 27.1768 43.9327C27.203 43.8869 27.2618 43.8717 27.3053 43.8978L29.6209 45.2353C29.7777 45.3268 29.9215 45.3442 30.0239 45.2854C30.1263 45.2266 30.1829 45.0937 30.1829 44.9129V44.3553C30.1829 44.1026 30.2722 43.9131 30.4356 43.8172C30.599 43.7235 30.8081 43.741 31.0281 43.8673L31.5117 44.1461C31.5574 44.1723 31.5727 44.2311 31.5465 44.2747C31.5204 44.3204 31.4616 44.3357 31.418 44.3095L30.9344 44.0307C30.7776 43.9392 30.6338 43.9218 30.5314 43.9806C30.4291 44.0394 30.3724 44.1723 30.3724 44.3531V44.9107C30.3724 45.1634 30.2831 45.3529 30.1197 45.4488C30.05 45.488 29.9716 45.5076 29.8888 45.5076Z" fill="#42E8E0"/>
<path d="M28.9865 46.0252C28.8732 46.0252 28.7512 45.9881 28.6249 45.9163L26.3093 44.5788C26.2636 44.5526 26.2483 44.4938 26.2745 44.4502C26.3006 44.4045 26.3594 44.3892 26.403 44.4154L28.7186 45.7529C28.8754 45.8444 29.0192 45.8618 29.1215 45.803C29.2239 45.7442 29.2806 45.6113 29.2806 45.4305V44.8728C29.2806 44.6201 29.3699 44.4306 29.5332 44.3348C29.6966 44.2411 29.9079 44.2585 30.1258 44.3849L30.6093 44.6637C30.6551 44.6899 30.6703 44.7487 30.6442 44.7922C30.6181 44.838 30.5592 44.8532 30.5157 44.8271L30.0321 44.5483C29.8752 44.4568 29.7315 44.4393 29.6291 44.4982C29.5267 44.557 29.4701 44.6899 29.4701 44.8707V45.4283C29.4701 45.681 29.3808 45.8705 29.2174 45.9664C29.1477 46.0056 29.0693 46.0252 28.9865 46.0252Z" fill="#42E8E0"/>
<path d="M28.0881 46.5447C27.9748 46.5447 27.8528 46.5077 27.7265 46.4358L25.4109 45.0983C25.3651 45.0721 25.3499 45.0133 25.376 44.9698C25.4022 44.924 25.461 44.9088 25.5046 44.9349L27.8201 46.2724C27.977 46.3639 28.1207 46.3813 28.2231 46.3225C28.3255 46.2637 28.3821 46.1308 28.3821 45.95V45.3924C28.3821 45.1397 28.4714 44.9502 28.6348 44.8543C28.7982 44.7606 29.0073 44.7781 29.2273 44.9044L29.7109 45.1832C29.7567 45.2094 29.7719 45.2682 29.7458 45.3118C29.7196 45.3575 29.6608 45.3728 29.6172 45.3466L29.1337 45.0678C28.9768 44.9763 28.833 44.9589 28.7307 45.0177C28.6283 45.0765 28.5716 45.2094 28.5716 45.3902V45.9478C28.5716 46.2005 28.4823 46.39 28.319 46.4859C28.2471 46.5251 28.1708 46.5447 28.0881 46.5447Z" fill="#42E8E0"/>
<path d="M27.1857 47.0623C27.0724 47.0623 26.9504 47.0253 26.8241 46.9534L24.5085 45.6159C24.4628 45.5897 24.4475 45.5309 24.4737 45.4873C24.4998 45.4416 24.5586 45.4264 24.6022 45.4525L26.9178 46.79C27.0746 46.8815 27.2184 46.8989 27.3208 46.8401C27.4231 46.7813 27.4798 46.6484 27.4798 46.4676V45.9099C27.4798 45.6573 27.5691 45.4677 27.7325 45.3719C27.8958 45.2782 28.105 45.2957 28.325 45.422L28.8086 45.7008C28.8543 45.727 28.8696 45.7836 28.8434 45.8293C28.8173 45.8751 28.7585 45.8903 28.7149 45.8642L28.2313 45.5854C28.0745 45.4939 27.9307 45.4765 27.8283 45.5353C27.7259 45.5941 27.6693 45.727 27.6693 45.9078V46.4654C27.6693 46.7181 27.58 46.9076 27.4166 47.0035C27.3469 47.0427 27.2685 47.0623 27.1857 47.0623Z" fill="#42E8E0"/>
<path d="M26.2873 47.5818C26.174 47.5818 26.052 47.5448 25.9257 47.4729L23.6101 46.1354C23.5644 46.1093 23.5491 46.0504 23.5752 46.0069C23.6014 45.9611 23.6602 45.9459 23.7038 45.972L26.0193 47.3095C26.1762 47.401 26.3199 47.4184 26.4223 47.3596C26.5247 47.3008 26.5813 47.1679 26.5813 46.9871V46.4295C26.5813 46.1768 26.6707 45.9873 26.834 45.8914C26.9974 45.7978 27.2087 45.8152 27.4265 45.9415L27.9101 46.2204C27.9559 46.2465 27.9711 46.3053 27.945 46.3489C27.9188 46.3946 27.86 46.4099 27.8165 46.3837L27.3329 46.1049C27.176 46.0134 27.0323 45.996 26.9299 46.0548C26.8275 46.1136 26.7709 46.2465 26.7709 46.4273V46.985C26.7709 47.2376 26.6815 47.4272 26.5182 47.523C26.4463 47.56 26.37 47.5818 26.2873 47.5818Z" fill="#42E8E0"/>
<path d="M25.381 48.0974C25.2677 48.0974 25.1458 48.0604 25.0194 47.9885L22.7039 46.651C22.6581 46.6249 22.6429 46.5661 22.669 46.5225C22.6951 46.4768 22.754 46.4615 22.7975 46.4877L25.1131 47.8251C25.2699 47.9166 25.4137 47.9341 25.5161 47.8752C25.6185 47.8164 25.6751 47.6836 25.6751 47.5028V46.9451C25.6751 46.6924 25.7644 46.5029 25.9278 46.4071C26.0912 46.3134 26.3025 46.3308 26.5203 46.4572L27.0039 46.736C27.0496 46.7621 27.0649 46.8209 27.0387 46.8645C27.0126 46.9102 26.9538 46.9255 26.9102 46.8994L26.4266 46.6205C26.2698 46.529 26.126 46.5116 26.0236 46.5704C25.9212 46.6292 25.8646 46.7621 25.8646 46.9429V47.5006C25.8646 47.7533 25.7753 47.9428 25.6119 48.0386C25.5422 48.0778 25.4638 48.0974 25.381 48.0974Z" fill="#42E8E0"/>
<path d="M24.4826 48.617C24.3693 48.617 24.2473 48.5799 24.121 48.5081L21.8054 47.1706C21.7597 47.1444 21.7444 47.0856 21.7706 47.042C21.7967 46.9963 21.8555 46.981 21.8991 47.0072L24.2147 48.3447C24.3715 48.4362 24.5153 48.4536 24.6176 48.3948C24.72 48.336 24.7767 48.2031 24.7767 48.0223V47.4646C24.7767 47.2119 24.866 47.0224 25.0293 46.9266C25.1927 46.8329 25.4018 46.8503 25.6219 46.9767L26.1054 47.2555C26.1512 47.2817 26.1664 47.3405 26.1403 47.384C26.1142 47.4298 26.0553 47.445 26.0118 47.4189L25.5282 47.1401C25.3713 47.0486 25.2276 47.0311 25.1252 47.09C25.0228 47.1488 24.9662 47.2817 24.9662 47.4625V48.0201C24.9662 48.2728 24.8769 48.4623 24.7135 48.5582C24.6416 48.5974 24.5654 48.617 24.4826 48.617Z" fill="#42E8E0"/>
<path d="M23.5802 49.1345C23.467 49.1345 23.345 49.0975 23.2186 49.0256L20.9031 47.6881C20.8573 47.662 20.8421 47.6032 20.8682 47.5596C20.8944 47.5139 20.9532 47.4986 20.9967 47.5248L23.3123 48.8623C23.4691 48.9537 23.6129 48.9712 23.7153 48.9124C23.8177 48.8535 23.8743 48.7207 23.8743 48.5399V47.9822C23.8743 47.7295 23.9636 47.54 24.127 47.4442C24.2904 47.3505 24.4995 47.3679 24.7195 47.4943L25.2031 47.7731C25.2488 47.7992 25.2641 47.8559 25.238 47.9016C25.2118 47.9474 25.153 47.9626 25.1094 47.9365L24.6258 47.6576C24.469 47.5661 24.3252 47.5487 24.2228 47.6075C24.1205 47.6664 24.0638 47.7992 24.0638 47.98V48.5377C24.0638 48.7904 23.9745 48.9799 23.8111 49.0757C23.7414 49.1149 23.663 49.1345 23.5802 49.1345Z" fill="#42E8E0"/>
<path d="M22.6818 49.6521C22.5685 49.6521 22.4465 49.6151 22.3202 49.5432L20.0046 48.2057C19.9589 48.1796 19.9436 48.1208 19.9698 48.0772C19.9959 48.0314 20.0547 48.0162 20.0983 48.0423L22.4139 49.3798C22.5707 49.4713 22.7145 49.4887 22.8169 49.4299C22.9192 49.3711 22.9759 49.2382 22.9759 49.0574V48.4998C22.9759 48.2471 23.0652 48.0576 23.2286 47.9617C23.3919 47.8681 23.6011 47.8855 23.8211 48.0118L24.3047 48.2907C24.3504 48.3168 24.3657 48.3756 24.3395 48.4192C24.3134 48.4649 24.2546 48.4802 24.211 48.454L23.7274 48.1752C23.5706 48.0837 23.4268 48.0663 23.3244 48.1251C23.222 48.1839 23.1654 48.3168 23.1654 48.4976V49.0553C23.1654 49.3079 23.0761 49.4975 22.9127 49.5933C22.8408 49.6325 22.7646 49.6521 22.6818 49.6521Z" fill="#42E8E0"/>
<path d="M21.7795 50.1717C21.6662 50.1717 21.5442 50.1346 21.4179 50.0627L19.1023 48.7252C19.0565 48.6991 19.0413 48.6403 19.0674 48.5967C19.0936 48.551 19.1524 48.5357 19.196 48.5619L21.5115 49.8994C21.6684 49.9909 21.8121 50.0083 21.9145 49.9495C22.0169 49.8907 22.0735 49.7578 22.0735 49.577V49.0193C22.0735 48.7666 22.1628 48.5771 22.3262 48.4813C22.4896 48.3876 22.7009 48.405 22.9187 48.5314L23.4023 48.8102C23.4481 48.8363 23.4633 48.8952 23.4372 48.9387C23.411 48.9845 23.3522 48.9997 23.3086 48.9736L22.8251 48.6947C22.6682 48.6033 22.5244 48.5858 22.4221 48.6446C22.3197 48.7035 22.263 48.8363 22.263 49.0193V49.577C22.263 49.8297 22.1737 50.0192 22.0104 50.115C21.9407 50.1521 21.8622 50.1717 21.7795 50.1717Z" fill="#42E8E0"/>
<path d="M20.881 50.6892C20.7677 50.6892 20.6458 50.6522 20.5194 50.5803L18.2039 49.2428C18.1581 49.2167 18.1429 49.1579 18.169 49.1143C18.1951 49.0686 18.254 49.0533 18.2975 49.0794L20.6131 50.4169C20.7699 50.5084 20.9137 50.5259 21.0161 50.467C21.1185 50.4082 21.1751 50.2754 21.1751 50.0945V49.5369C21.1751 49.2842 21.2644 49.0947 21.4278 48.9988C21.5912 48.9052 21.8003 48.9226 22.0203 49.0489L22.5039 49.3278C22.5496 49.3539 22.5649 49.4127 22.5387 49.4563C22.5126 49.502 22.4538 49.5173 22.4102 49.4912L21.9266 49.2123C21.7698 49.1208 21.626 49.1034 21.5236 49.1622C21.4212 49.221 21.3646 49.3539 21.3646 49.5347V50.0924C21.3646 50.3451 21.2753 50.5346 21.1119 50.6304C21.04 50.6696 20.9638 50.6892 20.881 50.6892Z" fill="#42E8E0"/>
<path d="M22.0391 49.6074V51.6638L39.836 61.939L57.6308 51.6638V49.6074H22.0391Z" fill="url(#paint2_linear_1148_7463)"/>
<path d="M39.836 59.8824L57.6308 49.6072L39.836 39.332L22.0391 49.6072L39.836 59.8824Z" fill="#BCBEFF"/>
<path d="M39.836 59.6395L57.4239 49.4863L57.6308 49.6061L39.836 59.8813L22.0391 49.6061L22.2482 49.4863L39.836 59.6395Z" fill="white"/>
<path d="M39.8371 57.511L53.5235 49.6081L39.8371 41.7051L26.1484 49.6081L39.8371 57.511Z" fill="#0F054C"/>
<path opacity="0.5" d="M39.8371 57.5071L53.5235 49.6042L39.8371 41.7012L26.1484 49.6042L39.8371 57.5071Z" fill="url(#paint3_linear_1148_7463)"/>
<path opacity="0.5" d="M39.8371 39.707L26.1484 47.61V49.6032L39.8371 41.7002V39.707Z" fill="url(#paint4_linear_1148_7463)"/>
<path opacity="0.5" d="M39.8359 41.7002L53.5224 49.6032V47.61L39.8359 39.707V41.7002Z" fill="url(#paint5_linear_1148_7463)"/>
<path opacity="0.5" d="M39.8371 55.513L53.5235 47.61L39.8371 39.707L26.1484 47.61L39.8371 55.513Z" fill="url(#paint6_linear_1148_7463)"/>
<path opacity="0.5" d="M39.837 50.7701L45.3068 47.6115L39.837 44.4551L34.3672 47.6115L39.837 50.7701Z" fill="#42E8E0"/>
<path opacity="0.5" d="M39.837 44.7448L34.6199 47.7574L34.3672 47.6115L39.837 44.4551L45.3068 47.6115L45.0541 47.7574L39.837 44.7448Z" fill="#42E8E0"/>
<path opacity="0.5" d="M39.8371 55.5124V57.5055L26.1484 49.6025V47.6094L39.8371 55.5124Z" fill="url(#paint7_linear_1148_7463)"/>
<path opacity="0.5" d="M53.5224 47.6113V49.6045L39.8359 57.5075V55.5143L53.5224 47.6113Z" fill="url(#paint8_linear_1148_7463)"/>
<path opacity="0.8" d="M39.8371 55.2999L53.3362 47.5059L53.5235 47.6148L39.8371 55.5178L26.1484 47.6148L26.338 47.5059L39.8371 55.2999Z" fill="#42E8E0"/>
<path d="M35.369 64.414C35.3363 64.414 35.3058 64.3966 35.2862 64.3661C35.26 64.3203 35.2753 64.2637 35.321 64.2376L37.6366 62.9001C37.9982 62.6909 38.2923 62.1812 38.2923 61.763V61.2053C38.2923 60.7196 38.6212 60.1488 39.0438 59.9049L39.5274 59.626C39.571 59.5999 39.6298 59.6151 39.6559 59.6609C39.6821 59.7066 39.6668 59.7633 39.6211 59.7894L39.1375 60.0682C38.7759 60.2774 38.4818 60.7871 38.4818 61.2053V61.763C38.4818 62.2487 38.1529 62.8195 37.7303 63.0634L35.4147 64.4009C35.3995 64.4096 35.3842 64.414 35.369 64.414Z" fill="#42E8E0"/>
<path d="M34.4627 63.8964C34.43 63.8964 34.3995 63.879 34.3799 63.8485C34.3538 63.8028 34.369 63.7461 34.4148 63.72L36.7304 62.3825C37.092 62.1734 37.386 61.6636 37.386 61.2454V60.6877C37.386 60.202 37.715 59.6313 38.1376 59.3873L38.6211 59.1085C38.6669 59.0823 38.7235 59.0976 38.7497 59.1433C38.7758 59.1891 38.7606 59.2457 38.7148 59.2718L38.2312 59.5507C37.8696 59.7598 37.5755 60.2695 37.5755 60.6877V61.2454C37.5755 61.7312 37.2466 62.3019 36.824 62.5459L34.5085 63.8834C34.4954 63.8921 34.4801 63.8964 34.4627 63.8964Z" fill="#42E8E0"/>
<path d="M33.5682 63.3749C33.5355 63.3749 33.505 63.3575 33.4854 63.327C33.4593 63.2813 33.4745 63.2246 33.5203 63.1985L35.8358 61.861C36.1974 61.6519 36.4915 61.1421 36.4915 60.7239V60.1663C36.4915 59.6805 36.8204 59.1098 37.243 58.8658L37.7266 58.587C37.7724 58.5608 37.829 58.5761 37.8551 58.6218C37.8813 58.6676 37.866 58.7242 37.8203 58.7503L37.3367 59.0292C36.9751 59.2383 36.681 59.748 36.681 60.1663V60.7239C36.681 61.2097 36.3521 61.7804 35.9295 62.0244L33.6139 63.3619C33.5987 63.3706 33.5834 63.3749 33.5682 63.3749Z" fill="#42E8E0"/>
<path d="M32.6619 62.8574C32.6293 62.8574 32.5988 62.8399 32.5792 62.8094C32.553 62.7637 32.5683 62.7071 32.614 62.6809L34.9296 61.3434C35.2912 61.1343 35.5852 60.6246 35.5852 60.2063V59.6487C35.5852 59.1629 35.9142 58.5922 36.3368 58.3482L36.8204 58.0694C36.8661 58.0432 36.9227 58.0585 36.9489 58.1042C36.975 58.15 36.9598 58.2066 36.914 58.2328L36.4304 58.5116C36.0688 58.7207 35.7748 59.2304 35.7748 59.6487V60.2063C35.7748 60.6921 35.4458 61.2628 35.0232 61.5068L32.7077 62.8443C32.6946 62.8552 32.6794 62.8574 32.6619 62.8574Z" fill="#42E8E0"/>
<path d="M31.7635 62.3378C31.7308 62.3378 31.7003 62.3204 31.6807 62.2899C31.6546 62.2442 31.6698 62.1875 31.7156 62.1614L34.0311 60.8239C34.3927 60.6148 34.6868 60.105 34.6868 59.6868V59.1291C34.6868 58.6434 35.0157 58.0727 35.4383 57.8287L35.9219 57.5499C35.9655 57.5237 36.0243 57.539 36.0504 57.5847C36.0766 57.6305 36.0613 57.6871 36.0156 57.7132L35.532 57.9921C35.1704 58.2012 34.8763 58.7109 34.8763 59.1291V59.6868C34.8763 60.1726 34.5474 60.7433 34.1248 60.9873L31.8092 62.3248C31.794 62.3335 31.7787 62.3378 31.7635 62.3378Z" fill="#42E8E0"/>
<path d="M30.8612 61.8203C30.8285 61.8203 30.798 61.8028 30.7784 61.7723C30.7522 61.7266 30.7675 61.6699 30.8132 61.6438L33.1288 60.3063C33.4904 60.0972 33.7845 59.5875 33.7845 59.1692V58.6116C33.7845 58.1258 34.1134 57.5551 34.536 57.3111L35.0196 57.0323C35.0653 57.0061 35.122 57.0214 35.1481 57.0671C35.1742 57.1129 35.159 57.1695 35.1133 57.1957L34.6297 57.4745C34.2681 57.6836 33.974 58.1933 33.974 58.6116V59.1692C33.974 59.655 33.6451 60.2257 33.2225 60.4697L30.9091 61.8072C30.8938 61.8159 30.8786 61.8203 30.8612 61.8203Z" fill="#42E8E0"/>
<path d="M29.9627 61.3007C29.93 61.3007 29.8995 61.2833 29.8799 61.2528C29.8538 61.207 29.869 61.1504 29.9148 61.1243L32.2304 59.7868C32.592 59.5777 32.886 59.0679 32.886 58.6497V58.092C32.886 57.6063 33.215 57.0355 33.6376 56.7916L34.1211 56.5127C34.1669 56.4866 34.2235 56.5019 34.2497 56.5476C34.2758 56.5933 34.2606 56.65 34.2148 56.6761L33.7312 56.955C33.3696 57.1641 33.0755 57.6738 33.0755 58.092V58.6497C33.0755 59.1355 32.7466 59.7062 32.324 59.9502L30.0085 61.2876C29.9932 61.2964 29.978 61.3007 29.9627 61.3007Z" fill="#42E8E0"/>
<path d="M29.0604 60.7812C29.0277 60.7812 28.9972 60.7638 28.9776 60.7333C28.9515 60.6875 28.9667 60.6309 29.0124 60.6047L31.328 59.2672C31.6896 59.0581 31.9837 58.5484 31.9837 58.1302V57.5725C31.9837 57.0867 32.3126 56.516 32.7352 56.272L33.2188 55.9932C33.2645 55.9671 33.3212 55.9823 33.3473 56.0281C33.3735 56.0738 33.3582 56.1305 33.3125 56.1566L32.8289 56.4354C32.4673 56.6445 32.1732 57.1543 32.1732 57.5725V58.1302C32.1732 58.6159 31.8443 59.1867 31.4217 59.4306L29.1061 60.7681C29.093 60.7768 29.0778 60.7812 29.0604 60.7812Z" fill="#42E8E0"/>
<path d="M28.1619 60.2617C28.1293 60.2617 28.0988 60.2442 28.0792 60.2137C28.053 60.168 28.0683 60.1114 28.114 60.0852L30.4296 58.7477C30.7912 58.5386 31.0853 58.0289 31.0853 57.6106V57.053C31.0853 56.5672 31.4142 55.9965 31.8368 55.7525L32.3204 55.4737C32.3639 55.4475 32.4227 55.4628 32.4489 55.5085C32.475 55.5543 32.4598 55.6109 32.414 55.6371L31.9304 55.9159C31.5688 56.125 31.2748 56.6347 31.2748 57.053V57.6106C31.2748 58.0964 30.9458 58.6671 30.5232 58.9111L28.2077 60.2486C28.1924 60.2573 28.1772 60.2617 28.1619 60.2617Z" fill="#42E8E0"/>
<path d="M27.2596 59.7441C27.2269 59.7441 27.1964 59.7267 27.1768 59.6962C27.1507 59.6504 27.1659 59.5938 27.2117 59.5676L29.5272 58.2301C29.8888 58.021 30.1829 57.5113 30.1829 57.093V56.5354C30.1829 56.0496 30.5118 55.4789 30.9344 55.2349L31.418 54.9561C31.4638 54.93 31.5204 54.9452 31.5465 54.991C31.5727 55.0367 31.5574 55.0933 31.5117 55.1195L31.0281 55.3983C30.6665 55.6074 30.3724 56.1172 30.3724 56.5354V57.093C30.3724 57.5788 30.0435 58.1495 29.6209 58.3935L27.3053 59.731C27.2923 59.7397 27.277 59.7441 27.2596 59.7441Z" fill="#42E8E0"/>
<path d="M26.3611 59.2226C26.3285 59.2226 26.298 59.2052 26.2784 59.1747C26.2522 59.1289 26.2675 59.0723 26.3132 59.0461L28.6288 57.7087C28.9904 57.4995 29.2845 56.9898 29.2845 56.5716V56.0139C29.2845 55.5281 29.6134 54.9574 30.036 54.7134L30.5196 54.4346C30.5653 54.4085 30.622 54.4237 30.6481 54.4695C30.6742 54.5152 30.659 54.5719 30.6133 54.598L30.1297 54.8768C29.7681 55.0859 29.474 55.5957 29.474 56.0139V56.5716C29.474 57.0573 29.1451 57.6281 28.7225 57.872L26.4069 59.2095C26.3916 59.2204 26.3764 59.2226 26.3611 59.2226Z" fill="#42E8E0"/>
<path d="M25.4588 58.705C25.4261 58.705 25.3956 58.6876 25.376 58.6571C25.3499 58.6114 25.3651 58.5547 25.4109 58.5286L27.7264 57.1911C28.0881 56.982 28.3821 56.4722 28.3821 56.054V55.4963C28.3821 55.0106 28.7111 54.4398 29.1337 54.1959L29.6172 53.917C29.663 53.8909 29.7196 53.9062 29.7458 53.9519C29.7719 53.9976 29.7567 54.0543 29.7109 54.0804L29.2273 54.3592C28.8657 54.5684 28.5716 55.0781 28.5716 55.4963V56.054C28.5716 56.5398 28.2427 57.1105 27.8201 57.3545L25.5046 58.6919C25.4915 58.7007 25.4741 58.705 25.4588 58.705Z" fill="#42E8E0"/>
<path d="M24.5565 58.1855C24.5238 58.1855 24.4933 58.1681 24.4737 58.1376C24.4475 58.0918 24.4628 58.0352 24.5085 58.009L26.8241 56.6715C27.1857 56.4624 27.4798 55.9527 27.4798 55.5345V54.9768C27.4798 54.491 27.8087 53.9203 28.2313 53.6763L28.7149 53.3975C28.7585 53.3714 28.8173 53.3866 28.8434 53.4324C28.8696 53.4781 28.8543 53.5347 28.8086 53.5609L28.325 53.8397C27.9634 54.0488 27.6693 54.5586 27.6693 54.9768V55.5345C27.6693 56.0202 27.3404 56.5909 26.9178 56.8349L24.6022 58.1724C24.587 58.1811 24.5717 58.1855 24.5565 58.1855Z" fill="#42E8E0"/>
<path d="M23.658 57.6679C23.6253 57.6679 23.5949 57.6505 23.5752 57.62C23.5491 57.5742 23.5644 57.5176 23.6101 57.4915L25.9257 56.154C26.2873 55.9448 26.5813 55.4351 26.5813 55.0169V54.4592C26.5813 53.9735 26.9103 53.4027 27.3329 53.1588L27.8165 52.8799C27.86 52.8538 27.9188 52.869 27.945 52.9148C27.9711 52.9605 27.9559 53.0172 27.9101 53.0433L27.4265 53.3221C27.0649 53.5313 26.7709 54.041 26.7709 54.4592V55.0169C26.7709 55.5026 26.4419 56.0734 26.0193 56.3173L23.7038 57.6548C23.6907 57.6636 23.6755 57.6679 23.658 57.6679Z" fill="#42E8E0"/>
<path d="M22.7557 57.1484C22.723 57.1484 22.6925 57.131 22.6729 57.1005C22.6468 57.0547 22.662 56.9981 22.7078 56.9719L25.0233 55.6344C25.3849 55.4253 25.679 54.9156 25.679 54.4973V53.9397C25.679 53.4539 26.0079 52.8832 26.4305 52.6392L26.9141 52.3604C26.9599 52.3343 27.0165 52.3495 27.0426 52.3953C27.0688 52.441 27.0535 52.4976 27.0078 52.5238L26.5242 52.8026C26.1626 53.0117 25.8685 53.5215 25.8685 53.9397V54.4973C25.8685 54.9831 25.5396 55.5538 25.117 55.7978L22.8014 57.1353C22.7862 57.144 22.7709 57.1484 22.7557 57.1484Z" fill="#42E8E0"/>
<path d="M21.8533 56.6288C21.8207 56.6288 21.7902 56.6114 21.7706 56.5809C21.7444 56.5352 21.7597 56.4785 21.8054 56.4524L24.121 55.1149C24.4826 54.9058 24.7767 54.3961 24.7767 53.9778V53.4202C24.7767 52.9344 25.1056 52.3637 25.5282 52.1197L26.0118 51.8409C26.0575 51.8147 26.1142 51.83 26.1403 51.8757C26.1664 51.9215 26.1512 51.9781 26.1054 52.0042L25.6219 52.2831C25.2602 52.4922 24.9662 53.0019 24.9662 53.4202V53.9778C24.9662 54.4636 24.6372 55.0343 24.2146 55.2783L21.8991 56.6158C21.886 56.6245 21.8686 56.6288 21.8533 56.6288Z" fill="#42E8E0"/>
<path d="M20.9549 56.1093C20.9222 56.1093 20.8917 56.0919 20.8721 56.0614C20.846 56.0156 20.8612 55.959 20.907 55.9329L23.2225 54.5954C23.5841 54.3863 23.8782 53.8765 23.8782 53.4583V52.9006C23.8782 52.4149 24.2072 51.8441 24.6297 51.6002L25.1133 51.3213C25.1591 51.2952 25.2157 51.3105 25.2419 51.3562C25.268 51.4019 25.2527 51.4586 25.207 51.4847L24.7234 51.7635C24.3618 51.9727 24.0677 52.4824 24.0677 52.9006V53.4583C24.0677 53.9441 23.7388 54.5148 23.3162 54.7587L21.0006 56.0962C20.9854 56.105 20.9701 56.1093 20.9549 56.1093Z" fill="#42E8E0"/>
<path d="M20.0526 55.5898C20.0199 55.5898 19.9894 55.5724 19.9698 55.5419C19.9436 55.4961 19.9589 55.4395 20.0046 55.4133L22.3202 54.0758C22.6818 53.8667 22.9759 53.357 22.9759 52.9388V52.3811C22.9759 51.8953 23.3048 51.3246 23.7274 51.0806L24.211 50.8018C24.2567 50.7757 24.3134 50.7909 24.3395 50.8367C24.3657 50.8824 24.3504 50.939 24.3047 50.9652L23.8211 51.244C23.4595 51.4531 23.1654 51.9629 23.1654 52.3811V52.9388C23.1654 53.4245 22.8365 53.9952 22.4139 54.2392L20.0983 55.5767C20.0852 55.5876 20.07 55.5898 20.0526 55.5898Z" fill="#42E8E0"/>
<path d="M19.1541 55.0722C19.1214 55.0722 19.0909 55.0548 19.0713 55.0243C19.0452 54.9785 19.0604 54.9219 19.1062 54.8958L21.4218 53.5583C21.7834 53.3491 22.0774 52.8394 22.0774 52.4212V51.8635C22.0774 51.3778 22.4064 50.807 22.829 50.5631L23.3126 50.2842C23.3583 50.2581 23.4149 50.2733 23.4411 50.3191C23.4672 50.3648 23.452 50.4215 23.4062 50.4476L22.9226 50.7264C22.561 50.9356 22.267 51.4453 22.267 51.8635V52.4212C22.267 52.9069 21.938 53.4777 21.5154 53.7216L19.1999 55.0591C19.1846 55.0678 19.1694 55.0722 19.1541 55.0722Z" fill="#42E8E0"/>
<path d="M18.2518 54.5527C18.2191 54.5527 18.1886 54.5352 18.169 54.5047C18.1429 54.459 18.1581 54.4024 18.2039 54.3762L20.5194 53.0387C20.881 52.8296 21.1751 52.3199 21.1751 51.9016V51.344C21.1751 50.8582 21.504 50.2875 21.9266 50.0435L22.4102 49.7647C22.456 49.7386 22.5126 49.7538 22.5387 49.7996C22.5649 49.8453 22.5496 49.9019 22.5039 49.9281L22.0203 50.2069C21.6587 50.416 21.3646 50.9258 21.3646 51.344V51.9016C21.3646 52.3874 21.0357 52.9581 20.6131 53.2021L18.2975 54.5396C18.2844 54.5483 18.267 54.5527 18.2518 54.5527Z" fill="#42E8E0"/>
<path d="M44.3644 64.414C44.3491 64.414 44.3317 64.4096 44.3165 64.4009L42.0009 63.0634C41.5805 62.8195 41.2494 62.2487 41.2494 61.763V61.2053C41.2494 60.7871 40.9553 60.2774 40.5937 60.0682L40.1101 59.7894C40.0644 59.7633 40.0491 59.7066 40.0752 59.6609C40.1014 59.6151 40.1602 59.5999 40.2038 59.626L40.6874 59.9049C41.1078 60.1488 41.4389 60.7196 41.4389 61.2053V61.763C41.4389 62.1812 41.733 62.6909 42.0946 62.9001L44.4101 64.2376C44.4559 64.2637 44.4711 64.3225 44.445 64.3661C44.4276 64.3988 44.3971 64.414 44.3644 64.414Z" fill="#42E8E0"/>
<path d="M45.2667 63.8964C45.2515 63.8964 45.2341 63.8921 45.2188 63.8834L42.9032 62.5459C42.4828 62.3019 42.1517 61.7312 42.1517 61.2454V60.6877C42.1517 60.2695 41.8576 59.7598 41.496 59.5507L41.0124 59.2718C40.9667 59.2457 40.9515 59.1891 40.9776 59.1433C41.0037 59.0976 41.0625 59.0823 41.1061 59.1085L41.5897 59.3873C42.0101 59.6313 42.3412 60.202 42.3412 60.6877V61.2454C42.3412 61.6636 42.6353 62.1734 42.9969 62.3825L45.3125 63.72C45.3582 63.7461 45.3735 63.8049 45.3473 63.8485C45.3299 63.879 45.2972 63.8964 45.2667 63.8964Z" fill="#42E8E0"/>
<path d="M46.1652 63.3749C46.1499 63.3749 46.1325 63.3706 46.1172 63.3619L43.8017 62.0244C43.3813 61.7804 43.0501 61.2097 43.0501 60.7239V60.1663C43.0501 59.748 42.7561 59.2383 42.3945 59.0292L41.9109 58.7503C41.8651 58.7242 41.8499 58.6654 41.876 58.6218C41.9022 58.5761 41.961 58.5608 42.0046 58.587L42.4881 58.8658C42.9086 59.1098 43.2397 59.6805 43.2397 60.1663V60.7239C43.2397 61.1421 43.5337 61.6519 43.8953 61.861L46.2109 63.1985C46.2567 63.2246 46.2719 63.2834 46.2458 63.327C46.2283 63.3575 46.1978 63.3749 46.1652 63.3749Z" fill="#42E8E0"/>
<path d="M47.0636 62.8574C47.0484 62.8574 47.0309 62.853 47.0157 62.8443L44.7001 61.5068C44.2797 61.2628 43.9486 60.6921 43.9486 60.2063V59.6487C43.9486 59.2304 43.6545 58.7207 43.2929 58.5116L42.8093 58.2328C42.7636 58.2066 42.7483 58.1478 42.7745 58.1042C42.8006 58.0585 42.8594 58.0432 42.903 58.0694L43.3866 58.3482C43.807 58.5922 44.1381 59.1629 44.1381 59.6487V60.2063C44.1381 60.6246 44.4322 61.1343 44.7938 61.3434L47.1093 62.6809C47.1551 62.7071 47.1703 62.7659 47.1442 62.8094C47.129 62.8421 47.0963 62.8574 47.0636 62.8574Z" fill="#42E8E0"/>
<path d="M47.9659 62.3378C47.9507 62.3378 47.9333 62.3335 47.918 62.3248L45.6025 60.9873C45.182 60.7433 44.8509 60.1726 44.8509 59.6868V59.1291C44.8509 58.7109 44.5569 58.2012 44.1953 57.9921L43.7117 57.7132C43.6659 57.6871 43.6507 57.6283 43.6768 57.5847C43.703 57.539 43.7618 57.5237 43.8053 57.5499L44.2889 57.8287C44.7093 58.0727 45.0404 58.6434 45.0404 59.1291V59.6868C45.0404 60.105 45.3345 60.6148 45.6961 60.8239L48.0117 62.1614C48.0574 62.1875 48.0727 62.2463 48.0465 62.2899C48.0313 62.3204 47.9986 62.3378 47.9659 62.3378Z" fill="#42E8E0"/>
<path d="M48.8683 61.8203C48.853 61.8203 48.8356 61.8159 48.8204 61.8072L46.5048 60.4697C46.0844 60.2257 45.7533 59.655 45.7533 59.1692V58.6116C45.7533 58.1933 45.4592 57.6836 45.0976 57.4745L44.614 57.1957C44.5683 57.1695 44.553 57.1107 44.5792 57.0671C44.6053 57.0214 44.6641 57.0061 44.7077 57.0323L45.1913 57.3111C45.6117 57.5551 45.9428 58.1258 45.9428 58.6116V59.1692C45.9428 59.5875 46.2369 60.0972 46.5985 60.3063L48.914 61.6438C48.9598 61.6699 48.975 61.7288 48.9489 61.7723C48.9315 61.8028 48.8988 61.8203 48.8683 61.8203Z" fill="#42E8E0"/>
<path d="M49.7706 61.3007C49.7554 61.3007 49.738 61.2964 49.7227 61.2876L47.4071 59.9502C46.9867 59.7062 46.6556 59.1355 46.6556 58.6497V58.092C46.6556 57.6738 46.3615 57.1641 45.9999 56.955L45.5163 56.6761C45.4706 56.65 45.4554 56.5912 45.4815 56.5476C45.5076 56.5019 45.5665 56.4866 45.61 56.5127L46.0936 56.7916C46.514 57.0355 46.8451 57.6063 46.8451 58.092V58.6497C46.8451 59.0679 47.1392 59.5777 47.5008 59.7868L49.8164 61.1243C49.8621 61.1504 49.8774 61.2092 49.8512 61.2528C49.8338 61.2833 49.8033 61.3007 49.7706 61.3007Z" fill="#42E8E0"/>
<path d="M50.6691 60.7812C50.6538 60.7812 50.6364 60.7768 50.6211 60.7681L48.3056 59.4306C47.8852 59.1867 47.5541 58.6159 47.5541 58.1302V57.5725C47.5541 57.1543 47.26 56.6445 46.8984 56.4354L46.4148 56.1566C46.369 56.1305 46.3538 56.0716 46.3799 56.0281C46.4061 55.9823 46.4649 55.9671 46.5085 55.9932L46.992 56.272C47.4125 56.516 47.7436 57.0867 47.7436 57.5725V58.1302C47.7436 58.5484 48.0376 59.0581 48.3992 59.2672L50.7148 60.6047C50.7606 60.6309 50.7758 60.6897 50.7497 60.7333C50.7344 60.7659 50.7017 60.7812 50.6691 60.7812Z" fill="#42E8E0"/>
<path d="M51.5714 60.2617C51.5562 60.2617 51.5387 60.2573 51.5235 60.2486L49.2079 58.9111C48.7875 58.6671 48.4564 58.0964 48.4564 57.6106V57.053C48.4564 56.6347 48.1623 56.125 47.8007 55.9159L47.3171 55.6371C47.2714 55.6109 47.2561 55.5521 47.2823 55.5085C47.3084 55.4628 47.3672 55.4475 47.4108 55.4737L47.8944 55.7525C48.3148 55.9965 48.6459 56.5672 48.6459 57.053V57.6106C48.6459 58.0289 48.94 58.5386 49.3016 58.7477L51.6193 60.0852C51.6651 60.1114 51.6803 60.1702 51.6542 60.2137C51.6368 60.2442 51.6041 60.2617 51.5714 60.2617Z" fill="#42E8E0"/>
<path d="M52.4738 59.7441C52.4585 59.7441 52.4411 59.7397 52.4258 59.731L50.1103 58.3935C49.6899 58.1495 49.3587 57.5788 49.3587 57.093V56.5354C49.3587 56.1172 49.0647 55.6074 48.7031 55.3983L48.2195 55.1195C48.1737 55.0933 48.1585 55.0345 48.1846 54.991C48.2108 54.9452 48.2696 54.93 48.3131 54.9561L48.7967 55.2349C49.2172 55.4789 49.5483 56.0496 49.5483 56.5354V57.093C49.5483 57.5113 49.8423 58.021 50.2039 58.2301L52.5195 59.5676C52.5652 59.5938 52.5805 59.6526 52.5544 59.6962C52.5369 59.7267 52.5043 59.7441 52.4738 59.7441Z" fill="#42E8E0"/>
<path d="M53.3722 59.2226C53.3569 59.2226 53.3395 59.2182 53.3243 59.2095L51.0087 57.872C50.5883 57.6281 50.2572 57.0573 50.2572 56.5716V56.0139C50.2572 55.5957 49.9631 55.0859 49.6015 54.8768L49.1179 54.598C49.0722 54.5719 49.0569 54.513 49.0831 54.4695C49.1092 54.4237 49.168 54.4085 49.2116 54.4346L49.6952 54.7134C50.1156 54.9574 50.4467 55.5281 50.4467 56.0139V56.5716C50.4467 56.9898 50.7408 57.4995 51.1024 57.7087L53.4179 59.0461C53.4637 59.0723 53.4789 59.1311 53.4528 59.1747C53.4354 59.2073 53.4049 59.2226 53.3722 59.2226Z" fill="#42E8E0"/>
<path d="M54.2745 58.705C54.2593 58.705 54.2419 58.7007 54.2266 58.6919L51.911 57.3545C51.4906 57.1105 51.1595 56.5398 51.1595 56.054V55.4963C51.1595 55.0781 50.8655 54.5684 50.5038 54.3592L50.0203 54.0804C49.9745 54.0543 49.9593 53.9955 49.9854 53.9519C50.0115 53.9062 50.0704 53.8909 50.1139 53.917L50.5975 54.1959C51.0179 54.4398 51.349 55.0106 51.349 55.4963V56.054C51.349 56.4722 51.6431 56.982 52.0047 57.1911L54.3203 58.5286C54.366 58.5547 54.3813 58.6135 54.3551 58.6571C54.3377 58.6876 54.305 58.705 54.2745 58.705Z" fill="#42E8E0"/>
<path d="M55.173 58.1855C55.1577 58.1855 55.1403 58.1811 55.1251 58.1724L52.8095 56.8349C52.3891 56.5909 52.058 56.0202 52.058 55.5345V54.9768C52.058 54.5586 51.7639 54.0488 51.4023 53.8397L50.9187 53.5609C50.8729 53.5347 50.8577 53.4759 50.8838 53.4324C50.91 53.3866 50.9688 53.3714 51.0124 53.3975L51.496 53.6763C51.9164 53.9203 52.2475 54.491 52.2475 54.9768V55.5345C52.2475 55.9527 52.5416 56.4624 52.9032 56.6715L55.2187 58.009C55.2645 58.0352 55.2797 58.094 55.2536 58.1376C55.2383 58.1681 55.2057 58.1855 55.173 58.1855Z" fill="#42E8E0"/>
<path d="M56.0753 57.6679C56.0601 57.6679 56.0426 57.6636 56.0274 57.6548L53.7118 56.3173C53.2914 56.0734 52.9603 55.5026 52.9603 55.0169V54.4592C52.9603 54.041 52.6662 53.5313 52.3046 53.3221L51.821 53.0433C51.7753 53.0172 51.76 52.9584 51.7862 52.9148C51.8123 52.869 51.8711 52.8538 51.9147 52.8799L52.3983 53.1588C52.8187 53.4027 53.1498 53.9735 53.1498 54.4592V55.0169C53.1498 55.4351 53.4439 55.9448 53.8055 56.154L56.1211 57.4915C56.1668 57.5176 56.1821 57.5764 56.1559 57.62C56.1385 57.6505 56.1058 57.6679 56.0753 57.6679Z" fill="#42E8E0"/>
<path d="M56.9738 57.1484C56.9585 57.1484 56.9411 57.144 56.9258 57.1353L54.6103 55.7978C54.1898 55.5538 53.8587 54.9831 53.8587 54.4973V53.9397C53.8587 53.5215 53.5647 53.0117 53.2031 52.8026L52.7195 52.5238C52.6737 52.4976 52.6585 52.4388 52.6846 52.3953C52.7108 52.3495 52.7696 52.3343 52.8131 52.3604L53.2967 52.6392C53.7172 52.8832 54.0483 53.4539 54.0483 53.9397V54.4973C54.0483 54.9156 54.3423 55.4253 54.7039 55.6344L57.0195 56.9719C57.0652 56.9981 57.0805 57.0569 57.0544 57.1005C57.0369 57.1331 57.0064 57.1484 56.9738 57.1484Z" fill="#42E8E0"/>
<path d="M57.8761 56.6288C57.8609 56.6288 57.8434 56.6245 57.8282 56.6158L55.5126 55.2783C55.0922 55.0343 54.7611 54.4636 54.7611 53.9778V53.4202C54.7611 53.0019 54.467 52.4922 54.1054 52.2831L53.6218 52.0042C53.5761 51.9781 53.5608 51.9193 53.587 51.8757C53.6131 51.83 53.6719 51.8147 53.7155 51.8409L54.1991 52.1197C54.6195 52.3637 54.9506 52.9344 54.9506 53.4202V53.9778C54.9506 54.3961 55.2447 54.9058 55.6063 55.1149L57.9218 56.4524C57.9676 56.4785 57.9828 56.5374 57.9567 56.5809C57.9393 56.6114 57.9088 56.6288 57.8761 56.6288Z" fill="#42E8E0"/>
<path d="M58.7745 56.1093C58.7593 56.1093 58.7419 56.105 58.7266 56.0962L56.4111 54.7587C55.9906 54.5148 55.6595 53.9441 55.6595 53.4583V52.9006C55.6595 52.4824 55.3654 51.9727 55.0038 51.7635L54.5203 51.4847C54.4745 51.4586 54.4593 51.3998 54.4854 51.3562C54.5115 51.3105 54.5704 51.2952 54.6139 51.3213L55.0975 51.6002C55.5179 51.8441 55.849 52.4149 55.849 52.9006V53.4583C55.849 53.8765 56.1431 54.3863 56.5047 54.5954L58.8203 55.9329C58.866 55.959 58.8813 56.0178 58.8551 56.0614C58.8399 56.0919 58.8072 56.1093 58.7745 56.1093Z" fill="#42E8E0"/>
<path d="M59.6808 55.5898C59.6655 55.5898 59.6481 55.5854 59.6329 55.5767L57.3173 54.2392C56.8969 53.9952 56.5658 53.4245 56.5658 52.9388V52.3811C56.5658 51.9629 56.2717 51.4531 55.9101 51.244L55.4265 50.9652C55.3808 50.939 55.3655 50.8802 55.3917 50.8367C55.4178 50.7909 55.4766 50.7757 55.5202 50.8018L56.0038 51.0806C56.4242 51.3246 56.7553 51.8953 56.7553 52.3811V52.9388C56.7553 53.357 57.0494 53.8667 57.411 54.0758L59.7265 55.4133C59.7723 55.4395 59.7875 55.4983 59.7614 55.5419C59.744 55.5745 59.7113 55.5898 59.6808 55.5898Z" fill="#42E8E0"/>
<path d="M60.5753 55.0722C60.5601 55.0722 60.5426 55.0678 60.5274 55.0591L58.2118 53.7216C57.7914 53.4777 57.4603 52.9069 57.4603 52.4212V51.8635C57.4603 51.4453 57.1662 50.9356 56.8046 50.7264L56.321 50.4476C56.2753 50.4215 56.26 50.3627 56.2862 50.3191C56.3123 50.2733 56.3711 50.2581 56.4147 50.2842L56.8983 50.5631C57.3187 50.807 57.6498 51.3778 57.6498 51.8635V52.4212C57.6498 52.8394 57.9439 53.3491 58.3055 53.5583L60.6211 54.8958C60.6668 54.9219 60.6821 54.9807 60.6559 55.0243C60.6385 55.0548 60.608 55.0722 60.5753 55.0722Z" fill="#42E8E0"/>
<path d="M61.4816 54.5527C61.4663 54.5527 61.4489 54.5483 61.4336 54.5396L59.1181 53.2021C58.6977 52.9581 58.3666 52.3874 58.3666 51.9016V51.344C58.3666 50.9258 58.0725 50.416 57.7109 50.2069L57.2273 49.9281C57.1815 49.9019 57.1663 49.8431 57.1924 49.7996C57.2186 49.7538 57.2774 49.7386 57.321 49.7647L57.8046 50.0435C58.225 50.2875 58.5561 50.8582 58.5561 51.344V51.9016C58.5561 52.3199 58.8502 52.8296 59.2118 53.0387L61.5273 54.3762C61.5731 54.4024 61.5883 54.4612 61.5622 54.5047C61.5447 54.5352 61.5142 54.5527 61.4816 54.5527Z" fill="#42E8E0"/>
<path d="M34.0039 49.3042C33.9996 48.8097 34.3982 48.4046 34.8927 48.4024C35.3872 48.398 35.7924 48.7967 35.7945 49.2911C35.7989 49.7856 35.4003 50.1908 34.9058 50.193C34.4113 50.1973 34.0083 49.7987 34.0039 49.3042Z" fill="#42E8E0"/>
<path d="M27.4141 41.2651C27.4097 40.7707 27.8084 40.3655 28.3029 40.3633C28.7973 40.359 29.2025 40.7576 29.2047 41.2521C29.209 41.7466 28.8104 42.1517 28.3159 42.1539C27.8214 42.1583 27.4163 41.7596 27.4141 41.2651Z" fill="#42E8E0"/>
<path d="M39.2383 33.5341C39.234 33.0026 39.6631 32.5669 40.1946 32.5625C40.7261 32.5582 41.1618 32.9873 41.1661 33.5188C41.1705 34.0503 40.7414 34.486 40.2098 34.4904C39.6762 34.4947 39.2427 34.0656 39.2383 33.5341Z" fill="#42E8E0"/>
<path d="M38 36.2084C37.9978 35.8903 38.2527 35.6311 38.5707 35.6289C38.8888 35.6267 39.148 35.8816 39.1502 36.1996C39.1524 36.5177 38.8975 36.7769 38.5794 36.7791C38.2614 36.7813 38.0022 36.5264 38 36.2084Z" fill="#42E8E0"/>
<path d="M39.8516 36.0874C39.8494 35.8826 40.015 35.7149 40.2197 35.7149C40.4245 35.7127 40.5922 35.8782 40.5922 36.083C40.5944 36.2878 40.4288 36.4555 40.2241 36.4555C40.0193 36.4577 39.8538 36.2921 39.8516 36.0874Z" fill="#42E8E0"/>
<path d="M32.2031 39.9624C32.201 39.7576 32.3665 39.5899 32.5713 39.5899C32.776 39.5877 32.9438 39.7532 32.9438 39.958C32.946 40.1628 32.7804 40.3305 32.5756 40.3305C32.3731 40.3305 32.2053 40.1671 32.2031 39.9624Z" fill="#42E8E0"/>
<path d="M43.4844 36.4336C43.4844 36.3704 43.5345 36.3203 43.5955 36.3203C43.6565 36.3203 43.7087 36.3704 43.7087 36.4314C43.7087 36.4924 43.6586 36.5447 43.5976 36.5447C43.5345 36.5447 43.4844 36.4968 43.4844 36.4336Z" fill="#42E8E0"/>
<path d="M39.6484 39.1543C39.6484 39.0933 39.6985 39.041 39.7595 39.041C39.8205 39.041 39.8728 39.0911 39.8728 39.1521C39.8728 39.2153 39.8227 39.2654 39.7617 39.2654C39.7007 39.2654 39.6484 39.2153 39.6484 39.1543Z" fill="#42E8E0"/>
<path d="M32.2344 44.2109C32.2344 44.1499 32.2845 44.0977 32.3455 44.0977C32.4086 44.0977 32.4587 44.1478 32.4587 44.2087C32.4587 44.2697 32.4086 44.322 32.3476 44.322C32.2845 44.3242 32.2344 44.2741 32.2344 44.2109Z" fill="#42E8E0"/>
<path d="M33.9648 43.9844C33.9648 43.9234 34.0149 43.8711 34.0759 43.8711C34.1369 43.8711 34.1892 43.9212 34.1892 43.9822C34.1892 44.0454 34.1391 44.0955 34.0781 44.0955C34.0149 44.0976 33.9648 44.0475 33.9648 43.9844Z" fill="#42E8E0"/>
<path d="M41.5391 42.0547C41.5326 41.2988 42.1425 40.6824 42.8962 40.6758C43.6499 40.6693 44.2686 41.2792 44.2751 42.0329C44.2816 42.7888 43.6717 43.4053 42.918 43.4118C42.1621 43.4184 41.5456 42.8106 41.5391 42.0547Z" fill="#42E8E0"/>
<path d="M44.6953 49.2253C44.6931 48.8484 44.9959 48.5435 45.3706 48.5391C45.7453 48.5348 46.0524 48.8397 46.0568 49.2144C46.059 49.5912 45.7562 49.8962 45.3815 49.9006C45.0046 49.9027 44.6975 49.6 44.6953 49.2253Z" fill="#42E8E0"/>
<path d="M36.2188 40.3014C36.2166 39.9246 36.5194 39.6196 36.894 39.6152C37.2709 39.6131 37.5759 39.9159 37.5802 40.2905C37.5824 40.6674 37.2796 40.9723 36.9049 40.9767C36.5281 40.9811 36.2231 40.6783 36.2188 40.3014Z" fill="#42E8E0"/>
<path d="M47.7578 36.1374C47.7556 35.7605 48.0584 35.4555 48.4331 35.4512C48.81 35.449 49.1149 35.7518 49.1193 36.1265C49.1215 36.5033 48.8187 36.8083 48.444 36.8126C48.0671 36.8148 47.76 36.512 47.7578 36.1374Z" fill="#42E8E0"/>
<path d="M50.1484 45.735C50.1463 45.3582 50.4491 45.0532 50.8237 45.0488C51.2006 45.0467 51.5055 45.3494 51.5099 45.7241C51.5121 46.101 51.2093 46.4059 50.8346 46.4103C50.4578 46.4125 50.1506 46.1097 50.1484 45.735Z" fill="#42E8E0"/>
<path d="M32.5039 30.2858C32.5017 29.9089 32.8045 29.604 33.1792 29.5996C33.5561 29.5974 33.861 29.9002 33.8654 30.2749C33.8676 30.6518 33.5648 30.9567 33.1901 30.9611C32.8132 30.9633 32.5061 30.6605 32.5039 30.2858Z" fill="#42E8E0"/>
<path d="M44.5234 25.6295C44.5213 25.2527 44.8241 24.9477 45.1987 24.9434C45.5756 24.9412 45.8805 25.244 45.8849 25.6187C45.8871 25.9955 45.5843 26.3005 45.2096 26.3048C44.8328 26.307 44.5278 26.0042 44.5234 25.6295Z" fill="#42E8E0"/>
<path d="M34.2656 46.2504C34.2635 46.0304 34.4421 45.8496 34.6621 45.8496C34.8821 45.8475 35.0629 46.0261 35.0629 46.2461C35.0651 46.4661 34.8865 46.6469 34.6665 46.6469C34.4464 46.6469 34.2678 46.4705 34.2656 46.2504Z" fill="#42E8E0"/>
<path d="M42.9766 39.018C42.9744 38.798 43.153 38.6172 43.373 38.6172C43.5931 38.615 43.7739 38.7937 43.7739 39.0137C43.776 39.2337 43.5974 39.4145 43.3774 39.4145C43.1574 39.4145 42.9788 39.238 42.9766 39.018Z" fill="#42E8E0"/>
<path d="M46.6094 42.6102C46.6072 42.4621 46.727 42.3401 46.8773 42.3379C47.0255 42.3379 47.1475 42.4555 47.1496 42.6058C47.1496 42.754 47.032 42.8759 46.8817 42.8781C46.7336 42.8781 46.6116 42.7583 46.6094 42.6102Z" fill="#42E8E0"/>
<path d="M47.1524 43.1521C47.1502 42.9365 47.3245 42.76 47.5401 42.7578C47.7558 42.7557 47.9322 42.9299 47.9344 43.1456C47.9366 43.3612 47.7623 43.5377 47.5466 43.5399C47.331 43.5399 47.1545 43.3678 47.1524 43.1521Z" fill="#42E8E0"/>
<path d="M46.5742 43.8917C46.5742 43.7719 46.6701 43.6738 46.7899 43.6738C46.9097 43.6738 47.0077 43.7697 47.0077 43.8895C47.0077 44.0093 46.9119 44.1073 46.7921 44.1073C46.6722 44.1073 46.5742 44.0093 46.5742 43.8917Z" fill="#42E8E0"/>
<path d="M39.3282 45.6113C39.326 45.4567 39.4523 45.3303 39.607 45.3282C39.7616 45.326 39.888 45.4523 39.8902 45.607C39.8923 45.7616 39.766 45.888 39.6113 45.8902C39.4545 45.8902 39.3282 45.766 39.3282 45.6113Z" fill="#42E8E0"/>
<path d="M32.8477 40.4707C32.8455 40.316 32.9718 40.1897 33.1265 40.1875C33.2812 40.1853 33.4075 40.3117 33.4097 40.4664C33.4119 40.621 33.2855 40.7474 33.1309 40.7495C32.9762 40.7495 32.8477 40.6254 32.8477 40.4707Z" fill="#42E8E0"/>
<path d="M37.8086 44.6463C37.8064 44.2651 38.1136 43.9514 38.4948 43.9492C38.876 43.9471 39.1897 44.2542 39.1918 44.6354C39.194 45.0166 38.8869 45.3303 38.5057 45.3325C38.1223 45.3368 37.8108 45.0275 37.8086 44.6463Z" fill="#42E8E0"/>
<path d="M40.3886 27.6895H43.3029L37.9371 15.6895H35.1943L29.8457 27.6895H32.6914L33.7543 25.118H39.3257L40.3886 27.6895ZM34.6457 23.0095L36.5486 18.4152L38.4514 23.0095H34.6457ZM44.5479 27.6895H47.325V15.6895H44.5479V27.6895Z" fill="#161B46"/>
<defs>
<linearGradient id="paint0_linear_1148_7463" x1="-17.6811" y1="94.8545" x2="43.6395" y2="49.7845" gradientUnits="userSpaceOnUse">
<stop stop-color="#5761D7"/>
<stop offset="0.1779" stop-color="#5C66D9"/>
<stop offset="0.3876" stop-color="#6A73DF"/>
<stop offset="0.6134" stop-color="#8289E8"/>
<stop offset="0.849" stop-color="#A3A7F5"/>
<stop offset="1" stop-color="#BCBEFF"/>
</linearGradient>
<linearGradient id="paint1_linear_1148_7463" x1="108.83" y1="51.7849" x2="19.0069" y2="51.7849" gradientUnits="userSpaceOnUse">
<stop stop-color="#C0BFF6"/>
<stop offset="0.2938" stop-color="#C5C4F7"/>
<stop offset="0.6399" stop-color="#D3D2F9"/>
<stop offset="1" stop-color="#E9E9FD"/>
</linearGradient>
<linearGradient id="paint2_linear_1148_7463" x1="66.4304" y1="55.7728" x2="20.8224" y2="55.7728" gradientUnits="userSpaceOnUse">
<stop stop-color="#5761D7"/>
<stop offset="0.1645" stop-color="#5E67DA"/>
<stop offset="0.4051" stop-color="#727AE2"/>
<stop offset="0.6924" stop-color="#9297EE"/>
<stop offset="1" stop-color="#BCBEFF"/>
</linearGradient>
<linearGradient id="paint3_linear_1148_7463" x1="53.5243" y1="49.6044" x2="26.1492" y2="49.6044" gradientUnits="userSpaceOnUse">
<stop stop-color="#42E8E0"/>
<stop offset="0.1507" stop-color="#43E3E0"/>
<stop offset="0.3285" stop-color="#45D5DF"/>
<stop offset="0.5199" stop-color="#49BDDD"/>
<stop offset="0.7209" stop-color="#4E9CDB"/>
<stop offset="0.9274" stop-color="#5472D8"/>
<stop offset="1" stop-color="#5761D7"/>
</linearGradient>
<linearGradient id="paint4_linear_1148_7463" x1="39.8369" y1="44.6557" x2="26.1492" y2="44.6557" gradientUnits="userSpaceOnUse">
<stop stop-color="#42E8E0"/>
<stop offset="0.1507" stop-color="#43E3E0"/>
<stop offset="0.3285" stop-color="#45D5DF"/>
<stop offset="0.5199" stop-color="#49BDDD"/>
<stop offset="0.7209" stop-color="#4E9CDB"/>
<stop offset="0.9274" stop-color="#5472D8"/>
<stop offset="1" stop-color="#5761D7"/>
</linearGradient>
<linearGradient id="paint5_linear_1148_7463" x1="53.5231" y1="44.6556" x2="39.8354" y2="44.6556" gradientUnits="userSpaceOnUse">
<stop stop-color="#42E8E0"/>
<stop offset="0.1507" stop-color="#43E3E0"/>
<stop offset="0.3285" stop-color="#45D5DF"/>
<stop offset="0.5199" stop-color="#49BDDD"/>
<stop offset="0.7209" stop-color="#4E9CDB"/>
<stop offset="0.9274" stop-color="#5472D8"/>
<stop offset="1" stop-color="#5761D7"/>
</linearGradient>
<linearGradient id="paint6_linear_1148_7463" x1="53.5243" y1="47.6106" x2="26.1492" y2="47.6106" gradientUnits="userSpaceOnUse">
<stop stop-color="#42E8E0"/>
<stop offset="0.1507" stop-color="#43E3E0"/>
<stop offset="0.3285" stop-color="#45D5DF"/>
<stop offset="0.5199" stop-color="#49BDDD"/>
<stop offset="0.7209" stop-color="#4E9CDB"/>
<stop offset="0.9274" stop-color="#5472D8"/>
<stop offset="1" stop-color="#5761D7"/>
</linearGradient>
<linearGradient id="paint7_linear_1148_7463" x1="39.8365" y1="52.5576" x2="26.1492" y2="52.5576" gradientUnits="userSpaceOnUse">
<stop stop-color="#42E8E0"/>
<stop offset="0.1507" stop-color="#43E3E0"/>
<stop offset="0.3285" stop-color="#45D5DF"/>
<stop offset="0.5199" stop-color="#49BDDD"/>
<stop offset="0.7209" stop-color="#4E9CDB"/>
<stop offset="0.9274" stop-color="#5472D8"/>
<stop offset="1" stop-color="#5761D7"/>
</linearGradient>
<linearGradient id="paint8_linear_1148_7463" x1="53.5231" y1="52.5594" x2="39.8354" y2="52.5594" gradientUnits="userSpaceOnUse">
<stop stop-color="#42E8E0"/>
<stop offset="0.1507" stop-color="#43E3E0"/>
<stop offset="0.3285" stop-color="#45D5DF"/>
<stop offset="0.5199" stop-color="#49BDDD"/>
<stop offset="0.7209" stop-color="#4E9CDB"/>
<stop offset="0.9274" stop-color="#5472D8"/>
<stop offset="1" stop-color="#5761D7"/>
</linearGradient>
</defs>
</svg>
