<svg width="80" height="43" viewBox="0 0 80 43" fill="none" xmlns="http://www.w3.org/2000/svg">
<g clip-path="url(#clip0_1148_7612)">
<path d="M32 18.6895H10V26.6895H32V18.6895Z" fill="#333333"/>
<path d="M69 18.6895H47V26.6895H69V18.6895Z" fill="#333333"/>
<path d="M52.1641 22.8117V22.7995C52.1641 21.6002 53.0738 20.5957 54.3606 20.5957C55.6474 20.5957 56.5451 21.588 56.5451 22.7873V22.7995C56.5451 23.9988 55.6354 25.0033 54.3486 25.0033C53.0618 25.0033 52.1641 24.011 52.1641 22.8117ZM55.7731 22.8117V22.7995C55.7731 21.9716 55.1805 21.2836 54.3486 21.2836C53.5167 21.2836 52.9361 21.9592 52.9361 22.7873V22.7995C52.9361 23.6274 53.5287 24.3092 54.3606 24.3092C55.1925 24.3092 55.7731 23.6396 55.7731 22.8117Z" fill="white"/>
<path d="M57.8087 20.6699H59.4605C60.4419 20.6699 61.0525 21.2362 61.0525 22.0945V22.1067C61.0525 23.0625 60.2984 23.5617 59.3766 23.5617H58.5447V24.9315H57.8086L57.8087 20.6699ZM59.4008 22.8859C59.9574 22.8859 60.3044 22.5693 60.3044 22.1248V22.1126C60.3044 21.6133 59.9514 21.3515 59.4008 21.3515H58.5449V22.8857L59.4008 22.8859Z" fill="white"/>
<path d="M61.8984 24.3085L62.3414 23.7729C62.7424 24.126 63.1493 24.327 63.664 24.327C64.1189 24.327 64.4062 24.1078 64.4062 23.7912V23.779C64.4062 23.4747 64.2386 23.3103 63.4606 23.1277C62.5687 22.9085 62.0659 22.6407 62.0659 21.8554V21.8433C62.0659 21.1128 62.6645 20.6074 63.4964 20.6074C64.1068 20.6074 64.5916 20.7962 65.0165 21.1432L64.6214 21.7093C64.2443 21.4231 63.8673 21.2711 63.4842 21.2711C63.0534 21.2711 62.802 21.4964 62.802 21.7763V21.7885C62.802 22.1173 62.9935 22.2632 63.8015 22.4581C64.6872 22.6772 65.1422 22.9998 65.1422 23.7061V23.7183C65.1422 24.5159 64.5258 24.9906 63.646 24.9906C63.0058 24.9905 62.4013 24.7652 61.8984 24.3085Z" fill="white"/>
<path d="M14.6797 20.668H16.2419C17.5586 20.668 18.4683 21.5872 18.4683 22.7865V22.7987C18.4683 23.998 17.5586 24.9294 16.2419 24.9294H14.6797V20.668ZM15.4158 21.3497V24.2475H16.2417C17.1215 24.2475 17.6961 23.6448 17.6961 22.8107V22.7985C17.6961 21.9644 17.1216 21.3496 16.2417 21.3496H15.4158V21.3497Z" fill="white"/>
<path d="M19.7305 20.668H22.8367V21.3377H20.4666V22.4457H22.5673V23.1153H20.4666V24.2598H22.8666V24.9294H19.7305V20.668Z" fill="white"/>
<path d="M23.7539 20.668H24.5678L25.8307 23.9432L27.0876 20.668H27.8835L26.1478 24.9598H25.4955L23.7539 20.668Z" fill="white"/>
<path d="M32.8681 8.75492C29.1349 5.65025 25.0899 4.07606 20.8457 4.07617C20.8447 4.07617 20.8436 4.07617 20.8426 4.07617C17.3803 4.07617 14.0329 5.10578 11.1626 7.0536C10.6763 7.38341 10.3452 7.88612 10.2306 8.46939C10.1161 9.05244 10.2315 9.6461 10.5558 10.1408C10.8801 10.6354 11.3743 10.9722 11.9475 11.0887C12.521 11.2055 13.1046 11.0878 13.5905 10.758C15.7419 9.29985 18.2507 8.52885 20.8454 8.52828C24.0442 8.52908 27.1581 9.7657 30.0996 12.2033C30.4941 12.5309 30.9771 12.7052 31.4795 12.7052C31.554 12.7052 31.6288 12.7014 31.7039 12.6936C32.2856 12.6338 32.8094 12.347 33.1788 11.8865C33.9418 10.9361 33.8023 9.53106 32.8681 8.75492Z" fill="#00A9D7"/>
<path d="M49.8077 31.4955C47.2316 29.3588 45.272 26.6813 44.0815 24.8107C42.7125 22.6638 41.9917 21.0291 41.9594 20.9553C41.9575 20.951 41.9557 20.9469 41.9539 20.9432C41.8532 20.7117 41.0868 18.9885 39.6447 16.6919C37.6276 13.4843 35.3483 10.8136 32.8705 8.75384L32.5721 8.50586L32.1897 8.55516C31.8222 8.60252 30.4158 8.73764 30.4017 8.73901L29.5117 8.82449L29.5919 9.73004C29.5963 9.77866 29.6984 10.9284 29.7786 11.6048L29.8219 11.9704L30.1024 12.2031C32.6774 14.3388 34.6375 17.0168 35.8286 18.8876C37.1943 21.0301 37.9184 22.6699 37.9471 22.7353L37.9544 22.7521C38.0389 22.9455 38.8219 24.7079 40.2655 27.007C42.2827 30.2144 44.5618 32.8851 47.04 34.9448C47.4344 35.2726 47.9176 35.447 48.4201 35.447C48.4945 35.447 48.5693 35.4431 48.6442 35.4354C49.2259 35.3756 49.7498 35.0891 50.1195 34.6284C50.8825 33.6774 50.7428 32.2723 49.8077 31.4955Z" fill="#FFA400"/>
<path d="M69.3519 33.5595C69.0275 33.0647 68.5332 32.7279 67.9599 32.6114C67.3866 32.4949 66.8032 32.6123 66.3169 32.9421C64.1657 34.4005 61.6569 35.1715 59.0622 35.1718C55.8632 35.1711 52.7494 33.9344 49.8074 31.496L49.4964 31.2383L49.1002 31.3021C48.8353 31.3448 47.9069 31.4326 47.3475 31.4812L46.457 31.5586L46.5294 32.4647C46.5333 32.5146 46.6278 33.6921 46.7188 34.3632L46.7669 34.7183L47.0398 34.9453C50.7728 38.0502 54.8162 39.6243 59.0585 39.6243C59.0605 39.6243 59.0624 39.6243 59.0646 39.6243C62.5271 39.6241 65.8752 38.5944 68.7458 36.6465C69.2321 36.3166 69.5629 35.8137 69.6775 35.2306C69.7917 34.6473 69.6761 34.0538 69.3519 33.5595Z" fill="#318DDE"/>
<path d="M52.5623 34.9238L52.7879 35.0332L52.8834 35.7907L53.5215 35.3885L53.7472 35.4977L53.1732 36.7241L52.9613 36.6215L53.373 35.7421L52.7217 36.1358L52.7147 36.1325L52.6066 35.3753L52.1966 36.2512L51.9883 36.1503L52.5623 34.9238Z" fill="white"/>
<path d="M53.8479 36.2777L53.8491 36.2741C53.9655 35.9108 54.3385 35.6979 54.7283 35.8271C55.1182 35.9562 55.2938 36.347 55.1774 36.7102L55.1762 36.7139C55.0598 37.0773 54.6869 37.2901 54.297 37.1609C53.9073 37.0317 53.7316 36.6411 53.8479 36.2777ZM54.9411 36.6401L54.9424 36.6363C55.0227 36.3856 54.9099 36.1177 54.658 36.0342C54.406 35.9508 54.1645 36.0971 54.0842 36.3479L54.0831 36.3516C54.0026 36.6024 54.1161 36.8684 54.368 36.9518C54.62 37.0354 54.8608 36.8908 54.9411 36.6401Z" fill="white"/>
<path d="M55.706 36.1445L55.9199 36.1838L56.4595 37.2368L56.6236 36.3131L56.8505 36.3547L56.6133 37.6908L56.4201 37.6552L55.8646 36.5716L55.6957 37.5221L55.4688 37.4803L55.706 36.1445Z" fill="white"/>
<path d="M57.2706 36.3867L57.5046 36.4058L57.398 37.7601L57.1641 37.741L57.2706 36.3867Z" fill="white"/>
<path d="M58.261 36.6543L57.8377 36.6578L57.8359 36.4366L58.9192 36.4277L58.921 36.6489L58.4975 36.6523L58.5066 37.7891L58.2701 37.791L58.261 36.6543Z" fill="white"/>
<path d="M59.1742 37.1017L59.1738 37.0978C59.1262 36.7187 59.3738 36.3639 59.7807 36.3112C60.1874 36.2583 60.5105 36.5352 60.5581 36.9143L60.5585 36.9182C60.6061 37.2973 60.3584 37.652 59.9516 37.7048C59.5449 37.7576 59.2218 37.4807 59.1742 37.1017ZM60.3149 36.9536L60.3145 36.9497C60.2816 36.688 60.0671 36.4949 59.8041 36.529C59.5411 36.5631 59.3845 36.8005 59.4173 37.0622L59.4178 37.0661C59.4506 37.3278 59.665 37.519 59.9279 37.4848C60.1908 37.4508 60.3478 37.2152 60.3149 36.9536Z" fill="white"/>
<path d="M60.8008 36.1684L61.3761 36.0135C61.5384 35.9699 61.6783 35.9844 61.7827 36.0446C61.8694 36.0975 61.9336 36.1846 61.9632 36.2989L61.9642 36.3027C62.0203 36.5184 61.9268 36.682 61.7616 36.7827L62.2393 37.1859L61.9702 37.2584L61.534 36.8861L61.2501 36.9626L61.3692 37.4201L61.1424 37.4811L60.8008 36.1684ZM61.5289 36.6688C61.691 36.6251 61.7719 36.5111 61.7373 36.3779L61.7363 36.3741C61.6997 36.2334 61.5801 36.1833 61.4122 36.2285L61.0823 36.3173L61.1968 36.758L61.5289 36.6688Z" fill="white"/>
<path d="M68.7457 7.05344C68.3846 6.80887 67.9653 6.67969 67.5327 6.67969C66.7986 6.67992 66.1176 7.05058 65.7108 7.67106C65.0413 8.69233 65.3135 10.0772 66.3171 10.7582C69.9755 13.2418 72.1596 17.3885 72.1595 21.8507C72.1596 26.3127 69.9755 30.4594 66.3171 32.9431L66.0054 33.1547L65.9342 33.529C65.8331 34.061 65.5804 35.3293 65.5778 35.3421L65.3998 36.236L66.2784 36.418C66.2784 36.418 67.2658 36.6225 68.0755 36.7837L68.438 36.8557L68.7453 36.6474C73.6239 33.3409 76.5366 27.8095 76.5367 21.8507C76.5368 15.8918 73.6242 10.3602 68.7457 7.05344Z" fill="#1CD0BB"/>
<path d="M69.0563 7.26358L68.7472 7.05383C65.8764 5.10589 62.528 4.07617 59.0641 4.07617C59.0628 4.07617 59.0623 4.07617 59.061 4.07617C54.8188 4.07617 50.7745 5.65048 47.0421 8.75447C46.1072 9.53061 45.9673 10.9358 46.7304 11.8866C47.0999 12.3475 47.6239 12.6343 48.2054 12.6942C48.2806 12.7019 48.3555 12.7058 48.4301 12.7058C48.9324 12.7058 49.4153 12.5315 49.8091 12.2045C52.7516 9.76615 55.8654 8.5293 59.0639 8.52862C61.6589 8.52908 64.1676 9.30008 66.3188 10.7584L66.6259 10.9667L66.9882 10.8948C68.3036 10.634 68.7756 10.5315 68.795 10.5272L69.6606 10.3386L69.0563 7.26358Z" fill="#00A9D7"/>
<path d="M55.6875 5.89882L56.1786 5.81654C56.5924 5.74727 56.9252 5.98829 56.9863 6.36535L56.9868 6.36912C57.048 6.74617 56.8093 7.08683 56.3955 7.15621L55.9044 7.23849L55.6875 5.89882ZM55.9536 6.07434L56.1011 6.98526L56.3607 6.94178C56.6372 6.89544 56.7871 6.67576 56.7447 6.41362L56.744 6.40974C56.7016 6.14761 56.4897 5.98453 56.2131 6.03086L55.9536 6.07434Z" fill="white"/>
<path d="M57.3711 5.64657L58.3583 5.57422L58.3733 5.78705L57.6202 5.84218L57.6452 6.19424L58.3127 6.1454L58.3278 6.35823L57.6602 6.40708L57.6859 6.77078L58.4486 6.71498L58.4638 6.92781L57.467 7.00085L57.3711 5.64657Z" fill="white"/>
<path d="M58.8515 5.5625L59.3778 5.56878C59.6906 5.57254 59.8831 5.75525 59.8799 6.02869V6.03257C59.8764 6.33704 59.6343 6.49339 59.3406 6.48985L59.0755 6.48677L59.0705 6.92328L58.8359 6.92055L58.8515 5.5625ZM59.3507 6.27462C59.5281 6.27667 59.6398 6.17716 59.6415 6.03553V6.03165C59.6434 5.87257 59.5317 5.78778 59.3563 5.78572L59.0836 5.78253L59.0779 6.27142L59.3507 6.27462Z" fill="white"/>
<path d="M60.3242 5.60352L60.5579 5.62508L60.4562 6.76162L61.1554 6.82633L61.1361 7.04282L60.2031 6.95643L60.3242 5.60352Z" fill="white"/>
<path d="M61.4488 6.39736L61.4494 6.39348C61.5152 6.01722 61.8557 5.7536 62.2595 5.82664C62.6634 5.89968 62.8906 6.2619 62.8248 6.63827L62.8242 6.64215C62.7583 7.01841 62.4178 7.28203 62.014 7.20899C61.6102 7.13595 61.3829 6.77362 61.4488 6.39736ZM62.581 6.60209L62.5818 6.59833C62.6272 6.33847 62.4789 6.089 62.218 6.04187C61.9569 5.99463 61.7377 6.1738 61.6922 6.43365L61.6916 6.43742C61.6461 6.69716 61.7947 6.9448 62.0557 6.99193C62.3168 7.03907 62.5357 6.86184 62.581 6.60209Z" fill="white"/>
<path d="M63.4794 6.96429L63.1797 6.0293L63.4484 6.10348L63.6528 6.78113L64.1717 6.3033L64.4311 6.37497L63.709 7.0217L63.5696 7.54403L63.3414 7.48092L63.4794 6.96429Z" fill="white"/>
<path d="M41.1403 21.3327C41.1759 21.4141 41.3977 21.9105 41.7977 22.6735L41.7942 22.6812C41.729 22.8298 41.2486 23.9106 40.3724 25.4472C39.3259 23.6582 38.788 22.4159 38.7714 22.3781C38.7714 22.3781 38.771 22.3771 38.7667 22.3672C38.731 22.2857 38.5092 21.7895 38.1094 21.0266L38.1123 21.0197L38.1134 21.0169C38.2193 20.7755 38.6907 19.7298 39.5341 18.252C40.5808 20.0413 41.1189 21.284 41.1353 21.3218C41.1353 21.3218 41.1358 21.3226 41.1403 21.3327Z" fill="#B3B3B3"/>
<path d="M49.508 8.73912C49.0898 8.69838 47.9532 8.58597 47.7198 8.55562L47.3369 8.50586L47.0382 8.7543C44.5609 10.8133 42.2816 13.4838 40.2635 16.6927C38.8572 18.9329 38.0929 20.6276 37.9531 20.9465L37.9253 20.8262L37.9244 21.0115C37.9057 21.0533 37.8774 21.1147 37.8412 21.1924C37.7285 21.4327 37.6029 21.6885 37.4679 21.9529C37.1602 22.5559 36.6478 23.5063 35.9542 24.6103C34.743 26.5417 32.7444 29.304 30.1003 31.4964C29.1657 32.2728 29.026 33.6779 29.7892 34.6288C30.2213 35.167 30.8513 35.4461 31.4866 35.4459C31.9733 35.4459 32.4631 35.2819 32.8688 34.9453C35.3467 32.8857 37.6259 30.2151 39.6435 27.0067C41.0638 24.7445 41.8425 23.0067 41.95 22.7618C41.9527 22.7555 41.9563 22.7476 41.9604 22.7378L41.9787 22.6971C41.9974 22.6554 42.0265 22.5914 42.0661 22.5067C42.1406 22.3475 42.2658 22.0864 42.4392 21.7469C42.7475 21.1428 43.2603 20.1912 43.9526 19.0894C45.1642 17.1579 47.1632 14.3953 49.8061 12.2037L50.1029 11.9577L50.1336 11.5696C50.1775 11.0178 50.3134 9.76085 50.3147 9.7483L50.4143 8.8278L49.508 8.73912Z" fill="#B800E3"/>
<path d="M32.5825 31.4826C32.4318 31.4657 31.0994 31.3162 30.7241 31.2921L30.3731 31.2695L30.1005 31.4955C27.1582 33.9338 24.0443 35.1705 20.8461 35.1712C18.2504 35.1705 15.7416 34.3995 13.591 32.9414C12.5871 32.2607 11.2255 32.5375 10.556 33.5587C10.2315 34.0534 10.1161 34.6471 10.2306 35.2302C10.3453 35.8134 10.6764 36.3163 11.1626 36.6458C14.0335 38.594 17.3809 39.6236 20.8434 39.6236C20.8452 39.6234 20.8471 39.6236 20.8492 39.6236C25.0914 39.6236 29.1354 38.0493 32.8683 34.9447L33.148 34.7121L33.1914 34.3474C33.2685 33.6974 33.3733 32.5222 33.3778 32.4725L33.4573 31.5811L32.5825 31.4826Z" fill="#318DDE"/>
<path d="M13.9771 33.5262L13.9052 33.1534L13.5946 32.9425C9.93617 30.4586 7.75196 26.3117 7.75218 21.8498C7.75207 17.3878 9.93606 13.2411 13.5946 10.7575L15.3812 9.70913L13.3088 9.11102C13.0004 9.03467 12.6885 8.95582 12.4184 8.887C12.4625 8.5936 12.5113 8.25625 12.5535 7.93375L12.9156 5.97656L11.1661 7.05318C6.28759 10.3596 3.375 15.891 3.375 21.8498C3.375 27.8087 6.28759 33.3403 11.1661 36.6466L11.4689 36.8518L11.8267 36.7846C12.6398 36.6319 13.6001 36.4247 13.6405 36.4159L14.5095 36.2282L14.334 35.3424C14.334 35.3422 14.0831 34.076 13.9771 33.5262Z" fill="#1CD0BB"/>
<path d="M59.0755 42.1469H59.0692C54.2561 42.1469 49.6986 40.3862 45.5237 36.9137L44.528 36.0858L44.5211 36.0387C42.9129 34.5736 41.3816 32.8565 39.966 30.9316C38.5606 32.8431 37.0406 34.5498 35.4447 36.008L35.4397 36.0505L34.4085 36.914C30.2509 40.3715 25.7139 42.1322 20.9234 42.1469L20.8434 42.147C17.4028 42.1446 14.0116 41.2308 11.0313 39.5034L10.9689 39.5152L9.8382 38.7575C4.2869 34.9952 0.972656 28.7005 0.972656 21.9191C0.972656 15.1378 4.28701 8.84294 9.83843 5.08059L9.88869 5.04658L11.6937 3.96516C14.5032 2.47782 17.6714 1.69163 20.856 1.69163C25.2301 1.69152 29.4046 3.14908 33.2639 6.02334L33.3118 6.01764L34.4078 6.92387C36.389 8.57065 38.2581 10.5827 39.9662 12.9062C41.6539 10.61 43.499 8.61835 45.4531 6.98345L45.5026 6.93746L45.5707 6.88564L46.6236 6.0101L46.6767 6.01695C50.5334 3.14657 54.7026 1.69141 59.0702 1.69141C62.9961 1.69141 66.7938 2.85385 70.0525 5.05308C70.0657 5.06153 70.4043 5.29137 70.4043 5.29137L71.2297 5.85148L71.2442 5.92383C73.6187 7.79428 75.5758 10.231 76.9064 12.9741C78.2495 15.7432 78.9595 18.8363 78.9595 21.9193C78.9594 28.6875 75.6549 34.9756 70.12 38.7399L68.9661 39.522L68.8936 39.5078C65.911 41.2344 62.5174 42.1468 59.0755 42.1469ZM44.8418 35.9046L45.7367 36.6487C49.8501 40.07 54.3359 41.8046 59.0693 41.8046H59.0756C62.4797 41.8045 65.8356 40.8967 68.7802 39.1794L68.8341 39.1478L68.8939 39.1593L69.9329 38.4551C75.3741 34.7546 78.6227 28.5729 78.6228 21.9193C78.6228 18.8886 77.9248 15.8478 76.6045 13.1256C75.2873 10.4099 73.3455 7.99993 70.989 6.15607L70.9393 6.11715L70.9275 6.05792L70.2175 5.5761C70.2175 5.5761 69.8905 5.35413 69.8689 5.33987C66.6632 3.17647 62.9298 2.03377 59.0703 2.03377C54.7556 2.03377 50.6346 3.48026 46.822 6.33318L46.7679 6.37358L46.725 6.3681L45.6715 7.2441C43.6847 8.90571 41.8108 10.9414 40.1016 13.2949L39.9662 13.4813L39.8308 13.2949C38.1031 10.9157 36.2067 8.86143 34.1949 7.18898L33.2101 6.37449L33.1715 6.37917L33.118 6.33912C29.3028 3.48231 25.1773 2.03388 20.856 2.034C17.7254 2.034 14.6108 2.80683 11.8491 4.26895L11.7953 4.29748L10.0252 5.36566C4.56761 9.06434 1.30935 15.2526 1.30935 21.9191C1.30935 28.5857 4.5675 34.774 10.0249 38.4726L10.3278 38.6779L11.0401 39.1533L11.0911 39.1436L11.1448 39.1749C14.0873 40.8929 17.4409 41.8022 20.8432 41.8045L20.9226 41.8044C25.6336 41.7899 30.0993 40.0554 34.1954 36.6489L35.1217 35.8734L35.1259 35.8387L35.1731 35.7957C36.8205 34.2968 38.3874 32.5295 39.8305 30.5428L39.966 30.3565L40.1014 30.5428C41.554 32.5423 43.1317 34.3193 44.7906 35.8244L44.8361 35.8658L44.8418 35.9046Z" fill="#333333"/>
<path d="M18.2266 6.41115V6.40727C18.2266 6.02119 18.5108 5.70508 18.915 5.70508C19.161 5.70508 19.3098 5.79238 19.4376 5.91655L19.2869 6.09309C19.1801 5.99221 19.0657 5.92431 18.9131 5.92431C18.6594 5.92431 18.4726 6.13771 18.4726 6.4035V6.40738C18.4726 6.67317 18.6576 6.8884 18.9131 6.8884C19.0771 6.8884 19.182 6.82244 19.2965 6.7138L19.4471 6.869C19.3079 7.01645 19.1553 7.10957 18.9055 7.10957C18.5164 7.10957 18.2266 6.8011 18.2266 6.41115Z" fill="white"/>
<path d="M19.7148 6.41115V6.40727C19.7148 6.02507 20.0046 5.70508 20.4147 5.70508C20.8248 5.70508 21.1109 6.02131 21.1109 6.40339V6.40727C21.1109 6.78946 20.821 7.10946 20.411 7.10946C20.0009 7.10957 19.7148 6.79334 19.7148 6.41115ZM20.8648 6.41115V6.40727C20.8648 6.14342 20.676 5.92419 20.411 5.92419C20.1459 5.92419 19.9609 6.13954 19.9609 6.40339V6.40727C19.9609 6.67112 20.1497 6.88829 20.4147 6.88829C20.6797 6.88829 20.8648 6.675 20.8648 6.41115Z" fill="white"/>
<path d="M21.5156 5.72852H22.0134C22.433 5.72852 22.7228 6.02147 22.7228 6.40366V6.40754C22.7228 6.78973 22.433 7.08645 22.0134 7.08645H21.5156V5.72852ZM21.7502 5.9458V6.86916H22.0134C22.2938 6.86916 22.4769 6.67709 22.4769 6.4113V6.40742C22.4769 6.14163 22.2938 5.94569 22.0134 5.94569L21.7502 5.9458Z" fill="white"/>
<path d="M23.125 5.72852H24.1148V5.94192H23.3596V6.2949H24.029V6.50831H23.3596V6.87304H24.1243V7.08645H23.125V5.72852Z" fill="white"/>
<path d="M18.5406 36.5825H18.1172V36.3613H19.2004V36.5825H18.7771V37.7193H18.5406V36.5825Z" fill="white"/>
<path d="M19.5664 36.3613H20.5562V36.5747H19.801V36.9277H20.4704V37.1411H19.801V37.5059H20.5657V37.7193H19.5664V36.3613Z" fill="white"/>
<path d="M20.875 37.5212L21.0161 37.3505C21.1439 37.463 21.2736 37.5271 21.4377 37.5271C21.5826 37.5271 21.6741 37.4572 21.6741 37.3563V37.3525C21.6741 37.2555 21.6206 37.2031 21.3727 37.145C21.0885 37.0751 20.9284 36.9898 20.9284 36.7395V36.7356C20.9284 36.5028 21.1191 36.3418 21.3841 36.3418C21.5787 36.3418 21.7332 36.4019 21.8685 36.5125L21.7426 36.6929C21.6224 36.6018 21.5023 36.5533 21.3802 36.5533C21.2429 36.5533 21.1628 36.625 21.1628 36.7143V36.7182C21.1628 36.8229 21.2238 36.8695 21.4812 36.9316C21.7635 37.0014 21.9084 37.1042 21.9084 37.3293V37.3332C21.9084 37.5873 21.7121 37.7386 21.4316 37.7386C21.2277 37.7385 21.0352 37.6667 20.875 37.5212Z" fill="white"/>
<path d="M22.603 36.5825H22.1797V36.3613H23.2629V36.5825H22.8396V37.7193H22.6031V36.5825H22.603Z" fill="white"/>
<path d="M74.3101 18.8899L74.3139 18.8895C74.6882 18.8562 75.027 19.1221 75.0627 19.5377C75.0984 19.9534 74.8136 20.2709 74.4392 20.3041L74.4354 20.3044C74.061 20.3377 73.7223 20.0718 73.6866 19.6562C73.6509 19.2406 73.9357 18.9231 74.3101 18.8899ZM74.4103 20.0554L74.4141 20.0551C74.6725 20.0321 74.8707 19.8217 74.8477 19.553C74.8246 19.2844 74.5976 19.1156 74.3391 19.1385L74.3353 19.1389C74.0769 19.1618 73.8805 19.3721 73.9036 19.6408C73.9266 19.9094 74.1518 20.0783 74.4103 20.0554Z" fill="white"/>
<path d="M75.1147 20.7557L75.1094 21.291C75.1064 21.6092 74.9271 21.8052 74.6583 21.8025H74.6545C74.355 21.7995 74.201 21.5534 74.2039 21.2547L74.2065 20.985L73.7773 20.9808L73.7797 20.7422L75.1147 20.7557ZM74.4155 21.2646C74.4137 21.4451 74.5118 21.5586 74.6511 21.56L74.6549 21.5601C74.8113 21.5617 74.8945 21.448 74.8962 21.2695L74.8987 20.9921L74.4182 20.9872L74.4155 21.2646Z" fill="white"/>
<path d="M75.0891 22.2449L75.0119 23.249L74.8027 23.2323L74.8616 22.4662L74.5154 22.4386L74.4631 23.1176L74.2539 23.1009L74.3063 22.4219L73.9486 22.3934L73.8889 23.1692L73.6797 23.1525L73.7578 22.1387L75.0891 22.2449Z" fill="white"/>
<path d="M74.9515 23.7431L74.8569 24.3407C74.8303 24.5094 74.7604 24.6334 74.6639 24.7061C74.5811 24.7652 74.4768 24.7894 74.362 24.7706L74.3583 24.7699C74.1417 24.7344 74.0327 24.5811 74.0094 24.3867L73.4531 24.667L73.4973 24.3874L74.009 24.1331L74.0557 23.8381L73.5962 23.7629L73.6334 23.5273L74.9515 23.7431ZM74.2062 24.2166C74.1796 24.3852 74.2493 24.5066 74.3829 24.5285L74.3866 24.5291C74.5278 24.5522 74.6214 24.4614 74.649 24.2872L74.7032 23.9442L74.2607 23.8718L74.2062 24.2166Z" fill="white"/>
<path d="M74.571 25.8031L74.5177 26.0176L73.0703 26.2617L73.1311 26.0171L73.4767 25.9639L73.6314 25.3414L73.3527 25.1257L73.4115 24.8887L74.571 25.8031ZM73.6994 25.9312L74.2736 25.8367L73.812 25.4779L73.6994 25.9312Z" fill="white"/>
<path d="M73.975 27.0843L74.1088 26.6758L74.3151 26.7456L73.9728 27.791L73.7665 27.7212L73.9002 27.3126L72.8398 26.9534L72.9146 26.7252L73.975 27.0843Z" fill="white"/>
<path d="M73.8134 28.2115L73.4287 29.1388L73.2354 29.0558L73.5289 28.3482L73.2092 28.2111L72.949 28.8382L72.7557 28.7552L73.0159 28.1281L72.6857 27.9864L72.3885 28.7027L72.1953 28.6197L72.5837 27.6836L73.8134 28.2115Z" fill="white"/>
<path d="M37.2969 25.1672L37.6093 24.6522C37.6974 24.5069 37.8087 24.4195 37.9252 24.39C38.0239 24.3677 38.1294 24.3859 38.2283 24.4481L38.2316 24.4502C38.4183 24.5673 38.4611 24.7516 38.4094 24.9402L39.0288 24.8981L38.8826 25.1391L38.3144 25.1746L38.1601 25.4289L38.5562 25.6774L38.433 25.8805L37.2969 25.1672ZM38.1635 25.0204C38.2517 24.8753 38.233 24.7359 38.1178 24.6636L38.1146 24.6614C37.9928 24.5851 37.8722 24.6324 37.7811 24.7826L37.6018 25.0781L37.9832 25.3175L38.1635 25.0204Z" fill="white"/>
<path d="M38.0391 23.9233L38.5233 23.0449L38.7063 23.1493L38.3368 23.8196L38.6398 23.9924L38.9673 23.3982L39.1502 23.5027L38.8227 24.0967L39.1355 24.275L39.5097 23.5964L39.6927 23.7008L39.2039 24.5876L38.0391 23.9233Z" fill="white"/>
<path d="M38.7031 22.6092L38.8297 22.4082L39.7739 23.0235L40.1526 22.4225L40.3324 22.5397L39.8272 23.3416L38.7031 22.6092Z" fill="white"/>
<path d="M39.25 21.4315L39.7991 20.5938L39.9737 20.7121L39.5547 21.3514L39.8435 21.5472L40.2149 20.9806L40.3895 21.099L40.0181 21.6656L40.3164 21.8679L40.7406 21.2205L40.9152 21.339L40.3608 22.1847L39.25 21.4315Z" fill="white"/>
<path d="M40.1211 19.7801L40.2253 19.5859L41.6873 19.7168L41.5684 19.9382L41.2205 19.9021L40.9179 20.4657L41.135 20.7454L41.0199 20.9601L40.1211 19.7801ZM40.9969 19.8773L40.4174 19.823L40.7765 20.2877L40.9969 19.8773Z" fill="white"/>
<path d="M41.6359 19.4205L41.564 19.2096C41.7245 19.1556 41.845 19.0751 41.9291 18.9318C42.0034 18.8051 41.9913 18.6893 41.9062 18.6377L41.9029 18.6357C41.821 18.5859 41.7494 18.6058 41.5732 18.7926C41.3686 19.0051 41.2144 19.1014 41.003 18.9731L40.9997 18.9711C40.8032 18.8518 40.7649 18.6026 40.9008 18.3709C41.0005 18.201 41.1305 18.0968 41.2932 18.0352L41.3811 18.2376C41.2425 18.2959 41.14 18.376 41.0774 18.4826C41.007 18.6026 41.0266 18.7094 41.102 18.7551L41.1052 18.7572C41.1937 18.8108 41.2642 18.7814 41.4486 18.5883C41.6523 18.3775 41.8134 18.3035 42.0034 18.4188L42.0067 18.4209C42.2213 18.5511 42.2484 18.8003 42.1048 19.0454C42.0002 19.2236 41.8409 19.3551 41.6359 19.4205Z" fill="white"/>
<path d="M41.4102 17.5519L41.9459 16.7051L42.1223 16.8206L41.7134 17.4667L42.0055 17.6579L42.3677 17.0851L42.5441 17.2006L42.1818 17.7734L42.4834 17.9707L42.8973 17.3164L43.0737 17.4319L42.5328 18.2869L41.4102 17.5519Z" fill="white"/>
<path d="M34.6836 12.4316L35.0138 12.8483C35.21 13.0958 35.1941 13.3631 34.9847 13.5347L34.9818 13.5371C34.7489 13.7282 34.4763 13.6378 34.2921 13.4053L34.1257 13.1955L33.7917 13.4693L33.6445 13.2837L34.6836 12.4316ZM34.4616 13.2763C34.5729 13.4166 34.7196 13.4409 34.828 13.3521L34.8309 13.3497C34.9525 13.2499 34.9458 13.1085 34.8357 12.9696L34.6646 12.7537L34.2906 13.0604L34.4616 13.2763Z" fill="white"/>
<path d="M35.574 13.5723L35.7143 13.7635L34.8152 14.4455L35.2349 15.0178L35.0636 15.1477L34.5039 14.3842L35.574 13.5723Z" fill="white"/>
<path d="M36.6442 15.0566L36.7676 15.2389L35.9929 16.5071L35.8522 16.2993L36.041 15.9999L35.683 15.4707L35.3394 15.5415L35.2031 15.3401L36.6442 15.0566ZM36.1635 15.8079L36.4727 15.3063L35.9028 15.4226L36.1635 15.8079Z" fill="white"/>
<path d="M37.3048 16.0684L37.4208 16.2553L37.0215 17.3711L37.802 16.8704L37.9251 17.0689L36.7962 17.793L36.6914 17.6241L37.102 16.4758L36.2989 16.9909L36.1758 16.7925L37.3048 16.0684Z" fill="white"/>
</g>
<defs>
<clipPath id="clip0_1148_7612">
<rect width="92" height="42" fill="white" transform="translate(-5 0.689453)"/>
</clipPath>
</defs>
</svg>
