<svg width="78" height="48" viewBox="0 0 78 48" fill="none" xmlns="http://www.w3.org/2000/svg">
<g clip-path="url(#clip0_1148_7845)">
<path d="M18.4453 13.0587H33.1255V14.2267H19.791V23.0178H32.3303V24.1858H19.791V33.8375H33.2784V35.0055H18.4453V13.0587ZM34.4406 13.0587H36.0004L42.9123 22.7104L49.9771 13.0587L59.5865 0.798828L43.7992 23.7247L51.9345 35.0055H50.3136L42.9123 24.7391L35.4804 35.0055H33.8901L42.0865 23.7247L34.4406 13.0587ZM52.5156 14.2267V13.0587H69.2449V14.2267H61.5378V35.0055H60.1921V14.2267H52.5156Z" fill="black"/>
<path d="M0.078125 13.0586H1.76023L24.9555 47.8049L15.37 35.0054L1.48498 14.7184L1.42381 35.0054H0.078125V13.0586Z" fill="black"/>
<path d="M69.1061 33.4848C69.3843 33.4848 69.5873 33.2716 69.5873 32.996C69.5873 32.7204 69.3843 32.5071 69.1061 32.5071C68.8312 32.5071 68.625 32.7204 68.625 32.996C68.625 33.2716 68.8312 33.4848 69.1061 33.4848ZM70.4284 32.1987C70.4284 33.0124 71.0143 33.5439 71.8686 33.5439C72.7785 33.5439 73.3283 32.996 73.3283 32.0446V28.6949H72.5952V32.0413C72.5952 32.5695 72.33 32.8516 71.862 32.8516C71.4431 32.8516 71.1583 32.5892 71.1485 32.1987H70.4284ZM74.2873 32.1561C74.3397 33.0025 75.0434 33.5439 76.0907 33.5439C77.2101 33.5439 77.9105 32.9763 77.9105 32.0708C77.9105 31.3589 77.5112 30.9652 76.5424 30.7388L76.022 30.6109C75.4067 30.4665 75.1579 30.2729 75.1579 29.935C75.1579 29.5085 75.5441 29.2297 76.1235 29.2297C76.6733 29.2297 77.053 29.502 77.1217 29.9383H77.8353C77.7927 29.1411 77.0923 28.5801 76.1333 28.5801C75.1023 28.5801 74.415 29.1411 74.415 29.9842C74.415 30.6798 74.8044 31.0931 75.6587 31.2933L76.2675 31.4409C76.8926 31.5885 77.1676 31.8051 77.1676 32.1659C77.1676 32.5859 76.7355 32.891 76.1464 32.891C75.5147 32.891 75.0761 32.6056 75.0139 32.1561H74.2873Z" fill="black"/>
</g>
<defs>
<clipPath id="clip0_1148_7845">
<rect width="78" height="47" fill="white" transform="translate(0 0.689453)"/>
</clipPath>
</defs>
</svg>
