<svg width="77" height="47" viewBox="0 0 77 47" fill="none" xmlns="http://www.w3.org/2000/svg">
<g clip-path="url(#clip0_1148_7804)">
<path d="M38.0607 46.999C37.8066 46.999 37.5542 46.9326 37.3314 46.8047L35.0099 45.435C34.6632 45.2417 34.8324 45.1734 34.9467 45.134C35.409 44.9726 35.5029 44.9362 35.9963 44.6569C36.0482 44.6274 36.1161 44.6378 36.1692 44.6691L37.9526 45.7238C38.017 45.7585 38.1084 45.7585 38.1681 45.7238L45.1219 41.7234C45.1863 41.687 45.2281 41.6124 45.2281 41.5361V33.5388C45.2281 33.459 45.1863 33.3878 45.1205 33.3479L38.1695 29.351C38.1051 29.3129 38.0198 29.3129 37.9554 29.351L31.0058 33.3479C30.9384 33.3861 30.8956 33.4607 30.8956 33.537V41.5343C30.8956 41.6107 30.9374 41.6835 31.0035 41.7199L32.9078 42.8163C33.9417 43.3315 34.5735 42.7244 34.5735 42.1137V34.2205C34.5735 34.1078 34.6623 34.021 34.7755 34.021H35.6562C35.7659 34.021 35.8564 34.1078 35.8564 34.2205V42.1172C35.8564 43.4911 35.1044 44.2805 33.7972 44.2805C33.3951 44.2805 33.0783 44.2805 32.1941 43.8468L30.3699 42.799C29.9191 42.5388 29.6406 42.053 29.6406 41.5343V33.537C29.6406 33.0166 29.9191 32.5309 30.3699 32.2741L37.3307 28.272C37.7711 28.0239 38.3559 28.0239 38.7928 28.272L45.7448 32.2758C46.1939 32.5343 46.4742 33.0183 46.4742 33.5388V41.5361C46.4742 42.0548 46.1939 42.5388 45.7448 42.799L38.7928 46.8011C38.57 46.9295 38.3176 46.9954 38.06 46.9954" fill="#689F63"/>
<path d="M40.2079 41.4887C37.1653 41.4887 36.5273 40.0967 36.5273 38.9292C36.5273 38.8182 36.6172 38.7297 36.7287 38.7297H37.6269C37.7261 38.7297 37.8097 38.8017 37.8253 38.8994C37.9611 39.8115 38.3649 40.2716 40.2048 40.2716C41.6704 40.2716 42.2935 39.9416 42.2935 39.167C42.2935 38.7212 42.116 38.3899 39.8392 38.1678C37.935 37.9805 36.7583 37.5624 36.7583 36.0444C36.7583 34.6462 37.9419 33.8135 39.9245 33.8135C42.1508 33.8135 43.2543 34.5838 43.3936 36.2387C43.3988 36.296 43.3779 36.3515 43.3396 36.3931C43.3013 36.433 43.2474 36.4573 43.1917 36.4573H42.2883C42.1943 36.4573 42.1125 36.3914 42.0933 36.3012C41.8757 35.3419 41.3501 35.0348 39.921 35.0348C38.3214 35.0348 38.1352 35.5899 38.1352 36.0063C38.1352 36.5111 38.3545 36.6586 40.5128 36.9431C42.6503 37.2258 43.6651 37.6248 43.6651 39.1219C43.6651 40.6312 42.4014 41.4968 40.1978 41.4968M48.6676 33.0155H48.9009C49.0924 33.0155 49.1289 32.882 49.1289 32.8039C49.1289 32.5992 48.9879 32.5992 48.9096 32.5992H48.6694L48.6676 33.0155ZM48.3839 32.3598H48.9009C49.0784 32.3598 49.4266 32.3598 49.4266 32.7553C49.4266 33.0311 49.249 33.0884 49.1428 33.1231C49.35 33.137 49.3639 33.2723 49.3917 33.4631C49.4057 33.5828 49.4283 33.7892 49.4701 33.8586H49.1515C49.1428 33.7892 49.0941 33.4076 49.0941 33.3868C49.0732 33.3018 49.0436 33.2601 48.9374 33.2601H48.6746V33.8604H48.3839V32.3598ZM47.7625 33.1057C47.7625 33.7268 48.2656 34.2299 48.8835 34.2299C49.5066 34.2299 50.0097 33.7164 50.0097 33.1057C50.0097 32.483 49.4997 31.9886 48.8817 31.9886C48.2725 31.9886 47.7608 32.476 47.7608 33.104M50.2255 33.1092C50.2255 33.8448 49.6215 34.445 48.8852 34.445C48.1542 34.445 47.5449 33.8517 47.5449 33.1092C47.5449 32.3529 48.1681 31.7734 48.8852 31.7734C49.6076 31.7734 50.2238 32.3546 50.2238 33.1092" fill="#689F63"/>
<path fill-rule="evenodd" clip-rule="evenodd" d="M16.5248 15.7083C16.5248 15.3891 16.3559 15.0959 16.0795 14.9372L8.70693 10.7096C8.58248 10.6367 8.44305 10.5986 8.30171 10.5933H8.22547C8.08414 10.5986 7.94471 10.6367 7.81817 10.7096L0.445947 14.9372C0.171277 15.0968 0 15.39 0 15.7092L0.0161878 27.0962C0.0161878 27.2541 0.0979969 27.4016 0.237247 27.4796C0.373015 27.5629 0.543596 27.5629 0.679364 27.4796L5.06225 24.9781C5.339 24.814 5.50784 24.5239 5.50784 24.2078V18.8882C5.50784 18.5707 5.67668 18.2775 5.95257 18.1197L7.81852 17.0486C7.95707 16.9688 8.1092 16.9293 8.26412 16.9293C8.41659 16.9293 8.57221 16.9685 8.70693 17.0484L10.572 18.1191C10.8481 18.277 11.0176 18.5702 11.0176 18.8876V24.207C11.0176 24.5227 11.1887 24.8141 11.4641 24.9772L15.8442 27.477C15.9817 27.5585 16.1528 27.5585 16.2898 27.477C16.4248 27.399 16.5105 27.2515 16.5105 27.0936L16.5248 15.7083ZM51.3142 21.6371C51.3142 21.7164 51.2719 21.7897 51.2028 21.8289L48.6705 23.2837C48.6018 23.3231 48.5168 23.3231 48.4482 23.2837L45.9156 21.8289C45.846 21.7896 45.8042 21.7162 45.8042 21.6371V18.7234C45.8042 18.6439 45.846 18.5707 45.9139 18.5308L48.4448 17.0736C48.5144 17.0337 48.5997 17.0337 48.6693 17.0736L51.2019 18.5308C51.2715 18.5707 51.3133 18.6439 51.3133 18.7234L51.3142 21.6371ZM51.9982 0.0561691C51.86 -0.0205078 51.6919 -0.0184261 51.5554 0.060853C51.4197 0.140652 51.3358 0.286373 51.3358 0.444238V11.7203C51.3358 11.8313 51.2766 11.9336 51.1801 11.9891C51.0844 12.0447 50.9652 12.0447 50.8686 11.9891L49.0218 10.929C48.7468 10.7705 48.408 10.7705 48.132 10.929L40.757 15.1711C40.4814 15.3289 40.3114 15.6221 40.3114 15.9378V24.4243C40.3114 24.7418 40.4814 25.0332 40.757 25.1928L48.132 29.4378C48.4073 29.5957 48.7464 29.5957 49.0227 29.4378L56.3977 25.1911C56.6727 25.0315 56.8433 24.7401 56.8433 24.4226V3.27226C56.8433 2.95029 56.6675 2.65416 56.3855 2.49682L51.9982 0.0561691ZM76.5572 18.6467C76.8311 18.4881 76.9998 18.1953 76.9998 17.8796V15.8228C76.9998 15.5064 76.831 15.2144 76.5565 15.0552L69.2285 10.8154C68.9517 10.6558 68.6123 10.6558 68.3355 10.8154L60.9623 15.0569C60.6855 15.2165 60.5167 15.508 60.5167 15.8254V24.3085C60.5167 24.6277 60.689 24.9226 60.9657 25.0804L68.292 29.2421C68.5618 29.3965 68.8925 29.3983 69.1658 29.2473L73.5974 26.7926C73.7367 26.7146 73.8254 26.5671 73.8254 26.4075C73.8254 26.2479 73.7402 26.0987 73.6009 26.0207L66.1824 21.7774C66.0431 21.6994 65.9578 21.5519 65.9578 21.394V18.7329C65.9578 18.574 66.0414 18.4276 66.1806 18.3485L68.4887 17.0214C68.6262 16.9416 68.7951 16.9416 68.9326 17.0214L71.2424 18.3485C71.3799 18.4265 71.4652 18.574 71.4652 18.7319V20.824C71.4652 20.9819 71.5505 21.1293 71.688 21.2091C71.8255 21.2872 71.996 21.2872 72.1336 21.2074L76.5572 18.6467Z" fill="#333333"/>
<path fill-rule="evenodd" clip-rule="evenodd" d="M68.6732 18.2496C68.7254 18.2189 68.7908 18.2189 68.8437 18.2496L70.2589 19.0632C70.3118 19.0937 70.3442 19.1499 70.3442 19.2107V20.8396C70.3442 20.9003 70.3118 20.9565 70.2589 20.9871L68.8437 21.8007C68.7908 21.8314 68.7254 21.8314 68.6732 21.8007L67.2589 20.9871C67.2049 20.9565 67.1719 20.9003 67.1719 20.8396V19.2107C67.1719 19.1499 67.2032 19.0937 67.2572 19.0632L68.6732 18.2496Z" fill="#689F63"/>
<mask id="mask0_1148_7804" style="mask-type:luminance" maskUnits="userSpaceOnUse" x="20" y="10" width="17" height="20">
<path d="M27.9756 10.8582L20.6424 15.0766C20.3677 15.2345 20.1992 15.5259 20.1992 15.841V24.2838C20.1992 24.599 20.3677 24.8902 20.6424 25.0481L27.9761 29.2698C28.2503 29.4272 28.5883 29.4272 28.8621 29.2698L36.1946 25.0481C36.4679 24.8902 36.6368 24.5988 36.6368 24.2838V15.841C36.6368 15.5259 36.4679 15.2345 36.1929 15.0766L28.8614 10.8582C28.7239 10.7796 28.5707 10.7402 28.4176 10.7402C28.2644 10.7402 28.1112 10.7796 27.9737 10.8582" fill="white"/>
</mask>
<g mask="url(#mask0_1148_7804)">
<path d="M44.048 14.3603L23.3842 4.26562L12.7891 25.807L33.4523 35.9021L44.048 14.3603Z" fill="url(#paint0_linear_1148_7804)"/>
</g>
<mask id="mask1_1148_7804" style="mask-type:luminance" maskUnits="userSpaceOnUse" x="20" y="10" width="17" height="20">
<path d="M20.3828 24.8202C20.453 24.911 20.5407 24.9895 20.6439 25.0485L26.9345 28.6699L27.9824 29.2701C28.139 29.3603 28.3176 29.3985 28.4931 29.3855C28.5515 29.3808 28.61 29.3698 28.6671 29.3537L36.4014 15.2396C36.3422 15.1754 36.2729 15.1216 36.1953 15.0765L31.3936 12.313L28.8555 10.8576C28.7834 10.8159 28.7052 10.7864 28.6257 10.7656L20.3828 24.8202Z" fill="white"/>
</mask>
<g mask="url(#mask1_1148_7804)">
<path d="M11.4492 17.347L26.04 37.0285L45.3365 22.8197L30.7449 3.13867L11.4492 17.347Z" fill="url(#paint1_linear_1148_7804)"/>
</g>
<mask id="mask2_1148_7804" style="mask-type:luminance" maskUnits="userSpaceOnUse" x="20" y="10" width="17" height="20">
<path d="M28.3306 10.7435C28.2076 10.7557 28.0873 10.7938 27.9764 10.8566L20.6641 15.0629L28.5491 29.3765C28.6587 29.3609 28.7666 29.3245 28.8641 29.2683L36.1974 25.0465C36.4236 24.9157 36.5786 24.6944 36.6256 24.4435L28.5874 10.7579C28.5282 10.7463 28.469 10.7402 28.4081 10.7402C28.3837 10.7402 28.3593 10.7414 28.335 10.7437" fill="white"/>
</mask>
<g mask="url(#mask2_1148_7804)">
<path d="M20.6641 10.7402V29.3769H36.6226V10.7402H20.6641Z" fill="url(#paint2_linear_1148_7804)"/>
</g>
</g>
<defs>
<linearGradient id="paint0_linear_1148_7804" x1="33.7099" y1="9.29707" x2="23.1728" y2="30.865" gradientUnits="userSpaceOnUse">
<stop offset="0.3" stop-color="#3E863D"/>
<stop offset="0.5" stop-color="#55934F"/>
<stop offset="0.8" stop-color="#5AAD45"/>
</linearGradient>
<linearGradient id="paint1_linear_1148_7804" x1="18.832" y1="27.3005" x2="38.0834" y2="13.0281" gradientUnits="userSpaceOnUse">
<stop offset="0.57" stop-color="#3E863D"/>
<stop offset="0.72" stop-color="#619857"/>
<stop offset="1" stop-color="#76AC64"/>
</linearGradient>
<linearGradient id="paint2_linear_1148_7804" x1="20.6694" y1="20.0591" x2="36.6256" y2="20.0591" gradientUnits="userSpaceOnUse">
<stop offset="0.16" stop-color="#6BBF47"/>
<stop offset="0.38" stop-color="#79B461"/>
<stop offset="0.47" stop-color="#75AC64"/>
<stop offset="0.7" stop-color="#659E5A"/>
<stop offset="0.9" stop-color="#3E863D"/>
</linearGradient>
<clipPath id="clip0_1148_7804">
<rect width="77" height="47" fill="white"/>
</clipPath>
</defs>
</svg>
