<svg width="80" height="81" viewBox="0 0 80 81" fill="none" xmlns="http://www.w3.org/2000/svg">
<path d="M50.7085 57.5361C56.5777 50.0884 55.2954 39.248 47.8478 33.3751C40.3957 27.5015 29.5597 28.7882 23.6868 36.2359C17.8132 43.6879 19.0963 54.5232 26.5476 60.3968C33.9952 66.2697 44.8349 64.9874 50.7085 57.5361ZM27.5778 59.0903C20.8378 53.7773 19.6805 44.0017 24.9934 37.2661C30.3063 30.5261 40.0738 29.368 46.8138 34.6773C53.5575 39.9946 54.7156 49.7622 49.4027 56.5014C44.089 63.2414 34.3215 64.4039 27.5778 59.0903Z" fill="#93ACBF"/>
<path d="M49.4014 56.5005C54.7144 49.7605 53.5562 39.9937 46.8126 34.6764C40.0726 29.3671 30.3051 30.526 24.9921 37.2652C19.6792 44.0008 20.8373 53.7764 27.5766 59.0894C34.321 64.403 44.0885 63.2405 49.4014 56.5005ZM28.0998 58.4243C21.728 53.4009 20.6345 44.1603 25.6579 37.7877C30.6813 31.4159 39.9183 30.3217 46.2908 35.3414C52.6663 40.3692 53.7605 49.6062 48.7371 55.978C43.713 62.3499 34.476 63.4477 28.0998 58.4243Z" fill="#586773"/>
<path d="M48.7379 55.9792C53.7613 49.6073 52.6678 40.3704 46.2916 35.3425C39.919 30.3236 30.682 31.417 25.6586 37.7888C20.6352 44.1607 21.7287 53.4021 28.1005 58.4255C34.4775 63.4489 43.7145 62.351 48.7379 55.9792Z" fill="white"/>
<path d="M56.436 63.1604L57.0341 62.4425L49.7533 56.707L49.1992 57.4588L56.436 63.1604Z" fill="#93ACBF"/>
<path d="M72.7511 75.3754C72.754 75.3732 72.7548 75.3703 72.7577 75.3674C73.1383 74.8875 73.0553 74.1887 72.5725 73.808L57.4766 61.9102L57.0313 62.4437L56.7579 62.7692L56.4331 63.1609L56.0547 63.6157L71.1983 75.5518C71.676 75.9302 72.3682 75.8523 72.7511 75.3754Z" fill="#586773"/>
<path d="M72.7511 75.375C72.7489 75.3721 72.743 75.3684 72.7379 75.3655L56.7579 62.7695L56.4331 63.1612L56.0547 63.6161L71.1983 75.5521C71.676 75.9299 72.3682 75.852 72.7511 75.375Z" fill="#93ACBF"/>
<path d="M41.3593 43.1746H32.9453C33.883 40.9671 35.4203 39.5312 37.1523 39.5312C38.888 39.5312 40.4216 40.9671 41.3593 43.1746Z" fill="#586773"/>
<path d="M42.334 48.2653C42.334 53.091 40.0155 57.0019 37.1533 57.0019C34.294 57.0019 31.9727 53.091 31.9727 48.2653C31.9727 46.803 32.1843 45.4229 32.562 44.2148H41.7446C42.1223 45.4229 42.334 46.8037 42.334 48.2653Z" fill="#586773"/>
<path d="M38.4258 40.2761C38.4258 40.2761 38.4699 36.2367 40.972 36.1934" stroke="#586773" stroke-miterlimit="10" stroke-linecap="round" stroke-linejoin="round"/>
<path d="M35.8822 40.2761C35.8822 40.2761 35.8381 36.2367 33.3359 36.1934" stroke="#586773" stroke-miterlimit="10" stroke-linecap="round" stroke-linejoin="round"/>
<path d="M40.6875 47.1261L43.7356 44.8128L44.9224 41.6816" stroke="#586773" stroke-miterlimit="10" stroke-linecap="round" stroke-linejoin="round"/>
<path d="M33.7068 47.1261L30.6587 44.8128L29.4727 41.6816" stroke="#586773" stroke-miterlimit="10" stroke-linecap="round" stroke-linejoin="round"/>
<path d="M40.6875 52.1309L43.7356 54.4434L44.9224 57.5746" stroke="#586773" stroke-miterlimit="10" stroke-linecap="round" stroke-linejoin="round"/>
<path d="M33.7068 52.1309L30.6587 54.4434L29.4727 57.5746" stroke="#586773" stroke-miterlimit="10" stroke-linecap="round" stroke-linejoin="round"/>
<path d="M8.60154 28.9584C8.5861 29.8683 7.88491 30.6098 7 30.6922C7.17223 31.5217 7.48106 32.3262 7.93044 33.0737C8.63718 32.5289 9.65314 32.5883 10.289 33.2487C10.4561 33.4198 10.58 33.6197 10.6644 33.8296C10.894 34.4175 10.7958 35.1049 10.3789 35.6101C10.8508 35.9177 11.3489 36.1671 11.864 36.3627C12.0976 36.4498 12.3356 36.527 12.5751 36.5912C12.6222 36.6062 12.6717 36.6173 12.718 36.6292C12.836 35.7443 13.5994 35.0728 14.5096 35.0882C14.9697 35.0985 15.3835 35.2783 15.6907 35.5705C15.9972 35.8563 16.1995 36.2511 16.2434 36.6902C17.0697 36.5183 17.8743 36.2095 18.6186 35.7609C18.0801 35.053 18.1431 34.0402 18.7972 33.4047C19.4552 32.772 20.4704 32.7487 21.1585 33.3152C21.6328 32.5875 21.9718 31.7921 22.1737 30.9737C21.2919 30.8549 20.6208 30.0947 20.6395 29.1845C20.6549 28.2746 21.3561 27.5331 22.2414 27.4507C22.0696 26.6244 21.7603 25.8167 21.3117 25.0723C20.6818 25.5605 19.7965 25.5601 19.163 25.0775C19.0918 25.0284 19.0213 24.9662 18.9563 24.8969C18.3201 24.2365 18.2967 23.221 18.8669 22.5356C18.423 22.2458 17.955 22.0047 17.4696 21.8138C17.236 21.7263 17.0004 21.6459 16.7605 21.5786C16.6805 21.5561 16.6006 21.5339 16.521 21.5145C16.4058 22.399 15.6428 23.0705 14.7322 23.0519C14.5663 23.0495 14.4059 23.0238 14.2558 22.9806C13.5741 22.7763 13.0684 22.1777 12.9988 21.4531C12.1725 21.625 11.3679 21.9338 10.6236 22.3824C11.162 23.0903 11.0991 24.1031 10.445 24.7386C9.78696 25.3713 8.77179 25.3946 8.08367 24.828C7.60973 25.5558 7.27042 26.3512 7.06533 27.1704C7.94826 27.2848 8.61698 28.0486 8.60154 28.9584ZM12.0022 26.3579C12.4195 25.9545 12.9057 25.6674 13.4232 25.4964C14.0915 25.2731 14.8098 25.2422 15.4915 25.4053C15.7327 25.4596 15.9718 25.5427 16.1991 25.6504C16.6144 25.8397 17.0008 26.1097 17.3362 26.4581C17.7551 26.892 18.0489 27.4028 18.2167 27.9397C18.6321 29.2593 18.2995 30.7607 17.2352 31.7854C17.1081 31.9073 16.9731 32.0209 16.8326 32.1195C15.9536 32.7649 14.8628 32.9751 13.8449 32.7601C13.6014 32.7095 13.363 32.6327 13.1306 32.5321C12.6832 32.3416 12.2663 32.0605 11.908 31.6872C11.767 31.5407 11.6407 31.3855 11.5255 31.2223C10.4842 29.7313 10.6509 27.6605 12.0022 26.3579Z" fill="#0775EF"/>
<path d="M16.5234 21.5134L17.3961 20.75L17.1688 22.7495L16.5234 21.5134Z" fill="#0775EF"/>
<path d="M11.4933 21.6172L10.6211 22.3805L11.911 22.9847L12.2959 21.7546L11.4933 21.6172Z" fill="#0775EF"/>
<path d="M7.87264 29.9277L7 30.6907L7.69209 31.2474L8.47762 30.6056L7.87264 29.9277Z" fill="#0775EF"/>
<path d="M8.95467 24.0645L8.08203 24.8278L8.40867 25.6965L8.63554 24.7526L8.95467 24.0645Z" fill="#0775EF"/>
<path d="M13.591 35.8652L12.7183 36.6285L12.1953 36.0077L12.7013 35.373L13.591 35.8652Z" fill="#0775EF"/>
<path d="M23.1127 26.6869L22.24 27.4502L21.3516 26.7201L21.8275 26.0625L23.1127 26.6869Z" fill="#0775EF"/>
<path d="M19.4913 34.9968L18.6187 35.7602L17.3398 35.5467L18.2394 34.7988L19.4913 34.9968Z" fill="#0775EF"/>
<path d="M22.0314 32.5503L21.1587 33.3137L20.9453 31.8574L21.7273 32.0162L22.0314 32.5503Z" fill="#0775EF"/>
<path d="M9.47654 28.1947C9.4611 29.1046 8.75991 29.8462 7.875 29.9285C8.04723 30.758 8.35606 31.5625 8.80544 32.3101C9.51218 31.7653 10.5281 31.8246 11.164 32.4851C11.3311 32.6561 11.455 32.856 11.5393 33.0659C11.769 33.6538 11.6708 34.3412 11.2539 34.8464C11.7258 35.154 12.2239 35.4035 12.739 35.5991C12.9726 35.6862 13.2106 35.7634 13.4501 35.8275C13.4972 35.8426 13.5467 35.8536 13.593 35.8655C13.711 34.9806 14.4744 34.3091 15.3846 34.3246C15.8447 34.3348 16.2585 34.5146 16.5657 34.8068C16.8722 35.0927 17.0745 35.4874 17.1184 35.9265C17.9447 35.7547 18.7493 35.4458 19.4936 34.9972C18.9551 34.2893 19.0181 33.2765 19.6722 32.6411C20.3302 32.0084 21.3454 31.985 22.0335 32.5516C22.5078 31.8238 22.8468 31.0284 23.0487 30.21C22.1669 30.0913 21.4958 29.3311 21.5145 28.4208C21.5299 27.511 22.2311 26.7694 23.1164 26.687C22.9446 25.8607 22.6353 25.053 22.1867 24.3087C21.5568 24.7968 20.6715 24.7965 20.038 24.3138C19.9668 24.2647 19.8963 24.2026 19.8313 24.1333C19.1951 23.4729 19.1717 22.4573 19.7419 21.7719C19.298 21.4821 18.83 21.241 18.3446 21.0501C18.111 20.963 17.8754 20.8823 17.6355 20.815C17.5555 20.7924 17.4756 20.7702 17.396 20.7508C17.2808 21.6353 16.5178 22.3068 15.6071 22.2882C15.4413 22.2859 15.2809 22.2601 15.1308 22.217C14.4491 22.0127 13.9434 21.414 13.8738 20.6895C13.0475 20.8613 12.2429 21.1701 11.4986 21.6187C12.037 22.3266 11.9741 23.3394 11.32 23.9749C10.662 24.6076 9.64679 24.631 8.95867 24.0644C8.48473 24.7921 8.14542 25.5875 7.94033 26.4067C8.82365 26.5207 9.49198 27.2845 9.47654 28.1947ZM12.8776 25.5939C13.2945 25.1904 13.7811 24.9034 14.2986 24.7323C14.9669 24.509 15.6851 24.4781 16.3669 24.6412C16.6081 24.6955 16.8472 24.7786 17.0745 24.8863C17.4898 25.0756 17.8762 25.3456 18.2116 25.694C18.6305 26.128 18.9243 26.6387 19.0921 27.1756C19.5075 28.4952 19.1749 29.9966 18.1106 31.0213C17.9835 31.1432 17.8485 31.2569 17.708 31.3555C16.829 32.0008 15.7382 32.2111 14.7203 31.9961C14.4768 31.9454 14.2384 31.8686 14.006 31.768C13.5586 31.5776 13.1417 31.2965 12.7834 30.9231C12.6424 30.7766 12.5161 30.6214 12.4009 30.4583C11.3596 28.9672 11.5263 26.8965 12.8776 25.5939Z" fill="#088CFC"/>
<path d="M14.3036 28.0226L14.5527 27.7363L13.8281 27.8797L14.3036 28.0226Z" fill="#40A87B"/>
<path d="M12.2647 28.3691L12.0156 28.6554L12.2338 29.0335L12.526 28.5873L12.2647 28.3691Z" fill="#40A87B"/>
<path d="M14.5499 30.0047L14.3009 30.2914L14 29.8135L14.3009 29.4766L14.5499 30.0047Z" fill="#40A87B"/>
<path d="M12.0117 29.0532V28.6568L14.3006 27.418V28.0237L12.7715 28.8552L14.3006 29.6867V30.2924L12.0117 29.0532Z" fill="#40A87B"/>
<path d="M15.0003 30.7872L14.625 30.6221L16.0365 26.3496L16.4118 26.5258L15.0003 30.7872Z" fill="#40A87B"/>
<path d="M19.0701 28.6572V29.0536L16.7812 30.2924V29.6867L18.3103 28.8552L16.7812 28.0237V27.418L19.0701 28.6572Z" fill="#40A87B"/>
<path d="M19.3262 28.7655L19.0772 29.0518H18.7969L18.8947 28.7168L19.3262 28.7655Z" fill="#40A87B"/>
<path d="M17.0338 27.1309L16.7852 27.4175L16.9095 27.8043L17.5073 27.764L17.0338 27.1309Z" fill="#40A87B"/>
<path d="M17.0338 29.4004L16.7852 29.6866L16.8861 29.9321L17.3125 29.6035L17.0338 29.4004Z" fill="#40A87B"/>
<path d="M16.0358 26.3492L16.2848 26.0625L15.249 30.5005L15 30.7868L16.0358 26.3492Z" fill="#40A87B"/>
<path d="M12.2617 28.7661V28.3697L14.5506 27.1309V27.7366L13.0215 28.5681L14.5506 29.3995V30.0053L12.2617 28.7661Z" fill="#6ADB6A"/>
<path d="M15.2503 30.5001L14.875 30.335L16.2865 26.0625L16.6618 26.2387L15.2503 30.5001Z" fill="#6ADB6A"/>
<path d="M19.3201 28.3701V28.7665L17.0312 30.0053V29.3996L18.5603 28.5681L17.0312 27.7366V27.1309L19.3201 28.3701Z" fill="#6ADB6A"/>
<path d="M50.781 20.4879C50.8067 22.0733 49.6283 23.4049 48.0921 23.5988C48.4403 25.0332 49.0241 26.4161 49.85 27.6909C51.0488 26.7011 52.8206 26.7461 53.9668 27.8591C54.2679 28.1473 54.495 28.489 54.6535 28.8489C55.0874 29.8591 54.9556 31.0621 54.2593 31.9652C55.0991 32.473 55.9808 32.879 56.8881 33.1896C57.2995 33.3278 57.7194 33.4489 58.1393 33.5463C58.2218 33.5699 58.3086 33.586 58.39 33.6042C58.5443 32.0573 59.8341 30.8436 61.4195 30.8179C62.2208 30.8093 62.9524 31.0985 63.5041 31.5892C64.0537 32.0691 64.4297 32.745 64.5315 33.5067C65.9605 33.1596 67.3435 32.5758 68.6129 31.7509C67.6338 30.5501 67.6852 28.7825 68.7875 27.6384C69.8963 26.4986 71.6628 26.399 72.8936 27.346C73.6767 26.0519 74.222 24.6464 74.5262 23.2099C72.9847 23.0546 71.772 21.7701 71.7517 20.1836C71.7259 18.5982 72.9043 17.2666 74.4405 17.0727C74.0934 15.6437 73.5085 14.2553 72.6836 12.9859C71.6156 13.8718 70.0741 13.9233 68.9429 13.1188C68.8154 13.0373 68.69 12.9334 68.5722 12.8167C67.426 11.7036 67.3264 9.93716 68.2798 8.71058C67.4903 8.23173 66.6611 7.83858 65.8052 7.53435C65.3938 7.39616 64.9782 7.26868 64.5572 7.16584C64.4168 7.13156 64.2765 7.09728 64.1362 7.06836C63.9873 8.61417 62.6964 9.82789 61.111 9.84824C60.8217 9.8536 60.5422 9.81825 60.2776 9.75183C59.0788 9.43581 58.164 8.42241 58.0001 7.16477C56.571 7.51185 55.1881 8.09568 53.9186 8.92054C54.8967 10.1214 54.8463 11.889 53.744 13.0331C52.6353 14.1729 50.8688 14.2725 49.6379 13.3255C48.8549 14.6196 48.3096 16.025 48 17.4627C49.5469 17.6116 50.7552 18.9024 50.781 20.4879ZM56.5518 15.7626C57.2545 15.0363 58.0847 14.5082 58.976 14.1804C60.1265 13.7529 61.3756 13.6576 62.5711 13.9018C62.9942 13.9822 63.4152 14.1139 63.8169 14.2875C64.5507 14.5928 65.2396 15.0406 65.8437 15.6276C66.5979 16.3582 67.1399 17.2313 67.4624 18.1568C68.2615 20.43 67.7698 23.0642 65.9755 24.91C65.7613 25.1296 65.5331 25.3352 65.2942 25.5152C63.8009 26.6893 61.9144 27.1189 60.1297 26.8039C59.7023 26.73 59.2834 26.61 58.8731 26.4483C58.0836 26.143 57.3413 25.677 56.6953 25.0481C56.4414 24.8018 56.2122 24.5382 56.0022 24.2608C54.104 21.7241 54.2743 18.1086 56.5518 15.7626Z" fill="#0775EF"/>
<path d="M64.1367 7.06922L65.6118 5.68945L65.3312 9.18386L64.1367 7.06922Z" fill="#0775EF"/>
<path d="M55.397 7.54102L53.9219 8.92078L56.2026 9.89776L56.8014 7.73384L55.397 7.54102Z" fill="#0775EF"/>
<path d="M49.5689 22.2207L48.0938 23.5994L49.331 24.5292L50.6615 23.3659L49.5689 22.2207Z" fill="#0775EF"/>
<path d="M51.1147 11.9473L49.6406 13.327L50.2598 14.8203L50.5994 13.1642L51.1147 11.9473Z" fill="#0775EF"/>
<path d="M59.8674 32.2255L58.3923 33.6053L57.4453 32.5544L58.2895 31.4199L59.8674 32.2255Z" fill="#0775EF"/>
<path d="M75.9153 15.694L74.4402 17.0737L72.8516 15.8536L73.6422 14.6816L75.9153 15.694Z" fill="#0775EF"/>
<path d="M70.089 30.3737L68.6139 31.7534L66.375 31.4556L67.8983 30.1016L70.089 30.3737Z" fill="#0775EF"/>
<path d="M74.3689 25.9672L72.8938 27.347L72.4375 24.8242L73.8087 25.0545L74.3689 25.9672Z" fill="#0775EF"/>
<path d="M52.2575 19.109C52.2832 20.6944 51.1049 22.026 49.5687 22.2198C49.9168 23.6542 50.5007 25.0372 51.3266 26.312C52.5253 25.3222 54.2972 25.3672 55.4434 26.4802C55.7444 26.7684 55.9715 27.1101 56.1301 27.47C56.5639 28.4802 56.4322 29.6832 55.7358 30.5863C56.5757 31.094 57.4573 31.5 58.3647 31.8107C58.776 31.9489 59.196 32.07 59.6159 32.1674C59.6984 32.191 59.7852 32.2071 59.8666 32.2253C60.0208 30.6784 61.3106 29.4647 62.8961 29.439C63.6974 29.4304 64.4279 29.7196 64.9807 30.2103C65.5303 30.6902 65.9063 31.3661 66.008 32.1278C67.4371 31.7807 68.82 31.1969 70.0895 30.372C69.1103 29.1712 69.1618 27.4036 70.2641 26.2595C71.3728 25.1197 73.1393 25.0201 74.3702 25.9671C75.1532 24.673 75.6985 23.2675 76.0027 21.831C74.4612 21.6757 73.2486 20.3912 73.2282 18.8047C73.2025 17.2193 74.3809 15.8877 75.9171 15.6938C75.57 14.2648 74.9851 12.8764 74.1602 11.607C73.0922 12.4929 71.5507 12.5444 70.4194 11.7398C70.2919 11.6584 70.1666 11.5545 70.0488 11.4378C68.9025 10.3247 68.8029 8.55825 69.7563 7.33167C68.9668 6.85283 68.1377 6.45968 67.2817 6.15544C66.8704 6.01725 66.4547 5.88977 66.0337 5.78693C65.8934 5.75265 65.7531 5.71838 65.6127 5.68945C65.4638 7.23526 64.173 8.44898 62.5875 8.46934C62.2983 8.47469 62.0187 8.43934 61.7541 8.37292C60.5554 8.05691 59.6406 7.04351 59.4767 5.78587C58.0476 6.13295 56.6646 6.71678 55.3952 7.54163C56.3732 8.7425 56.3229 10.5101 55.2206 11.6541C54.1118 12.794 52.3454 12.8936 51.1145 11.9466C50.3314 13.2407 49.7862 14.6461 49.4766 16.0837C51.0234 16.2327 52.2318 17.5235 52.2575 19.109ZM58.0283 14.3848C58.7311 13.6584 59.5613 13.1303 60.4525 12.8025C61.6031 12.3751 62.8521 12.2798 64.0477 12.524C64.4708 12.6043 64.8918 12.7361 65.2935 12.9097C66.0273 13.215 66.7161 13.6627 67.3203 14.2498C68.0745 14.9804 68.6165 15.8534 68.9389 16.779C69.7381 19.0522 69.2464 21.6864 67.4521 23.5321C67.2378 23.7517 67.0096 23.9574 66.7707 24.1374C65.2774 25.3115 63.391 25.741 61.6063 25.4261C61.1789 25.3522 60.76 25.2322 60.3497 25.0704C59.5602 24.7651 58.8178 24.2991 58.1719 23.6703C57.918 23.4239 57.6887 23.1604 57.4788 22.8829C55.5805 20.3452 55.7509 16.7308 58.0283 14.3848Z" fill="#088CFC"/>
<path d="M60.8857 24.1772L61.3796 23.5194L60.8857 23.2773L60.3555 23.6908L60.8857 24.1772Z" fill="#40A87B"/>
<path d="M60.887 15.5072L61.3808 14.8494L60.8452 14.4316L60.3867 14.9694L60.887 15.5072Z" fill="#40A87B"/>
<path d="M58.082 19.0553L58.5759 18.3965L58.8062 18.9675L58.5759 19.2256H58.1656L58.082 19.0553Z" fill="#40A87B"/>
<path d="M59.6917 18.8496L60.0656 18.375L59.6917 18.4286L59.6328 18.7146L59.6917 18.8496Z" fill="#40A87B"/>
<path d="M60.8865 15.5071H60.4088C60.3027 15.5071 60.2159 15.5338 60.1484 15.5863C60.081 15.6399 60.0263 15.7106 59.9835 15.7984C59.9417 15.8873 59.9106 15.9859 59.8935 16.0962C59.8753 16.2066 59.8667 16.318 59.8667 16.4305V18.0352C59.8731 18.2837 59.8431 18.4926 59.7767 18.6619C59.7092 18.8322 59.6268 18.9736 59.5271 19.0872C59.4275 19.2007 59.3268 19.2853 59.224 19.3421C59.1211 19.3989 59.0386 19.4342 58.9744 19.4482V19.4803C59.0386 19.4878 59.1211 19.5157 59.224 19.5649C59.3268 19.6142 59.4275 19.6924 59.5271 19.7985C59.6268 19.9045 59.7092 20.0481 59.7767 20.2291C59.8442 20.4101 59.8742 20.6351 59.8667 20.904V22.498C59.8667 22.6041 59.8753 22.7123 59.8935 22.8215C59.9106 22.9308 59.9417 23.0304 59.9835 23.1193C60.0263 23.2082 60.081 23.2789 60.1484 23.3314C60.2159 23.385 60.3027 23.4107 60.4088 23.4107H60.8865V24.1756H60.0895C59.9546 24.1756 59.8217 24.1434 59.691 24.0802C59.5593 24.017 59.4414 23.9196 59.3354 23.7878C59.2293 23.6571 59.1425 23.4889 59.0751 23.2832C59.0076 23.0775 58.9744 22.8333 58.9744 22.5505V21.1268C58.9604 20.7369 58.8683 20.4326 58.698 20.213C58.5287 19.9934 58.322 19.8842 58.082 19.8842V19.055C58.3231 19.055 58.5287 18.9458 58.698 18.7262C58.8683 18.5065 58.9604 18.2023 58.9744 17.8124V16.1337C58.9744 15.9077 59.0076 15.7074 59.0751 15.5338C59.1425 15.3603 59.2293 15.2146 59.3354 15.0978C59.4414 14.9811 59.5603 14.8922 59.691 14.8322C59.8217 14.7722 59.9546 14.7422 60.0895 14.7422H60.8865V15.5071Z" fill="#40A87B"/>
<path d="M64.457 23.4118H64.9348C65.0409 23.4118 65.1276 23.385 65.1951 23.3325C65.2626 23.2789 65.3172 23.2082 65.3601 23.1204C65.4029 23.0315 65.4329 22.9329 65.4501 22.8226C65.4672 22.7133 65.4768 22.6008 65.4768 22.4884V20.8836C65.4693 20.6362 65.4993 20.4273 65.5668 20.257C65.6343 20.0866 65.7168 19.9452 65.8164 19.8317C65.9161 19.7181 66.0167 19.6335 66.1196 19.5767C66.2224 19.5199 66.306 19.4846 66.3692 19.4707V19.4385C66.306 19.431 66.2224 19.4032 66.1196 19.3539C66.0167 19.3046 65.9161 19.2264 65.8164 19.1204C65.7168 19.0143 65.6343 18.8708 65.5668 18.6897C65.4993 18.5087 65.4693 18.2848 65.4768 18.0148V16.4208C65.4768 16.3148 65.4672 16.2066 65.4501 16.0962C65.4318 15.987 65.4019 15.8873 65.3601 15.7984C65.3172 15.7095 65.2626 15.6388 65.1951 15.5863C65.1276 15.5328 65.0409 15.5071 64.9348 15.5071H64.457V14.7422H65.254C65.3879 14.7422 65.5208 14.7743 65.6525 14.8375C65.7832 14.9007 65.9021 14.9982 66.0082 15.13C66.1142 15.2607 66.201 15.4289 66.2685 15.6345C66.336 15.8402 66.3692 16.0845 66.3692 16.3673V17.7909C66.3692 18.1809 66.4581 18.4851 66.6349 18.7047C66.8116 18.9243 67.0205 19.0336 67.2615 19.0336V19.8617C67.0205 19.8617 66.8116 19.972 66.6349 20.1916C66.4581 20.4112 66.3692 20.7155 66.3692 21.1054V22.784C66.3692 23.0111 66.336 23.2104 66.2685 23.3839C66.201 23.5575 66.1142 23.7021 66.0082 23.8199C65.9021 23.9367 65.7832 24.0256 65.6525 24.0856C65.5208 24.1456 65.3879 24.1756 65.254 24.1756H64.457V23.4118Z" fill="#40A87B"/>
<path d="M67.2616 19.8618L67.7555 19.2041L66.4861 18.1328L65.8594 18.3706L67.2616 19.8618Z" fill="#40A87B"/>
<path d="M64.457 23.4117L64.9509 22.7539L65.4586 23.2767L64.9005 23.9505L64.457 23.4117Z" fill="#40A87B"/>
<path d="M64.457 14.7417L64.9509 14.084L65.4061 14.7075L64.9059 15.2184L64.457 14.7417Z" fill="#40A87B"/>
<path d="M58.9622 19.1367L58.7383 19.7538L59.4839 20.0483V19.2728L58.9622 19.1367Z" fill="#40A87B"/>
<path d="M59.3086 15.1307L59.796 14.4805L59.7703 14.8961L59.4136 15.5314L59.3086 15.1307Z" fill="#40A87B"/>
<path d="M66.054 23.7695L66.5039 23.1621L65.7969 23.2392L66.054 23.7695Z" fill="#40A87B"/>
<path d="M61.3826 14.8489H60.9049C60.7988 14.8489 60.7121 14.8756 60.6446 14.9281C60.5771 14.9817 60.5224 15.0524 60.4796 15.1402C60.4367 15.2291 60.4067 15.3277 60.3896 15.438C60.3714 15.5484 60.3628 15.6598 60.3628 15.7723V17.377C60.3692 17.6255 60.3393 17.8344 60.2728 18.0037C60.2054 18.174 60.1229 18.3154 60.0232 18.429C59.9236 18.5425 59.8229 18.6271 59.7201 18.6839C59.6172 18.7407 59.5348 18.776 59.4705 18.79V18.8221C59.5348 18.8296 59.6172 18.8575 59.7201 18.9067C59.8229 18.956 59.9236 19.0342 60.0232 19.1403C60.1229 19.2463 60.2054 19.3899 60.2728 19.5709C60.3403 19.7519 60.3703 19.9769 60.3628 20.2458V21.8398C60.3628 21.9459 60.3714 22.0541 60.3896 22.1633C60.4067 22.2726 60.4378 22.3722 60.4796 22.4611C60.5224 22.55 60.5771 22.6207 60.6446 22.6732C60.7121 22.7268 60.7988 22.7525 60.9049 22.7525H61.3826V23.5174H60.5856C60.4507 23.5174 60.3178 23.4852 60.1871 23.422C60.0554 23.3578 59.9375 23.2613 59.8315 23.1296C59.7254 22.9989 59.6387 22.8307 59.5712 22.625C59.5037 22.4193 59.4705 22.1751 59.4705 21.8923V20.4686C59.4566 20.0787 59.3644 19.7744 59.1941 19.5548C59.0248 19.3352 58.8181 19.226 58.5781 19.226V18.3968C58.8192 18.3968 59.0248 18.2876 59.1941 18.0679C59.3644 17.8483 59.4566 17.5441 59.4705 17.1542V15.4755C59.4705 15.2495 59.5037 15.0492 59.5712 14.8756C59.6387 14.7021 59.7254 14.5564 59.8315 14.4396C59.9375 14.3229 60.0564 14.234 60.1871 14.174C60.3178 14.114 60.4507 14.084 60.5856 14.084H61.3826V14.8489Z" fill="#6ADB6A"/>
<path d="M64.9531 22.7536H65.4309C65.5369 22.7536 65.6237 22.7268 65.6912 22.6743C65.7587 22.6207 65.8133 22.55 65.8562 22.4622C65.899 22.3733 65.929 22.2747 65.9462 22.1644C65.9633 22.0551 65.973 21.9426 65.973 21.8302V20.2254C65.9655 19.978 65.9955 19.7691 66.0629 19.5988C66.1304 19.4284 66.2129 19.287 66.3125 19.1735C66.4122 19.0599 66.5129 18.9753 66.6157 18.9185C66.7185 18.8617 66.8021 18.8264 66.8653 18.8125V18.7803C66.8021 18.7728 66.7185 18.745 66.6157 18.6957C66.5129 18.6464 66.4122 18.5682 66.3125 18.4622C66.2129 18.3561 66.1304 18.2126 66.0629 18.0315C65.9955 17.8505 65.9655 17.6266 65.973 17.3566V15.7626C65.973 15.6566 65.9633 15.5484 65.9462 15.438C65.928 15.3288 65.898 15.2291 65.8562 15.1402C65.8133 15.0513 65.7587 14.9806 65.6912 14.9281C65.6237 14.8746 65.5369 14.8489 65.4309 14.8489H64.9531V14.084H65.7501C65.884 14.084 66.0169 14.1161 66.1486 14.1793C66.2793 14.2436 66.3982 14.34 66.5043 14.4718C66.6103 14.6025 66.6971 14.7707 66.7646 14.9763C66.8321 15.182 66.8653 15.4263 66.8653 15.7091V17.1328C66.8653 17.5227 66.9542 17.8269 67.131 18.0465C67.3077 18.2661 67.5166 18.3754 67.7576 18.3754V19.2035C67.5166 19.2035 67.3077 19.3138 67.131 19.5334C66.9542 19.753 66.8653 20.0573 66.8653 20.4472V22.1258C66.8653 22.3529 66.8321 22.5522 66.7646 22.7257C66.6971 22.8993 66.6103 23.0439 66.5043 23.1617C66.3982 23.2785 66.2793 23.3674 66.1486 23.4274C66.0169 23.4874 65.884 23.5174 65.7501 23.5174H64.9531V22.7536Z" fill="#6ADB6A"/>
</svg>
