<svg width="80" height="81" viewBox="0 0 80 81" fill="none" xmlns="http://www.w3.org/2000/svg">
<g clip-path="url(#clip0_1148_7835)">
<path d="M23.5899 8.74636C21.98 8.98774 20.6536 9.98199 19.8883 11.5337C19.4632 12.3958 19.2081 13.2981 19.0153 14.5797C18.919 15.2636 18.9133 18.1314 19.0153 19.0625C19.3441 22.1257 20.1094 25.4992 21.2941 29.1659C21.5095 29.8441 21.6909 30.4245 21.6909 30.4533C21.6909 30.4877 21.5945 30.5337 21.4812 30.551C20.7499 30.6831 19.1627 31.0395 18.0914 31.3096C14.6959 32.1659 12.1336 33.0739 9.81519 34.2349C8.00124 35.1429 6.73147 35.9992 5.73379 36.9935C2.55938 40.1487 3.18292 43.8498 7.37202 46.7291C10.3707 48.7866 15.1493 50.5452 20.8973 51.7061C21.3168 51.7923 21.6682 51.8671 21.6796 51.8785C21.6909 51.89 21.4925 52.5222 21.2431 53.2923C19.9563 57.2579 19.2081 60.6889 18.9643 63.7694C18.8679 65.028 18.9246 67.2579 19.0777 68.1429C19.6049 71.1659 20.8236 72.8383 22.9664 73.4935C23.4198 73.6314 23.5729 73.6487 24.3552 73.6544C25.0864 73.6602 25.3358 73.6372 25.829 73.528C28.4649 72.9245 31.2935 71.2234 34.672 68.2004C35.7377 67.2464 37.9825 64.9648 39.0879 63.7004C39.564 63.1602 39.9778 62.7119 40.0005 62.7119C40.0232 62.7119 40.437 63.1602 40.9132 63.7061C41.9959 64.936 44.252 67.2406 45.2723 68.1487C48.4411 70.982 51.1677 72.7061 53.5315 73.3671C54.3818 73.6027 54.7956 73.6602 55.6175 73.6602C56.5868 73.6602 57.029 73.5625 57.8283 73.1717C59.5288 72.3383 60.4982 70.7291 60.9573 67.9705C61.0424 67.4475 61.0594 67.0222 61.0594 65.4992C61.0594 63.5912 61.031 63.2119 60.7703 61.4475C60.4018 59.0165 59.6819 56.0969 58.7069 53.1199C58.4858 52.4475 58.3158 51.8843 58.3214 51.8785C58.3328 51.8671 58.6842 51.7923 59.1037 51.7119C64.7156 50.5912 69.6416 48.7808 72.629 46.7291C76.8181 43.8498 77.4416 40.1429 74.2672 36.9935C71.6937 34.4418 66.3879 32.1946 59.5288 30.7579C58.877 30.6199 58.3328 30.505 58.3214 30.4992C58.3158 30.4935 58.4915 29.936 58.7126 29.2579C59.8973 25.6027 60.6115 22.4877 60.9857 19.3498C61.099 18.3671 61.082 15.1429 60.9573 14.4073C60.6286 12.4992 60.0957 11.2004 59.2284 10.2406C58.8713 9.84406 58.1457 9.30383 57.7149 9.11993C54.7389 7.82682 50.6178 9.49349 45.414 14.0912C44.422 14.9705 41.9222 17.5107 40.8848 18.7004C40.42 19.2349 40.0232 19.6659 40.0005 19.6659C39.9835 19.6659 39.581 19.2349 39.1219 18.7004C38.0788 17.5107 35.5733 14.9705 34.587 14.0912C31.5259 11.3728 28.6916 9.60843 26.3675 8.97625C25.4322 8.72337 24.3495 8.63142 23.5899 8.74636ZM25.2621 10.6716C28.5046 11.2061 33.2492 14.8268 38.1525 20.5107L38.7591 21.2119L37.9938 22.1831C36.554 24.0222 34.6777 26.6314 33.4589 28.4877L33.0848 29.0682L32.0758 29.1429C29.814 29.3038 26.7586 29.6544 24.5649 30.005C23.6636 30.1429 23.5502 30.1544 23.5105 30.0739C23.4822 30.0222 23.2668 29.3843 23.0344 28.6602C20.2511 20.0452 19.9847 13.5222 22.3201 11.3613C23.057 10.6831 23.9867 10.4648 25.2621 10.6716ZM56.3374 10.6659C56.9326 10.7981 57.3294 11.0165 57.7772 11.4705C58.2534 11.959 58.5198 12.4188 58.7863 13.2291C59.8066 16.3498 59.1377 21.8556 56.9213 28.6889L56.4395 30.1602L55.8046 30.0567C54.8976 29.9073 52.9022 29.6372 51.7062 29.4992C50.5044 29.3556 47.5227 29.0912 47.177 29.0912H46.9389L46.2813 28.0969C45.0342 26.2176 43.4187 23.982 42.0015 22.1774L41.2419 21.2119L41.8768 20.482C44.1159 17.8958 46.5648 15.4935 48.5034 13.9705C51.7288 11.436 54.4895 10.2694 56.3374 10.6659ZM40.5504 23.413C41.5707 24.7119 43.8665 27.8556 44.439 28.7464L44.5297 28.89H40.0005C37.0018 28.89 35.4883 28.8728 35.511 28.8326C35.5847 28.7119 36.639 27.1946 37.0755 26.5912C38.1922 25.028 39.9268 22.7694 40.0005 22.7694C40.0232 22.7694 40.2726 23.0625 40.5504 23.413ZM45.3857 30.8613L45.8675 30.9015L46.5364 31.9648C47.4717 33.4475 48.8435 35.7866 49.6655 37.2808C50.5101 38.8211 51.6948 41.1084 51.6948 41.1889C51.6948 41.2694 50.4988 43.5739 49.6655 45.0969C48.8379 46.6027 47.4661 48.9303 46.5364 50.413L45.8675 51.4762L45.1589 51.528C44.235 51.5969 35.7604 51.5969 34.8421 51.528L34.1392 51.4762L33.612 50.6429C31.9964 48.0912 30.1655 44.8843 28.7597 42.1372L28.2722 41.1946L28.6746 40.413C30.4149 37.0567 32.1268 34.0452 33.7367 31.5395L34.1618 30.8728L34.4566 30.8671C34.621 30.8613 35.2049 30.8383 35.7491 30.8153C36.8828 30.7636 44.6601 30.8038 45.3857 30.8613ZM31.7697 31.0912C31.764 31.1142 31.4239 31.6716 31.0271 32.3268C29.8594 34.2579 28.669 36.3728 27.5523 38.4992C27.3992 38.7923 27.2575 39.0337 27.2405 39.0337C27.1214 39.0337 24.1114 32.0222 24.1964 31.936C24.2701 31.8613 28.1021 31.3728 30.2505 31.1659C31.5259 31.0395 31.798 31.028 31.7697 31.0912ZM49.6371 31.1602C52.0916 31.39 55.6572 31.8383 55.7536 31.936C55.8329 32.0222 54.1323 36.1142 53.129 38.2579L52.7492 39.0625L52.4318 38.459C51.3547 36.4015 49.8752 33.7866 48.7812 31.9992C48.4694 31.4992 48.22 31.0797 48.22 31.0682C48.22 31.0337 48.356 31.0395 49.6371 31.1602ZM22.768 33.3268C23.6012 35.505 24.5139 37.6314 25.6306 40.0165L26.1804 41.1774L25.6533 42.2751C24.6159 44.4533 23.5899 46.8268 22.7963 48.89C22.5525 49.5222 22.3371 50.0567 22.3201 50.0797C22.3031 50.1027 21.8043 50.0165 21.2091 49.8958C15.5461 48.7406 10.9036 47.0107 8.19397 45.0337C7.60443 44.6027 6.75414 43.7866 6.40836 43.3268C5.12725 41.5969 5.36533 39.9705 7.16228 38.2291C9.254 36.1946 13.3127 34.3785 18.7716 33.0222C19.7182 32.7866 22.1217 32.2636 22.2918 32.2579C22.3258 32.2521 22.5355 32.7349 22.768 33.3268ZM59.2738 32.5797C65.5602 33.9015 70.4976 35.9533 72.8387 38.2291C74.613 39.9533 74.8624 41.5107 73.6437 43.2579C73.3319 43.7061 72.4022 44.6027 71.807 45.0337C69.0634 47.0222 64.4435 48.7464 58.7919 49.9015C58.2024 50.0222 57.6979 50.1027 57.6809 50.0797C57.6639 50.0567 57.4485 49.5222 57.2047 48.89C56.4054 46.8153 55.3908 44.4705 54.3477 42.2751L53.8206 41.1774L54.1323 40.551C55.1697 38.4533 56.7512 34.7579 57.6242 32.413C57.6922 32.2291 57.5222 32.2119 59.2738 32.5797ZM27.3822 43.5567C27.83 44.5107 29.8537 48.1142 31.0384 50.0625C31.4466 50.7406 31.781 51.3038 31.781 51.3153C31.781 51.436 24.3835 50.5739 24.2531 50.4418C24.2191 50.4073 24.5025 49.6429 25.1034 48.1831C25.795 46.4877 27.1895 43.3498 27.2518 43.3441C27.2688 43.3441 27.3255 43.4418 27.3822 43.5567ZM53.1347 44.1314C54.1493 46.3038 55.8329 50.3556 55.7479 50.4418C55.6685 50.5222 52.5961 50.9245 50.5441 51.1257C48.5884 51.3153 48.22 51.3498 48.22 51.3153C48.22 51.2981 48.4694 50.8785 48.7755 50.3728C49.9149 48.5222 51.4568 45.7981 52.3921 43.9935C52.5735 43.6372 52.7322 43.3441 52.7435 43.3441C52.7549 43.3441 52.9306 43.7004 53.1347 44.1314ZM56.9156 53.6889C59.132 60.4992 59.7953 65.9992 58.7863 69.1429C58.5255 69.9533 58.2591 70.4188 57.7772 70.9073C57.0006 71.6889 56.105 71.9303 54.7389 71.7061C51.5021 71.1717 46.8482 67.6257 41.8768 61.8958L41.2419 61.1659L42.0072 60.1946C43.4187 58.3958 45.3687 55.6831 46.5421 53.8843L46.9219 53.3038L47.5284 53.2636C49.0986 53.1602 51.5191 52.913 53.4634 52.6544C54.206 52.5567 56.3828 52.2234 56.4225 52.2004C56.4281 52.1946 56.6492 52.8671 56.9156 53.6889ZM24.7293 52.3958C26.753 52.7176 29.9954 53.0912 32.0758 53.2349L33.0791 53.3096L33.4589 53.8843C34.621 55.6659 36.6447 58.4762 38.0675 60.2866L38.7591 61.1659L38.1242 61.8958C33.1188 67.6544 28.5046 71.1717 25.2395 71.7061C23.879 71.9303 22.9947 71.6889 22.2011 70.8785C21.7193 70.3843 21.4132 69.8268 21.1581 68.9762C20.3361 66.2061 20.7783 61.5395 22.4052 55.8728C22.6432 55.051 23.4879 52.3958 23.5445 52.2923C23.5842 52.2291 23.7656 52.2406 24.7293 52.3958ZM44.49 53.5452C44.439 53.6429 43.6964 54.7061 43.1579 55.4705C42.0809 56.9877 40.0799 59.6084 40.0005 59.6084C39.8758 59.6084 36.3216 54.8211 35.562 53.6314L35.4713 53.4877H40.0005C42.9992 53.4877 44.5127 53.505 44.49 53.5452Z" fill="#31CEF9"/>
<path d="M39.2888 37.2171C37.8547 37.5044 36.67 38.5447 36.2165 39.9182C36.0804 40.3263 36.0634 40.4757 36.0634 41.1596C36.0577 41.8665 36.0747 41.9815 36.2221 42.447C36.6359 43.7286 37.73 44.7631 39.0338 45.1079C39.5269 45.2401 40.4679 45.2401 40.9611 45.1079C41.9077 44.855 42.8091 44.1998 43.3532 43.3493C44.1015 42.1884 44.1695 40.6194 43.529 39.3205C43.2115 38.6769 42.4576 37.924 41.8114 37.6021C41.545 37.4757 41.1765 37.3263 40.9894 37.2803C40.4963 37.1539 39.7537 37.1251 39.2888 37.2171Z" fill="#31CEF9"/>
</g>
<defs>
<clipPath id="clip0_1148_7835">
<rect width="72.5581" height="65" fill="white" transform="translate(3.72266 8.68945)"/>
</clipPath>
</defs>
</svg>
