<svg width="80" height="81" viewBox="0 0 80 81" fill="none" xmlns="http://www.w3.org/2000/svg">
<path d="M65.2427 55.0371C57.4812 65.3783 40.9016 61.8876 30.2719 62.3897C30.2719 62.3897 28.3901 62.4944 26.4948 62.8064C26.4948 62.8064 27.2115 62.5007 28.1255 62.1855C35.5912 59.6038 39.1193 59.085 43.6557 56.7549C52.1792 52.3887 60.662 42.8782 62.388 32.9986C59.1437 42.5006 49.2765 50.6787 40.2921 53.9997C34.1427 56.2689 23.0219 58.4773 23.0203 58.4782C23.0255 58.4861 22.5771 58.2454 22.5708 58.2402C15.0078 54.5606 14.7896 38.1803 28.5255 32.9002C34.5479 30.5835 40.3084 31.8559 46.8188 30.3063C53.7625 28.6554 61.8047 23.4506 65.0735 16.6459C68.738 27.5153 73.1401 44.5205 65.2427 55.0371ZM65.3776 13.2778C64.4536 15.473 63.326 17.4511 62.026 19.2205C56.3041 13.3481 48.3177 9.68926 39.4901 9.68926C22.1255 9.68926 8 23.8163 8 41.1778C8 50.2793 11.8849 58.4877 18.0786 64.2413L18.7682 64.8522C17.6167 63.9131 17.4396 62.222 18.3729 61.0694C19.312 59.9163 21.0047 59.7376 22.1568 60.6715C23.312 61.6074 23.488 63.3027 22.5527 64.4574C21.6208 65.6126 19.925 65.7871 18.7714 64.8548L19.2406 65.2704C24.7193 69.8835 31.7817 72.6699 39.4901 72.6699C56.088 72.6699 69.7172 59.7533 70.8839 43.4502C71.7479 35.4678 69.3901 25.3319 65.3776 13.2778Z" fill="#5FB832"/>
</svg>
